<svg width="20" height="30" viewBox="0 0 20 30" fill="none" xmlns="http://www.w3.org/2000/svg">
<mask id="path-1-inside-1_15815_30194" fill="white">
<path fill-rule="evenodd" clip-rule="evenodd" d="M19.0233 1.53233C19.6489 2.15678 20 3.00455 20 3.889V26.1112C20 26.9957 19.6489 27.8434 19.0233 28.4679C18.3989 29.0934 17.5511 29.4446 16.6667 29.4446H3.33333C2.44889 29.4446 1.60111 29.0934 0.976667 28.4679C0.351111 27.8434 0 26.9957 0 26.1112V3.889C0 3.00455 0.351111 2.15678 0.976667 1.53233C1.60111 0.906775 2.44889 0.555664 3.33333 0.555664H16.6667C17.5511 0.555664 18.3989 0.906775 19.0233 1.53233ZM17.7778 26.1112V11.6668H2.22222V26.1112C2.22222 26.4057 2.33889 26.689 2.54778 26.8968C2.75556 27.1057 3.03889 27.2223 3.33333 27.2223H16.6667C16.9611 27.2223 17.2444 27.1057 17.4522 26.8968C17.6611 26.689 17.7778 26.4057 17.7778 26.1112ZM2.22222 9.44455H17.7778V3.889C17.7778 3.59455 17.6611 3.31122 17.4522 3.10344C17.2444 2.89455 16.9611 2.77789 16.6667 2.77789H3.33333C3.03889 2.77789 2.75556 2.89455 2.54778 3.10344C2.33889 3.31122 2.22222 3.59455 2.22222 3.889V9.44455ZM13.3333 23.8889V19.4445C13.3333 18.8311 13.8311 18.3334 14.4445 18.3334C15.0578 18.3334 15.5556 18.8311 15.5556 19.4445V23.8889C15.5556 24.5022 15.0578 25 14.4445 25C13.8311 25 13.3333 24.5022 13.3333 23.8889ZM10 16.1111H5.55557C4.94224 16.1111 4.44446 15.6134 4.44446 15C4.44446 14.3867 4.94224 13.8889 5.55557 13.8889H10C10.6133 13.8889 11.1111 14.3867 11.1111 15C11.1111 15.6134 10.6133 16.1111 10 16.1111ZM10 20.5556H5.55557C4.94224 20.5556 4.44446 20.0578 4.44446 19.4445C4.44446 18.8311 4.94224 18.3334 5.55557 18.3334H10C10.6133 18.3334 11.1111 18.8311 11.1111 19.4445C11.1111 20.0578 10.6133 20.5556 10 20.5556ZM10 25H5.55557C4.94224 25 4.44446 24.5022 4.44446 23.8889C4.44446 23.2756 4.94224 22.7778 5.55557 22.7778H10C10.6133 22.7778 11.1111 23.2756 11.1111 23.8889C11.1111 24.5022 10.6133 25 10 25Z"/>
</mask>
<path fill-rule="evenodd" clip-rule="evenodd" d="M19.0233 1.53233C19.6489 2.15678 20 3.00455 20 3.889V26.1112C20 26.9957 19.6489 27.8434 19.0233 28.4679C18.3989 29.0934 17.5511 29.4446 16.6667 29.4446H3.33333C2.44889 29.4446 1.60111 29.0934 0.976667 28.4679C0.351111 27.8434 0 26.9957 0 26.1112V3.889C0 3.00455 0.351111 2.15678 0.976667 1.53233C1.60111 0.906775 2.44889 0.555664 3.33333 0.555664H16.6667C17.5511 0.555664 18.3989 0.906775 19.0233 1.53233ZM17.7778 26.1112V11.6668H2.22222V26.1112C2.22222 26.4057 2.33889 26.689 2.54778 26.8968C2.75556 27.1057 3.03889 27.2223 3.33333 27.2223H16.6667C16.9611 27.2223 17.2444 27.1057 17.4522 26.8968C17.6611 26.689 17.7778 26.4057 17.7778 26.1112ZM2.22222 9.44455H17.7778V3.889C17.7778 3.59455 17.6611 3.31122 17.4522 3.10344C17.2444 2.89455 16.9611 2.77789 16.6667 2.77789H3.33333C3.03889 2.77789 2.75556 2.89455 2.54778 3.10344C2.33889 3.31122 2.22222 3.59455 2.22222 3.889V9.44455ZM13.3333 23.8889V19.4445C13.3333 18.8311 13.8311 18.3334 14.4445 18.3334C15.0578 18.3334 15.5556 18.8311 15.5556 19.4445V23.8889C15.5556 24.5022 15.0578 25 14.4445 25C13.8311 25 13.3333 24.5022 13.3333 23.8889ZM10 16.1111H5.55557C4.94224 16.1111 4.44446 15.6134 4.44446 15C4.44446 14.3867 4.94224 13.8889 5.55557 13.8889H10C10.6133 13.8889 11.1111 14.3867 11.1111 15C11.1111 15.6134 10.6133 16.1111 10 16.1111ZM10 20.5556H5.55557C4.94224 20.5556 4.44446 20.0578 4.44446 19.4445C4.44446 18.8311 4.94224 18.3334 5.55557 18.3334H10C10.6133 18.3334 11.1111 18.8311 11.1111 19.4445C11.1111 20.0578 10.6133 20.5556 10 20.5556ZM10 25H5.55557C4.94224 25 4.44446 24.5022 4.44446 23.8889C4.44446 23.2756 4.94224 22.7778 5.55557 22.7778H10C10.6133 22.7778 11.1111 23.2756 11.1111 23.8889C11.1111 24.5022 10.6133 25 10 25Z" fill="url(#paint0_linear_15815_30194)"/>
<path d="M19.0233 1.53233L18.811 1.74427L18.8114 1.74465L19.0233 1.53233ZM19.0233 28.4679L18.8114 28.2556L18.811 28.2559L19.0233 28.4679ZM0.976667 28.4679L1.18899 28.2559L1.18861 28.2556L0.976667 28.4679ZM0.976667 1.53233L1.18861 1.74465L1.18899 1.74427L0.976667 1.53233ZM17.7778 11.6668H18.0778V11.3668H17.7778V11.6668ZM2.22222 11.6668V11.3668H1.92222V11.6668H2.22222ZM2.54778 26.8968L2.76048 26.6852L2.75934 26.6841L2.54778 26.8968ZM17.4522 26.8968L17.2407 26.6841L17.2395 26.6852L17.4522 26.8968ZM17.7778 9.44455V9.74455H18.0778V9.44455H17.7778ZM2.22222 9.44455H1.92222V9.74455H2.22222V9.44455ZM17.4522 3.10344L17.2395 3.31501L17.2407 3.31614L17.4522 3.10344ZM2.54778 3.10344L2.75935 3.31614L2.76048 3.31501L2.54778 3.10344ZM20.3 3.889C20.3 2.92504 19.9173 2.00083 19.2353 1.32001L18.8114 1.74465C19.3805 2.31272 19.7 3.08407 19.7 3.889H20.3ZM20.3 26.1112V3.889H19.7V26.1112H20.3ZM19.2353 28.6802C19.9173 27.9994 20.3 27.0752 20.3 26.1112H19.7C19.7 26.9161 19.3805 27.6875 18.8114 28.2556L19.2353 28.6802ZM16.6667 29.7446C17.6306 29.7446 18.5548 29.3619 19.2357 28.6798L18.811 28.2559C18.2429 28.825 17.4716 29.1446 16.6667 29.1446V29.7446ZM3.33333 29.7446H16.6667V29.1446H3.33333V29.7446ZM0.764346 28.6798C1.44517 29.3619 2.36937 29.7446 3.33333 29.7446V29.1446C2.52841 29.1446 1.75706 28.825 1.18899 28.2559L0.764346 28.6798ZM-0.3 26.1112C-0.3 27.0752 0.0826922 27.9994 0.764723 28.6802L1.18861 28.2556C0.61953 27.6875 0.3 26.9161 0.3 26.1112H-0.3ZM-0.3 3.889V26.1112H0.3V3.889H-0.3ZM0.764723 1.32001C0.0826922 2.00083 -0.3 2.92504 -0.3 3.889H0.3C0.3 3.08407 0.61953 2.31272 1.18861 1.74465L0.764723 1.32001ZM3.33333 0.255664C2.36937 0.255664 1.44517 0.638356 0.764346 1.32039L1.18899 1.74427C1.75706 1.17519 2.52841 0.855664 3.33333 0.855664V0.255664ZM16.6667 0.255664H3.33333V0.855664H16.6667V0.255664ZM19.2357 1.32039C18.5548 0.638356 17.6306 0.255664 16.6667 0.255664V0.855664C17.4716 0.855664 18.2429 1.17519 18.811 1.74427L19.2357 1.32039ZM17.4778 11.6668V26.1112H18.0778V11.6668H17.4778ZM2.22222 11.9668H17.7778V11.3668H2.22222V11.9668ZM2.52222 26.1112V11.6668H1.92222V26.1112H2.52222ZM2.75934 26.6841C2.6076 26.5331 2.52222 26.3266 2.52222 26.1112H1.92222C1.92222 26.4847 2.07018 26.8449 2.33621 27.1095L2.75934 26.6841ZM3.33333 26.9223C3.11797 26.9223 2.91141 26.837 2.76047 26.6852L2.33508 27.1083C2.5997 27.3744 2.95981 27.5223 3.33333 27.5223V26.9223ZM16.6667 26.9223H3.33333V27.5223H16.6667V26.9223ZM17.2395 26.6852C17.0886 26.837 16.882 26.9223 16.6667 26.9223V27.5223C17.0402 27.5223 17.4003 27.3744 17.6649 27.1083L17.2395 26.6852ZM17.4778 26.1112C17.4778 26.3266 17.3924 26.5331 17.2407 26.6841L17.6638 27.1095C17.9298 26.8449 18.0778 26.4847 18.0778 26.1112H17.4778ZM17.7778 9.14455H2.22222V9.74455H17.7778V9.14455ZM17.4778 3.889V9.44455H18.0778V3.889H17.4778ZM17.2407 3.31614C17.3924 3.46708 17.4778 3.67363 17.4778 3.889H18.0778C18.0778 3.51547 17.9298 3.15536 17.6638 2.89075L17.2407 3.31614ZM16.6667 3.07789C16.882 3.07789 17.0886 3.16326 17.2395 3.31501L17.6649 2.89188C17.4003 2.62584 17.0402 2.47789 16.6667 2.47789V3.07789ZM3.33333 3.07789H16.6667V2.47789H3.33333V3.07789ZM2.76048 3.31501C2.91141 3.16326 3.11797 3.07789 3.33333 3.07789V2.47789C2.95981 2.47789 2.5997 2.62584 2.33508 2.89188L2.76048 3.31501ZM2.52222 3.889C2.52222 3.67363 2.6076 3.46708 2.75934 3.31614L2.33621 2.89075C2.07018 3.15536 1.92222 3.51547 1.92222 3.889H2.52222ZM2.52222 9.44455V3.889H1.92222V9.44455H2.52222ZM13.0333 19.4445V23.8889H13.6333V19.4445H13.0333ZM14.4445 18.0334C13.6654 18.0334 13.0333 18.6655 13.0333 19.4445H13.6333C13.6333 18.9968 13.9968 18.6334 14.4445 18.6334V18.0334ZM15.8556 19.4445C15.8556 18.6655 15.2235 18.0334 14.4445 18.0334V18.6334C14.8921 18.6334 15.2556 18.9968 15.2556 19.4445H15.8556ZM15.8556 23.8889V19.4445H15.2556V23.8889H15.8556ZM14.4445 25.3C15.2235 25.3 15.8556 24.6679 15.8556 23.8889H15.2556C15.2556 24.3366 14.8921 24.7 14.4445 24.7V25.3ZM13.0333 23.8889C13.0333 24.6679 13.6654 25.3 14.4445 25.3V24.7C13.9968 24.7 13.6333 24.3366 13.6333 23.8889H13.0333ZM5.55557 16.4111H10V15.8111H5.55557V16.4111ZM4.14446 15C4.14446 15.779 4.77655 16.4111 5.55557 16.4111V15.8111C5.10792 15.8111 4.74446 15.4477 4.74446 15H4.14446ZM5.55557 13.5889C4.77655 13.5889 4.14446 14.221 4.14446 15H4.74446C4.74446 14.5524 5.10792 14.1889 5.55557 14.1889V13.5889ZM10 13.5889H5.55557V14.1889H10V13.5889ZM11.4111 15C11.4111 14.221 10.779 13.5889 10 13.5889V14.1889C10.4477 14.1889 10.8111 14.5524 10.8111 15H11.4111ZM10 16.4111C10.779 16.4111 11.4111 15.779 11.4111 15H10.8111C10.8111 15.4477 10.4477 15.8111 10 15.8111V16.4111ZM5.55557 20.8556H10V20.2556H5.55557V20.8556ZM4.14446 19.4445C4.14446 20.2235 4.77655 20.8556 5.55557 20.8556V20.2556C5.10792 20.2556 4.74446 19.8921 4.74446 19.4445H4.14446ZM5.55557 18.0334C4.77655 18.0334 4.14446 18.6655 4.14446 19.4445H4.74446C4.74446 18.9968 5.10792 18.6334 5.55557 18.6334V18.0334ZM10 18.0334H5.55557V18.6334H10V18.0334ZM11.4111 19.4445C11.4111 18.6655 10.779 18.0334 10 18.0334V18.6334C10.4477 18.6334 10.8111 18.9968 10.8111 19.4445H11.4111ZM10 20.8556C10.779 20.8556 11.4111 20.2235 11.4111 19.4445H10.8111C10.8111 19.8921 10.4477 20.2556 10 20.2556V20.8556ZM5.55557 25.3H10V24.7H5.55557V25.3ZM4.14446 23.8889C4.14446 24.6679 4.77655 25.3 5.55557 25.3V24.7C5.10792 24.7 4.74446 24.3366 4.74446 23.8889H4.14446ZM5.55557 22.4778C4.77655 22.4778 4.14446 23.1099 4.14446 23.8889H4.74446C4.74446 23.4413 5.10792 23.0778 5.55557 23.0778V22.4778ZM10 22.4778H5.55557V23.0778H10V22.4778ZM11.4111 23.8889C11.4111 23.1099 10.779 22.4778 10 22.4778V23.0778C10.4477 23.0778 10.8111 23.4413 10.8111 23.8889H11.4111ZM10 25.3C10.779 25.3 11.4111 24.6679 11.4111 23.8889H10.8111C10.8111 24.3366 10.4477 24.7 10 24.7V25.3Z" fill="#F8F8F8" mask="url(#path-1-inside-1_15815_30194)"/>
<path d="M14.466 16.4672C15.2331 16.4672 15.8549 15.8454 15.8549 15.0783C15.8549 14.3113 15.2331 13.6895 14.466 13.6895C13.699 13.6895 13.0771 14.3113 13.0771 15.0783C13.0771 15.8454 13.699 16.4672 14.466 16.4672Z" fill="url(#paint1_linear_15815_30194)"/>
<defs>
<linearGradient id="paint0_linear_15815_30194" x1="20.0624" y1="3.18858" x2="-3.10519" y2="11.5485" gradientUnits="userSpaceOnUse">
<stop offset="0.216713" stop-color="#DDDF78"/>
<stop offset="1" stop-color="#36DD68"/>
</linearGradient>
<linearGradient id="paint1_linear_15815_30194" x1="15.8636" y1="13.9426" x2="13.0038" y2="15.4332" gradientUnits="userSpaceOnUse">
<stop offset="0.216713" stop-color="#DDDF78"/>
<stop offset="1" stop-color="#36DD68"/>
</linearGradient>
</defs>
</svg>
