<svg width="16" height="16" viewBox="0 0 16 16" fill="none" xmlns="http://www.w3.org/2000/svg">
<path fill-rule="evenodd" clip-rule="evenodd" d="M12.6654 2.00008H13.332C14.0654 2.00008 14.6654 2.60008 14.6654 3.33341V14.0001C14.6654 14.7334 14.0654 15.3334 13.332 15.3334H2.66536C1.93203 15.3334 1.33203 14.7334 1.33203 14.0001V3.33341C1.33203 2.60008 1.93203 2.00008 2.66536 2.00008H3.33203V1.33341C3.33203 0.966748 3.63203 0.666748 3.9987 0.666748C4.36536 0.666748 4.66536 0.966748 4.66536 1.33341V2.00008H11.332V1.33341C11.332 0.966748 11.632 0.666748 11.9987 0.666748C12.3654 0.666748 12.6654 0.966748 12.6654 1.33341V2.00008ZM3.33203 14.0001H12.6654C13.032 14.0001 13.332 13.7001 13.332 13.3334V5.33342H2.66536V13.3334C2.66536 13.7001 2.96536 14.0001 3.33203 14.0001Z" fill="black"/>
</svg>
