<svg width="33" height="33" viewBox="0 0 33 33" fill="none" xmlns="http://www.w3.org/2000/svg">
<path fill-rule="evenodd" clip-rule="evenodd" d="M16.2253 0.901408C24.6885 0.901408 31.5492 7.76214 31.5492 16.2253C31.5492 24.6885 24.6885 31.5493 16.2253 31.5493C7.76214 31.5493 0.901376 24.6885 0.901376 16.2253C0.901376 7.76214 7.76214 0.901408 16.2253 0.901408Z" stroke="#54CBF1"/>
<path fill-rule="evenodd" clip-rule="evenodd" d="M21.8607 9.22425H22.6607C23.5407 9.22425 24.2607 9.96062 24.2607 10.8606V23.9515C24.2607 24.8515 23.5407 25.5879 22.6607 25.5879H9.86074C8.98074 25.5879 8.26074 24.8515 8.26074 23.9515V10.8606C8.26074 9.96062 8.98074 9.22425 9.86074 9.22425H10.6607V8.40607C10.6607 7.95607 11.0207 7.58789 11.4607 7.58789C11.9007 7.58789 12.2607 7.95607 12.2607 8.40607V9.22425H20.2607V8.40607C20.2607 7.95607 20.6207 7.58789 21.0607 7.58789C21.5007 7.58789 21.8607 7.95607 21.8607 8.40607V9.22425ZM10.6605 23.9514H21.8605C22.3005 23.9514 22.6605 23.5832 22.6605 23.1332V13.315H9.86046V23.1332C9.86046 23.5832 10.2205 23.9514 10.6605 23.9514Z" fill="#54CBF1"/>
<path fill-rule="evenodd" clip-rule="evenodd" d="M21.3608 9.7356V8.40607C21.3608 8.23848 21.2246 8.09923 21.0607 8.09923C20.8969 8.09923 20.7607 8.23848 20.7607 8.40607V9.7356H11.7608V8.40607C11.7608 8.23848 11.6246 8.09923 11.4607 8.09923C11.2969 8.09923 11.1607 8.23848 11.1607 8.40607V9.7356H9.86074C9.25687 9.7356 8.76072 10.243 8.76072 10.8606V23.9515C8.76072 24.5691 9.25687 25.0765 9.86074 25.0765H22.6607C23.2646 25.0765 23.7608 24.5691 23.7608 23.9515V10.8606C23.7608 10.243 23.2646 9.7356 22.6607 9.7356H21.3608ZM23.1604 12.8037V23.1332C23.1604 23.8656 22.5766 24.4627 21.8605 24.4627H10.6605C9.94433 24.4627 9.36048 23.8656 9.36048 23.1332V12.8037H23.1604ZM21.8607 9.22425V8.40607C21.8607 7.95607 21.5007 7.58789 21.0607 7.58789C20.6207 7.58789 20.2607 7.95607 20.2607 8.40607V9.22425H12.2607V8.40607C12.2607 7.95607 11.9007 7.58789 11.4607 7.58789C11.0207 7.58789 10.6607 7.95607 10.6607 8.40607V9.22425H9.86074C8.98074 9.22425 8.26074 9.96062 8.26074 10.8606V23.9515C8.26074 24.8515 8.98074 25.5879 9.86074 25.5879H22.6607C23.5407 25.5879 24.2607 24.8515 24.2607 23.9515V10.8606C24.2607 9.96062 23.5407 9.22425 22.6607 9.22425H21.8607ZM21.8605 23.9514H10.6605C10.2205 23.9514 9.86046 23.5832 9.86046 23.1332V13.315H22.6605V23.1332C22.6605 23.5832 22.3005 23.9514 21.8605 23.9514Z" fill="white"/>
</svg>
