<svg width="27" height="22" viewBox="0 0 27 22" fill="none" xmlns="http://www.w3.org/2000/svg">
<path d="M11.8975 21.9234C11.1255 21.9233 10.3681 21.7129 9.70675 21.3148C9.04535 20.9167 8.50491 20.3459 8.14349 19.6637C7.49759 19.9361 6.79433 20.0445 6.0964 19.9791C5.39847 19.9138 4.72755 19.6768 4.14343 19.2893C3.55932 18.9017 3.08015 18.3757 2.74865 17.7581C2.41715 17.1404 2.24361 16.4503 2.24349 15.7494C2.24367 15.511 2.26366 15.273 2.30327 15.0379C1.50385 14.6264 0.855586 13.9719 0.451741 13.1686C0.0478959 12.3653 -0.0907082 11.4545 0.0558707 10.5674C0.20245 9.68036 0.626655 8.86263 1.26745 8.23192C1.90825 7.60122 2.7326 7.19004 3.62191 7.05756C3.58883 6.84044 3.57226 6.62114 3.57234 6.40152C3.57234 5.71616 3.73816 5.04098 4.05565 4.43359C4.37313 3.82621 4.83286 3.30465 5.39558 2.91343C5.95831 2.52221 6.60734 2.27295 7.28727 2.18692C7.96721 2.10088 8.65787 2.18063 9.3003 2.41935C9.66712 1.65151 10.256 1.0115 10.9908 0.582217C11.7255 0.152938 12.5723 -0.045828 13.4213 0.0116634C14.2703 0.0691549 15.0825 0.380255 15.7527 0.904668C16.4229 1.42908 16.9201 2.14264 17.1801 2.95293C17.824 2.70192 18.5195 2.61178 19.2061 2.69033C19.8928 2.76888 20.5499 3.01374 21.1205 3.40368C21.6911 3.79362 22.158 4.31687 22.4807 4.92805C22.8034 5.53924 22.9721 6.21991 22.9722 6.91104C22.9722 6.94968 22.9722 6.98394 22.9722 7.02621C24.0505 7.10368 25.0587 7.58932 25.7914 8.3842C26.5241 9.17908 26.9262 10.2234 26.9158 11.3044C26.9054 12.3854 26.4833 13.4218 25.7354 14.2024C24.9875 14.9831 23.9701 15.4492 22.8905 15.5059C23.1641 16.4259 23.1179 17.4115 22.7596 18.3019C22.4012 19.1923 21.7518 19.9351 20.9172 20.4091C20.0825 20.8831 19.1119 21.0604 18.1636 20.9121C17.2153 20.7637 16.3453 20.2985 15.6952 19.5923C15.341 20.2951 14.7982 20.8855 14.1274 21.2972C13.4567 21.7089 12.6845 21.9258 11.8975 21.9234ZM8.42923 18.2788C8.55084 18.2788 8.66941 18.3168 8.76836 18.3875C8.8673 18.4582 8.94166 18.5581 8.98103 18.6731C9.20284 19.3207 9.63389 19.876 10.2062 20.2516C10.7785 20.6271 11.4595 20.8014 12.1419 20.7471C12.8243 20.6928 13.4691 20.413 13.9748 19.9517C14.4806 19.4903 14.8184 18.8738 14.935 18.1993C14.9557 18.0773 15.0147 17.965 15.1035 17.8787C15.1923 17.7925 15.3062 17.7367 15.4288 17.7195C15.5514 17.7023 15.6762 17.7245 15.7853 17.783C15.8945 17.8415 15.9821 17.9332 16.0357 18.0448C16.2159 18.4181 16.4697 18.7512 16.7817 19.0242C17.0938 19.2971 17.4577 19.5043 17.8517 19.6334C18.2457 19.7624 18.6616 19.8106 19.0747 19.7751C19.4877 19.7396 19.8894 19.6212 20.2556 19.4269C20.6218 19.2325 20.945 18.9663 21.2059 18.6441C21.4669 18.3219 21.6601 17.9504 21.7741 17.5518C21.888 17.1532 21.9204 16.7357 21.8693 16.3243C21.8181 15.9129 21.6845 15.516 21.4764 15.1575C21.4198 15.0609 21.3921 14.9501 21.3967 14.8383C21.4014 14.7265 21.4381 14.6184 21.5025 14.5268C21.5669 14.4353 21.6563 14.3642 21.76 14.3221C21.8636 14.28 21.9773 14.2686 22.0873 14.2893C22.2774 14.3251 22.4704 14.3432 22.6638 14.3433C23.4812 14.3433 24.2651 14.0185 24.8431 13.4406C25.4211 12.8626 25.7458 12.0787 25.7458 11.2613C25.7458 10.4439 25.4211 9.66004 24.8431 9.08206C24.2651 8.50409 23.4812 8.17939 22.6638 8.17939C22.5691 8.17939 22.4721 8.18376 22.3723 8.19324C22.282 8.2016 22.1911 8.18883 22.1067 8.15592C22.0223 8.12302 21.9467 8.0709 21.8859 8.00369C21.8251 7.93648 21.7809 7.85603 21.7566 7.76873C21.7323 7.68143 21.7287 7.58968 21.7461 7.50075C21.8616 6.91048 21.8019 6.29933 21.5742 5.74261C21.3466 5.18589 20.9611 4.70794 20.4651 4.36767C19.9692 4.0274 19.3845 3.83969 18.7831 3.82766C18.1818 3.81564 17.5901 3.97983 17.0809 4.3C16.9978 4.3523 16.9027 4.38274 16.8046 4.38847C16.7065 4.39421 16.6085 4.37506 16.5198 4.33281C16.4311 4.29056 16.3545 4.22658 16.2971 4.1468C16.2397 4.06702 16.2035 3.97404 16.1916 3.87649C16.1051 3.17334 15.779 2.52147 15.2682 2.03055C14.7574 1.53962 14.0931 1.23962 13.3871 1.18101C12.6811 1.12241 11.9764 1.30877 11.3917 1.70875C10.8069 2.10873 10.3778 2.69792 10.1765 3.37717C10.1516 3.46124 10.1081 3.53863 10.0492 3.60356C9.99031 3.6685 9.91752 3.71932 9.83626 3.75225C9.75501 3.78517 9.66737 3.79935 9.57988 3.79372C9.49239 3.7881 9.40729 3.76282 9.33092 3.71977C8.78621 3.41354 8.16132 3.28004 7.53903 3.33696C6.91675 3.39387 6.32644 3.63852 5.84633 4.03848C5.36621 4.43845 5.01895 4.97485 4.85056 5.57661C4.68216 6.17838 4.70058 6.81711 4.90337 7.40817C4.93405 7.49731 4.94266 7.59256 4.92846 7.68575C4.91426 7.77894 4.87769 7.8673 4.82186 7.94326C4.76604 8.01922 4.69263 8.08052 4.60793 8.12189C4.52323 8.16327 4.42976 8.1835 4.33553 8.18085H4.24442C3.51921 8.17858 2.81643 8.43213 2.25971 8.89689C1.703 9.36165 1.32801 10.0079 1.20071 10.7218C1.07342 11.4358 1.20198 12.1717 1.56377 12.8003C1.92556 13.4288 2.49741 13.9096 3.17872 14.1581C3.31797 14.2094 3.43243 14.3118 3.49879 14.4445C3.56516 14.5773 3.57842 14.7303 3.53589 14.8725C3.35731 15.4721 3.36536 16.1118 3.55897 16.7068C3.75259 17.3017 4.12261 17.8237 4.61989 18.2033C5.11718 18.583 5.7182 18.8024 6.34313 18.8324C6.96806 18.8624 7.58733 18.7016 8.1187 18.3713C8.21123 18.3114 8.319 18.2793 8.42923 18.2788Z" fill="url(#paint0_linear_15808_29311)"/>
<path d="M8.19804 14.2223C7.71323 14.2226 7.23583 14.1033 6.80815 13.875C6.38047 13.6467 6.01573 13.3163 5.74624 12.9133C5.47676 12.5103 5.31087 12.047 5.26326 11.5646C5.21566 11.0821 5.28782 10.5953 5.47335 10.1474C5.65887 9.69952 5.95203 9.3043 6.32685 8.9968C6.70166 8.68929 7.14654 8.479 7.62207 8.38457C8.0976 8.29014 8.58907 8.31448 9.05294 8.45543C9.51681 8.59639 9.93874 8.84961 10.2813 9.19264C10.3908 9.30196 10.4523 9.45028 10.4523 9.60496C10.4524 9.75964 10.391 9.90801 10.2817 10.0174C10.1724 10.1269 10.0241 10.1884 9.86938 10.1884C9.71471 10.1885 9.56634 10.1271 9.45691 10.0178C9.2079 9.76865 8.8906 9.59895 8.54514 9.53016C8.19967 9.46137 7.84157 9.49658 7.51611 9.63134C7.19066 9.7661 6.91249 9.99434 6.71677 10.2872C6.52105 10.5801 6.41659 10.9244 6.41659 11.2767C6.41659 11.6289 6.52105 11.9732 6.71677 12.2661C6.91249 12.559 7.19066 12.7872 7.51611 12.922C7.84157 13.0567 8.19967 13.0919 8.54514 13.0232C8.8906 12.9544 9.2079 12.7847 9.45691 12.5355C9.56784 12.435 9.71318 12.381 9.86282 12.3847C10.0125 12.3884 10.155 12.4495 10.2608 12.5553C10.3667 12.6612 10.4278 12.8037 10.4314 12.9533C10.4351 13.103 10.3811 13.2483 10.2806 13.3592C10.0077 13.6335 9.68314 13.851 9.32569 13.9991C8.96824 14.1473 8.58497 14.2231 8.19804 14.2223Z" fill="url(#paint1_linear_15808_29311)"/>
<path d="M8.19804 14.2223C7.71323 14.2226 7.23583 14.1033 6.80815 13.875C6.38047 13.6467 6.01573 13.3163 5.74624 12.9133C5.47676 12.5103 5.31087 12.047 5.26326 11.5646C5.21566 11.0821 5.28782 10.5953 5.47335 10.1474C5.65887 9.69952 5.95203 9.3043 6.32685 8.9968C6.70166 8.68929 7.14654 8.479 7.62207 8.38457C8.0976 8.29014 8.58907 8.31448 9.05294 8.45543C9.51681 8.59639 9.93874 8.84961 10.2813 9.19264C10.3908 9.30196 10.4523 9.45028 10.4523 9.60496C10.4524 9.75964 10.391 9.90801 10.2817 10.0174C10.1724 10.1269 10.0241 10.1884 9.86938 10.1884C9.71471 10.1885 9.56634 10.1271 9.45691 10.0178C9.2079 9.76865 8.8906 9.59895 8.54514 9.53016C8.19967 9.46137 7.84157 9.49658 7.51611 9.63134C7.19066 9.7661 6.91249 9.99434 6.71677 10.2872C6.52105 10.5801 6.41659 10.9244 6.41659 11.2767C6.41659 11.6289 6.52105 11.9732 6.71677 12.2661C6.91249 12.559 7.19066 12.7872 7.51611 12.922C7.84157 13.0567 8.19967 13.0919 8.54514 13.0232C8.8906 12.9544 9.2079 12.7847 9.45691 12.5355C9.56784 12.435 9.71318 12.381 9.86282 12.3847C10.0125 12.3884 10.155 12.4495 10.2608 12.5553C10.3667 12.6612 10.4278 12.8037 10.4314 12.9533C10.4351 13.103 10.3811 13.2483 10.2806 13.3592C10.0077 13.6335 9.68314 13.851 9.32569 13.9991C8.96824 14.1473 8.58497 14.2231 8.19804 14.2223Z" fill="url(#paint2_linear_15808_29311)"/>
<path d="M13.5757 14.2223C12.9928 14.2224 12.423 14.0497 11.9382 13.726C11.4535 13.4022 11.0756 12.942 10.8525 12.4035C10.6293 11.865 10.5708 11.2724 10.6845 10.7007C10.7981 10.129 11.0787 9.60379 11.4909 9.19156C11.903 8.77933 12.4281 8.49858 12.9998 8.38481C13.5715 8.27103 14.1641 8.32935 14.7026 8.55239C15.2412 8.77543 15.7015 9.15316 16.0254 9.63782C16.3492 10.1225 16.5221 10.6923 16.5221 11.2752C16.5213 12.0565 16.2107 12.8055 15.6583 13.358C15.106 13.9105 14.357 14.2213 13.5757 14.2223ZM13.5757 9.49515C13.2235 9.49501 12.8791 9.59934 12.5861 9.79496C12.2932 9.99058 12.0648 10.2687 11.9299 10.5941C11.795 10.9195 11.7597 11.2777 11.8284 11.6232C11.8971 11.9687 12.0667 12.286 12.3158 12.5351C12.5649 12.7842 12.8823 12.9539 13.2278 13.0225C13.5733 13.0912 13.9314 13.0559 14.2568 12.921C14.5823 12.7862 14.8604 12.5578 15.056 12.2648C15.2516 11.9719 15.3559 11.6275 15.3558 11.2752C15.3552 10.8033 15.1675 10.3509 14.8338 10.0172C14.5001 9.68346 14.0477 9.49573 13.5757 9.49515Z" fill="url(#paint3_linear_15808_29311)"/>
<path d="M13.5757 14.2223C12.9928 14.2224 12.423 14.0497 11.9382 13.726C11.4535 13.4022 11.0756 12.942 10.8525 12.4035C10.6293 11.865 10.5708 11.2724 10.6845 10.7007C10.7981 10.129 11.0787 9.60379 11.4909 9.19156C11.903 8.77933 12.4281 8.49858 12.9998 8.38481C13.5715 8.27103 14.1641 8.32935 14.7026 8.55239C15.2412 8.77543 15.7015 9.15316 16.0254 9.63782C16.3492 10.1225 16.5221 10.6923 16.5221 11.2752C16.5213 12.0565 16.2107 12.8055 15.6583 13.358C15.106 13.9105 14.357 14.2213 13.5757 14.2223ZM13.5757 9.49515C13.2235 9.49501 12.8791 9.59934 12.5861 9.79496C12.2932 9.99058 12.0648 10.2687 11.9299 10.5941C11.795 10.9195 11.7597 11.2777 11.8284 11.6232C11.8971 11.9687 12.0667 12.286 12.3158 12.5351C12.5649 12.7842 12.8823 12.9539 13.2278 13.0225C13.5733 13.0912 13.9314 13.0559 14.2568 12.921C14.5823 12.7862 14.8604 12.5578 15.056 12.2648C15.2516 11.9719 15.3559 11.6275 15.3558 11.2752C15.3552 10.8033 15.1675 10.3509 14.8338 10.0172C14.5001 9.68346 14.0477 9.49573 13.5757 9.49515Z" fill="url(#paint4_linear_15808_29311)"/>
<path d="M19.635 15.6856H17.6275C17.515 15.6859 17.4048 15.6536 17.3103 15.5926C17.2158 15.5317 17.1409 15.4447 17.0947 15.3421C17.0484 15.2396 17.0328 15.1259 17.0498 15.0147C17.0667 14.9035 17.1155 14.7995 17.1901 14.7154L18.6582 13.0593C18.7828 12.9222 18.8113 12.8304 18.7996 12.8107C18.7493 12.7254 18.5255 12.6292 18.3302 12.6744C18.2303 12.6977 18.1705 12.7473 18.1581 12.9128C18.1524 12.9893 18.1317 13.0641 18.0972 13.1326C18.0626 13.2012 18.0148 13.2623 17.9567 13.3124C17.8985 13.3625 17.831 13.4007 17.7581 13.4247C17.6852 13.4488 17.6082 13.4582 17.5316 13.4525C17.455 13.4468 17.3803 13.4261 17.3118 13.3916C17.2432 13.357 17.1821 13.3092 17.132 13.2511C17.0819 13.1929 17.0437 13.1254 17.0196 13.0525C16.9956 12.9796 16.9861 12.9026 16.9918 12.826C17.0407 12.1744 17.4511 11.6816 18.0626 11.5387C18.7333 11.382 19.4804 11.6743 19.8012 12.2181C20.0927 12.716 19.9914 13.321 19.5249 13.8371L18.9199 14.5193H19.6313C19.786 14.5193 19.9343 14.5808 20.0437 14.6901C20.153 14.7995 20.2145 14.9478 20.2145 15.1025C20.2145 15.2571 20.153 15.4055 20.0437 15.5148C19.9343 15.6242 19.786 15.6856 19.6313 15.6856H19.635Z" fill="url(#paint5_linear_15808_29311)"/>
<path d="M19.635 15.6856H17.6275C17.515 15.6859 17.4048 15.6536 17.3103 15.5926C17.2158 15.5317 17.1409 15.4447 17.0947 15.3421C17.0484 15.2396 17.0328 15.1259 17.0498 15.0147C17.0667 14.9035 17.1155 14.7995 17.1901 14.7154L18.6582 13.0593C18.7828 12.9222 18.8113 12.8304 18.7996 12.8107C18.7493 12.7254 18.5255 12.6292 18.3302 12.6744C18.2303 12.6977 18.1705 12.7473 18.1581 12.9128C18.1524 12.9893 18.1317 13.0641 18.0972 13.1326C18.0626 13.2012 18.0148 13.2623 17.9567 13.3124C17.8985 13.3625 17.831 13.4007 17.7581 13.4247C17.6852 13.4488 17.6082 13.4582 17.5316 13.4525C17.455 13.4468 17.3803 13.4261 17.3118 13.3916C17.2432 13.357 17.1821 13.3092 17.132 13.2511C17.0819 13.1929 17.0437 13.1254 17.0196 13.0525C16.9956 12.9796 16.9861 12.9026 16.9918 12.826C17.0407 12.1744 17.4511 11.6816 18.0626 11.5387C18.7333 11.382 19.4804 11.6743 19.8012 12.2181C20.0927 12.716 19.9914 13.321 19.5249 13.8371L18.9199 14.5193H19.6313C19.786 14.5193 19.9343 14.5808 20.0437 14.6901C20.153 14.7995 20.2145 14.9478 20.2145 15.1025C20.2145 15.2571 20.153 15.4055 20.0437 15.5148C19.9343 15.6242 19.786 15.6856 19.6313 15.6856H19.635Z" fill="url(#paint6_linear_15808_29311)"/>
<defs>
<linearGradient id="paint0_linear_15808_29311" x1="26.9999" y1="1.99987" x2="1.99994" y2="17.9999" gradientUnits="userSpaceOnUse">
<stop offset="0.216713" stop-color="#303030"/>
<stop offset="1" stop-color="#303030"/>
</linearGradient>
<linearGradient id="paint1_linear_15808_29311" x1="7.85068" y1="8.32812" x2="7.85068" y2="14.2223" gradientUnits="userSpaceOnUse">
<stop stop-color="#303030"/>
<stop offset="1" stop-color="#303030" stop-opacity="0"/>
</linearGradient>
<linearGradient id="paint2_linear_15808_29311" x1="10.4686" y1="8.86532" x2="4.84661" y2="11.4522" gradientUnits="userSpaceOnUse">
<stop offset="0.216713" stop-color="#303030"/>
<stop offset="1" stop-color="#303030"/>
</linearGradient>
<linearGradient id="paint3_linear_15808_29311" x1="13.575" y1="8.32812" x2="13.575" y2="14.2223" gradientUnits="userSpaceOnUse">
<stop stop-color="#303030"/>
<stop offset="1" stop-color="#303030" stop-opacity="0"/>
</linearGradient>
<linearGradient id="paint4_linear_15808_29311" x1="16.5405" y1="8.86532" x2="10.4723" y2="12.0282" gradientUnits="userSpaceOnUse">
<stop offset="0.216713" stop-color="#303030"/>
<stop offset="1" stop-color="#303030"/>
</linearGradient>
<linearGradient id="paint5_linear_15808_29311" x1="18.6023" y1="11.4966" x2="18.6023" y2="15.6856" gradientUnits="userSpaceOnUse">
<stop stop-color="#303030"/>
<stop offset="1" stop-color="#303030" stop-opacity="0"/>
</linearGradient>
<linearGradient id="paint6_linear_15808_29311" x1="20.2245" y1="11.8784" x2="16.5885" y2="13.337" gradientUnits="userSpaceOnUse">
<stop offset="0.216713" stop-color="#303030"/>
<stop offset="1" stop-color="#303030"/>
</linearGradient>
</defs>
</svg>
