<svg width="33" height="33" viewBox="0 0 33 33" fill="none" xmlns="http://www.w3.org/2000/svg">
<path d="M24.5568 12C24.1743 12.0004 23.8076 12.1526 23.5371 12.4233C23.2667 12.694 23.1145 13.061 23.1141 13.4438C23.1141 13.6373 23.1536 13.8218 23.223 13.9908L18.9525 17.9688C18.7735 17.8489 18.5697 17.7709 18.3564 17.7407C18.1432 17.7105 17.9258 17.7289 17.7206 17.7944L16.3558 16.0735C16.4577 15.8731 16.5177 15.6531 16.5177 15.4216C16.5177 14.6257 15.8708 13.9778 15.075 13.9778C14.2792 13.9778 13.6323 14.6257 13.6323 15.4216C13.6323 15.4946 13.6458 15.5646 13.6563 15.6356L10.212 18.3388C9.98236 18.1914 9.71547 18.1126 9.44268 18.1118C9.06018 18.1122 8.69346 18.2645 8.42299 18.5352C8.15252 18.8058 8.0004 19.1729 8 19.5557C8 20.3521 8.64691 21 9.44268 21C10.2384 21 10.8854 20.3521 10.8854 19.5557C10.8854 19.4087 10.8569 19.2692 10.8159 19.1357L14.1464 16.522C14.1554 16.5295 14.1619 16.5395 14.1708 16.5465C14.372 16.7082 14.6128 16.8132 14.8681 16.8503C15.1235 16.8875 15.3841 16.8556 15.623 16.758L16.9353 18.4128C16.7954 18.6378 16.7115 18.8952 16.7115 19.1697C16.7118 19.5526 16.8638 19.9197 17.1343 20.1905C17.4048 20.4613 17.7716 20.6136 18.1542 20.614C18.5367 20.6135 18.9035 20.4612 19.1739 20.1904C19.4444 19.9196 19.5965 19.5526 19.5969 19.1697C19.595 19.0407 19.5757 18.9126 19.5394 18.7887L23.9034 14.7242C24.1007 14.8257 24.3205 14.8882 24.5573 14.8882C25.3526 14.8882 26 14.2403 26 13.4443C26 12.6484 25.3526 12 24.5568 12ZM9.44268 19.9991C9.38436 19.999 9.32662 19.9875 9.27277 19.9651C9.21891 19.9427 9.16999 19.9099 9.1288 19.8686C9.08761 19.8273 9.05495 19.7782 9.0327 19.7243C9.01044 19.6703 8.99902 19.6125 8.99908 19.5542C8.99915 19.4958 9.0107 19.438 9.03308 19.3841C9.05546 19.3302 9.08823 19.2813 9.12951 19.24C9.17079 19.1988 9.21979 19.1661 9.27369 19.1439C9.3276 19.1216 9.38536 19.1101 9.44368 19.1102C9.56146 19.1103 9.67436 19.1573 9.75755 19.2407C9.84074 19.3242 9.8874 19.4373 9.88727 19.5552C9.88714 19.673 9.84022 19.786 9.75685 19.8693C9.67347 19.9525 9.56046 19.9992 9.44268 19.9991ZM14.7978 15.7676C14.7266 15.7098 14.6751 15.6314 14.6502 15.5432C14.6252 15.455 14.6281 15.3612 14.6585 15.2747C14.6888 15.1882 14.7451 15.1132 14.8197 15.0599C14.8942 15.0067 14.9834 14.9778 15.075 14.9772C15.1626 14.9774 15.2482 15.0035 15.3209 15.0523C15.3937 15.101 15.4505 15.1702 15.4841 15.2512C15.5176 15.3321 15.5266 15.4212 15.5097 15.5072C15.4928 15.5933 15.4509 15.6723 15.3892 15.7346V15.7351H15.3887C15.2129 15.9101 14.9037 15.8526 14.7978 15.7676ZM18.1542 19.6137C18.0616 19.6134 17.9714 19.5841 17.8963 19.53C17.8211 19.4759 17.7648 19.3996 17.735 19.3119C17.7053 19.2241 17.7037 19.1293 17.7305 19.0406C17.7573 18.9519 17.8111 18.8738 17.8844 18.8172C17.8864 18.8157 17.8894 18.8152 17.8914 18.8132L17.8919 18.8127C17.9676 18.7557 18.0599 18.7249 18.1547 18.7253C18.2679 18.7319 18.3744 18.7816 18.4522 18.8643C18.53 18.9469 18.5733 19.0562 18.5732 19.1697C18.5732 19.2832 18.5297 19.3924 18.4518 19.475C18.3739 19.5575 18.2675 19.6071 18.1542 19.6137ZM24.5568 13.8878C24.4973 13.8898 24.438 13.8797 24.3824 13.8583C24.3268 13.8368 24.2761 13.8044 24.2333 13.7629C24.1905 13.7214 24.1565 13.6718 24.1332 13.6169C24.11 13.562 24.0981 13.503 24.0981 13.4433C24.0981 13.3837 24.1101 13.3247 24.1334 13.2698C24.1567 13.215 24.1908 13.1653 24.2337 13.1239C24.2765 13.0825 24.3272 13.0501 24.3828 13.0287C24.4384 13.0073 24.4978 12.9974 24.5573 12.9994C24.6725 13.0033 24.7816 13.0519 24.8616 13.1348C24.9416 13.2177 24.9863 13.3285 24.9863 13.4438C24.9862 13.5591 24.9414 13.6699 24.8613 13.7527C24.7811 13.8356 24.672 13.884 24.5568 13.8878Z" fill="#31DD03"/>
<path fill-rule="evenodd" clip-rule="evenodd" d="M16.2253 0.901408C24.6885 0.901408 31.5492 7.76214 31.5492 16.2253C31.5492 24.6885 24.6885 31.5493 16.2253 31.5493C7.76214 31.5493 0.901376 24.6885 0.901376 16.2253C0.901376 7.76214 7.76214 0.901408 16.2253 0.901408Z" stroke="#31DD03"/>
</svg>
