<svg width="32" height="32" viewBox="0 0 32 32" fill="none" xmlns="http://www.w3.org/2000/svg">
<mask id="path-1-outside-1_15808_29213" maskUnits="userSpaceOnUse" x="7" y="9.6665" width="18" height="12" fill="black">
<rect fill="white" x="7" y="9.6665" width="18" height="12"/>
<path fill-rule="evenodd" clip-rule="evenodd" d="M12.0905 17.4366L8.80766 21.1915C8.63483 21.3891 8.31165 21.3714 8.1362 21.1915C7.94584 20.9963 7.96358 20.7003 8.1362 20.5029L9.75308 18.6535L13.0359 14.8986C13.174 14.7406 13.4386 14.7112 13.6113 14.8225L17.0717 17.0516L19.9836 14.0798L22.4114 11.6021H19.1344C18.8794 11.6021 18.6667 11.3893 18.6667 11.1343C18.6667 10.8793 18.8794 10.6665 19.1344 10.6665H23.5049C23.505 10.6665 23.505 10.6665 23.5051 10.6665H23.5322C23.7872 10.6665 24 10.8793 24 11.1343V11.1721C24 11.1727 24 11.1733 24 11.174V15.5321C24 15.787 23.7872 15.9998 23.5322 15.9998C23.2772 15.9998 23.0644 15.7871 23.0644 15.5321V12.3095L20.6791 14.744L17.4748 18.0142C17.3272 18.1649 17.0797 18.2065 16.8994 18.0904L13.4575 15.8731L12.0905 17.4366Z"/>
</mask>
<path fill-rule="evenodd" clip-rule="evenodd" d="M12.0905 17.4366L8.80766 21.1915C8.63483 21.3891 8.31165 21.3714 8.1362 21.1915C7.94584 20.9963 7.96358 20.7003 8.1362 20.5029L9.75308 18.6535L13.0359 14.8986C13.174 14.7406 13.4386 14.7112 13.6113 14.8225L17.0717 17.0516L19.9836 14.0798L22.4114 11.6021H19.1344C18.8794 11.6021 18.6667 11.3893 18.6667 11.1343C18.6667 10.8793 18.8794 10.6665 19.1344 10.6665H23.5049C23.505 10.6665 23.505 10.6665 23.5051 10.6665H23.5322C23.7872 10.6665 24 10.8793 24 11.1343V11.1721C24 11.1727 24 11.1733 24 11.174V15.5321C24 15.787 23.7872 15.9998 23.5322 15.9998C23.2772 15.9998 23.0644 15.7871 23.0644 15.5321V12.3095L20.6791 14.744L17.4748 18.0142C17.3272 18.1649 17.0797 18.2065 16.8994 18.0904L13.4575 15.8731L12.0905 17.4366Z" fill="#303030"/>
<path d="M8.80766 21.1915L8.95822 21.3231L8.95823 21.3231L8.80766 21.1915ZM12.0905 17.4366L12.241 17.5683L12.241 17.5683L12.0905 17.4366ZM8.1362 21.1915L7.99301 21.3311L7.99301 21.3311L8.1362 21.1915ZM8.1362 20.5029L7.98564 20.3712L7.98563 20.3712L8.1362 20.5029ZM9.75308 18.6535L9.90364 18.7851H9.90364L9.75308 18.6535ZM13.0359 14.8986L13.1865 15.0302L13.1865 15.0302L13.0359 14.8986ZM13.6113 14.8225L13.5029 14.9906L13.503 14.9906L13.6113 14.8225ZM17.0717 17.0516L16.9634 17.2198L17.1005 17.308L17.2146 17.1916L17.0717 17.0516ZM19.9836 14.0798L20.1265 14.2198L20.1265 14.2198L19.9836 14.0798ZM22.4114 11.6021L22.5542 11.742L22.8873 11.4021H22.4114V11.6021ZM23.0644 12.3095H23.2644V11.8196L22.9216 12.1695L23.0644 12.3095ZM20.6791 14.744L20.5362 14.604L20.5362 14.604L20.6791 14.744ZM17.4748 18.0142L17.6177 18.1542L17.6177 18.1542L17.4748 18.0142ZM16.8994 18.0904L17.0077 17.9222L17.0077 17.9222L16.8994 18.0904ZM13.4575 15.8731L13.5658 15.7049L13.4206 15.6114L13.3069 15.7414L13.4575 15.8731ZM8.95823 21.3231L12.241 17.5683L11.9399 17.305L8.65709 21.0598L8.95823 21.3231ZM7.99301 21.3311C8.23736 21.5817 8.69718 21.6217 8.95822 21.3231L8.65709 21.0598C8.57247 21.1566 8.38593 21.1611 8.2794 21.0519L7.99301 21.3311ZM7.98563 20.3712C7.75542 20.6345 7.71867 21.0498 7.99301 21.3311L8.2794 21.0519C8.17301 20.9428 8.17173 20.7661 8.28678 20.6345L7.98563 20.3712ZM9.60251 18.5218L7.98564 20.3712L8.28677 20.6345L9.90364 18.7851L9.60251 18.5218ZM12.8853 14.767L9.60251 18.5218L9.90364 18.7851L13.1865 15.0302L12.8853 14.767ZM13.7196 14.6543C13.468 14.4922 13.0922 14.5303 12.8853 14.767L13.1865 15.0302C13.2558 14.9509 13.4091 14.9302 13.5029 14.9906L13.7196 14.6543ZM17.18 16.8835L13.7196 14.6543L13.503 14.9906L16.9634 17.2198L17.18 16.8835ZM19.8408 13.9398L16.9289 16.9116L17.2146 17.1916L20.1265 14.2198L19.8408 13.9398ZM22.2685 11.4621L19.8408 13.9398L20.1265 14.2198L22.5542 11.742L22.2685 11.4621ZM19.1344 11.8021H22.4114V11.4021H19.1344V11.8021ZM18.4667 11.1343C18.4667 11.4998 18.769 11.8021 19.1344 11.8021V11.4021C18.9899 11.4021 18.8667 11.2788 18.8667 11.1343H18.4667ZM19.1344 10.4665C18.769 10.4665 18.4667 10.7688 18.4667 11.1343H18.8667C18.8667 10.9897 18.9899 10.8665 19.1344 10.8665V10.4665ZM23.5049 10.4665H19.1344V10.8665H23.5049V10.4665ZM23.5051 10.4665H23.5051H23.5051C23.5051 10.4665 23.5051 10.4665 23.5051 10.4665C23.5051 10.4665 23.5051 10.4665 23.5051 10.4665C23.5051 10.4665 23.5051 10.4665 23.5051 10.4665C23.5051 10.4665 23.5051 10.4665 23.5051 10.4665C23.5051 10.4665 23.5051 10.4665 23.5051 10.4665C23.5051 10.4665 23.5051 10.4665 23.5051 10.4665H23.5051H23.5051H23.5051C23.5051 10.4665 23.5051 10.4665 23.5051 10.4665C23.5051 10.4665 23.5051 10.4665 23.5051 10.4665C23.5051 10.4665 23.5051 10.4665 23.5051 10.4665C23.5051 10.4665 23.5051 10.4665 23.5051 10.4665C23.5051 10.4665 23.5051 10.4665 23.5051 10.4665C23.5051 10.4665 23.5051 10.4665 23.5051 10.4665C23.5051 10.4665 23.5051 10.4665 23.5051 10.4665H23.5051H23.5051H23.5051C23.5051 10.4665 23.5051 10.4665 23.5051 10.4665C23.5051 10.4665 23.5051 10.4665 23.5051 10.4665C23.5051 10.4665 23.5051 10.4665 23.5051 10.4665C23.5051 10.4665 23.5051 10.4665 23.5051 10.4665C23.5051 10.4665 23.5051 10.4665 23.5051 10.4665C23.5051 10.4665 23.5051 10.4665 23.5051 10.4665H23.5051H23.5051H23.5051H23.5051C23.5051 10.4665 23.5051 10.4665 23.5051 10.4665C23.5051 10.4665 23.5051 10.4665 23.5051 10.4665C23.5051 10.4665 23.5051 10.4665 23.5051 10.4665C23.5051 10.4665 23.5051 10.4665 23.5051 10.4665C23.5051 10.4665 23.5051 10.4665 23.5051 10.4665C23.5051 10.4665 23.5051 10.4665 23.5051 10.4665H23.5051H23.5051H23.5051C23.5051 10.4665 23.5051 10.4665 23.5051 10.4665C23.5051 10.4665 23.5051 10.4665 23.5051 10.4665C23.5051 10.4665 23.5051 10.4665 23.5051 10.4665C23.5051 10.4665 23.5051 10.4665 23.5051 10.4665C23.5051 10.4665 23.5051 10.4665 23.5051 10.4665C23.5051 10.4665 23.5051 10.4665 23.5051 10.4665C23.5051 10.4665 23.5051 10.4665 23.5051 10.4665H23.5051H23.5051H23.5051C23.5051 10.4665 23.5051 10.4665 23.5051 10.4665C23.5051 10.4665 23.5051 10.4665 23.5051 10.4665C23.5051 10.4665 23.5051 10.4665 23.5051 10.4665C23.505 10.4665 23.505 10.4665 23.505 10.4665C23.505 10.4665 23.505 10.4665 23.505 10.4665C23.505 10.4665 23.505 10.4665 23.505 10.4665C23.505 10.4665 23.505 10.4665 23.505 10.4665H23.505H23.505H23.505C23.505 10.4665 23.505 10.4665 23.505 10.4665C23.505 10.4665 23.505 10.4665 23.505 10.4665C23.505 10.4665 23.505 10.4665 23.505 10.4665C23.505 10.4665 23.505 10.4665 23.505 10.4665C23.505 10.4665 23.505 10.4665 23.505 10.4665C23.505 10.4665 23.505 10.4665 23.505 10.4665H23.505H23.505H23.505H23.505C23.505 10.4665 23.505 10.4665 23.505 10.4665C23.505 10.4665 23.505 10.4665 23.505 10.4665C23.505 10.4665 23.505 10.4665 23.505 10.4665C23.505 10.4665 23.505 10.4665 23.505 10.4665C23.505 10.4665 23.505 10.4665 23.505 10.4665C23.505 10.4665 23.505 10.4665 23.505 10.4665H23.505H23.505H23.505C23.505 10.4665 23.505 10.4665 23.505 10.4665C23.505 10.4665 23.505 10.4665 23.505 10.4665C23.505 10.4665 23.505 10.4665 23.505 10.4665C23.505 10.4665 23.505 10.4665 23.505 10.4665C23.505 10.4665 23.505 10.4665 23.505 10.4665C23.505 10.4665 23.505 10.4665 23.505 10.4665C23.505 10.4665 23.505 10.4665 23.505 10.4665H23.505H23.505H23.505C23.505 10.4665 23.505 10.4665 23.505 10.4665C23.505 10.4665 23.505 10.4665 23.505 10.4665C23.505 10.4665 23.505 10.4665 23.505 10.4665C23.505 10.4665 23.505 10.4665 23.505 10.4665C23.505 10.4665 23.505 10.4665 23.505 10.4665C23.505 10.4665 23.505 10.4665 23.505 10.4665H23.505H23.505H23.505H23.505C23.505 10.4665 23.505 10.4665 23.505 10.4665C23.505 10.4665 23.505 10.4665 23.505 10.4665C23.505 10.4665 23.505 10.4665 23.505 10.4665C23.505 10.4665 23.505 10.4665 23.505 10.4665C23.505 10.4665 23.505 10.4665 23.505 10.4665C23.505 10.4665 23.505 10.4665 23.505 10.4665H23.505H23.505H23.505C23.505 10.4665 23.505 10.4665 23.505 10.4665C23.505 10.4665 23.505 10.4665 23.505 10.4665C23.505 10.4665 23.505 10.4665 23.505 10.4665C23.505 10.4665 23.505 10.4665 23.505 10.4665C23.505 10.4665 23.505 10.4665 23.505 10.4665C23.505 10.4665 23.505 10.4665 23.505 10.4665C23.505 10.4665 23.505 10.4665 23.505 10.4665H23.505H23.505H23.505C23.505 10.4665 23.505 10.4665 23.505 10.4665C23.505 10.4665 23.505 10.4665 23.505 10.4665C23.505 10.4665 23.505 10.4665 23.505 10.4665C23.505 10.4665 23.505 10.4665 23.505 10.4665C23.505 10.4665 23.505 10.4665 23.505 10.4665C23.505 10.4665 23.505 10.4665 23.505 10.4665C23.505 10.4665 23.505 10.4665 23.505 10.4665H23.505H23.505H23.505C23.505 10.4665 23.505 10.4665 23.505 10.4665C23.505 10.4665 23.505 10.4665 23.505 10.4665C23.505 10.4665 23.505 10.4665 23.505 10.4665C23.505 10.4665 23.505 10.4665 23.505 10.4665C23.505 10.4665 23.505 10.4665 23.505 10.4665C23.505 10.4665 23.505 10.4665 23.505 10.4665H23.505H23.505H23.505C23.505 10.4665 23.505 10.4665 23.505 10.4665C23.505 10.4665 23.505 10.4665 23.505 10.4665C23.505 10.4665 23.505 10.4665 23.505 10.4665C23.505 10.4665 23.505 10.4665 23.505 10.4665C23.505 10.4665 23.505 10.4665 23.505 10.4665C23.505 10.4665 23.505 10.4665 23.505 10.4665C23.505 10.4665 23.505 10.4665 23.505 10.4665H23.505H23.505H23.505C23.505 10.4665 23.505 10.4665 23.505 10.4665C23.505 10.4665 23.505 10.4665 23.505 10.4665C23.505 10.4665 23.505 10.4665 23.505 10.4665C23.505 10.4665 23.505 10.4665 23.505 10.4665C23.505 10.4665 23.505 10.4665 23.505 10.4665C23.505 10.4665 23.505 10.4665 23.505 10.4665C23.505 10.4665 23.505 10.4665 23.505 10.4665H23.505H23.505H23.505C23.505 10.4665 23.505 10.4665 23.505 10.4665C23.505 10.4665 23.505 10.4665 23.5049 10.4665C23.5049 10.4665 23.5049 10.4665 23.5049 10.4665C23.5049 10.4665 23.5049 10.4665 23.5049 10.4665C23.5049 10.4665 23.5049 10.4665 23.5049 10.4665C23.5049 10.4665 23.5049 10.4665 23.5049 10.4665H23.5049H23.5049V10.8665H23.5049H23.5049C23.5049 10.8665 23.5049 10.8665 23.5049 10.8665C23.5049 10.8665 23.5049 10.8665 23.5049 10.8665C23.5049 10.8665 23.5049 10.8665 23.5049 10.8665C23.5049 10.8665 23.5049 10.8665 23.5049 10.8665C23.505 10.8665 23.505 10.8665 23.505 10.8665C23.505 10.8665 23.505 10.8665 23.505 10.8665H23.505H23.505H23.505C23.505 10.8665 23.505 10.8665 23.505 10.8665C23.505 10.8665 23.505 10.8665 23.505 10.8665C23.505 10.8665 23.505 10.8665 23.505 10.8665C23.505 10.8665 23.505 10.8665 23.505 10.8665C23.505 10.8665 23.505 10.8665 23.505 10.8665C23.505 10.8665 23.505 10.8665 23.505 10.8665C23.505 10.8665 23.505 10.8665 23.505 10.8665H23.505H23.505H23.505C23.505 10.8665 23.505 10.8665 23.505 10.8665C23.505 10.8665 23.505 10.8665 23.505 10.8665C23.505 10.8665 23.505 10.8665 23.505 10.8665C23.505 10.8665 23.505 10.8665 23.505 10.8665C23.505 10.8665 23.505 10.8665 23.505 10.8665C23.505 10.8665 23.505 10.8665 23.505 10.8665C23.505 10.8665 23.505 10.8665 23.505 10.8665H23.505H23.505H23.505C23.505 10.8665 23.505 10.8665 23.505 10.8665C23.505 10.8665 23.505 10.8665 23.505 10.8665C23.505 10.8665 23.505 10.8665 23.505 10.8665C23.505 10.8665 23.505 10.8665 23.505 10.8665C23.505 10.8665 23.505 10.8665 23.505 10.8665C23.505 10.8665 23.505 10.8665 23.505 10.8665H23.505H23.505H23.505C23.505 10.8665 23.505 10.8665 23.505 10.8665C23.505 10.8665 23.505 10.8665 23.505 10.8665C23.505 10.8665 23.505 10.8665 23.505 10.8665C23.505 10.8665 23.505 10.8665 23.505 10.8665C23.505 10.8665 23.505 10.8665 23.505 10.8665C23.505 10.8665 23.505 10.8665 23.505 10.8665C23.505 10.8665 23.505 10.8665 23.505 10.8665H23.505H23.505H23.505C23.505 10.8665 23.505 10.8665 23.505 10.8665C23.505 10.8665 23.505 10.8665 23.505 10.8665C23.505 10.8665 23.505 10.8665 23.505 10.8665C23.505 10.8665 23.505 10.8665 23.505 10.8665C23.505 10.8665 23.505 10.8665 23.505 10.8665C23.505 10.8665 23.505 10.8665 23.505 10.8665C23.505 10.8665 23.505 10.8665 23.505 10.8665H23.505H23.505H23.505C23.505 10.8665 23.505 10.8665 23.505 10.8665C23.505 10.8665 23.505 10.8665 23.505 10.8665C23.505 10.8665 23.505 10.8665 23.505 10.8665C23.505 10.8665 23.505 10.8665 23.505 10.8665C23.505 10.8665 23.505 10.8665 23.505 10.8665C23.505 10.8665 23.505 10.8665 23.505 10.8665H23.505H23.505H23.505H23.505C23.505 10.8665 23.505 10.8665 23.505 10.8665C23.505 10.8665 23.505 10.8665 23.505 10.8665C23.505 10.8665 23.505 10.8665 23.505 10.8665C23.505 10.8665 23.505 10.8665 23.505 10.8665C23.505 10.8665 23.505 10.8665 23.505 10.8665C23.505 10.8665 23.505 10.8665 23.505 10.8665H23.505H23.505H23.505C23.505 10.8665 23.505 10.8665 23.505 10.8665C23.505 10.8665 23.505 10.8665 23.505 10.8665C23.505 10.8665 23.505 10.8665 23.505 10.8665C23.505 10.8665 23.505 10.8665 23.505 10.8665C23.505 10.8665 23.505 10.8665 23.505 10.8665C23.505 10.8665 23.505 10.8665 23.505 10.8665C23.505 10.8665 23.505 10.8665 23.505 10.8665H23.505H23.505H23.505C23.505 10.8665 23.505 10.8665 23.505 10.8665C23.505 10.8665 23.505 10.8665 23.505 10.8665C23.505 10.8665 23.505 10.8665 23.505 10.8665C23.505 10.8665 23.505 10.8665 23.505 10.8665C23.505 10.8665 23.505 10.8665 23.505 10.8665C23.505 10.8665 23.505 10.8665 23.505 10.8665H23.505H23.505H23.505H23.505C23.505 10.8665 23.505 10.8665 23.505 10.8665C23.505 10.8665 23.505 10.8665 23.505 10.8665C23.505 10.8665 23.505 10.8665 23.505 10.8665C23.505 10.8665 23.505 10.8665 23.505 10.8665C23.505 10.8665 23.505 10.8665 23.505 10.8665C23.505 10.8665 23.505 10.8665 23.505 10.8665H23.505H23.505H23.505C23.505 10.8665 23.505 10.8665 23.505 10.8665C23.505 10.8665 23.505 10.8665 23.505 10.8665C23.505 10.8665 23.505 10.8665 23.505 10.8665C23.505 10.8665 23.505 10.8665 23.5051 10.8665C23.5051 10.8665 23.5051 10.8665 23.5051 10.8665C23.5051 10.8665 23.5051 10.8665 23.5051 10.8665C23.5051 10.8665 23.5051 10.8665 23.5051 10.8665H23.5051H23.5051H23.5051C23.5051 10.8665 23.5051 10.8665 23.5051 10.8665C23.5051 10.8665 23.5051 10.8665 23.5051 10.8665C23.5051 10.8665 23.5051 10.8665 23.5051 10.8665C23.5051 10.8665 23.5051 10.8665 23.5051 10.8665C23.5051 10.8665 23.5051 10.8665 23.5051 10.8665C23.5051 10.8665 23.5051 10.8665 23.5051 10.8665C23.5051 10.8665 23.5051 10.8665 23.5051 10.8665H23.5051H23.5051H23.5051C23.5051 10.8665 23.5051 10.8665 23.5051 10.8665C23.5051 10.8665 23.5051 10.8665 23.5051 10.8665C23.5051 10.8665 23.5051 10.8665 23.5051 10.8665C23.5051 10.8665 23.5051 10.8665 23.5051 10.8665C23.5051 10.8665 23.5051 10.8665 23.5051 10.8665C23.5051 10.8665 23.5051 10.8665 23.5051 10.8665H23.5051H23.5051H23.5051H23.5051C23.5051 10.8665 23.5051 10.8665 23.5051 10.8665C23.5051 10.8665 23.5051 10.8665 23.5051 10.8665C23.5051 10.8665 23.5051 10.8665 23.5051 10.8665C23.5051 10.8665 23.5051 10.8665 23.5051 10.8665C23.5051 10.8665 23.5051 10.8665 23.5051 10.8665C23.5051 10.8665 23.5051 10.8665 23.5051 10.8665H23.5051H23.5051H23.5051C23.5051 10.8665 23.5051 10.8665 23.5051 10.8665C23.5051 10.8665 23.5051 10.8665 23.5051 10.8665C23.5051 10.8665 23.5051 10.8665 23.5051 10.8665C23.5051 10.8665 23.5051 10.8665 23.5051 10.8665C23.5051 10.8665 23.5051 10.8665 23.5051 10.8665C23.5051 10.8665 23.5051 10.8665 23.5051 10.8665C23.5051 10.8665 23.5051 10.8665 23.5051 10.8665H23.5051H23.5051H23.5051C23.5051 10.8665 23.5051 10.8665 23.5051 10.8665C23.5051 10.8665 23.5051 10.8665 23.5051 10.8665C23.5051 10.8665 23.5051 10.8665 23.5051 10.8665C23.5051 10.8665 23.5051 10.8665 23.5051 10.8665C23.5051 10.8665 23.5051 10.8665 23.5051 10.8665C23.5051 10.8665 23.5051 10.8665 23.5051 10.8665H23.5051H23.5051V10.4665ZM23.5322 10.4665H23.5051V10.8665H23.5322V10.4665ZM24.2 11.1343C24.2 10.7688 23.8977 10.4665 23.5322 10.4665V10.8665C23.6768 10.8665 23.8 10.9897 23.8 11.1343H24.2ZM24.2 11.1721V11.1343H23.8V11.1721H24.2ZM24.2 11.174C24.2 11.174 24.2 11.174 24.2 11.174C24.2 11.174 24.2 11.174 24.2 11.174C24.2 11.174 24.2 11.174 24.2 11.174C24.2 11.174 24.2 11.174 24.2 11.174C24.2 11.174 24.2 11.174 24.2 11.174C24.2 11.174 24.2 11.174 24.2 11.174C24.2 11.174 24.2 11.174 24.2 11.174C24.2 11.174 24.2 11.174 24.2 11.174C24.2 11.174 24.2 11.1739 24.2 11.1739C24.2 11.1739 24.2 11.1739 24.2 11.1739C24.2 11.1739 24.2 11.1739 24.2 11.1739C24.2 11.1739 24.2 11.1739 24.2 11.1739C24.2 11.1739 24.2 11.1739 24.2 11.1739C24.2 11.1739 24.2 11.1739 24.2 11.1739C24.2 11.1739 24.2 11.1739 24.2 11.1739C24.2 11.1739 24.2 11.1739 24.2 11.1739C24.2 11.1739 24.2 11.1739 24.2 11.1739C24.2 11.1739 24.2 11.1739 24.2 11.1739C24.2 11.1739 24.2 11.1739 24.2 11.1739C24.2 11.1739 24.2 11.1739 24.2 11.1739C24.2 11.1739 24.2 11.1739 24.2 11.1739C24.2 11.1739 24.2 11.1739 24.2 11.1739C24.2 11.1739 24.2 11.1739 24.2 11.1739C24.2 11.1739 24.2 11.1739 24.2 11.1739C24.2 11.1739 24.2 11.1739 24.2 11.1739C24.2 11.1739 24.2 11.1739 24.2 11.1739C24.2 11.1739 24.2 11.1739 24.2 11.1739C24.2 11.1739 24.2 11.1739 24.2 11.1739C24.2 11.1739 24.2 11.1739 24.2 11.1739C24.2 11.1739 24.2 11.1739 24.2 11.1739C24.2 11.1739 24.2 11.1739 24.2 11.1739C24.2 11.1739 24.2 11.1739 24.2 11.1739C24.2 11.1739 24.2 11.1739 24.2 11.1739C24.2 11.1739 24.2 11.1739 24.2 11.1739C24.2 11.1739 24.2 11.1739 24.2 11.1739C24.2 11.1738 24.2 11.1738 24.2 11.1738C24.2 11.1738 24.2 11.1738 24.2 11.1738C24.2 11.1738 24.2 11.1738 24.2 11.1738C24.2 11.1738 24.2 11.1738 24.2 11.1738C24.2 11.1738 24.2 11.1738 24.2 11.1738C24.2 11.1738 24.2 11.1738 24.2 11.1738C24.2 11.1738 24.2 11.1738 24.2 11.1738C24.2 11.1738 24.2 11.1738 24.2 11.1738C24.2 11.1738 24.2 11.1738 24.2 11.1738C24.2 11.1738 24.2 11.1738 24.2 11.1738C24.2 11.1738 24.2 11.1738 24.2 11.1738C24.2 11.1738 24.2 11.1738 24.2 11.1738C24.2 11.1738 24.2 11.1738 24.2 11.1738C24.2 11.1738 24.2 11.1738 24.2 11.1738C24.2 11.1738 24.2 11.1738 24.2 11.1738C24.2 11.1738 24.2 11.1738 24.2 11.1738C24.2 11.1738 24.2 11.1738 24.2 11.1738C24.2 11.1738 24.2 11.1738 24.2 11.1738C24.2 11.1738 24.2 11.1738 24.2 11.1738C24.2 11.1738 24.2 11.1738 24.2 11.1738C24.2 11.1738 24.2 11.1738 24.2 11.1738C24.2 11.1738 24.2 11.1738 24.2 11.1738C24.2 11.1738 24.2 11.1738 24.2 11.1738C24.2 11.1738 24.2 11.1738 24.2 11.1738C24.2 11.1738 24.2 11.1738 24.2 11.1738C24.2 11.1738 24.2 11.1738 24.2 11.1738C24.2 11.1738 24.2 11.1738 24.2 11.1737C24.2 11.1737 24.2 11.1737 24.2 11.1737C24.2 11.1737 24.2 11.1737 24.2 11.1737C24.2 11.1737 24.2 11.1737 24.2 11.1737C24.2 11.1737 24.2 11.1737 24.2 11.1737C24.2 11.1737 24.2 11.1737 24.2 11.1737C24.2 11.1737 24.2 11.1737 24.2 11.1737C24.2 11.1737 24.2 11.1737 24.2 11.1737C24.2 11.1737 24.2 11.1737 24.2 11.1737C24.2 11.1737 24.2 11.1737 24.2 11.1737C24.2 11.1737 24.2 11.1737 24.2 11.1737C24.2 11.1737 24.2 11.1737 24.2 11.1737C24.2 11.1737 24.2 11.1737 24.2 11.1737C24.2 11.1737 24.2 11.1737 24.2 11.1737C24.2 11.1737 24.2 11.1737 24.2 11.1737C24.2 11.1737 24.2 11.1737 24.2 11.1737C24.2 11.1737 24.2 11.1737 24.2 11.1737C24.2 11.1737 24.2 11.1737 24.2 11.1737C24.2 11.1737 24.2 11.1737 24.2 11.1737C24.2 11.1737 24.2 11.1737 24.2 11.1737C24.2 11.1737 24.2 11.1737 24.2 11.1737C24.2 11.1737 24.2 11.1737 24.2 11.1737C24.2 11.1737 24.2 11.1737 24.2 11.1737C24.2 11.1737 24.2 11.1737 24.2 11.1737C24.2 11.1737 24.2 11.1737 24.2 11.1737C24.2 11.1737 24.2 11.1737 24.2 11.1737C24.2 11.1737 24.2 11.1737 24.2 11.1737C24.2 11.1737 24.2 11.1736 24.2 11.1736C24.2 11.1736 24.2 11.1736 24.2 11.1736C24.2 11.1736 24.2 11.1736 24.2 11.1736C24.2 11.1736 24.2 11.1736 24.2 11.1736C24.2 11.1736 24.2 11.1736 24.2 11.1736C24.2 11.1736 24.2 11.1736 24.2 11.1736C24.2 11.1736 24.2 11.1736 24.2 11.1736C24.2 11.1736 24.2 11.1736 24.2 11.1736C24.2 11.1736 24.2 11.1736 24.2 11.1736C24.2 11.1736 24.2 11.1736 24.2 11.1736C24.2 11.1736 24.2 11.1736 24.2 11.1736C24.2 11.1736 24.2 11.1736 24.2 11.1736C24.2 11.1736 24.2 11.1736 24.2 11.1736C24.2 11.1736 24.2 11.1736 24.2 11.1736C24.2 11.1736 24.2 11.1736 24.2 11.1736C24.2 11.1736 24.2 11.1736 24.2 11.1736C24.2 11.1736 24.2 11.1736 24.2 11.1736C24.2 11.1736 24.2 11.1736 24.2 11.1736C24.2 11.1736 24.2 11.1736 24.2 11.1736C24.2 11.1736 24.2 11.1736 24.2 11.1736C24.2 11.1736 24.2 11.1736 24.2 11.1736C24.2 11.1736 24.2 11.1736 24.2 11.1736C24.2 11.1736 24.2 11.1736 24.2 11.1736C24.2 11.1736 24.2 11.1736 24.2 11.1736C24.2 11.1736 24.2 11.1736 24.2 11.1736C24.2 11.1736 24.2 11.1736 24.2 11.1736C24.2 11.1736 24.2 11.1736 24.2 11.1736C24.2 11.1735 24.2 11.1735 24.2 11.1735C24.2 11.1735 24.2 11.1735 24.2 11.1735C24.2 11.1735 24.2 11.1735 24.2 11.1735C24.2 11.1735 24.2 11.1735 24.2 11.1735C24.2 11.1735 24.2 11.1735 24.2 11.1735C24.2 11.1735 24.2 11.1735 24.2 11.1735C24.2 11.1735 24.2 11.1735 24.2 11.1735C24.2 11.1735 24.2 11.1735 24.2 11.1735C24.2 11.1735 24.2 11.1735 24.2 11.1735C24.2 11.1735 24.2 11.1735 24.2 11.1735C24.2 11.1735 24.2 11.1735 24.2 11.1735C24.2 11.1735 24.2 11.1735 24.2 11.1735C24.2 11.1735 24.2 11.1735 24.2 11.1735C24.2 11.1735 24.2 11.1735 24.2 11.1735C24.2 11.1735 24.2 11.1735 24.2 11.1735C24.2 11.1735 24.2 11.1735 24.2 11.1735C24.2 11.1735 24.2 11.1735 24.2 11.1735C24.2 11.1735 24.2 11.1735 24.2 11.1735C24.2 11.1735 24.2 11.1735 24.2 11.1735C24.2 11.1735 24.2 11.1735 24.2 11.1735C24.2 11.1735 24.2 11.1735 24.2 11.1735C24.2 11.1735 24.2 11.1735 24.2 11.1735C24.2 11.1735 24.2 11.1735 24.2 11.1735C24.2 11.1735 24.2 11.1735 24.2 11.1735C24.2 11.1735 24.2 11.1735 24.2 11.1735C24.2 11.1735 24.2 11.1735 24.2 11.1735C24.2 11.1735 24.2 11.1735 24.2 11.1734C24.2 11.1734 24.2 11.1734 24.2 11.1734C24.2 11.1734 24.2 11.1734 24.2 11.1734C24.2 11.1734 24.2 11.1734 24.2 11.1734C24.2 11.1734 24.2 11.1734 24.2 11.1734C24.2 11.1734 24.2 11.1734 24.2 11.1734C24.2 11.1734 24.2 11.1734 24.2 11.1734C24.2 11.1734 24.2 11.1734 24.2 11.1734C24.2 11.1734 24.2 11.1734 24.2 11.1734C24.2 11.1734 24.2 11.1734 24.2 11.1734C24.2 11.1734 24.2 11.1734 24.2 11.1734C24.2 11.1734 24.2 11.1734 24.2 11.1734C24.2 11.1734 24.2 11.1734 24.2 11.1734C24.2 11.1734 24.2 11.1734 24.2 11.1734C24.2 11.1734 24.2 11.1734 24.2 11.1734C24.2 11.1734 24.2 11.1734 24.2 11.1734C24.2 11.1734 24.2 11.1734 24.2 11.1734C24.2 11.1734 24.2 11.1734 24.2 11.1734C24.2 11.1734 24.2 11.1734 24.2 11.1734C24.2 11.1734 24.2 11.1734 24.2 11.1734C24.2 11.1734 24.2 11.1734 24.2 11.1734C24.2 11.1734 24.2 11.1734 24.2 11.1734C24.2 11.1734 24.2 11.1734 24.2 11.1734C24.2 11.1734 24.2 11.1734 24.2 11.1734C24.2 11.1734 24.2 11.1734 24.2 11.1734C24.2 11.1734 24.2 11.1734 24.2 11.1734C24.2 11.1734 24.2 11.1734 24.2 11.1734C24.2 11.1734 24.2 11.1733 24.2 11.1733C24.2 11.1733 24.2 11.1733 24.2 11.1733C24.2 11.1733 24.2 11.1733 24.2 11.1733C24.2 11.1733 24.2 11.1733 24.2 11.1733C24.2 11.1733 24.2 11.1733 24.2 11.1733C24.2 11.1733 24.2 11.1733 24.2 11.1733C24.2 11.1733 24.2 11.1733 24.2 11.1733C24.2 11.1733 24.2 11.1733 24.2 11.1733C24.2 11.1733 24.2 11.1733 24.2 11.1733C24.2 11.1733 24.2 11.1733 24.2 11.1733C24.2 11.1733 24.2 11.1733 24.2 11.1733C24.2 11.1733 24.2 11.1733 24.2 11.1733C24.2 11.1733 24.2 11.1733 24.2 11.1733C24.2 11.1733 24.2 11.1733 24.2 11.1733C24.2 11.1733 24.2 11.1733 24.2 11.1733C24.2 11.1733 24.2 11.1733 24.2 11.1733C24.2 11.1733 24.2 11.1733 24.2 11.1733C24.2 11.1733 24.2 11.1733 24.2 11.1733C24.2 11.1733 24.2 11.1733 24.2 11.1733C24.2 11.1733 24.2 11.1733 24.2 11.1733C24.2 11.1733 24.2 11.1733 24.2 11.1733C24.2 11.1733 24.2 11.1733 24.2 11.1733C24.2 11.1733 24.2 11.1733 24.2 11.1733C24.2 11.1733 24.2 11.1733 24.2 11.1733C24.2 11.1733 24.2 11.1733 24.2 11.1733C24.2 11.1733 24.2 11.1733 24.2 11.1733C24.2 11.1733 24.2 11.1733 24.2 11.1733C24.2 11.1732 24.2 11.1732 24.2 11.1732C24.2 11.1732 24.2 11.1732 24.2 11.1732C24.2 11.1732 24.2 11.1732 24.2 11.1732C24.2 11.1732 24.2 11.1732 24.2 11.1732C24.2 11.1732 24.2 11.1732 24.2 11.1732C24.2 11.1732 24.2 11.1732 24.2 11.1732C24.2 11.1732 24.2 11.1732 24.2 11.1732C24.2 11.1732 24.2 11.1732 24.2 11.1732C24.2 11.1732 24.2 11.1732 24.2 11.1732C24.2 11.1732 24.2 11.1732 24.2 11.1732C24.2 11.1732 24.2 11.1732 24.2 11.1732C24.2 11.1732 24.2 11.1732 24.2 11.1732C24.2 11.1732 24.2 11.1732 24.2 11.1732C24.2 11.1732 24.2 11.1732 24.2 11.1732C24.2 11.1732 24.2 11.1732 24.2 11.1732C24.2 11.1732 24.2 11.1732 24.2 11.1732C24.2 11.1732 24.2 11.1732 24.2 11.1732C24.2 11.1732 24.2 11.1732 24.2 11.1732C24.2 11.1732 24.2 11.1732 24.2 11.1732C24.2 11.1732 24.2 11.1732 24.2 11.1732C24.2 11.1732 24.2 11.1732 24.2 11.1732C24.2 11.1732 24.2 11.1732 24.2 11.1732C24.2 11.1732 24.2 11.1732 24.2 11.1732C24.2 11.1732 24.2 11.1732 24.2 11.1732C24.2 11.1732 24.2 11.1732 24.2 11.1732C24.2 11.1732 24.2 11.1732 24.2 11.1732C24.2 11.1732 24.2 11.1732 24.2 11.1731C24.2 11.1731 24.2 11.1731 24.2 11.1731C24.2 11.1731 24.2 11.1731 24.2 11.1731C24.2 11.1731 24.2 11.1731 24.2 11.1731C24.2 11.1731 24.2 11.1731 24.2 11.1731C24.2 11.1731 24.2 11.1731 24.2 11.1731C24.2 11.1731 24.2 11.1731 24.2 11.1731C24.2 11.1731 24.2 11.1731 24.2 11.1731C24.2 11.1731 24.2 11.1731 24.2 11.1731C24.2 11.1731 24.2 11.1731 24.2 11.1731C24.2 11.1731 24.2 11.1731 24.2 11.1731C24.2 11.1731 24.2 11.1731 24.2 11.1731C24.2 11.1731 24.2 11.1731 24.2 11.1731C24.2 11.1731 24.2 11.1731 24.2 11.1731C24.2 11.1731 24.2 11.1731 24.2 11.1731C24.2 11.1731 24.2 11.1731 24.2 11.1731C24.2 11.1731 24.2 11.1731 24.2 11.1731C24.2 11.1731 24.2 11.1731 24.2 11.1731C24.2 11.1731 24.2 11.1731 24.2 11.1731C24.2 11.1731 24.2 11.1731 24.2 11.1731C24.2 11.1731 24.2 11.1731 24.2 11.1731C24.2 11.1731 24.2 11.1731 24.2 11.1731C24.2 11.1731 24.2 11.1731 24.2 11.1731C24.2 11.1731 24.2 11.1731 24.2 11.1731C24.2 11.1731 24.2 11.1731 24.2 11.1731C24.2 11.1731 24.2 11.1731 24.2 11.1731C24.2 11.1731 24.2 11.1731 24.2 11.1731C24.2 11.1731 24.2 11.173 24.2 11.173C24.2 11.173 24.2 11.173 24.2 11.173C24.2 11.173 24.2 11.173 24.2 11.173C24.2 11.173 24.2 11.173 24.2 11.173C24.2 11.173 24.2 11.173 24.2 11.173C24.2 11.173 24.2 11.173 24.2 11.173C24.2 11.173 24.2 11.173 24.2 11.173C24.2 11.173 24.2 11.173 24.2 11.173C24.2 11.173 24.2 11.173 24.2 11.173C24.2 11.173 24.2 11.173 24.2 11.173C24.2 11.173 24.2 11.173 24.2 11.173C24.2 11.173 24.2 11.173 24.2 11.173C24.2 11.173 24.2 11.173 24.2 11.173C24.2 11.173 24.2 11.173 24.2 11.173C24.2 11.173 24.2 11.173 24.2 11.173C24.2 11.173 24.2 11.173 24.2 11.173C24.2 11.173 24.2 11.173 24.2 11.173C24.2 11.173 24.2 11.173 24.2 11.173C24.2 11.173 24.2 11.173 24.2 11.173C24.2 11.173 24.2 11.173 24.2 11.173C24.2 11.173 24.2 11.173 24.2 11.173C24.2 11.173 24.2 11.173 24.2 11.173C24.2 11.173 24.2 11.173 24.2 11.173C24.2 11.173 24.2 11.173 24.2 11.173C24.2 11.173 24.2 11.173 24.2 11.173C24.2 11.173 24.2 11.173 24.2 11.173C24.2 11.173 24.2 11.173 24.2 11.173C24.2 11.173 24.2 11.1729 24.2 11.1729C24.2 11.1729 24.2 11.1729 24.2 11.1729C24.2 11.1729 24.2 11.1729 24.2 11.1729C24.2 11.1729 24.2 11.1729 24.2 11.1729C24.2 11.1729 24.2 11.1729 24.2 11.1729C24.2 11.1729 24.2 11.1729 24.2 11.1729C24.2 11.1729 24.2 11.1729 24.2 11.1729C24.2 11.1729 24.2 11.1729 24.2 11.1729C24.2 11.1729 24.2 11.1729 24.2 11.1729C24.2 11.1729 24.2 11.1729 24.2 11.1729C24.2 11.1729 24.2 11.1729 24.2 11.1729C24.2 11.1729 24.2 11.1729 24.2 11.1729C24.2 11.1729 24.2 11.1729 24.2 11.1729C24.2 11.1729 24.2 11.1729 24.2 11.1729C24.2 11.1729 24.2 11.1729 24.2 11.1729C24.2 11.1729 24.2 11.1729 24.2 11.1729C24.2 11.1729 24.2 11.1729 24.2 11.1729C24.2 11.1729 24.2 11.1729 24.2 11.1729C24.2 11.1729 24.2 11.1729 24.2 11.1729C24.2 11.1729 24.2 11.1729 24.2 11.1729C24.2 11.1729 24.2 11.1729 24.2 11.1729C24.2 11.1729 24.2 11.1729 24.2 11.1729C24.2 11.1729 24.2 11.1729 24.2 11.1729C24.2 11.1729 24.2 11.1729 24.2 11.1729C24.2 11.1729 24.2 11.1729 24.2 11.1729C24.2 11.1729 24.2 11.1729 24.2 11.1729C24.2 11.1729 24.2 11.1729 24.2 11.1729C24.2 11.1728 24.2 11.1728 24.2 11.1728C24.2 11.1728 24.2 11.1728 24.2 11.1728C24.2 11.1728 24.2 11.1728 24.2 11.1728C24.2 11.1728 24.2 11.1728 24.2 11.1728C24.2 11.1728 24.2 11.1728 24.2 11.1728C24.2 11.1728 24.2 11.1728 24.2 11.1728C24.2 11.1728 24.2 11.1728 24.2 11.1728C24.2 11.1728 24.2 11.1728 24.2 11.1728C24.2 11.1728 24.2 11.1728 24.2 11.1728C24.2 11.1728 24.2 11.1728 24.2 11.1728C24.2 11.1728 24.2 11.1728 24.2 11.1728C24.2 11.1728 24.2 11.1728 24.2 11.1728C24.2 11.1728 24.2 11.1728 24.2 11.1728C24.2 11.1728 24.2 11.1728 24.2 11.1728C24.2 11.1728 24.2 11.1728 24.2 11.1728C24.2 11.1728 24.2 11.1728 24.2 11.1728C24.2 11.1728 24.2 11.1728 24.2 11.1728C24.2 11.1728 24.2 11.1728 24.2 11.1728C24.2 11.1728 24.2 11.1728 24.2 11.1728C24.2 11.1728 24.2 11.1728 24.2 11.1728C24.2 11.1728 24.2 11.1728 24.2 11.1728C24.2 11.1728 24.2 11.1728 24.2 11.1728C24.2 11.1728 24.2 11.1728 24.2 11.1728C24.2 11.1728 24.2 11.1728 24.2 11.1728C24.2 11.1728 24.2 11.1728 24.2 11.1728C24.2 11.1728 24.2 11.1728 24.2 11.1728C24.2 11.1728 24.2 11.1728 24.2 11.1727C24.2 11.1727 24.2 11.1727 24.2 11.1727C24.2 11.1727 24.2 11.1727 24.2 11.1727C24.2 11.1727 24.2 11.1727 24.2 11.1727C24.2 11.1727 24.2 11.1727 24.2 11.1727C24.2 11.1727 24.2 11.1727 24.2 11.1727C24.2 11.1727 24.2 11.1727 24.2 11.1727C24.2 11.1727 24.2 11.1727 24.2 11.1727C24.2 11.1727 24.2 11.1727 24.2 11.1727C24.2 11.1727 24.2 11.1727 24.2 11.1727C24.2 11.1727 24.2 11.1727 24.2 11.1727C24.2 11.1727 24.2 11.1727 24.2 11.1727C24.2 11.1727 24.2 11.1727 24.2 11.1727C24.2 11.1727 24.2 11.1727 24.2 11.1727C24.2 11.1727 24.2 11.1727 24.2 11.1727C24.2 11.1727 24.2 11.1727 24.2 11.1727C24.2 11.1727 24.2 11.1727 24.2 11.1727C24.2 11.1727 24.2 11.1727 24.2 11.1727C24.2 11.1727 24.2 11.1727 24.2 11.1727C24.2 11.1727 24.2 11.1727 24.2 11.1727C24.2 11.1727 24.2 11.1727 24.2 11.1727C24.2 11.1727 24.2 11.1727 24.2 11.1727C24.2 11.1727 24.2 11.1727 24.2 11.1727C24.2 11.1727 24.2 11.1727 24.2 11.1727C24.2 11.1727 24.2 11.1727 24.2 11.1727C24.2 11.1727 24.2 11.1727 24.2 11.1727C24.2 11.1727 24.2 11.1727 24.2 11.1727C24.2 11.1727 24.2 11.1726 24.2 11.1726C24.2 11.1726 24.2 11.1726 24.2 11.1726C24.2 11.1726 24.2 11.1726 24.2 11.1726C24.2 11.1726 24.2 11.1726 24.2 11.1726C24.2 11.1726 24.2 11.1726 24.2 11.1726C24.2 11.1726 24.2 11.1726 24.2 11.1726C24.2 11.1726 24.2 11.1726 24.2 11.1726C24.2 11.1726 24.2 11.1726 24.2 11.1726C24.2 11.1726 24.2 11.1726 24.2 11.1726C24.2 11.1726 24.2 11.1726 24.2 11.1726C24.2 11.1726 24.2 11.1726 24.2 11.1726C24.2 11.1726 24.2 11.1726 24.2 11.1726C24.2 11.1726 24.2 11.1726 24.2 11.1726C24.2 11.1726 24.2 11.1726 24.2 11.1726C24.2 11.1726 24.2 11.1726 24.2 11.1726C24.2 11.1726 24.2 11.1726 24.2 11.1726C24.2 11.1726 24.2 11.1726 24.2 11.1726C24.2 11.1726 24.2 11.1726 24.2 11.1726C24.2 11.1726 24.2 11.1726 24.2 11.1726C24.2 11.1726 24.2 11.1726 24.2 11.1726C24.2 11.1726 24.2 11.1726 24.2 11.1726C24.2 11.1726 24.2 11.1726 24.2 11.1726C24.2 11.1726 24.2 11.1726 24.2 11.1726C24.2 11.1726 24.2 11.1726 24.2 11.1726C24.2 11.1726 24.2 11.1726 24.2 11.1726C24.2 11.1726 24.2 11.1726 24.2 11.1726C24.2 11.1726 24.2 11.1726 24.2 11.1726C24.2 11.1725 24.2 11.1725 24.2 11.1725C24.2 11.1725 24.2 11.1725 24.2 11.1725C24.2 11.1725 24.2 11.1725 24.2 11.1725C24.2 11.1725 24.2 11.1725 24.2 11.1725C24.2 11.1725 24.2 11.1725 24.2 11.1725C24.2 11.1725 24.2 11.1725 24.2 11.1725C24.2 11.1725 24.2 11.1725 24.2 11.1725C24.2 11.1725 24.2 11.1725 24.2 11.1725C24.2 11.1725 24.2 11.1725 24.2 11.1725C24.2 11.1725 24.2 11.1725 24.2 11.1725C24.2 11.1725 24.2 11.1725 24.2 11.1725C24.2 11.1725 24.2 11.1725 24.2 11.1725C24.2 11.1725 24.2 11.1725 24.2 11.1725C24.2 11.1725 24.2 11.1725 24.2 11.1725C24.2 11.1725 24.2 11.1725 24.2 11.1725C24.2 11.1725 24.2 11.1725 24.2 11.1725C24.2 11.1725 24.2 11.1725 24.2 11.1725C24.2 11.1725 24.2 11.1725 24.2 11.1725C24.2 11.1725 24.2 11.1725 24.2 11.1725C24.2 11.1725 24.2 11.1725 24.2 11.1725C24.2 11.1725 24.2 11.1725 24.2 11.1725C24.2 11.1725 24.2 11.1725 24.2 11.1725C24.2 11.1725 24.2 11.1725 24.2 11.1725C24.2 11.1725 24.2 11.1725 24.2 11.1725C24.2 11.1725 24.2 11.1725 24.2 11.1725C24.2 11.1725 24.2 11.1725 24.2 11.1725C24.2 11.1725 24.2 11.1725 24.2 11.1724C24.2 11.1724 24.2 11.1724 24.2 11.1724C24.2 11.1724 24.2 11.1724 24.2 11.1724C24.2 11.1724 24.2 11.1724 24.2 11.1724C24.2 11.1724 24.2 11.1724 24.2 11.1724C24.2 11.1724 24.2 11.1724 24.2 11.1724C24.2 11.1724 24.2 11.1724 24.2 11.1724C24.2 11.1724 24.2 11.1724 24.2 11.1724C24.2 11.1724 24.2 11.1724 24.2 11.1724C24.2 11.1724 24.2 11.1724 24.2 11.1724C24.2 11.1724 24.2 11.1724 24.2 11.1724C24.2 11.1724 24.2 11.1724 24.2 11.1724C24.2 11.1724 24.2 11.1724 24.2 11.1724C24.2 11.1724 24.2 11.1724 24.2 11.1724C24.2 11.1724 24.2 11.1724 24.2 11.1724C24.2 11.1724 24.2 11.1724 24.2 11.1724C24.2 11.1724 24.2 11.1724 24.2 11.1724C24.2 11.1724 24.2 11.1724 24.2 11.1724C24.2 11.1724 24.2 11.1724 24.2 11.1724C24.2 11.1724 24.2 11.1724 24.2 11.1724C24.2 11.1724 24.2 11.1724 24.2 11.1724C24.2 11.1724 24.2 11.1724 24.2 11.1724C24.2 11.1724 24.2 11.1724 24.2 11.1724C24.2 11.1724 24.2 11.1724 24.2 11.1724C24.2 11.1724 24.2 11.1724 24.2 11.1724C24.2 11.1724 24.2 11.1724 24.2 11.1724C24.2 11.1724 24.2 11.1724 24.2 11.1724C24.2 11.1724 24.2 11.1723 24.2 11.1723C24.2 11.1723 24.2 11.1723 24.2 11.1723C24.2 11.1723 24.2 11.1723 24.2 11.1723C24.2 11.1723 24.2 11.1723 24.2 11.1723C24.2 11.1723 24.2 11.1723 24.2 11.1723C24.2 11.1723 24.2 11.1723 24.2 11.1723C24.2 11.1723 24.2 11.1723 24.2 11.1723C24.2 11.1723 24.2 11.1723 24.2 11.1723C24.2 11.1723 24.2 11.1723 24.2 11.1723C24.2 11.1723 24.2 11.1723 24.2 11.1723C24.2 11.1723 24.2 11.1723 24.2 11.1723C24.2 11.1723 24.2 11.1723 24.2 11.1723C24.2 11.1723 24.2 11.1723 24.2 11.1723C24.2 11.1723 24.2 11.1723 24.2 11.1723C24.2 11.1723 24.2 11.1723 24.2 11.1723C24.2 11.1723 24.2 11.1723 24.2 11.1723C24.2 11.1723 24.2 11.1723 24.2 11.1723C24.2 11.1723 24.2 11.1723 24.2 11.1723C24.2 11.1723 24.2 11.1723 24.2 11.1723C24.2 11.1723 24.2 11.1723 24.2 11.1723C24.2 11.1723 24.2 11.1723 24.2 11.1723C24.2 11.1723 24.2 11.1723 24.2 11.1723C24.2 11.1723 24.2 11.1723 24.2 11.1723C24.2 11.1723 24.2 11.1723 24.2 11.1723C24.2 11.1723 24.2 11.1723 24.2 11.1723C24.2 11.1723 24.2 11.1723 24.2 11.1723C24.2 11.1723 24.2 11.1723 24.2 11.1723C24.2 11.1722 24.2 11.1722 24.2 11.1722C24.2 11.1722 24.2 11.1722 24.2 11.1722C24.2 11.1722 24.2 11.1722 24.2 11.1722C24.2 11.1722 24.2 11.1722 24.2 11.1722C24.2 11.1722 24.2 11.1722 24.2 11.1722C24.2 11.1722 24.2 11.1722 24.2 11.1722C24.2 11.1722 24.2 11.1722 24.2 11.1722C24.2 11.1722 24.2 11.1722 24.2 11.1722C24.2 11.1722 24.2 11.1722 24.2 11.1722C24.2 11.1722 24.2 11.1722 24.2 11.1722C24.2 11.1722 24.2 11.1722 24.2 11.1722C24.2 11.1722 24.2 11.1722 24.2 11.1722C24.2 11.1722 24.2 11.1722 24.2 11.1722C24.2 11.1722 24.2 11.1722 24.2 11.1722C24.2 11.1722 24.2 11.1722 24.2 11.1722C24.2 11.1722 24.2 11.1722 24.2 11.1722C24.2 11.1722 24.2 11.1722 24.2 11.1722C24.2 11.1722 24.2 11.1722 24.2 11.1722C24.2 11.1722 24.2 11.1722 24.2 11.1722C24.2 11.1722 24.2 11.1722 24.2 11.1722C24.2 11.1722 24.2 11.1722 24.2 11.1722C24.2 11.1722 24.2 11.1722 24.2 11.1722C24.2 11.1722 24.2 11.1722 24.2 11.1722C24.2 11.1722 24.2 11.1722 24.2 11.1722C24.2 11.1722 24.2 11.1722 24.2 11.1722C24.2 11.1722 24.2 11.1722 24.2 11.1722C24.2 11.1722 24.2 11.1722 24.2 11.1721C24.2 11.1721 24.2 11.1721 24.2 11.1721C24.2 11.1721 24.2 11.1721 24.2 11.1721C24.2 11.1721 24.2 11.1721 24.2 11.1721C24.2 11.1721 24.2 11.1721 24.2 11.1721C24.2 11.1721 24.2 11.1721 24.2 11.1721C24.2 11.1721 24.2 11.1721 24.2 11.1721C24.2 11.1721 24.2 11.1721 24.2 11.1721C24.2 11.1721 24.2 11.1721 24.2 11.1721C24.2 11.1721 24.2 11.1721 24.2 11.1721C24.2 11.1721 24.2 11.1721 24.2 11.1721C24.2 11.1721 24.2 11.1721 24.2 11.1721C24.2 11.1721 24.2 11.1721 24.2 11.1721C24.2 11.1721 24.2 11.1721 24.2 11.1721C24.2 11.1721 24.2 11.1721 24.2 11.1721C24.2 11.1721 24.2 11.1721 24.2 11.1721C24.2 11.1721 24.2 11.1721 24.2 11.1721C24.2 11.1721 24.2 11.1721 24.2 11.1721C24.2 11.1721 24.2 11.1721 24.2 11.1721C24.2 11.1721 24.2 11.1721 24.2 11.1721C24.2 11.1721 24.2 11.1721 24.2 11.1721C24.2 11.1721 24.2 11.1721 24.2 11.1721C24.2 11.1721 24.2 11.1721 24.2 11.1721C24.2 11.1721 24.2 11.1721 24.2 11.1721H23.8C23.8 11.1721 23.8 11.1721 23.8 11.1721C23.8 11.1721 23.8 11.1721 23.8 11.1721C23.8 11.1721 23.8 11.1721 23.8 11.1721C23.8 11.1721 23.8 11.1721 23.8 11.1721C23.8 11.1721 23.8 11.1721 23.8 11.1721C23.8 11.1721 23.8 11.1721 23.8 11.1721C23.8 11.1721 23.8 11.1721 23.8 11.1721C23.8 11.1721 23.8 11.1721 23.8 11.1721C23.8 11.1721 23.8 11.1721 23.8 11.1721C23.8 11.1721 23.8 11.1721 23.8 11.1721C23.8 11.1721 23.8 11.1721 23.8 11.1721C23.8 11.1721 23.8 11.1721 23.8 11.1721C23.8 11.1721 23.8 11.1721 23.8 11.1721C23.8 11.1721 23.8 11.1721 23.8 11.1721C23.8 11.1721 23.8 11.1721 23.8 11.1721C23.8 11.1721 23.8 11.1721 23.8 11.1721C23.8 11.1721 23.8 11.1721 23.8 11.1721C23.8 11.1721 23.8 11.1721 23.8 11.1721C23.8 11.1721 23.8 11.1721 23.8 11.1721C23.8 11.1721 23.8 11.1721 23.8 11.1721C23.8 11.1721 23.8 11.1721 23.8 11.1721C23.8 11.1721 23.8 11.1721 23.8 11.1721C23.8 11.1721 23.8 11.1721 23.8 11.1721C23.8 11.1722 23.8 11.1722 23.8 11.1722C23.8 11.1722 23.8 11.1722 23.8 11.1722C23.8 11.1722 23.8 11.1722 23.8 11.1722C23.8 11.1722 23.8 11.1722 23.8 11.1722C23.8 11.1722 23.8 11.1722 23.8 11.1722C23.8 11.1722 23.8 11.1722 23.8 11.1722C23.8 11.1722 23.8 11.1722 23.8 11.1722C23.8 11.1722 23.8 11.1722 23.8 11.1722C23.8 11.1722 23.8 11.1722 23.8 11.1722C23.8 11.1722 23.8 11.1722 23.8 11.1722C23.8 11.1722 23.8 11.1722 23.8 11.1722C23.8 11.1722 23.8 11.1722 23.8 11.1722C23.8 11.1722 23.8 11.1722 23.8 11.1722C23.8 11.1722 23.8 11.1722 23.8 11.1722C23.8 11.1722 23.8 11.1722 23.8 11.1722C23.8 11.1722 23.8 11.1722 23.8 11.1722C23.8 11.1722 23.8 11.1722 23.8 11.1722C23.8 11.1722 23.8 11.1722 23.8 11.1722C23.8 11.1722 23.8 11.1722 23.8 11.1722C23.8 11.1722 23.8 11.1722 23.8 11.1722C23.8 11.1722 23.8 11.1722 23.8 11.1722C23.8 11.1722 23.8 11.1722 23.8 11.1722C23.8 11.1722 23.8 11.1722 23.8 11.1722C23.8 11.1722 23.8 11.1722 23.8 11.1722C23.8 11.1722 23.8 11.1722 23.8 11.1722C23.8 11.1722 23.8 11.1722 23.8 11.1722C23.8 11.1722 23.8 11.1722 23.8 11.1723C23.8 11.1723 23.8 11.1723 23.8 11.1723C23.8 11.1723 23.8 11.1723 23.8 11.1723C23.8 11.1723 23.8 11.1723 23.8 11.1723C23.8 11.1723 23.8 11.1723 23.8 11.1723C23.8 11.1723 23.8 11.1723 23.8 11.1723C23.8 11.1723 23.8 11.1723 23.8 11.1723C23.8 11.1723 23.8 11.1723 23.8 11.1723C23.8 11.1723 23.8 11.1723 23.8 11.1723C23.8 11.1723 23.8 11.1723 23.8 11.1723C23.8 11.1723 23.8 11.1723 23.8 11.1723C23.8 11.1723 23.8 11.1723 23.8 11.1723C23.8 11.1723 23.8 11.1723 23.8 11.1723C23.8 11.1723 23.8 11.1723 23.8 11.1723C23.8 11.1723 23.8 11.1723 23.8 11.1723C23.8 11.1723 23.8 11.1723 23.8 11.1723C23.8 11.1723 23.8 11.1723 23.8 11.1723C23.8 11.1723 23.8 11.1723 23.8 11.1723C23.8 11.1723 23.8 11.1723 23.8 11.1723C23.8 11.1723 23.8 11.1723 23.8 11.1723C23.8 11.1723 23.8 11.1723 23.8 11.1723C23.8 11.1723 23.8 11.1723 23.8 11.1723C23.8 11.1723 23.8 11.1723 23.8 11.1723C23.8 11.1723 23.8 11.1723 23.8 11.1723C23.8 11.1723 23.8 11.1723 23.8 11.1723C23.8 11.1723 23.8 11.1723 23.8 11.1723C23.8 11.1723 23.8 11.1723 23.8 11.1723C23.8 11.1723 23.8 11.1724 23.8 11.1724C23.8 11.1724 23.8 11.1724 23.8 11.1724C23.8 11.1724 23.8 11.1724 23.8 11.1724C23.8 11.1724 23.8 11.1724 23.8 11.1724C23.8 11.1724 23.8 11.1724 23.8 11.1724C23.8 11.1724 23.8 11.1724 23.8 11.1724C23.8 11.1724 23.8 11.1724 23.8 11.1724C23.8 11.1724 23.8 11.1724 23.8 11.1724C23.8 11.1724 23.8 11.1724 23.8 11.1724C23.8 11.1724 23.8 11.1724 23.8 11.1724C23.8 11.1724 23.8 11.1724 23.8 11.1724C23.8 11.1724 23.8 11.1724 23.8 11.1724C23.8 11.1724 23.8 11.1724 23.8 11.1724C23.8 11.1724 23.8 11.1724 23.8 11.1724C23.8 11.1724 23.8 11.1724 23.8 11.1724C23.8 11.1724 23.8 11.1724 23.8 11.1724C23.8 11.1724 23.8 11.1724 23.8 11.1724C23.8 11.1724 23.8 11.1724 23.8 11.1724C23.8 11.1724 23.8 11.1724 23.8 11.1724C23.8 11.1724 23.8 11.1724 23.8 11.1724C23.8 11.1724 23.8 11.1724 23.8 11.1724C23.8 11.1724 23.8 11.1724 23.8 11.1724C23.8 11.1724 23.8 11.1724 23.8 11.1724C23.8 11.1724 23.8 11.1724 23.8 11.1724C23.8 11.1724 23.8 11.1724 23.8 11.1724C23.8 11.1724 23.8 11.1724 23.8 11.1724C23.8 11.1724 23.8 11.1724 23.8 11.1724C23.8 11.1725 23.8 11.1725 23.8 11.1725C23.8 11.1725 23.8 11.1725 23.8 11.1725C23.8 11.1725 23.8 11.1725 23.8 11.1725C23.8 11.1725 23.8 11.1725 23.8 11.1725C23.8 11.1725 23.8 11.1725 23.8 11.1725C23.8 11.1725 23.8 11.1725 23.8 11.1725C23.8 11.1725 23.8 11.1725 23.8 11.1725C23.8 11.1725 23.8 11.1725 23.8 11.1725C23.8 11.1725 23.8 11.1725 23.8 11.1725C23.8 11.1725 23.8 11.1725 23.8 11.1725C23.8 11.1725 23.8 11.1725 23.8 11.1725C23.8 11.1725 23.8 11.1725 23.8 11.1725C23.8 11.1725 23.8 11.1725 23.8 11.1725C23.8 11.1725 23.8 11.1725 23.8 11.1725C23.8 11.1725 23.8 11.1725 23.8 11.1725C23.8 11.1725 23.8 11.1725 23.8 11.1725C23.8 11.1725 23.8 11.1725 23.8 11.1725C23.8 11.1725 23.8 11.1725 23.8 11.1725C23.8 11.1725 23.8 11.1725 23.8 11.1725C23.8 11.1725 23.8 11.1725 23.8 11.1725C23.8 11.1725 23.8 11.1725 23.8 11.1725C23.8 11.1725 23.8 11.1725 23.8 11.1725C23.8 11.1725 23.8 11.1725 23.8 11.1725C23.8 11.1725 23.8 11.1725 23.8 11.1725C23.8 11.1725 23.8 11.1725 23.8 11.1725C23.8 11.1725 23.8 11.1725 23.8 11.1725C23.8 11.1725 23.8 11.1725 23.8 11.1726C23.8 11.1726 23.8 11.1726 23.8 11.1726C23.8 11.1726 23.8 11.1726 23.8 11.1726C23.8 11.1726 23.8 11.1726 23.8 11.1726C23.8 11.1726 23.8 11.1726 23.8 11.1726C23.8 11.1726 23.8 11.1726 23.8 11.1726C23.8 11.1726 23.8 11.1726 23.8 11.1726C23.8 11.1726 23.8 11.1726 23.8 11.1726C23.8 11.1726 23.8 11.1726 23.8 11.1726C23.8 11.1726 23.8 11.1726 23.8 11.1726C23.8 11.1726 23.8 11.1726 23.8 11.1726C23.8 11.1726 23.8 11.1726 23.8 11.1726C23.8 11.1726 23.8 11.1726 23.8 11.1726C23.8 11.1726 23.8 11.1726 23.8 11.1726C23.8 11.1726 23.8 11.1726 23.8 11.1726C23.8 11.1726 23.8 11.1726 23.8 11.1726C23.8 11.1726 23.8 11.1726 23.8 11.1726C23.8 11.1726 23.8 11.1726 23.8 11.1726C23.8 11.1726 23.8 11.1726 23.8 11.1726C23.8 11.1726 23.8 11.1726 23.8 11.1726C23.8 11.1726 23.8 11.1726 23.8 11.1726C23.8 11.1726 23.8 11.1726 23.8 11.1726C23.8 11.1726 23.8 11.1726 23.8 11.1726C23.8 11.1726 23.8 11.1726 23.8 11.1726C23.8 11.1726 23.8 11.1726 23.8 11.1726C23.8 11.1726 23.8 11.1726 23.8 11.1726C23.8 11.1726 23.8 11.1726 23.8 11.1726C23.8 11.1726 23.8 11.1727 23.8 11.1727C23.8 11.1727 23.8 11.1727 23.8 11.1727C23.8 11.1727 23.8 11.1727 23.8 11.1727C23.8 11.1727 23.8 11.1727 23.8 11.1727C23.8 11.1727 23.8 11.1727 23.8 11.1727C23.8 11.1727 23.8 11.1727 23.8 11.1727C23.8 11.1727 23.8 11.1727 23.8 11.1727C23.8 11.1727 23.8 11.1727 23.8 11.1727C23.8 11.1727 23.8 11.1727 23.8 11.1727C23.8 11.1727 23.8 11.1727 23.8 11.1727C23.8 11.1727 23.8 11.1727 23.8 11.1727C23.8 11.1727 23.8 11.1727 23.8 11.1727C23.8 11.1727 23.8 11.1727 23.8 11.1727C23.8 11.1727 23.8 11.1727 23.8 11.1727C23.8 11.1727 23.8 11.1727 23.8 11.1727C23.8 11.1727 23.8 11.1727 23.8 11.1727C23.8 11.1727 23.8 11.1727 23.8 11.1727C23.8 11.1727 23.8 11.1727 23.8 11.1727C23.8 11.1727 23.8 11.1727 23.8 11.1727C23.8 11.1727 23.8 11.1727 23.8 11.1727C23.8 11.1727 23.8 11.1727 23.8 11.1727C23.8 11.1727 23.8 11.1727 23.8 11.1727C23.8 11.1727 23.8 11.1727 23.8 11.1727C23.8 11.1727 23.8 11.1727 23.8 11.1727C23.8 11.1727 23.8 11.1727 23.8 11.1727C23.8 11.1727 23.8 11.1727 23.8 11.1727C23.8 11.1727 23.8 11.1727 23.8 11.1727C23.8 11.1728 23.8 11.1728 23.8 11.1728C23.8 11.1728 23.8 11.1728 23.8 11.1728C23.8 11.1728 23.8 11.1728 23.8 11.1728C23.8 11.1728 23.8 11.1728 23.8 11.1728C23.8 11.1728 23.8 11.1728 23.8 11.1728C23.8 11.1728 23.8 11.1728 23.8 11.1728C23.8 11.1728 23.8 11.1728 23.8 11.1728C23.8 11.1728 23.8 11.1728 23.8 11.1728C23.8 11.1728 23.8 11.1728 23.8 11.1728C23.8 11.1728 23.8 11.1728 23.8 11.1728C23.8 11.1728 23.8 11.1728 23.8 11.1728C23.8 11.1728 23.8 11.1728 23.8 11.1728C23.8 11.1728 23.8 11.1728 23.8 11.1728C23.8 11.1728 23.8 11.1728 23.8 11.1728C23.8 11.1728 23.8 11.1728 23.8 11.1728C23.8 11.1728 23.8 11.1728 23.8 11.1728C23.8 11.1728 23.8 11.1728 23.8 11.1728C23.8 11.1728 23.8 11.1728 23.8 11.1728C23.8 11.1728 23.8 11.1728 23.8 11.1728C23.8 11.1728 23.8 11.1728 23.8 11.1728C23.8 11.1728 23.8 11.1728 23.8 11.1728C23.8 11.1728 23.8 11.1728 23.8 11.1728C23.8 11.1728 23.8 11.1728 23.8 11.1728C23.8 11.1728 23.8 11.1728 23.8 11.1728C23.8 11.1728 23.8 11.1728 23.8 11.1728C23.8 11.1728 23.8 11.1728 23.8 11.1728C23.8 11.1728 23.8 11.1728 23.8 11.1729C23.8 11.1729 23.8 11.1729 23.8 11.1729C23.8 11.1729 23.8 11.1729 23.8 11.1729C23.8 11.1729 23.8 11.1729 23.8 11.1729C23.8 11.1729 23.8 11.1729 23.8 11.1729C23.8 11.1729 23.8 11.1729 23.8 11.1729C23.8 11.1729 23.8 11.1729 23.8 11.1729C23.8 11.1729 23.8 11.1729 23.8 11.1729C23.8 11.1729 23.8 11.1729 23.8 11.1729C23.8 11.1729 23.8 11.1729 23.8 11.1729C23.8 11.1729 23.8 11.1729 23.8 11.1729C23.8 11.1729 23.8 11.1729 23.8 11.1729C23.8 11.1729 23.8 11.1729 23.8 11.1729C23.8 11.1729 23.8 11.1729 23.8 11.1729C23.8 11.1729 23.8 11.1729 23.8 11.1729C23.8 11.1729 23.8 11.1729 23.8 11.1729C23.8 11.1729 23.8 11.1729 23.8 11.1729C23.8 11.1729 23.8 11.1729 23.8 11.1729C23.8 11.1729 23.8 11.1729 23.8 11.1729C23.8 11.1729 23.8 11.1729 23.8 11.1729C23.8 11.1729 23.8 11.1729 23.8 11.1729C23.8 11.1729 23.8 11.1729 23.8 11.1729C23.8 11.1729 23.8 11.1729 23.8 11.1729C23.8 11.1729 23.8 11.1729 23.8 11.1729C23.8 11.1729 23.8 11.1729 23.8 11.1729C23.8 11.1729 23.8 11.1729 23.8 11.1729C23.8 11.1729 23.8 11.1729 23.8 11.1729C23.8 11.1729 23.8 11.173 23.8 11.173C23.8 11.173 23.8 11.173 23.8 11.173C23.8 11.173 23.8 11.173 23.8 11.173C23.8 11.173 23.8 11.173 23.8 11.173C23.8 11.173 23.8 11.173 23.8 11.173C23.8 11.173 23.8 11.173 23.8 11.173C23.8 11.173 23.8 11.173 23.8 11.173C23.8 11.173 23.8 11.173 23.8 11.173C23.8 11.173 23.8 11.173 23.8 11.173C23.8 11.173 23.8 11.173 23.8 11.173C23.8 11.173 23.8 11.173 23.8 11.173C23.8 11.173 23.8 11.173 23.8 11.173C23.8 11.173 23.8 11.173 23.8 11.173C23.8 11.173 23.8 11.173 23.8 11.173C23.8 11.173 23.8 11.173 23.8 11.173C23.8 11.173 23.8 11.173 23.8 11.173C23.8 11.173 23.8 11.173 23.8 11.173C23.8 11.173 23.8 11.173 23.8 11.173C23.8 11.173 23.8 11.173 23.8 11.173C23.8 11.173 23.8 11.173 23.8 11.173C23.8 11.173 23.8 11.173 23.8 11.173C23.8 11.173 23.8 11.173 23.8 11.173C23.8 11.173 23.8 11.173 23.8 11.173C23.8 11.173 23.8 11.173 23.8 11.173C23.8 11.173 23.8 11.173 23.8 11.173C23.8 11.173 23.8 11.173 23.8 11.173C23.8 11.173 23.8 11.173 23.8 11.173C23.8 11.173 23.8 11.1731 23.8 11.1731C23.8 11.1731 23.8 11.1731 23.8 11.1731C23.8 11.1731 23.8 11.1731 23.8 11.1731C23.8 11.1731 23.8 11.1731 23.8 11.1731C23.8 11.1731 23.8 11.1731 23.8 11.1731C23.8 11.1731 23.8 11.1731 23.8 11.1731C23.8 11.1731 23.8 11.1731 23.8 11.1731C23.8 11.1731 23.8 11.1731 23.8 11.1731C23.8 11.1731 23.8 11.1731 23.8 11.1731C23.8 11.1731 23.8 11.1731 23.8 11.1731C23.8 11.1731 23.8 11.1731 23.8 11.1731C23.8 11.1731 23.8 11.1731 23.8 11.1731C23.8 11.1731 23.8 11.1731 23.8 11.1731C23.8 11.1731 23.8 11.1731 23.8 11.1731C23.8 11.1731 23.8 11.1731 23.8 11.1731C23.8 11.1731 23.8 11.1731 23.8 11.1731C23.8 11.1731 23.8 11.1731 23.8 11.1731C23.8 11.1731 23.8 11.1731 23.8 11.1731C23.8 11.1731 23.8 11.1731 23.8 11.1731C23.8 11.1731 23.8 11.1731 23.8 11.1731C23.8 11.1731 23.8 11.1731 23.8 11.1731C23.8 11.1731 23.8 11.1731 23.8 11.1731C23.8 11.1731 23.8 11.1731 23.8 11.1731C23.8 11.1731 23.8 11.1731 23.8 11.1731C23.8 11.1731 23.8 11.1731 23.8 11.1731C23.8 11.1731 23.8 11.1731 23.8 11.1731C23.8 11.1731 23.8 11.1731 23.8 11.1731C23.8 11.1732 23.8 11.1732 23.8 11.1732C23.8 11.1732 23.8 11.1732 23.8 11.1732C23.8 11.1732 23.8 11.1732 23.8 11.1732C23.8 11.1732 23.8 11.1732 23.8 11.1732C23.8 11.1732 23.8 11.1732 23.8 11.1732C23.8 11.1732 23.8 11.1732 23.8 11.1732C23.8 11.1732 23.8 11.1732 23.8 11.1732C23.8 11.1732 23.8 11.1732 23.8 11.1732C23.8 11.1732 23.8 11.1732 23.8 11.1732C23.8 11.1732 23.8 11.1732 23.8 11.1732C23.8 11.1732 23.8 11.1732 23.8 11.1732C23.8 11.1732 23.8 11.1732 23.8 11.1732C23.8 11.1732 23.8 11.1732 23.8 11.1732C23.8 11.1732 23.8 11.1732 23.8 11.1732C23.8 11.1732 23.8 11.1732 23.8 11.1732C23.8 11.1732 23.8 11.1732 23.8 11.1732C23.8 11.1732 23.8 11.1732 23.8 11.1732C23.8 11.1732 23.8 11.1732 23.8 11.1732C23.8 11.1732 23.8 11.1732 23.8 11.1732C23.8 11.1732 23.8 11.1732 23.8 11.1732C23.8 11.1732 23.8 11.1732 23.8 11.1732C23.8 11.1732 23.8 11.1732 23.8 11.1732C23.8 11.1732 23.8 11.1732 23.8 11.1732C23.8 11.1732 23.8 11.1732 23.8 11.1732C23.8 11.1732 23.8 11.1732 23.8 11.1732C23.8 11.1732 23.8 11.1732 23.8 11.1732C23.8 11.1732 23.8 11.1732 23.8 11.1733C23.8 11.1733 23.8 11.1733 23.8 11.1733C23.8 11.1733 23.8 11.1733 23.8 11.1733C23.8 11.1733 23.8 11.1733 23.8 11.1733C23.8 11.1733 23.8 11.1733 23.8 11.1733C23.8 11.1733 23.8 11.1733 23.8 11.1733C23.8 11.1733 23.8 11.1733 23.8 11.1733C23.8 11.1733 23.8 11.1733 23.8 11.1733C23.8 11.1733 23.8 11.1733 23.8 11.1733C23.8 11.1733 23.8 11.1733 23.8 11.1733C23.8 11.1733 23.8 11.1733 23.8 11.1733C23.8 11.1733 23.8 11.1733 23.8 11.1733C23.8 11.1733 23.8 11.1733 23.8 11.1733C23.8 11.1733 23.8 11.1733 23.8 11.1733C23.8 11.1733 23.8 11.1733 23.8 11.1733C23.8 11.1733 23.8 11.1733 23.8 11.1733C23.8 11.1733 23.8 11.1733 23.8 11.1733C23.8 11.1733 23.8 11.1733 23.8 11.1733C23.8 11.1733 23.8 11.1733 23.8 11.1733C23.8 11.1733 23.8 11.1733 23.8 11.1733C23.8 11.1733 23.8 11.1733 23.8 11.1733C23.8 11.1733 23.8 11.1733 23.8 11.1733C23.8 11.1733 23.8 11.1733 23.8 11.1733C23.8 11.1733 23.8 11.1733 23.8 11.1733C23.8 11.1733 23.8 11.1733 23.8 11.1733C23.8 11.1733 23.8 11.1733 23.8 11.1733C23.8 11.1733 23.8 11.1733 23.8 11.1733C23.8 11.1733 23.8 11.1734 23.8 11.1734C23.8 11.1734 23.8 11.1734 23.8 11.1734C23.8 11.1734 23.8 11.1734 23.8 11.1734C23.8 11.1734 23.8 11.1734 23.8 11.1734C23.8 11.1734 23.8 11.1734 23.8 11.1734C23.8 11.1734 23.8 11.1734 23.8 11.1734C23.8 11.1734 23.8 11.1734 23.8 11.1734C23.8 11.1734 23.8 11.1734 23.8 11.1734C23.8 11.1734 23.8 11.1734 23.8 11.1734C23.8 11.1734 23.8 11.1734 23.8 11.1734C23.8 11.1734 23.8 11.1734 23.8 11.1734C23.8 11.1734 23.8 11.1734 23.8 11.1734C23.8 11.1734 23.8 11.1734 23.8 11.1734C23.8 11.1734 23.8 11.1734 23.8 11.1734C23.8 11.1734 23.8 11.1734 23.8 11.1734C23.8 11.1734 23.8 11.1734 23.8 11.1734C23.8 11.1734 23.8 11.1734 23.8 11.1734C23.8 11.1734 23.8 11.1734 23.8 11.1734C23.8 11.1734 23.8 11.1734 23.8 11.1734C23.8 11.1734 23.8 11.1734 23.8 11.1734C23.8 11.1734 23.8 11.1734 23.8 11.1734C23.8 11.1734 23.8 11.1734 23.8 11.1734C23.8 11.1734 23.8 11.1734 23.8 11.1734C23.8 11.1734 23.8 11.1734 23.8 11.1734C23.8 11.1734 23.8 11.1734 23.8 11.1734C23.8 11.1734 23.8 11.1734 23.8 11.1734C23.8 11.1734 23.8 11.1734 23.8 11.1734C23.8 11.1735 23.8 11.1735 23.8 11.1735C23.8 11.1735 23.8 11.1735 23.8 11.1735C23.8 11.1735 23.8 11.1735 23.8 11.1735C23.8 11.1735 23.8 11.1735 23.8 11.1735C23.8 11.1735 23.8 11.1735 23.8 11.1735C23.8 11.1735 23.8 11.1735 23.8 11.1735C23.8 11.1735 23.8 11.1735 23.8 11.1735C23.8 11.1735 23.8 11.1735 23.8 11.1735C23.8 11.1735 23.8 11.1735 23.8 11.1735C23.8 11.1735 23.8 11.1735 23.8 11.1735C23.8 11.1735 23.8 11.1735 23.8 11.1735C23.8 11.1735 23.8 11.1735 23.8 11.1735C23.8 11.1735 23.8 11.1735 23.8 11.1735C23.8 11.1735 23.8 11.1735 23.8 11.1735C23.8 11.1735 23.8 11.1735 23.8 11.1735C23.8 11.1735 23.8 11.1735 23.8 11.1735C23.8 11.1735 23.8 11.1735 23.8 11.1735C23.8 11.1735 23.8 11.1735 23.8 11.1735C23.8 11.1735 23.8 11.1735 23.8 11.1735C23.8 11.1735 23.8 11.1735 23.8 11.1735C23.8 11.1735 23.8 11.1735 23.8 11.1735C23.8 11.1735 23.8 11.1735 23.8 11.1735C23.8 11.1735 23.8 11.1735 23.8 11.1735C23.8 11.1735 23.8 11.1735 23.8 11.1735C23.8 11.1735 23.8 11.1735 23.8 11.1735C23.8 11.1735 23.8 11.1735 23.8 11.1735C23.8 11.1735 23.8 11.1735 23.8 11.1736C23.8 11.1736 23.8 11.1736 23.8 11.1736C23.8 11.1736 23.8 11.1736 23.8 11.1736C23.8 11.1736 23.8 11.1736 23.8 11.1736C23.8 11.1736 23.8 11.1736 23.8 11.1736C23.8 11.1736 23.8 11.1736 23.8 11.1736C23.8 11.1736 23.8 11.1736 23.8 11.1736C23.8 11.1736 23.8 11.1736 23.8 11.1736C23.8 11.1736 23.8 11.1736 23.8 11.1736C23.8 11.1736 23.8 11.1736 23.8 11.1736C23.8 11.1736 23.8 11.1736 23.8 11.1736C23.8 11.1736 23.8 11.1736 23.8 11.1736C23.8 11.1736 23.8 11.1736 23.8 11.1736C23.8 11.1736 23.8 11.1736 23.8 11.1736C23.8 11.1736 23.8 11.1736 23.8 11.1736C23.8 11.1736 23.8 11.1736 23.8 11.1736C23.8 11.1736 23.8 11.1736 23.8 11.1736C23.8 11.1736 23.8 11.1736 23.8 11.1736C23.8 11.1736 23.8 11.1736 23.8 11.1736C23.8 11.1736 23.8 11.1736 23.8 11.1736C23.8 11.1736 23.8 11.1736 23.8 11.1736C23.8 11.1736 23.8 11.1736 23.8 11.1736C23.8 11.1736 23.8 11.1736 23.8 11.1736C23.8 11.1736 23.8 11.1736 23.8 11.1736C23.8 11.1736 23.8 11.1736 23.8 11.1736C23.8 11.1736 23.8 11.1736 23.8 11.1736C23.8 11.1736 23.8 11.1736 23.8 11.1736C23.8 11.1736 23.8 11.1737 23.8 11.1737C23.8 11.1737 23.8 11.1737 23.8 11.1737C23.8 11.1737 23.8 11.1737 23.8 11.1737C23.8 11.1737 23.8 11.1737 23.8 11.1737C23.8 11.1737 23.8 11.1737 23.8 11.1737C23.8 11.1737 23.8 11.1737 23.8 11.1737C23.8 11.1737 23.8 11.1737 23.8 11.1737C23.8 11.1737 23.8 11.1737 23.8 11.1737C23.8 11.1737 23.8 11.1737 23.8 11.1737C23.8 11.1737 23.8 11.1737 23.8 11.1737C23.8 11.1737 23.8 11.1737 23.8 11.1737C23.8 11.1737 23.8 11.1737 23.8 11.1737C23.8 11.1737 23.8 11.1737 23.8 11.1737C23.8 11.1737 23.8 11.1737 23.8 11.1737C23.8 11.1737 23.8 11.1737 23.8 11.1737C23.8 11.1737 23.8 11.1737 23.8 11.1737C23.8 11.1737 23.8 11.1737 23.8 11.1737C23.8 11.1737 23.8 11.1737 23.8 11.1737C23.8 11.1737 23.8 11.1737 23.8 11.1737C23.8 11.1737 23.8 11.1737 23.8 11.1737C23.8 11.1737 23.8 11.1737 23.8 11.1737C23.8 11.1737 23.8 11.1737 23.8 11.1737C23.8 11.1737 23.8 11.1737 23.8 11.1737C23.8 11.1737 23.8 11.1737 23.8 11.1737C23.8 11.1737 23.8 11.1737 23.8 11.1737C23.8 11.1737 23.8 11.1737 23.8 11.1737C23.8 11.1737 23.8 11.1737 23.8 11.1737C23.8 11.1738 23.8 11.1738 23.8 11.1738C23.8 11.1738 23.8 11.1738 23.8 11.1738C23.8 11.1738 23.8 11.1738 23.8 11.1738C23.8 11.1738 23.8 11.1738 23.8 11.1738C23.8 11.1738 23.8 11.1738 23.8 11.1738C23.8 11.1738 23.8 11.1738 23.8 11.1738C23.8 11.1738 23.8 11.1738 23.8 11.1738C23.8 11.1738 23.8 11.1738 23.8 11.1738C23.8 11.1738 23.8 11.1738 23.8 11.1738C23.8 11.1738 23.8 11.1738 23.8 11.1738C23.8 11.1738 23.8 11.1738 23.8 11.1738C23.8 11.1738 23.8 11.1738 23.8 11.1738C23.8 11.1738 23.8 11.1738 23.8 11.1738C23.8 11.1738 23.8 11.1738 23.8 11.1738C23.8 11.1738 23.8 11.1738 23.8 11.1738C23.8 11.1738 23.8 11.1738 23.8 11.1738C23.8 11.1738 23.8 11.1738 23.8 11.1738C23.8 11.1738 23.8 11.1738 23.8 11.1738C23.8 11.1738 23.8 11.1738 23.8 11.1738C23.8 11.1738 23.8 11.1738 23.8 11.1738C23.8 11.1738 23.8 11.1738 23.8 11.1738C23.8 11.1738 23.8 11.1738 23.8 11.1738C23.8 11.1738 23.8 11.1738 23.8 11.1738C23.8 11.1738 23.8 11.1738 23.8 11.1738C23.8 11.1738 23.8 11.1738 23.8 11.1738C23.8 11.1738 23.8 11.1738 23.8 11.1738C23.8 11.1738 23.8 11.1738 23.8 11.1739C23.8 11.1739 23.8 11.1739 23.8 11.1739C23.8 11.1739 23.8 11.1739 23.8 11.1739C23.8 11.1739 23.8 11.1739 23.8 11.1739C23.8 11.1739 23.8 11.1739 23.8 11.1739C23.8 11.1739 23.8 11.1739 23.8 11.1739C23.8 11.1739 23.8 11.1739 23.8 11.1739C23.8 11.1739 23.8 11.1739 23.8 11.1739C23.8 11.1739 23.8 11.1739 23.8 11.1739C23.8 11.1739 23.8 11.1739 23.8 11.1739C23.8 11.1739 23.8 11.1739 23.8 11.1739C23.8 11.1739 23.8 11.1739 23.8 11.1739C23.8 11.1739 23.8 11.1739 23.8 11.1739C23.8 11.1739 23.8 11.1739 23.8 11.1739C23.8 11.1739 23.8 11.1739 23.8 11.1739C23.8 11.1739 23.8 11.1739 23.8 11.1739C23.8 11.1739 23.8 11.1739 23.8 11.1739C23.8 11.1739 23.8 11.1739 23.8 11.1739C23.8 11.1739 23.8 11.1739 23.8 11.1739C23.8 11.1739 23.8 11.1739 23.8 11.1739C23.8 11.1739 23.8 11.1739 23.8 11.1739C23.8 11.1739 23.8 11.1739 23.8 11.1739C23.8 11.1739 23.8 11.1739 23.8 11.1739C23.8 11.1739 23.8 11.1739 23.8 11.1739C23.8 11.1739 23.8 11.1739 23.8 11.1739C23.8 11.1739 23.8 11.1739 23.8 11.1739C23.8 11.1739 23.8 11.1739 23.8 11.1739C23.8 11.1739 23.8 11.174 23.8 11.174C23.8 11.174 23.8 11.174 23.8 11.174C23.8 11.174 23.8 11.174 23.8 11.174C23.8 11.174 23.8 11.174 23.8 11.174C23.8 11.174 23.8 11.174 23.8 11.174C23.8 11.174 23.8 11.174 23.8 11.174C23.8 11.174 23.8 11.174 23.8 11.174C23.8 11.174 23.8 11.174 23.8 11.174C23.8 11.174 23.8 11.174 23.8 11.174H24.2ZM24.2 15.5321V11.174H23.8V15.5321H24.2ZM23.5322 16.1998C23.8977 16.1998 24.2 15.8975 24.2 15.5321H23.8C23.8 15.6766 23.6768 15.7998 23.5322 15.7998V16.1998ZM22.8644 15.5321C22.8644 15.8975 23.1668 16.1998 23.5322 16.1998V15.7998C23.3877 15.7998 23.2644 15.6766 23.2644 15.5321H22.8644ZM22.8644 12.3095V15.5321H23.2644V12.3095H22.8644ZM20.8219 14.8839L23.2073 12.4495L22.9216 12.1695L20.5362 14.604L20.8219 14.8839ZM17.6177 18.1542L20.8219 14.8839L20.5362 14.604L17.332 17.8742L17.6177 18.1542ZM16.7911 18.2585C17.0599 18.4317 17.4111 18.365 17.6177 18.1542L17.332 17.8742C17.2432 17.9648 17.0996 17.9814 17.0077 17.9222L16.7911 18.2585ZM13.3492 16.0412L16.7911 18.2585L17.0077 17.9222L13.5658 15.7049L13.3492 16.0412ZM12.241 17.5683L13.608 16.0047L13.3069 15.7414L11.9399 17.305L12.241 17.5683Z" fill="#303030" mask="url(#path-1-outside-1_15808_29213)"/>
<path fill-rule="evenodd" clip-rule="evenodd" d="M15.56 27.62C22.2206 27.62 27.62 22.2206 27.62 15.56C27.62 8.89945 22.2206 3.5 15.56 3.5C8.89945 3.5 3.5 8.89945 3.5 15.56C3.5 22.2206 8.89945 27.62 15.56 27.62ZM15.56 29.12C23.049 29.12 29.12 23.049 29.12 15.56C29.12 8.07102 23.049 2 15.56 2C8.07102 2 2 8.07102 2 15.56C2 23.049 8.07102 29.12 15.56 29.12Z" fill="#303030"/>
</svg>
