<svg width="32" height="32" viewBox="0 0 32 32" fill="none" xmlns="http://www.w3.org/2000/svg">
<path fill-rule="evenodd" clip-rule="evenodd" d="M12.0905 17.4366L8.80766 21.1915C8.63483 21.3891 8.31165 21.3714 8.1362 21.1915C7.94584 20.9963 7.96358 20.7003 8.1362 20.5029L9.75308 18.6535L13.0359 14.8986C13.174 14.7406 13.4386 14.7112 13.6113 14.8225L17.0717 17.0516L19.9836 14.0798L22.4114 11.6021H19.1344C18.8794 11.6021 18.6667 11.3893 18.6667 11.1343C18.6667 10.8793 18.8794 10.6665 19.1344 10.6665H23.5049C23.505 10.6665 23.505 10.6665 23.5051 10.6665H23.5322C23.7872 10.6665 24 10.8793 24 11.1343V11.1721C24 11.1727 24 11.1733 24 11.174V15.5321C24 15.787 23.7872 15.9998 23.5322 15.9998C23.2772 15.9998 23.0644 15.7871 23.0644 15.5321V12.3095L20.6791 14.744L17.4748 18.0142C17.3272 18.1649 17.0797 18.2065 16.8994 18.0904L13.4575 15.8731L12.0905 17.4366Z" fill="url(#paint0_linear_15815_30083)"/>
<path fill-rule="evenodd" clip-rule="evenodd" d="M8.95807 21.3234C8.69703 21.622 8.23721 21.582 7.99286 21.3314C7.71852 21.0501 7.75527 20.6348 7.98548 20.3715L12.8852 14.7673C12.8851 14.7673 12.8852 14.7673 12.8852 14.7673C13.092 14.5306 13.4679 14.4925 13.7194 14.6546L17.0428 16.7955L21.9352 11.8024H19.1343C18.7688 11.8024 18.4665 11.5 18.4665 11.1346C18.4665 10.7691 18.7688 10.4668 19.1343 10.4668H23.5321C23.8975 10.4668 24.1999 10.7691 24.1999 11.1346V15.5323C24.1999 15.8978 23.8975 16.2001 23.5321 16.2001C23.1666 16.2001 22.8643 15.8978 22.8643 15.5323V12.7997L17.6175 18.1545C17.4109 18.3653 17.0597 18.432 16.7909 18.2588L13.4942 16.135L8.95807 21.3234ZM13.4573 15.8734L16.8993 18.0907C17.0796 18.2068 17.327 18.1652 17.4747 18.0145L23.0643 12.3098V15.5323C23.0643 15.7874 23.2771 16.0001 23.5321 16.0001C23.7871 16.0001 23.9999 15.7873 23.9999 15.5323V11.1346C23.9999 10.8796 23.7871 10.6668 23.5321 10.6668H19.1343C18.8793 10.6668 18.6665 10.8796 18.6665 11.1346C18.6665 11.3896 18.8793 11.6024 19.1343 11.6024H22.4112L17.0716 17.0519L13.6111 14.8228C13.4384 14.7115 13.1739 14.7409 13.0357 14.8989L8.13605 20.5031C7.96343 20.7006 7.94569 20.9966 8.13605 21.1918C8.3115 21.3717 8.63468 21.3894 8.80751 21.1918L13.4573 15.8734Z" fill="url(#paint1_linear_15815_30083)"/>
<path fill-rule="evenodd" clip-rule="evenodd" d="M15.56 27.62C22.2206 27.62 27.62 22.2206 27.62 15.56C27.62 8.89945 22.2206 3.5 15.56 3.5C8.89945 3.5 3.5 8.89945 3.5 15.56C3.5 22.2206 8.89945 27.62 15.56 27.62ZM15.56 29.12C23.049 29.12 29.12 23.049 29.12 15.56C29.12 8.07102 23.049 2 15.56 2C8.07102 2 2 8.07102 2 15.56C2 23.049 8.07102 29.12 15.56 29.12Z" fill="url(#paint2_linear_15815_30083)"/>
<defs>
<linearGradient id="paint0_linear_15815_30083" x1="24.0499" y1="11.6387" x2="11.0493" y2="21.803" gradientUnits="userSpaceOnUse">
<stop offset="0.216713" stop-color="#DDDF78"/>
<stop offset="1" stop-color="#36DD68"/>
</linearGradient>
<linearGradient id="paint1_linear_15815_30083" x1="24.251" y1="11.4754" x2="10.8032" y2="21.8627" gradientUnits="userSpaceOnUse">
<stop offset="0.216713" stop-color="#DDDF78"/>
<stop offset="1" stop-color="#36DD68"/>
</linearGradient>
<linearGradient id="paint2_linear_15815_30083" x1="29.2046" y1="4.4717" x2="1.28405" y2="19.0245" gradientUnits="userSpaceOnUse">
<stop offset="0.216713" stop-color="#DDDF78"/>
<stop offset="1" stop-color="#36DD68"/>
</linearGradient>
</defs>
</svg>
