<svg width="32" height="32" viewBox="0 0 32 32" fill="none" xmlns="http://www.w3.org/2000/svg">
<mask id="path-1-outside-1_15808_29203" maskUnits="userSpaceOnUse" x="-0.49707" y="-0.499023" width="33" height="33" fill="black">
<rect fill="white" x="-0.49707" y="-0.499023" width="33" height="33"/>
<path fill-rule="evenodd" clip-rule="evenodd" d="M6.38616 5.51337C7.77377 3.02133 10.7047 0.500977 16.0003 0.500977H16.0116C21.3072 0.500977 24.2396 3.02133 25.6258 5.51337C26.9647 7.9199 26.9998 10.3264 27.0007 10.4887L27.0007 10.5068V13.4937H30.5022C30.7668 13.494 31.0205 13.5993 31.2077 13.7864C31.3948 13.9736 31.5001 14.2273 31.5004 14.4919V24.4742C31.5006 24.6055 31.475 24.7355 31.4249 24.8568C31.3748 24.9782 31.3014 25.0885 31.2087 25.1815C31.116 25.2744 31.0059 25.3482 30.8847 25.3986C30.7634 25.449 30.6335 25.4751 30.5022 25.4752H27.0007V26.5116C27.0003 26.7109 26.9404 26.9055 26.8287 27.0705C26.7169 27.2355 26.5584 27.3634 26.3734 27.4376L16.377 31.4305C16.1311 31.5283 15.8566 31.5246 15.6135 31.4203C15.3704 31.316 15.1785 31.1196 15.08 30.8741C14.9822 30.6283 14.9859 30.3537 15.0902 30.1106C15.1945 29.8675 15.3909 29.6757 15.6364 29.5771L23.7682 26.317C24.5097 26.0197 24.9957 25.3012 24.9957 24.5024C24.9958 24.4674 24.9977 24.4325 25.0013 24.398V14.4919C25.0013 14.4891 25.0014 14.4862 25.0014 14.4834V10.5017L25.0014 10.4944C25.0006 10.4064 24.9718 8.44159 23.8786 6.49036C22.76 4.4939 20.7069 2.5116 16.006 2.5116C11.3051 2.5116 9.24492 4.4939 8.13342 6.49036C7.06761 8.40475 7.01338 10.3322 7.01072 10.4874L7.01059 10.5087V14.4904C7.01049 14.5567 7.00381 14.6226 6.99072 14.6873V24.4742C6.9909 24.6057 6.96514 24.736 6.9149 24.8575C6.86465 24.979 6.79092 25.0895 6.69793 25.1825C6.60493 25.2755 6.4945 25.3492 6.37297 25.3994C6.25143 25.4497 6.12117 25.4754 5.98966 25.4752H1.50116C1.36989 25.4751 1.23993 25.449 1.11872 25.3986C0.99751 25.3482 0.887414 25.2744 0.79472 25.1815C0.702025 25.0885 0.628548 24.9782 0.578483 24.8568C0.528418 24.7355 0.502746 24.6055 0.502931 24.4742V14.4919C0.503306 14.2273 0.608597 13.9736 0.79572 13.7864C0.982843 13.5993 1.23653 13.494 1.50116 13.4937H5.0113V10.5065L5.01131 10.4889C5.01214 10.3281 5.04707 7.92073 6.38616 5.51337ZM28.2466 15.4901C27.5585 15.4901 27.0006 16.048 27.0006 16.7361V22.2299C27.0006 22.9181 27.5585 23.476 28.2466 23.476C28.9348 23.476 29.4927 22.9181 29.4927 22.2299V16.7361C29.4927 16.048 28.9348 15.4901 28.2466 15.4901ZM3.74541 15.4901C3.05725 15.4901 2.49939 16.048 2.49939 16.7361V22.2299C2.49939 22.9181 3.05725 23.476 3.74541 23.476C4.43357 23.476 4.99143 22.9181 4.99143 22.2299V16.7361C4.99143 16.048 4.43357 15.4901 3.74541 15.4901Z"/>
</mask>
<path fill-rule="evenodd" clip-rule="evenodd" d="M6.38616 5.51337C7.77377 3.02133 10.7047 0.500977 16.0003 0.500977H16.0116C21.3072 0.500977 24.2396 3.02133 25.6258 5.51337C26.9647 7.9199 26.9998 10.3264 27.0007 10.4887L27.0007 10.5068V13.4937H30.5022C30.7668 13.494 31.0205 13.5993 31.2077 13.7864C31.3948 13.9736 31.5001 14.2273 31.5004 14.4919V24.4742C31.5006 24.6055 31.475 24.7355 31.4249 24.8568C31.3748 24.9782 31.3014 25.0885 31.2087 25.1815C31.116 25.2744 31.0059 25.3482 30.8847 25.3986C30.7634 25.449 30.6335 25.4751 30.5022 25.4752H27.0007V26.5116C27.0003 26.7109 26.9404 26.9055 26.8287 27.0705C26.7169 27.2355 26.5584 27.3634 26.3734 27.4376L16.377 31.4305C16.1311 31.5283 15.8566 31.5246 15.6135 31.4203C15.3704 31.316 15.1785 31.1196 15.08 30.8741C14.9822 30.6283 14.9859 30.3537 15.0902 30.1106C15.1945 29.8675 15.3909 29.6757 15.6364 29.5771L23.7682 26.317C24.5097 26.0197 24.9957 25.3012 24.9957 24.5024C24.9958 24.4674 24.9977 24.4325 25.0013 24.398V14.4919C25.0013 14.4891 25.0014 14.4862 25.0014 14.4834V10.5017L25.0014 10.4944C25.0006 10.4064 24.9718 8.44159 23.8786 6.49036C22.76 4.4939 20.7069 2.5116 16.006 2.5116C11.3051 2.5116 9.24492 4.4939 8.13342 6.49036C7.06761 8.40475 7.01338 10.3322 7.01072 10.4874L7.01059 10.5087V14.4904C7.01049 14.5567 7.00381 14.6226 6.99072 14.6873V24.4742C6.9909 24.6057 6.96514 24.736 6.9149 24.8575C6.86465 24.979 6.79092 25.0895 6.69793 25.1825C6.60493 25.2755 6.4945 25.3492 6.37297 25.3994C6.25143 25.4497 6.12117 25.4754 5.98966 25.4752H1.50116C1.36989 25.4751 1.23993 25.449 1.11872 25.3986C0.99751 25.3482 0.887414 25.2744 0.79472 25.1815C0.702025 25.0885 0.628548 24.9782 0.578483 24.8568C0.528418 24.7355 0.502746 24.6055 0.502931 24.4742V14.4919C0.503306 14.2273 0.608597 13.9736 0.79572 13.7864C0.982843 13.5993 1.23653 13.494 1.50116 13.4937H5.0113V10.5065L5.01131 10.4889C5.01214 10.3281 5.04707 7.92073 6.38616 5.51337ZM28.2466 15.4901C27.5585 15.4901 27.0006 16.048 27.0006 16.7361V22.2299C27.0006 22.9181 27.5585 23.476 28.2466 23.476C28.9348 23.476 29.4927 22.9181 29.4927 22.2299V16.7361C29.4927 16.048 28.9348 15.4901 28.2466 15.4901ZM3.74541 15.4901C3.05725 15.4901 2.49939 16.048 2.49939 16.7361V22.2299C2.49939 22.9181 3.05725 23.476 3.74541 23.476C4.43357 23.476 4.99143 22.9181 4.99143 22.2299V16.7361C4.99143 16.048 4.43357 15.4901 3.74541 15.4901Z" fill="#303030"/>
<path d="M6.38616 5.51337L6.12406 5.36742L6.12399 5.36753L6.38616 5.51337ZM25.6258 5.51337L25.3636 5.6592L25.3636 5.65922L25.6258 5.51337ZM27.0007 10.4887L27.3007 10.4885L27.3007 10.4872L27.0007 10.4887ZM27.0007 10.5068H27.3007V10.5065L27.0007 10.5068ZM27.0007 13.4937H26.7007V13.7937H27.0007V13.4937ZM30.5022 13.4937L30.5026 13.1937H30.5022V13.4937ZM31.2077 13.7864L31.4198 13.5743V13.5743L31.2077 13.7864ZM31.5004 14.4919H31.8004V14.4915L31.5004 14.4919ZM31.5004 24.4742H31.2004V24.4746L31.5004 24.4742ZM31.4249 24.8568L31.1476 24.7424L31.1476 24.7424L31.4249 24.8568ZM31.2087 25.1815L30.9962 24.9696L30.9962 24.9696L31.2087 25.1815ZM30.8847 25.3986L30.7695 25.1216L30.8847 25.3986ZM30.5022 25.4752V25.7752L30.5026 25.7752L30.5022 25.4752ZM27.0007 25.4752V25.1752H26.7007V25.4752H27.0007ZM27.0007 26.5116L27.3007 26.5121V26.5116H27.0007ZM26.8287 27.0705L26.5803 26.9023V26.9023L26.8287 27.0705ZM26.3734 27.4376L26.4847 27.7162L26.4852 27.716L26.3734 27.4376ZM16.377 31.4305L16.4878 31.7093L16.4882 31.7091L16.377 31.4305ZM15.6135 31.4203L15.4952 31.696L15.6135 31.4203ZM15.08 30.8741L14.8012 30.9849L14.8016 30.9859L15.08 30.8741ZM15.0902 30.1106L14.8145 29.9923L15.0902 30.1106ZM15.6364 29.5771L15.5248 29.2986L15.5247 29.2987L15.6364 29.5771ZM23.7682 26.317L23.6566 26.0385L23.7682 26.317ZM24.9957 24.5024L24.6957 24.502V24.5024H24.9957ZM25.0013 24.398L25.2996 24.4297L25.3013 24.4139V24.398H25.0013ZM25.0013 14.4919L24.7013 14.4915V14.4919H25.0013ZM25.0014 14.4834L25.3014 14.4865V14.4834H25.0014ZM25.0014 10.5017H25.3014L25.3014 10.5009L25.0014 10.5017ZM25.0014 10.4944L25.3014 10.4936L25.3014 10.4918L25.0014 10.4944ZM23.8786 6.49036L24.1403 6.34372L23.8786 6.49036ZM8.13342 6.49036L7.8713 6.34443V6.34443L8.13342 6.49036ZM7.01072 10.4874L6.71075 10.4823L6.71073 10.4855L7.01072 10.4874ZM7.01059 10.5087L6.71059 10.5068V10.5087H7.01059ZM7.01059 14.4904L7.31059 14.4908V14.4904H7.01059ZM6.99072 14.6873L6.69668 14.6278L6.69072 14.6572V14.6873H6.99072ZM6.99072 24.4742H6.69072L6.69072 24.4746L6.99072 24.4742ZM6.9149 24.8575L6.63765 24.7429L6.63765 24.7429L6.9149 24.8575ZM6.69793 25.1825L6.4858 24.9703L6.4858 24.9703L6.69793 25.1825ZM6.37297 25.3994L6.25836 25.1222L6.25836 25.1222L6.37297 25.3994ZM5.98966 25.4752L5.99008 25.1752H5.98966V25.4752ZM1.50116 25.4752L1.50073 25.7752H1.50116V25.4752ZM0.79472 25.1815L1.00715 24.9696L1.00715 24.9696L0.79472 25.1815ZM0.578483 24.8568L0.301156 24.9713L0.301157 24.9713L0.578483 24.8568ZM0.502931 24.4742L0.802931 24.4746V24.4742H0.502931ZM0.502931 14.4919L0.202931 14.4915V14.4919H0.502931ZM0.79572 13.7864L0.583588 13.5743H0.583588L0.79572 13.7864ZM1.50116 13.4937V13.1937L1.50074 13.1937L1.50116 13.4937ZM5.0113 13.4937V13.7937H5.3113V13.4937H5.0113ZM5.0113 10.5065L4.7113 10.5063V10.5065H5.0113ZM5.01131 10.4889L4.71131 10.4874L4.71131 10.4886L5.01131 10.4889ZM16.0003 0.200977C10.5916 0.200977 7.56248 2.78412 6.12406 5.36742L6.64827 5.65931C7.98506 3.25854 10.8179 0.800977 16.0003 0.800977V0.200977ZM16.0116 0.200977H16.0003V0.800977H16.0116V0.200977ZM25.888 5.36753C24.4509 2.78406 21.4203 0.200977 16.0116 0.200977V0.800977C21.1941 0.800977 24.0283 3.2586 25.3636 5.6592L25.888 5.36753ZM27.3007 10.4872C27.2997 10.306 27.2632 7.83939 25.888 5.36751L25.3636 5.65922C26.6662 8.00041 26.6999 10.3469 26.7007 10.4903L27.3007 10.4872ZM27.3007 10.5065L27.3007 10.4885L26.7007 10.489L26.7007 10.507L27.3007 10.5065ZM27.3007 13.4937V10.5068H26.7007V13.4937H27.3007ZM30.5022 13.1937H27.0007V13.7937H30.5022V13.1937ZM31.4198 13.5743C31.1765 13.331 30.8467 13.1941 30.5026 13.1937L30.5018 13.7937C30.687 13.7939 30.8646 13.8676 30.9955 13.9986L31.4198 13.5743ZM31.8004 14.4915C31.8 14.1474 31.6631 13.8176 31.4198 13.5743L30.9955 13.9986C31.1265 14.1295 31.2002 14.3071 31.2004 14.4923L31.8004 14.4915ZM31.8004 24.4742V14.4919H31.2004V24.4742H31.8004ZM31.7022 24.9713C31.7673 24.8135 31.8007 24.6444 31.8004 24.4738L31.2004 24.4746C31.2006 24.5665 31.1826 24.6575 31.1476 24.7424L31.7022 24.9713ZM31.4211 25.3933C31.5416 25.2724 31.6371 25.129 31.7022 24.9713L31.1476 24.7424C31.1125 24.8274 31.0611 24.9046 30.9962 24.9696L31.4211 25.3933ZM30.9999 25.6756C31.1574 25.6101 31.3006 25.5141 31.4211 25.3933L30.9962 24.9696C30.9313 25.0347 30.8543 25.0863 30.7695 25.1216L30.9999 25.6756ZM30.5026 25.7752C30.6733 25.775 30.8423 25.7412 30.9999 25.6756L30.7695 25.1216C30.6846 25.1569 30.5937 25.1751 30.5018 25.1752L30.5026 25.7752ZM27.0007 25.7752H30.5022V25.1752H27.0007V25.7752ZM27.3007 26.5116V25.4752H26.7007V26.5116H27.3007ZM27.0771 27.2388C27.2224 27.0243 27.3002 26.7712 27.3007 26.5121L26.7007 26.5111C26.7004 26.6506 26.6585 26.7868 26.5803 26.9023L27.0771 27.2388ZM26.4852 27.716C26.7256 27.6195 26.9317 27.4533 27.0771 27.2388L26.5803 26.9023C26.5021 27.0178 26.3911 27.1073 26.2617 27.1592L26.4852 27.716ZM16.4882 31.7091L26.4847 27.7162L26.2621 27.159L16.2657 31.1519L16.4882 31.7091ZM15.4952 31.696C15.8113 31.8316 16.1682 31.8364 16.4878 31.7093L16.2661 31.1518C16.0941 31.2202 15.9019 31.2176 15.7318 31.1446L15.4952 31.696ZM14.8016 30.9859C14.9297 31.305 15.1791 31.5604 15.4952 31.696L15.7318 31.1446C15.5616 31.0716 15.4274 30.9341 15.3584 30.7623L14.8016 30.9859ZM14.8145 29.9923C14.6789 30.3084 14.6741 30.6653 14.8012 30.9849L15.3587 30.7632C15.2903 30.5912 15.2929 30.399 15.3659 30.2289L14.8145 29.9923ZM15.5247 29.2987C15.2055 29.4268 14.9501 29.6763 14.8145 29.9923L15.3659 30.2289C15.4389 30.0587 15.5764 29.9245 15.7482 29.8555L15.5247 29.2987ZM23.6566 26.0385L15.5248 29.2986L15.7481 29.8555L23.8799 26.5954L23.6566 26.0385ZM24.6957 24.5024C24.6957 25.1787 24.2843 25.7869 23.6566 26.0385L23.8799 26.5954C24.7351 26.2526 25.2957 25.4238 25.2957 24.5024H24.6957ZM24.703 24.3662C24.6982 24.4111 24.6958 24.4564 24.6957 24.502L25.2957 24.5028C25.2958 24.4783 25.2971 24.4539 25.2996 24.4297L24.703 24.3662ZM24.7013 14.4919V24.398H25.3013V14.4919H24.7013ZM24.7014 14.4804C24.7014 14.4841 24.7013 14.4878 24.7013 14.4915L25.3013 14.4923C25.3013 14.4903 25.3013 14.4883 25.3014 14.4865L24.7014 14.4804ZM24.7014 10.5017V14.4834H25.3014V10.5017H24.7014ZM24.7014 10.4952L24.7014 10.5024L25.3014 10.5009L25.3014 10.4936L24.7014 10.4952ZM23.6168 6.637C24.6734 8.52269 24.7008 10.4271 24.7014 10.4969L25.3014 10.4918C25.3005 10.3856 25.2702 8.3605 24.1403 6.34372L23.6168 6.637ZM16.006 2.8116C18.3134 2.8116 19.946 3.29771 21.1312 4.00949C22.3159 4.72102 23.0758 5.67141 23.6168 6.637L24.1403 6.34372C23.5627 5.31284 22.7367 4.27385 21.4401 3.49512C20.1438 2.71663 18.3994 2.2116 16.006 2.2116V2.8116ZM8.39553 6.63629C8.93275 5.67135 9.69244 4.72108 10.8781 4.00954C12.0641 3.29772 13.6985 2.8116 16.006 2.8116V2.2116C13.6126 2.2116 11.8664 2.71662 10.5693 3.49507C9.27174 4.2738 8.44559 5.31291 7.8713 6.34443L8.39553 6.63629ZM7.31068 10.4925C7.31302 10.3556 7.36527 8.48682 8.39553 6.63629L7.8713 6.34443C6.76994 8.32268 6.71374 10.3087 6.71076 10.4823L7.31068 10.4925ZM7.31058 10.5106L7.31071 10.4893L6.71073 10.4855L6.71059 10.5068L7.31058 10.5106ZM7.31059 14.4904V10.5087H6.71059V14.4904H7.31059ZM7.28475 14.7468C7.30177 14.6627 7.31047 14.577 7.31059 14.4908L6.71059 14.4899C6.71052 14.5363 6.70584 14.5825 6.69668 14.6278L7.28475 14.7468ZM7.29072 24.4742V14.6873H6.69072V24.4742H7.29072ZM7.19214 24.9721C7.25746 24.8141 7.29096 24.6447 7.29072 24.4738L6.69072 24.4746C6.69085 24.5667 6.67281 24.6578 6.63765 24.7429L7.19214 24.9721ZM6.91006 25.3946C7.03096 25.2737 7.12682 25.1301 7.19214 24.9721L6.63765 24.7429C6.60249 24.828 6.55088 24.9052 6.4858 24.9703L6.91006 25.3946ZM6.48757 25.6767C6.64559 25.6114 6.78916 25.5155 6.91006 25.3946L6.4858 24.9703C6.42071 25.0354 6.34342 25.087 6.25836 25.1222L6.48757 25.6767ZM5.98923 25.7752C6.16021 25.7755 6.32956 25.742 6.48758 25.6767L6.25836 25.1222C6.17329 25.1573 6.08213 25.1754 5.99008 25.1752L5.98923 25.7752ZM1.50116 25.7752H5.98966V25.1752H1.50116V25.7752ZM1.00352 25.6756C1.16111 25.7412 1.33007 25.775 1.50073 25.7752L1.50159 25.1752C1.40971 25.1751 1.31875 25.1569 1.23392 25.1216L1.00352 25.6756ZM0.582286 25.3933C0.702799 25.5141 0.845935 25.6101 1.00352 25.6756L1.23392 25.1216C1.14908 25.0863 1.07203 25.0347 1.00715 24.9696L0.582286 25.3933ZM0.301157 24.9713C0.366246 25.129 0.461774 25.2724 0.582288 25.3933L1.00715 24.9696C0.942276 24.9046 0.89085 24.8274 0.855809 24.7424L0.301157 24.9713ZM0.202931 24.4738C0.20269 24.6444 0.236067 24.8135 0.301156 24.9713L0.85581 24.7424C0.820769 24.6575 0.802801 24.5665 0.80293 24.4746L0.202931 24.4738ZM0.202931 14.4919V24.4742H0.802931V14.4919H0.202931ZM0.583588 13.5743C0.340308 13.8176 0.203419 14.1474 0.202931 14.4915L0.80293 14.4923C0.803193 14.3071 0.876886 14.1295 1.00785 13.9986L0.583588 13.5743ZM1.50074 13.1937C1.15669 13.1941 0.826868 13.331 0.583588 13.5743L1.00785 13.9986C1.13882 13.8676 1.31637 13.7939 1.50159 13.7937L1.50074 13.1937ZM5.0113 13.1937H1.50116V13.7937H5.0113V13.1937ZM4.7113 10.5065V13.4937H5.3113V10.5065H4.7113ZM4.71131 10.4886L4.7113 10.5063L5.3113 10.5068L5.31131 10.4892L4.71131 10.4886ZM6.12399 5.36753C4.74855 7.84024 4.71224 10.3077 4.71132 10.4874L5.31131 10.4904C5.31204 10.3485 5.34558 8.00122 6.64833 5.6592L6.12399 5.36753ZM27.3006 16.7361C27.3006 16.2137 27.7242 15.7901 28.2466 15.7901V15.1901C27.3928 15.1901 26.7006 15.8823 26.7006 16.7361H27.3006ZM27.3006 22.2299V16.7361H26.7006V22.2299H27.3006ZM28.2466 23.176C27.7242 23.176 27.3006 22.7524 27.3006 22.2299H26.7006C26.7006 23.0838 27.3928 23.776 28.2466 23.776V23.176ZM29.1927 22.2299C29.1927 22.7524 28.7691 23.176 28.2466 23.176V23.776C29.1005 23.776 29.7927 23.0838 29.7927 22.2299H29.1927ZM29.1927 16.7361V22.2299H29.7927V16.7361H29.1927ZM28.2466 15.7901C28.7691 15.7901 29.1927 16.2137 29.1927 16.7361H29.7927C29.7927 15.8823 29.1005 15.1901 28.2466 15.1901V15.7901ZM2.79939 16.7361C2.79939 16.2137 3.22294 15.7901 3.74541 15.7901V15.1901C2.89157 15.1901 2.19939 15.8823 2.19939 16.7361H2.79939ZM2.79939 22.2299V16.7361H2.19939V22.2299H2.79939ZM3.74541 23.176C3.22294 23.176 2.79939 22.7524 2.79939 22.2299H2.19939C2.19939 23.0838 2.89157 23.776 3.74541 23.776V23.176ZM4.69143 22.2299C4.69143 22.7524 4.26788 23.176 3.74541 23.176V23.776C4.59925 23.776 5.29143 23.0838 5.29143 22.2299H4.69143ZM4.69143 16.7361V22.2299H5.29143V16.7361H4.69143ZM3.74541 15.7901C4.26788 15.7901 4.69143 16.2137 4.69143 16.7361H5.29143C5.29143 15.8823 4.59925 15.1901 3.74541 15.1901V15.7901Z" fill="#F8F8F8" mask="url(#path-1-outside-1_15808_29203)"/>
</svg>
