<svg width="32" height="32" viewBox="0 0 32 32" fill="none" xmlns="http://www.w3.org/2000/svg">
<mask id="path-1-inside-1_15808_29208" fill="white">
<path fill-rule="evenodd" clip-rule="evenodd" d="M16.0003 10.9998C16.5526 10.9998 17.0003 11.4476 17.0003 11.9998V16.3332H21.3337C21.8859 16.3332 22.3337 16.7809 22.3337 17.3332C22.3337 17.8854 21.8859 18.3332 21.3337 18.3332H16.0003C15.4481 18.3332 15.0003 17.8854 15.0003 17.3332V11.9998C15.0003 11.4476 15.4481 10.9998 16.0003 10.9998ZM15.6479 1.67076C15.7651 1.66793 15.8826 1.6665 16.0003 1.6665C16.1181 1.6665 16.2355 1.66793 16.3527 1.67076C16.9049 1.68409 17.3417 2.14249 17.3283 2.69462C17.3149 3.24674 16.8565 3.68352 16.3045 3.67017C16.2034 3.66773 16.1021 3.6665 16.0003 3.6665C15.8986 3.6665 15.7973 3.66773 15.6962 3.67017C15.1442 3.68352 14.6858 3.24674 14.6723 2.69462C14.659 2.14249 15.0958 1.68409 15.6479 1.67076ZM19.8675 3.19656C20.0665 2.68133 20.6454 2.42488 21.1606 2.62377C21.3799 2.70846 21.5967 2.7984 21.8107 2.8934C22.3155 3.11749 22.5431 3.70836 22.319 4.21313C22.0949 4.71792 21.5041 4.94545 20.9993 4.72136C20.8153 4.63968 20.6289 4.56238 20.4403 4.48958C19.9251 4.29069 19.6687 3.71178 19.8675 3.19656ZM12.1331 3.19656C12.332 3.71178 12.0755 4.29069 11.5603 4.48958C11.3717 4.56238 11.1854 4.63968 11.0014 4.72136C10.4966 4.94545 9.90574 4.71792 9.68166 4.21313C9.45757 3.70836 9.6851 3.11749 10.1899 2.8934C10.4039 2.7984 10.6207 2.70846 10.8401 2.62377C11.3553 2.42488 11.9342 2.68133 12.1331 3.19656ZM24.4701 5.65352C24.851 5.25358 25.4839 5.23814 25.8838 5.61902C26.0537 5.78072 26.2194 5.94653 26.3811 6.11632C26.7621 6.51625 26.7466 7.14922 26.3466 7.5301C25.9467 7.911 25.3138 7.89554 24.9329 7.49561C24.7935 7.34938 24.6507 7.20657 24.5046 7.06732C24.1046 6.68644 24.0891 6.05345 24.4701 5.65352ZM7.53059 5.65352C7.91149 6.05345 7.89603 6.68644 7.4961 7.06732C7.34987 7.20658 7.20706 7.34938 7.06781 7.49561C6.68693 7.89554 6.05394 7.911 5.65401 7.5301C5.25407 7.14922 5.23863 6.51625 5.61951 6.11632C5.78121 5.94654 5.94702 5.78072 6.11681 5.61902C6.51674 5.23814 7.14971 5.2536 7.53059 5.65352ZM27.787 9.68117C28.2918 9.45708 28.8827 9.68461 29.1067 10.1894C29.2018 10.4034 29.2917 10.6202 29.3763 10.8396C29.5753 11.3548 29.3189 11.9337 28.8037 12.1326C28.2883 12.3315 27.7095 12.0751 27.5106 11.5598C27.4378 11.3712 27.3605 11.1849 27.2789 11.0009C27.0547 10.4961 27.2822 9.90525 27.787 9.68117ZM4.21362 9.68117C4.71841 9.90526 4.94594 10.4961 4.72185 11.0009C4.64017 11.1849 4.56287 11.3712 4.49007 11.5598C4.29118 12.0751 3.71227 12.3315 3.19705 12.1326C2.68182 11.9337 2.42537 11.3548 2.62426 10.8396C2.70895 10.6202 2.79889 10.4034 2.89389 10.1894C3.11798 9.68461 3.70885 9.45708 4.21362 9.68117ZM29.3055 14.6718C29.8577 14.6585 30.3161 15.0953 30.3294 15.6474C30.3322 15.7646 30.3337 15.8821 30.3337 15.9998C30.3337 16.1176 30.3322 16.235 30.3294 16.3522C30.3161 16.9044 29.8577 17.3412 29.3055 17.3278C28.7534 17.3144 28.3166 16.856 28.3299 16.304C28.3325 16.2029 28.3337 16.1016 28.3337 15.9998C28.3337 15.8981 28.3325 15.7968 28.3299 15.6957C28.3166 15.1437 28.7534 14.6853 29.3055 14.6718ZM2.69511 14.6718C3.24723 14.6853 3.68401 15.1437 3.67066 15.6957C3.66822 15.7968 3.66699 15.8981 3.66699 15.9998C3.66699 16.1016 3.66822 16.2029 3.67066 16.304C3.68401 16.856 3.24723 17.3144 2.69511 17.3278C2.14298 17.3412 1.68458 16.9044 1.67125 16.3522C1.66842 16.235 1.66699 16.1176 1.66699 15.9998C1.66699 15.8821 1.66842 15.7646 1.67125 15.6474C1.68458 15.0953 2.14298 14.6585 2.69511 14.6718ZM28.8037 19.867C29.3189 20.066 29.5753 20.6449 29.3763 21.1601C29.2917 21.3794 29.2018 21.5962 29.1067 21.8102C28.8827 22.315 28.2918 22.5426 27.787 22.3185C27.2822 22.0944 27.0547 21.5036 27.2789 20.9988C27.3605 20.8148 27.4378 20.6284 27.5106 20.4398C27.7095 19.9246 28.2883 19.6682 28.8037 19.867ZM3.19705 19.867C3.71227 19.6682 4.29118 19.9246 4.49007 20.4398C4.56287 20.6284 4.64017 20.8148 4.72185 20.9988C4.94594 21.5036 4.71841 22.0944 4.21362 22.3185C3.70885 22.5426 3.11798 22.315 2.89389 21.8102C2.79889 21.5962 2.70895 21.3794 2.62426 21.1601C2.42537 20.6449 2.68182 20.066 3.19705 19.867ZM26.3466 24.4696C26.7466 24.8505 26.7621 25.4834 26.3811 25.8833C26.2194 26.0532 26.0537 26.2189 25.8838 26.3806C25.4839 26.7616 24.851 26.7461 24.4701 26.3461C24.0891 25.9462 24.1046 25.3133 24.5046 24.9324C24.6507 24.793 24.7935 24.6502 24.9329 24.5041C25.3138 24.1041 25.9467 24.0886 26.3466 24.4696ZM5.65401 24.4696C6.05394 24.0886 6.68693 24.1041 7.06781 24.5041C7.20707 24.6502 7.34987 24.793 7.4961 24.9324C7.89603 25.3133 7.91149 25.9462 7.53059 26.3461C7.14971 26.7461 6.51674 26.7616 6.11681 26.3806C5.94703 26.2189 5.78121 26.0532 5.61951 25.8833C5.23863 25.4834 5.25409 24.8505 5.65401 24.4696ZM9.68166 27.7865C9.90575 27.2817 10.4966 27.0542 11.0014 27.2784C11.1854 27.36 11.3717 27.4373 11.5603 27.5101C12.0755 27.709 12.332 28.2878 12.1331 28.8032C11.9342 29.3184 11.3553 29.5748 10.8401 29.3758C10.6207 29.2912 10.4039 29.2013 10.1899 29.1062C9.6851 28.8822 9.45757 28.2913 9.68166 27.7865ZM22.319 27.7865C22.5431 28.2913 22.3155 28.8822 21.8107 29.1062C21.5967 29.2013 21.3799 29.2912 21.1606 29.3758C20.6454 29.5748 20.0665 29.3184 19.8675 28.8032C19.6687 28.2878 19.9251 27.709 20.4403 27.5101C20.6289 27.4373 20.8153 27.36 20.9993 27.2784C21.5041 27.0542 22.0949 27.2817 22.319 27.7865ZM14.6723 29.305C14.6858 28.7529 15.1442 28.3161 15.6962 28.3294C15.7973 28.332 15.8986 28.3332 16.0003 28.3332C16.1021 28.3332 16.2034 28.332 16.3045 28.3294C16.8565 28.3161 17.3149 28.7529 17.3283 29.305C17.3417 29.8572 16.9049 30.3156 16.3527 30.3289C16.2355 30.3317 16.1181 30.3332 16.0003 30.3332C15.8826 30.3332 15.7651 30.3317 15.6479 30.3289C15.0958 30.3156 14.659 29.8572 14.6723 29.305Z"/>
</mask>
<path fill-rule="evenodd" clip-rule="evenodd" d="M16.0003 10.9998C16.5526 10.9998 17.0003 11.4476 17.0003 11.9998V16.3332H21.3337C21.8859 16.3332 22.3337 16.7809 22.3337 17.3332C22.3337 17.8854 21.8859 18.3332 21.3337 18.3332H16.0003C15.4481 18.3332 15.0003 17.8854 15.0003 17.3332V11.9998C15.0003 11.4476 15.4481 10.9998 16.0003 10.9998ZM15.6479 1.67076C15.7651 1.66793 15.8826 1.6665 16.0003 1.6665C16.1181 1.6665 16.2355 1.66793 16.3527 1.67076C16.9049 1.68409 17.3417 2.14249 17.3283 2.69462C17.3149 3.24674 16.8565 3.68352 16.3045 3.67017C16.2034 3.66773 16.1021 3.6665 16.0003 3.6665C15.8986 3.6665 15.7973 3.66773 15.6962 3.67017C15.1442 3.68352 14.6858 3.24674 14.6723 2.69462C14.659 2.14249 15.0958 1.68409 15.6479 1.67076ZM19.8675 3.19656C20.0665 2.68133 20.6454 2.42488 21.1606 2.62377C21.3799 2.70846 21.5967 2.7984 21.8107 2.8934C22.3155 3.11749 22.5431 3.70836 22.319 4.21313C22.0949 4.71792 21.5041 4.94545 20.9993 4.72136C20.8153 4.63968 20.6289 4.56238 20.4403 4.48958C19.9251 4.29069 19.6687 3.71178 19.8675 3.19656ZM12.1331 3.19656C12.332 3.71178 12.0755 4.29069 11.5603 4.48958C11.3717 4.56238 11.1854 4.63968 11.0014 4.72136C10.4966 4.94545 9.90574 4.71792 9.68166 4.21313C9.45757 3.70836 9.6851 3.11749 10.1899 2.8934C10.4039 2.7984 10.6207 2.70846 10.8401 2.62377C11.3553 2.42488 11.9342 2.68133 12.1331 3.19656ZM24.4701 5.65352C24.851 5.25358 25.4839 5.23814 25.8838 5.61902C26.0537 5.78072 26.2194 5.94653 26.3811 6.11632C26.7621 6.51625 26.7466 7.14922 26.3466 7.5301C25.9467 7.911 25.3138 7.89554 24.9329 7.49561C24.7935 7.34938 24.6507 7.20657 24.5046 7.06732C24.1046 6.68644 24.0891 6.05345 24.4701 5.65352ZM7.53059 5.65352C7.91149 6.05345 7.89603 6.68644 7.4961 7.06732C7.34987 7.20658 7.20706 7.34938 7.06781 7.49561C6.68693 7.89554 6.05394 7.911 5.65401 7.5301C5.25407 7.14922 5.23863 6.51625 5.61951 6.11632C5.78121 5.94654 5.94702 5.78072 6.11681 5.61902C6.51674 5.23814 7.14971 5.2536 7.53059 5.65352ZM27.787 9.68117C28.2918 9.45708 28.8827 9.68461 29.1067 10.1894C29.2018 10.4034 29.2917 10.6202 29.3763 10.8396C29.5753 11.3548 29.3189 11.9337 28.8037 12.1326C28.2883 12.3315 27.7095 12.0751 27.5106 11.5598C27.4378 11.3712 27.3605 11.1849 27.2789 11.0009C27.0547 10.4961 27.2822 9.90525 27.787 9.68117ZM4.21362 9.68117C4.71841 9.90526 4.94594 10.4961 4.72185 11.0009C4.64017 11.1849 4.56287 11.3712 4.49007 11.5598C4.29118 12.0751 3.71227 12.3315 3.19705 12.1326C2.68182 11.9337 2.42537 11.3548 2.62426 10.8396C2.70895 10.6202 2.79889 10.4034 2.89389 10.1894C3.11798 9.68461 3.70885 9.45708 4.21362 9.68117ZM29.3055 14.6718C29.8577 14.6585 30.3161 15.0953 30.3294 15.6474C30.3322 15.7646 30.3337 15.8821 30.3337 15.9998C30.3337 16.1176 30.3322 16.235 30.3294 16.3522C30.3161 16.9044 29.8577 17.3412 29.3055 17.3278C28.7534 17.3144 28.3166 16.856 28.3299 16.304C28.3325 16.2029 28.3337 16.1016 28.3337 15.9998C28.3337 15.8981 28.3325 15.7968 28.3299 15.6957C28.3166 15.1437 28.7534 14.6853 29.3055 14.6718ZM2.69511 14.6718C3.24723 14.6853 3.68401 15.1437 3.67066 15.6957C3.66822 15.7968 3.66699 15.8981 3.66699 15.9998C3.66699 16.1016 3.66822 16.2029 3.67066 16.304C3.68401 16.856 3.24723 17.3144 2.69511 17.3278C2.14298 17.3412 1.68458 16.9044 1.67125 16.3522C1.66842 16.235 1.66699 16.1176 1.66699 15.9998C1.66699 15.8821 1.66842 15.7646 1.67125 15.6474C1.68458 15.0953 2.14298 14.6585 2.69511 14.6718ZM28.8037 19.867C29.3189 20.066 29.5753 20.6449 29.3763 21.1601C29.2917 21.3794 29.2018 21.5962 29.1067 21.8102C28.8827 22.315 28.2918 22.5426 27.787 22.3185C27.2822 22.0944 27.0547 21.5036 27.2789 20.9988C27.3605 20.8148 27.4378 20.6284 27.5106 20.4398C27.7095 19.9246 28.2883 19.6682 28.8037 19.867ZM3.19705 19.867C3.71227 19.6682 4.29118 19.9246 4.49007 20.4398C4.56287 20.6284 4.64017 20.8148 4.72185 20.9988C4.94594 21.5036 4.71841 22.0944 4.21362 22.3185C3.70885 22.5426 3.11798 22.315 2.89389 21.8102C2.79889 21.5962 2.70895 21.3794 2.62426 21.1601C2.42537 20.6449 2.68182 20.066 3.19705 19.867ZM26.3466 24.4696C26.7466 24.8505 26.7621 25.4834 26.3811 25.8833C26.2194 26.0532 26.0537 26.2189 25.8838 26.3806C25.4839 26.7616 24.851 26.7461 24.4701 26.3461C24.0891 25.9462 24.1046 25.3133 24.5046 24.9324C24.6507 24.793 24.7935 24.6502 24.9329 24.5041C25.3138 24.1041 25.9467 24.0886 26.3466 24.4696ZM5.65401 24.4696C6.05394 24.0886 6.68693 24.1041 7.06781 24.5041C7.20707 24.6502 7.34987 24.793 7.4961 24.9324C7.89603 25.3133 7.91149 25.9462 7.53059 26.3461C7.14971 26.7461 6.51674 26.7616 6.11681 26.3806C5.94703 26.2189 5.78121 26.0532 5.61951 25.8833C5.23863 25.4834 5.25409 24.8505 5.65401 24.4696ZM9.68166 27.7865C9.90575 27.2817 10.4966 27.0542 11.0014 27.2784C11.1854 27.36 11.3717 27.4373 11.5603 27.5101C12.0755 27.709 12.332 28.2878 12.1331 28.8032C11.9342 29.3184 11.3553 29.5748 10.8401 29.3758C10.6207 29.2912 10.4039 29.2013 10.1899 29.1062C9.6851 28.8822 9.45757 28.2913 9.68166 27.7865ZM22.319 27.7865C22.5431 28.2913 22.3155 28.8822 21.8107 29.1062C21.5967 29.2013 21.3799 29.2912 21.1606 29.3758C20.6454 29.5748 20.0665 29.3184 19.8675 28.8032C19.6687 28.2878 19.9251 27.709 20.4403 27.5101C20.6289 27.4373 20.8153 27.36 20.9993 27.2784C21.5041 27.0542 22.0949 27.2817 22.319 27.7865ZM14.6723 29.305C14.6858 28.7529 15.1442 28.3161 15.6962 28.3294C15.7973 28.332 15.8986 28.3332 16.0003 28.3332C16.1021 28.3332 16.2034 28.332 16.3045 28.3294C16.8565 28.3161 17.3149 28.7529 17.3283 29.305C17.3417 29.8572 16.9049 30.3156 16.3527 30.3289C16.2355 30.3317 16.1181 30.3332 16.0003 30.3332C15.8826 30.3332 15.7651 30.3317 15.6479 30.3289C15.0958 30.3156 14.659 29.8572 14.6723 29.305Z" fill="#303030" stroke="#F8F8F8" stroke-width="0.6" mask="url(#path-1-inside-1_15808_29208)"/>
<path fill-rule="evenodd" clip-rule="evenodd" d="M16.0003 3.6665C22.8118 3.6665 28.3337 9.18833 28.3337 15.9998C28.3337 22.8113 22.8118 28.3332 16.0003 28.3332C9.18882 28.3332 3.66699 22.8113 3.66699 15.9998C3.66699 15.4476 3.21927 14.9998 2.66699 14.9998C2.11471 14.9998 1.66699 15.4476 1.66699 15.9998C1.66699 23.916 8.08425 30.3332 16.0003 30.3332C23.9165 30.3332 30.3337 23.916 30.3337 15.9998C30.3337 8.08376 23.9165 1.6665 16.0003 1.6665C15.4481 1.6665 15.0003 2.11422 15.0003 2.6665C15.0003 3.21878 15.4481 3.6665 16.0003 3.6665Z" fill="#303030"/>
</svg>
