<svg width="24" height="24" viewBox="0 0 24 24" fill="none" xmlns="http://www.w3.org/2000/svg">
<g id="flag-of-india 1">
<path id="Vector" d="M23.8153 8.75452H0.18457V15.2437H23.8153V8.75452Z" fill="#F0F5F9"/>
<path id="Vector_2" d="M23.8153 4.49719H0.18457V9.49842H23.8153V4.49719Z" fill="#F28623"/>
<path id="Vector_3" d="M23.8153 14.5016H0.18457V19.5028H23.8153V14.5016Z" fill="#65B54E"/>
<path id="Vector_4" d="M12.4388 13.8652C13.4689 13.6221 14.1068 12.59 13.8637 11.56C13.6206 10.5299 12.5885 9.89201 11.5584 10.1351C10.5284 10.3782 9.89044 11.4103 10.1336 12.4404C10.3767 13.4704 11.4088 14.1084 12.4388 13.8652Z" fill="#00247D"/>
<path id="Vector_5" d="M12.7586 13.5452L12.8232 13.3883C12.8352 13.3599 12.8552 13.3357 12.8808 13.3186C12.9064 13.3016 12.9365 13.2924 12.9672 13.2923H13.1371C13.1782 13.2923 13.2176 13.2759 13.2467 13.2469C13.2758 13.2178 13.2921 13.1783 13.2921 13.1372V12.9674C13.2923 12.9366 13.3014 12.9065 13.3185 12.8809C13.3356 12.8553 13.3598 12.8353 13.3881 12.8234L13.5451 12.7587C13.583 12.7428 13.6132 12.7126 13.6291 12.6746C13.645 12.6366 13.6453 12.5939 13.63 12.5557L13.5635 12.3987C13.5522 12.3704 13.5495 12.3393 13.5557 12.3095C13.562 12.2796 13.5769 12.2522 13.5986 12.2307L13.7186 12.1107C13.7331 12.0963 13.7445 12.0792 13.7524 12.0604C13.7602 12.0415 13.7642 12.0213 13.7642 12.0009C13.7642 11.9805 13.7602 11.9603 13.7524 11.9414C13.7445 11.9226 13.7331 11.9055 13.7186 11.8911L13.5986 11.7711C13.577 11.7491 13.5624 11.7213 13.5565 11.6911C13.5506 11.6609 13.5537 11.6297 13.5654 11.6012L13.63 11.4443C13.6378 11.4254 13.6418 11.4051 13.6418 11.3847C13.6418 11.3642 13.6377 11.3439 13.6298 11.3251C13.6219 11.3062 13.6104 11.2891 13.5958 11.2747C13.5813 11.2603 13.564 11.2489 13.5451 11.2412L13.3881 11.1766C13.3598 11.1646 13.3356 11.1446 13.3185 11.119C13.3014 11.0934 13.2923 11.0634 13.2921 11.0326V10.8627C13.2921 10.8216 13.2758 10.7822 13.2467 10.7531C13.2176 10.724 13.1782 10.7077 13.1371 10.7077H12.9672C12.9365 10.7075 12.9064 10.6984 12.8808 10.6813C12.8552 10.6642 12.8352 10.64 12.8232 10.6117L12.7586 10.4547C12.7427 10.4168 12.7124 10.3866 12.6745 10.3707C12.6365 10.3548 12.5938 10.3545 12.5555 10.3698L12.3986 10.4363C12.3703 10.4476 12.3392 10.4503 12.3093 10.4441C12.2794 10.4379 12.252 10.4229 12.2306 10.4012L12.1106 10.2812C12.0962 10.2667 12.0791 10.2553 12.0602 10.2475C12.0414 10.2396 12.0212 10.2356 12.0008 10.2356C11.9804 10.2356 11.9601 10.2396 11.9413 10.2475C11.9224 10.2553 11.9053 10.2667 11.8909 10.2812L11.7709 10.4012C11.749 10.4228 11.7212 10.4374 11.691 10.4434C11.6608 10.4493 11.6295 10.4462 11.6011 10.4344L11.446 10.3698C11.4271 10.362 11.4068 10.358 11.3864 10.358C11.3659 10.358 11.3457 10.3621 11.3268 10.37C11.3079 10.3779 11.2908 10.3895 11.2764 10.404C11.262 10.4185 11.2506 10.4358 11.2429 10.4547L11.1783 10.6117C11.1664 10.64 11.1463 10.6642 11.1207 10.6813C11.0951 10.6984 11.0651 10.7075 11.0343 10.7077H10.8645C10.8233 10.7077 10.7839 10.724 10.7548 10.7531C10.7257 10.7822 10.7094 10.8216 10.7094 10.8627V11.0326C10.7093 11.0634 10.7001 11.0934 10.683 11.119C10.666 11.1446 10.6417 11.1646 10.6134 11.1766L10.4565 11.2412C10.4185 11.2571 10.3883 11.2874 10.3724 11.3254C10.3565 11.3633 10.3562 11.4061 10.3715 11.4443L10.438 11.6012C10.4493 11.6296 10.4521 11.6606 10.4458 11.6905C10.4396 11.7204 10.4247 11.7478 10.4029 11.7692L10.2829 11.8892C10.2685 11.9036 10.257 11.9207 10.2492 11.9396C10.2413 11.9584 10.2373 11.9786 10.2373 11.9991C10.2373 12.0195 10.2413 12.0397 10.2492 12.0585C10.257 12.0774 10.2685 12.0945 10.2829 12.1089L10.4029 12.2289C10.4245 12.2508 10.4392 12.2786 10.4451 12.3088C10.451 12.339 10.4479 12.3703 10.4361 12.3987L10.3715 12.5557C10.3637 12.5746 10.3597 12.5948 10.3597 12.6153C10.3597 12.6358 10.3638 12.656 10.3717 12.6749C10.3796 12.6938 10.3912 12.7109 10.4057 12.7253C10.4202 12.7397 10.4375 12.751 10.4565 12.7587L10.6134 12.8234C10.6417 12.8353 10.666 12.8553 10.683 12.8809C10.7001 12.9065 10.7093 12.9366 10.7094 12.9674V13.1372C10.7094 13.1783 10.7257 13.2178 10.7548 13.2469C10.7839 13.2759 10.8233 13.2923 10.8645 13.2923H11.0343C11.0651 13.2924 11.0951 13.3016 11.1207 13.3186C11.1463 13.3357 11.1664 13.3599 11.1783 13.3883L11.2429 13.5452C11.2589 13.5832 11.2891 13.6134 11.3271 13.6292C11.3651 13.6451 11.4078 13.6455 11.446 13.6301L11.6029 13.5637C11.6313 13.5523 11.6623 13.5496 11.6922 13.5558C11.7221 13.5621 11.7495 13.577 11.7709 13.5987L11.8909 13.7187C11.9053 13.7332 11.9224 13.7447 11.9413 13.7525C11.9601 13.7603 11.9804 13.7644 12.0008 13.7644C12.0212 13.7644 12.0414 13.7603 12.0602 13.7525C12.0791 13.7447 12.0962 13.7332 12.1106 13.7187L12.2306 13.5987C12.2525 13.5772 12.2803 13.5625 12.3105 13.5566C12.3407 13.5507 12.372 13.5538 12.4005 13.5655L12.5574 13.6301C12.5953 13.6454 12.6378 13.645 12.6755 13.6291C12.7132 13.6132 12.7431 13.583 12.7586 13.5452Z" fill="#F0F5F9"/>
<path id="Vector_6" d="M12.0108 10.4787L11.9997 10.4104L11.9886 10.4787C11.9166 10.948 11.9166 11.4255 11.9886 11.8947L11.9997 11.963L12.0108 11.8947C12.0828 11.4255 12.0828 10.948 12.0108 10.4787ZM12.0108 12.1052L11.9997 12.0369L11.9886 12.1052C11.9166 12.5744 11.9166 13.0519 11.9886 13.5212L11.9997 13.5895L12.0108 13.5212C12.0828 13.0519 12.0828 12.5744 12.0108 12.1052ZM13.5209 12.011L13.5892 11.9999L13.5209 11.9889C13.0517 11.9169 12.5742 11.9169 12.1049 11.9889L12.0366 11.9999L12.1049 12.011C12.5742 12.083 13.0517 12.083 13.5209 12.011ZM11.8945 12.011L11.9628 11.9999L11.8945 11.9889C11.4252 11.9169 10.9477 11.9169 10.4785 11.9889L10.4102 11.9999L10.4785 12.011C10.9477 12.083 11.4252 12.083 11.8945 12.011ZM13.0834 10.931L13.124 10.8756L13.0686 10.9162C12.6839 11.1957 12.3456 11.534 12.0662 11.9187L12.0255 11.9741L12.0809 11.9335C12.4656 11.654 12.8039 11.3157 13.0834 10.931ZM11.9332 12.0812L11.9738 12.0258L11.9185 12.0664C11.5338 12.3459 11.1955 12.6842 10.916 13.0689L10.8754 13.1242L10.9308 13.0836C11.3155 12.8042 11.6538 12.4659 11.9332 12.0812ZM13.0686 13.0836L13.124 13.1242L13.0834 13.0689C12.8039 12.6842 12.4656 12.3459 12.0809 12.0664L12.0255 12.0258L12.0662 12.0812C12.3456 12.4659 12.6839 12.8042 13.0686 13.0836ZM11.9185 11.9335L11.9738 11.9741L11.9332 11.9187C11.6538 11.534 11.3155 11.1957 10.9308 10.9162L10.8754 10.8756L10.916 10.931C11.1955 11.3157 11.5338 11.654 11.9185 11.9335ZM11.4274 10.5895L11.3905 10.523L11.4071 10.5913C11.5195 11.053 11.7026 11.4945 11.9498 11.9002L11.9849 11.9593L11.9702 11.891C11.857 11.4319 11.6739 10.993 11.4274 10.5895ZM12.0495 12.0922L12.0145 12.0332L12.0292 12.1015C12.1417 12.5631 12.3248 13.0046 12.572 13.4104L12.6089 13.4695L12.5923 13.4012C12.4798 12.9395 12.2968 12.498 12.0495 12.0922ZM13.4102 11.4276L13.4692 11.3907L13.4009 11.4073C12.9393 11.5198 12.4978 11.7029 12.092 11.9501L12.0329 11.9852L12.1012 11.9704C12.5629 11.8579 13.0044 11.6749 13.4102 11.4276ZM11.9074 12.0498L11.9665 12.0147L11.8982 12.0295C11.4365 12.1419 10.995 12.325 10.5892 12.5722L10.5302 12.6092L10.5985 12.5926C11.0601 12.4801 11.5016 12.297 11.9074 12.0498ZM12.5923 10.5987L12.6089 10.523L12.572 10.5821C12.3248 10.9879 12.1417 11.4294 12.0292 11.891L12.0145 11.9593L12.0495 11.9002C12.2961 11.4968 12.4791 11.0578 12.5923 10.5987ZM11.9702 12.1015L11.9849 12.0332L11.9498 12.0922C11.7026 12.498 11.5195 12.9395 11.4071 13.4012L11.3905 13.4769L11.4274 13.4178C11.6753 13.0097 11.8584 12.5657 11.9702 12.1015ZM13.4009 12.5926L13.4692 12.6092L13.4102 12.5722C13.0044 12.325 12.5629 12.1419 12.1012 12.0295L12.0329 12.0147L12.092 12.0498C12.4978 12.297 12.9393 12.4801 13.4009 12.5926ZM11.8982 11.9704L11.9665 11.9852L11.9074 11.9501C11.5016 11.7029 11.0601 11.5198 10.5985 11.4073L10.5228 11.3907L10.5818 11.4276C10.9899 11.6756 11.434 11.8587 11.8982 11.9704Z" fill="#00247D"/>
<path id="Vector_7" d="M12.0004 12.3804C12.2105 12.3804 12.3807 12.2101 12.3807 12.0001C12.3807 11.79 12.2105 11.6198 12.0004 11.6198C11.7904 11.6198 11.6201 11.79 11.6201 12.0001C11.6201 12.2101 11.7904 12.3804 12.0004 12.3804Z" fill="#00247D"/>
</g>
</svg>
