<svg width="33" height="33" viewBox="0 0 33 33" fill="none" xmlns="http://www.w3.org/2000/svg">
<path fill-rule="evenodd" clip-rule="evenodd" d="M16.2253 0.901408C24.6885 0.901408 31.5492 7.76214 31.5492 16.2253C31.5492 24.6885 24.6885 31.5493 16.2253 31.5493C7.76214 31.5493 0.901376 24.6885 0.901376 16.2253C0.901376 7.76214 7.76214 0.901408 16.2253 0.901408Z" stroke="#31DD03"/>
<path d="M22.3188 8.36719H9.68066C9.5667 8.36719 9.45741 8.41246 9.37683 8.49304C9.29625 8.57362 9.25098 8.68291 9.25098 8.79688V25.2035C9.25098 25.287 9.27531 25.3687 9.321 25.4386C9.36669 25.5085 9.43175 25.5636 9.50824 25.5971C9.58472 25.6306 9.66931 25.6411 9.75166 25.6273C9.83401 25.6135 9.91056 25.576 9.97195 25.5194L11.4669 24.1407C11.5452 24.068 11.6478 24.0272 11.7547 24.0264C11.8615 24.0255 11.9648 24.0646 12.0443 24.136L13.0243 25.0106C13.2612 25.2226 13.5682 25.3395 13.8861 25.3386C14.204 25.3378 14.5104 25.2193 14.7461 25.006L15.7118 24.1347C15.7907 24.0632 15.8933 24.0236 15.9997 24.0236C16.1062 24.0236 16.2088 24.0632 16.2876 24.1347L17.2534 25.006C17.4892 25.2193 17.7955 25.3378 18.1135 25.3386C18.4314 25.3395 18.7383 25.2226 18.9752 25.0106L19.9552 24.136C20.0347 24.0646 20.138 24.0255 20.2448 24.0264C20.3517 24.0273 20.4543 24.0681 20.5326 24.1408L22.0276 25.5194C22.089 25.576 22.1655 25.6135 22.2479 25.6273C22.3302 25.6411 22.4148 25.6306 22.4913 25.5971C22.5678 25.5636 22.6328 25.5085 22.6785 25.4386C22.7242 25.3687 22.7485 25.287 22.7485 25.2035V8.79688C22.7485 8.74044 22.7374 8.68457 22.7158 8.63243C22.6942 8.5803 22.6626 8.53293 22.6227 8.49302C22.5828 8.45312 22.5354 8.42147 22.4833 8.39988C22.4311 8.37829 22.3752 8.36718 22.3188 8.36719ZM21.8891 24.2227L21.1152 23.5089C20.8803 23.2909 20.5724 23.1685 20.2518 23.1658C19.9313 23.1632 19.6214 23.2805 19.383 23.4948L18.403 24.3694C18.324 24.44 18.2217 24.479 18.1157 24.4787C18.0098 24.4784 17.9076 24.4389 17.829 24.3678L16.8634 23.4967C16.6269 23.2823 16.3191 23.1636 15.9999 23.1636C15.6807 23.1636 15.3729 23.2823 15.1364 23.4967L14.1706 24.368C14.092 24.4391 13.9899 24.4786 13.8839 24.4789C13.7779 24.4791 13.6756 24.4402 13.5967 24.3695L12.6167 23.4949C12.3782 23.2807 12.0683 23.1634 11.7478 23.166C11.4273 23.1686 11.1194 23.291 10.8844 23.509L10.1105 24.2228V9.22669H21.8891V24.2228V24.2227Z" fill="#31DD03"/>
<path d="M18.6428 14.2012H13.1279C13.014 14.2012 12.9047 14.2464 12.8241 14.327C12.7435 14.4076 12.6982 14.5169 12.6982 14.6309C12.6982 14.7448 12.7435 14.8541 12.8241 14.9347C12.9047 15.0153 13.014 15.0605 13.1279 15.0605H18.6428C18.7568 15.0605 18.8661 15.0153 18.9467 14.9347C19.0273 14.8541 19.0725 14.7448 19.0725 14.6309C19.0725 14.5169 19.0273 14.4076 18.9467 14.327C18.8661 14.2464 18.7568 14.2012 18.6428 14.2012ZM18.6428 17.1884H13.1279C13.014 17.1884 12.9047 17.2337 12.8241 17.3143C12.7435 17.3948 12.6982 17.5041 12.6982 17.6181C12.6982 17.732 12.7435 17.8413 12.8241 17.9219C12.9047 18.0025 13.014 18.0478 13.1279 18.0478H18.6428C18.7568 18.0478 18.8661 18.0025 18.9467 17.9219C19.0273 17.8413 19.0725 17.732 19.0725 17.6181C19.0725 17.5041 19.0273 17.3948 18.9467 17.3143C18.8661 17.2337 18.7568 17.1884 18.6428 17.1884Z" fill="#31DD03"/>
</svg>
