<svg width="33" height="33" viewBox="0 0 33 33" fill="none" xmlns="http://www.w3.org/2000/svg">
<path fill-rule="evenodd" clip-rule="evenodd" d="M16.2253 0.901408C24.6885 0.901408 31.5492 7.76214 31.5492 16.2253C31.5492 24.6885 24.6885 31.5493 16.2253 31.5493C7.76214 31.5493 0.901376 24.6885 0.901376 16.2253C0.901376 7.76214 7.76214 0.901408 16.2253 0.901408Z" stroke="#EAD610"/>
<path d="M11.0506 23.4435L15.8119 24.7118C16.4885 24.8924 17.2085 24.8074 17.8244 24.4742L24.7978 20.7111C25.1185 20.5372 25.369 20.2577 25.5069 19.92C25.6448 19.5823 25.6614 19.2073 25.5541 18.8587C25.4286 18.453 25.152 18.1222 24.7755 17.9264C24.3991 17.7306 23.969 17.6954 23.5647 17.826L19.0762 19.278C18.897 19.1034 18.6807 18.9716 18.4434 18.8925L14.5871 17.6069C14.0368 17.4234 13.4945 17.4094 12.9701 17.3957L11.0506 17.3814V16.5542H6.375V24.2542H11.0506V23.4435ZM12.7437 18.4896L12.9412 18.4951C13.4257 18.5078 13.844 18.5188 14.2392 18.6505L18.0955 19.9361C18.2324 19.9813 18.3464 20.0778 18.4136 20.2054C18.4808 20.333 18.4959 20.4816 18.4558 20.62C18.4161 20.7604 18.3229 20.8795 18.1963 20.9517C18.0696 21.024 17.9197 21.0437 17.7787 21.0064L13.3798 19.8666L13.104 20.9313L17.5029 22.0709C17.6412 22.1069 17.7835 22.1251 17.9264 22.1251C18.2855 22.125 18.6348 22.0077 18.9212 21.7908C19.2075 21.574 19.4151 21.2696 19.5126 20.9239C19.5753 20.7067 19.5912 20.4867 19.5673 20.2752L23.9035 18.8724C23.9633 18.8529 24.0264 18.8455 24.0892 18.8507C24.1519 18.8559 24.2129 18.8736 24.2687 18.9027C24.3823 18.9618 24.4656 19.0616 24.5035 19.1837C24.5359 19.2889 24.5309 19.402 24.4892 19.5039C24.4476 19.6058 24.372 19.6901 24.2753 19.7425L17.3019 23.5062C16.9325 23.7064 16.5005 23.7574 16.0946 23.6489L11.0506 22.3053V18.4803L12.7437 18.4896ZM9.95055 23.1542H7.475V17.6542H9.95055V23.1542ZM12.1544 15.4542L24.2544 15.4536V7.216L12.1544 7.19482V15.4542ZM13.2544 8.29675L23.1544 8.31407V14.3536L13.2544 14.3542V8.29675Z" fill="#EAD610"/>
<path d="M18.204 10.0362C18.4474 10.0362 18.6456 10.2023 18.6456 10.4063H19.7456C19.7456 9.7807 19.3329 9.24637 18.754 9.03462V8.75H17.654V9.03462C17.0748 9.24637 16.6621 9.7807 16.6621 10.4063C16.6621 11.217 17.3537 11.8768 18.204 11.8768C18.4474 11.8768 18.6456 12.0429 18.6456 12.2469C18.6456 12.4512 18.4476 12.6173 18.204 12.6173C17.9603 12.6173 17.7621 12.4512 17.7621 12.2469H16.6621C16.6621 12.8728 17.0748 13.4071 17.654 13.6189V13.9035H18.754V13.6189C19.3329 13.4071 19.7456 12.8728 19.7456 12.2469C19.7456 11.4362 19.054 10.7768 18.204 10.7768C17.9603 10.7768 17.7621 10.6107 17.7621 10.4063C17.7621 10.2023 17.9601 10.0362 18.204 10.0362ZM20.8591 10.7787H22.0493V11.8787H20.8591V10.7787ZM14.3584 10.7787H15.5486V11.8787H14.3584V10.7787Z" fill="#EAD610"/>
</svg>
