<svg width="13" height="13" viewBox="0 0 13 13" fill="none" xmlns="http://www.w3.org/2000/svg">
<path d="M8.2154 4.78458C7.96975 4.53893 7.57145 4.53894 7.3258 4.7846C7.08022 5.03027 7.08022 5.42857 7.32588 5.67414L8.2154 4.78458ZM3.13374 6.94477C3.37939 6.69912 3.37939 6.3009 3.13374 6.05525C2.88809 5.80959 2.48982 5.80959 2.24416 6.05525L3.13374 6.94477ZM4.78462 8.2154C5.03027 8.46106 5.42857 8.46106 5.67414 8.2154C5.9198 7.96975 5.9198 7.57145 5.67414 7.3258L4.78462 8.2154ZM9.8663 6.05525C9.62065 6.3009 9.62065 6.69912 9.8663 6.94477C10.112 7.19043 10.5102 7.19043 10.7558 6.94477L9.8663 6.05525ZM7.32588 5.67414C7.71327 6.06154 7.93092 6.58698 7.93092 7.13491H9.18897C9.18897 6.25335 8.83881 5.40794 8.2154 4.78458L7.32588 5.67414ZM7.93092 7.13491C7.93092 7.68275 7.71327 8.20819 7.32588 8.59559L8.2154 9.4852C8.83881 8.86187 9.18897 8.01647 9.18897 7.13491H7.93092ZM7.32588 8.59559L4.78462 11.1369L5.67414 12.0265L8.2154 9.4852L7.32588 8.59559ZM4.78462 11.1369C3.97785 11.9437 2.66985 11.9437 1.86311 11.1369L0.97353 12.0265C2.27158 13.3245 4.37612 13.3245 5.67414 12.0265L4.78462 11.1369ZM1.86311 11.1369C1.05637 10.3302 1.05637 9.02215 1.86311 8.2154L0.97353 7.32588C-0.32451 8.62385 -0.32451 10.7284 0.97353 12.0265L1.86311 11.1369ZM1.86311 8.2154L3.13374 6.94477L2.24416 6.05525L0.97353 7.32588L1.86311 8.2154ZM5.67414 7.3258C5.28675 6.9384 5.0691 6.41295 5.0691 5.86512H3.81102C3.81102 6.74667 4.16123 7.59208 4.78462 8.2154L5.67414 7.3258ZM5.0691 5.86512C5.0691 5.31719 5.28675 4.79179 5.67414 4.40438L4.78462 3.51478C4.16123 4.13811 3.81102 4.98356 3.81102 5.86512H5.0691ZM5.67414 4.40438L8.2154 1.86311L7.32588 0.97353L4.78462 3.51478L5.67414 4.40438ZM8.2154 1.86311C9.02215 1.05637 10.3302 1.05637 11.1369 1.86311L12.0265 0.97353C10.7284 -0.32451 8.62385 -0.32451 7.32588 0.97353L8.2154 1.86311ZM11.1369 1.86311C11.9437 2.66985 11.9437 3.97785 11.1369 4.78458L12.0265 5.67414C13.3245 4.37612 13.3245 2.27158 12.0265 0.97353L11.1369 1.86311ZM11.1369 4.78458L9.8663 6.05525L10.7558 6.94477L12.0265 5.67414L11.1369 4.78458Z" fill="#009206"/>
</svg>
