<svg width="33" height="33" viewBox="0 0 33 33" fill="none" xmlns="http://www.w3.org/2000/svg">
<path fill-rule="evenodd" clip-rule="evenodd" d="M16.2253 0.901408C24.6885 0.901408 31.5492 7.76214 31.5492 16.2253C31.5492 24.6885 24.6885 31.5493 16.2253 31.5493C7.76214 31.5493 0.901376 24.6885 0.901376 16.2253C0.901376 7.76214 7.76214 0.901408 16.2253 0.901408Z" stroke="#F1587B"/>
<path d="M16 9.125C15.0375 9.125 14.2812 8.36875 14.2812 7.40625C14.2812 6.44375 15.0375 5.6875 16 5.6875C16.9625 5.6875 17.7188 6.44375 17.7188 7.40625C17.7188 8.36875 16.9625 9.125 16 9.125ZM16 6.375C15.4156 6.375 14.9688 6.82187 14.9688 7.40625C14.9688 7.99062 15.4156 8.4375 16 8.4375C16.5844 8.4375 17.0312 7.99062 17.0312 7.40625C17.0312 6.82187 16.5844 6.375 16 6.375ZM19.0938 12.9062H14.9688C14.7625 12.9062 14.625 12.7688 14.625 12.5625C14.625 12.3562 14.7625 12.2188 14.9688 12.2188H18.3719C18.2 11.05 17.2031 10.1562 16 10.1562C14.6594 10.1562 13.5938 11.2219 13.5938 12.5625C13.5938 12.7688 13.4563 12.9062 13.25 12.9062C13.0437 12.9062 12.9062 12.7688 12.9062 12.5625C12.9062 10.8438 14.2812 9.46875 16 9.46875C17.7188 9.46875 19.0938 10.8438 19.0938 12.5625V12.9062ZM10.8438 22.5312C9.88125 22.5312 9.125 21.775 9.125 20.8125C9.125 19.85 9.88125 19.0938 10.8438 19.0938C11.8063 19.0938 12.5625 19.85 12.5625 20.8125C12.5625 21.775 11.8063 22.5312 10.8438 22.5312ZM10.8438 19.7812C10.2594 19.7812 9.8125 20.2281 9.8125 20.8125C9.8125 21.3969 10.2594 21.8438 10.8438 21.8438C11.4281 21.8438 11.875 21.3969 11.875 20.8125C11.875 20.2281 11.4281 19.7812 10.8438 19.7812ZM13.9375 26.3125H9.8125C9.60625 26.3125 9.46875 26.175 9.46875 25.9688C9.46875 25.7625 9.60625 25.625 9.8125 25.625H13.2156C13.0437 24.4562 12.0469 23.5625 10.8438 23.5625C9.50312 23.5625 8.4375 24.6281 8.4375 25.9688C8.4375 26.175 8.3 26.3125 8.09375 26.3125C7.8875 26.3125 7.75 26.175 7.75 25.9688C7.75 24.25 9.125 22.875 10.8438 22.875C12.5625 22.875 13.9375 24.25 13.9375 25.9688V26.3125ZM21.1562 22.5312C20.1938 22.5312 19.4375 21.775 19.4375 20.8125C19.4375 19.85 20.1938 19.0938 21.1562 19.0938C22.1187 19.0938 22.875 19.85 22.875 20.8125C22.875 21.775 22.1187 22.5312 21.1562 22.5312ZM21.1562 19.7812C20.5719 19.7812 20.125 20.2281 20.125 20.8125C20.125 21.3969 20.5719 21.8438 21.1562 21.8438C21.7406 21.8438 22.1875 21.3969 22.1875 20.8125C22.1875 20.2281 21.7406 19.7812 21.1562 19.7812ZM24.25 26.3125H20.0906C19.8844 26.3125 19.7469 26.175 19.7469 25.9688C19.7469 25.7625 19.8844 25.625 20.0906 25.625H23.5281C23.3563 24.4562 22.3594 23.5625 21.1562 23.5625C19.8156 23.5625 18.75 24.6281 18.75 25.9688C18.75 26.175 18.6125 26.3125 18.4062 26.3125C18.2 26.3125 18.0625 26.175 18.0625 25.9688C18.0625 24.25 19.4375 22.875 21.1562 22.875C22.875 22.875 24.25 24.25 24.25 25.9688V26.3125Z" fill="#F1587B"/>
<path d="M21.1562 16.3438H10.8438C10.6375 16.3438 10.5 16.2063 10.5 16C10.5 15.7937 10.6375 15.6562 10.8438 15.6562H21.1562C21.3625 15.6562 21.5 15.7937 21.5 16C21.5 16.2063 21.3625 16.3438 21.1562 16.3438Z" fill="#F1587B"/>
<path d="M10.8438 18.4062C10.6375 18.4062 10.5 18.2688 10.5 18.0625V16C10.5 15.7938 10.6375 15.6562 10.8438 15.6562C11.05 15.6562 11.1875 15.7938 11.1875 16V18.0625C11.1875 18.2688 11.05 18.4062 10.8438 18.4062ZM21.1562 18.4062C20.95 18.4062 20.8125 18.2688 20.8125 18.0625V16C20.8125 15.7938 20.95 15.6562 21.1562 15.6562C21.3625 15.6562 21.5 15.7938 21.5 16V18.0625C21.5 18.2688 21.3625 18.4062 21.1562 18.4062ZM16 16.3438C15.7937 16.3438 15.6562 16.2062 15.6562 16V13.9375C15.6562 13.7312 15.7937 13.5938 16 13.5938C16.2063 13.5938 16.3438 13.7312 16.3438 13.9375V16C16.3438 16.2062 16.2063 16.3438 16 16.3438Z" fill="#F1587B"/>
</svg>
