<svg width="54" height="55" viewBox="0 0 54 55" fill="none" xmlns="http://www.w3.org/2000/svg">
<g filter="url(#filter0_d_15696_10969)">
<rect x="7" y="5.5" width="40" height="40" rx="20" fill="white"/>
<path d="M32.9062 23.5312C32.9062 21.9648 32.284 20.4625 31.1763 19.3549C30.0687 18.2473 28.5664 17.625 27 17.625C25.4336 17.625 23.9313 18.2473 22.8237 19.3549C21.716 20.4625 21.0938 21.9648 21.0938 23.5312C21.0938 25.9541 23.0323 29.112 27 32.8946C30.9677 29.112 32.9062 25.9541 32.9062 23.5312ZM27 34.6875C22.1871 30.3129 19.7812 26.5933 19.7812 23.5312C19.7812 21.6167 20.5418 19.7806 21.8956 18.4268C23.2494 17.073 25.0855 16.3125 27 16.3125C28.9145 16.3125 30.7506 17.073 32.1044 18.4268C33.4582 19.7806 34.2188 21.6167 34.2188 23.5312C34.2188 26.5933 31.8129 30.3129 27 34.6875Z" fill="#23B14D"/>
<path d="M27 25.5C27.5221 25.5 28.0229 25.2926 28.3921 24.9234C28.7613 24.5542 28.9688 24.0534 28.9688 23.5312C28.9688 23.0091 28.7613 22.5083 28.3921 22.1391C28.0229 21.7699 27.5221 21.5625 27 21.5625C26.4779 21.5625 25.9771 21.7699 25.6079 22.1391C25.2387 22.5083 25.0312 23.0091 25.0312 23.5312C25.0312 24.0534 25.2387 24.5542 25.6079 24.9234C25.9771 25.2926 26.4779 25.5 27 25.5ZM27 26.8125C26.1298 26.8125 25.2952 26.4668 24.6798 25.8514C24.0645 25.2361 23.7188 24.4015 23.7188 23.5312C23.7188 22.661 24.0645 21.8264 24.6798 21.2111C25.2952 20.5957 26.1298 20.25 27 20.25C27.8702 20.25 28.7048 20.5957 29.3202 21.2111C29.9355 21.8264 30.2812 22.661 30.2812 23.5312C30.2812 24.4015 29.9355 25.2361 29.3202 25.8514C28.7048 26.4668 27.8702 26.8125 27 26.8125Z" fill="#23B14D"/>
</g>
<defs>
<filter id="filter0_d_15696_10969" x="0" y="0.5" width="54" height="54" filterUnits="userSpaceOnUse" color-interpolation-filters="sRGB">
<feFlood flood-opacity="0" result="BackgroundImageFix"/>
<feColorMatrix in="SourceAlpha" type="matrix" values="0 0 0 0 0 0 0 0 0 0 0 0 0 0 0 0 0 0 127 0" result="hardAlpha"/>
<feOffset dy="2"/>
<feGaussianBlur stdDeviation="3.5"/>
<feColorMatrix type="matrix" values="0 0 0 0 0 0 0 0 0 0 0 0 0 0 0 0 0 0 0.11 0"/>
<feBlend mode="normal" in2="BackgroundImageFix" result="effect1_dropShadow_15696_10969"/>
<feBlend mode="normal" in="SourceGraphic" in2="effect1_dropShadow_15696_10969" result="shape"/>
</filter>
</defs>
</svg>
