<svg width="32" height="32" viewBox="0 0 32 32" fill="none" xmlns="http://www.w3.org/2000/svg">
<g clip-path="url(#clip0_15808_29335)">
<path d="M30.625 1H1.375C1.16791 1 1 1.16791 1 1.375V20.125V24.25C1 24.4573 1.16791 24.625 1.375 24.625H11.2187V27.4375H9.625C9.49957 27.4375 9.38257 27.5001 9.31299 27.6045L7.43799 30.417C7.36127 30.532 7.35413 30.6799 7.41931 30.8019C7.48468 30.9238 7.61176 31 7.75 31H24.25C24.3882 31 24.5153 30.9238 24.5807 30.8019C24.6459 30.6799 24.6387 30.532 24.562 30.417L22.687 27.6045C22.6174 27.5001 22.5004 27.4375 22.375 27.4375H20.7812V24.625H30.625C30.8321 24.625 31 24.4573 31 24.25V20.125V1.375C31 1.16791 30.8321 1 30.625 1ZM22.1743 28.1875L23.5493 30.25H8.45074L9.82568 28.1875H22.1743ZM11.9687 27.4064V24.8436H20.0312V27.4064H11.9687ZM30.25 23.875H1.75V20.5H30.25V23.875ZM30.25 19.75H1.75V1.75H30.25V19.75Z" fill="#303030" stroke="#303030" stroke-width="0.4"/>
<path d="M3.68799 13.9581C3.76031 14.0665 3.87915 14.1251 4.00037 14.1251C4.07178 14.1251 4.1441 14.1048 4.20801 14.0621L11.8466 8.96976L14.2559 11.0348C14.3705 11.1332 14.5331 11.1526 14.6677 11.0855L22.6282 7.1052L25.0677 10.5901C25.1379 10.6904 25.2527 10.7501 25.375 10.7501H28C28.2071 10.7501 28.375 10.5822 28.375 10.3751C28.375 10.168 28.2071 10.0001 28 10.0001H25.5702L23.0573 6.41013C22.9505 6.25761 22.7487 6.20652 22.5823 6.28965L14.5549 10.3033L12.1191 8.21537C11.9911 8.10587 11.8065 8.09507 11.667 8.18809L3.79199 13.4381C3.61969 13.5529 3.57318 13.7858 3.68799 13.9581ZM4 18.2501C4.20709 18.2501 4.375 18.0824 4.375 17.8751V14.8751C4.375 14.668 4.20709 14.5001 4 14.5001C3.79291 14.5001 3.625 14.668 3.625 14.8751V17.8751C3.625 18.0824 3.79291 18.2501 4 18.2501Z" fill="#303030"/>
<path d="M6.625 12.9999C6.41791 12.9999 6.25 13.1678 6.25 13.3749V17.8749C6.25 18.0822 6.41791 18.2499 6.625 18.2499C6.83209 18.2499 7 18.0822 7 17.8749V13.3749C7 13.1678 6.83209 12.9999 6.625 12.9999ZM9.25 11.4999C9.04291 11.4999 8.875 11.6678 8.875 11.8749V17.8749C8.875 18.0822 9.04291 18.2499 9.25 18.2499C9.45709 18.2499 9.625 18.0822 9.625 17.8749V11.8749C9.625 11.6678 9.45709 11.4999 9.25 11.4999ZM11.875 10.3749C11.6679 10.3749 11.5 10.5428 11.5 10.7499V17.8749C11.5 18.0822 11.6679 18.2499 11.875 18.2499C12.0821 18.2499 12.25 18.0822 12.25 17.8749V10.7499C12.25 10.5428 12.0821 10.3749 11.875 10.3749ZM14.5 11.8749C14.2929 11.8749 14.125 12.0428 14.125 12.2499V17.8749C14.125 18.0822 14.2929 18.2499 14.5 18.2499C14.7071 18.2499 14.875 18.0822 14.875 17.8749V12.2499C14.875 12.0428 14.7071 11.8749 14.5 11.8749ZM17.5 11.1249C17.2929 11.1249 17.125 11.2928 17.125 11.4999V17.8749C17.125 18.0822 17.2929 18.2499 17.5 18.2499C17.7071 18.2499 17.875 18.0822 17.875 17.8749V11.4999C17.875 11.2928 17.7071 11.1249 17.5 11.1249ZM20.125 9.62494C19.9179 9.62494 19.75 9.79285 19.75 9.99994V17.8749C19.75 18.0822 19.9179 18.2499 20.125 18.2499C20.3321 18.2499 20.5 18.0822 20.5 17.8749V9.99994C20.5 9.79285 20.3321 9.62494 20.125 9.62494ZM22.75 9.62494C22.5429 9.62494 22.375 9.79285 22.375 9.99994V17.8749C22.375 18.0822 22.5429 18.2499 22.75 18.2499C22.9571 18.2499 23.125 18.0822 23.125 17.8749V9.99994C23.125 9.79285 22.9571 9.62494 22.75 9.62494ZM25.375 11.8749C25.1679 11.8749 25 12.0428 25 12.2499V17.8749C25 18.0822 25.1679 18.2499 25.375 18.2499C25.5821 18.2499 25.75 18.0822 25.75 17.8749V12.2499C25.75 12.0428 25.5821 11.8749 25.375 11.8749ZM28 11.8749C27.7929 11.8749 27.625 12.0428 27.625 12.2499V17.8749C27.625 18.0822 27.7929 18.2499 28 18.2499C28.2071 18.2499 28.375 18.0822 28.375 17.8749V12.2499C28.375 12.0428 28.2071 11.8749 28 11.8749ZM6.4375 7.77246C7.68207 7.77246 8.80304 7.00378 9.22675 5.85974C9.24213 5.81818 9.25 5.77405 9.25 5.72955V5.69019C9.25 5.64569 9.24213 5.60156 9.22656 5.56C8.80286 4.41595 7.68207 3.64746 6.4375 3.64746C5.19293 3.64746 4.07214 4.41595 3.64844 5.56C3.63287 5.60156 3.625 5.64569 3.625 5.69019V5.72955C3.625 5.77405 3.63287 5.81818 3.64825 5.85974C4.07196 7.00378 5.19293 7.77246 6.4375 7.77246ZM6.4375 4.39746C7.32886 4.39746 8.13416 4.92023 8.47876 5.70996C8.13434 6.49969 7.32886 7.02246 6.4375 7.02246C5.54614 7.02246 4.74066 6.49969 4.39624 5.70996C4.74084 4.92023 5.54614 4.39746 6.4375 4.39746Z" fill="#303030"/>
<path d="M6.43774 6.78436C7.03027 6.78436 7.51221 6.30243 7.51221 5.7099C7.51221 5.11737 7.03027 4.63525 6.43774 4.63525C5.84521 4.63525 5.36328 5.11737 5.36328 5.7099C5.36328 6.30243 5.84521 6.78436 6.43774 6.78436ZM6.43774 5.38525C6.61664 5.38525 6.76221 5.53082 6.76221 5.7099C6.76221 5.88879 6.61664 6.03436 6.43774 6.03436C6.25885 6.03436 6.11328 5.88879 6.11328 5.7099C6.11328 5.53082 6.25885 5.38525 6.43774 5.38525ZM15.2502 23.1249C15.8706 23.1249 16.3752 22.6202 16.3752 21.9999C16.3752 21.3795 15.8706 20.8749 15.2502 20.8749C14.6299 20.8749 14.1252 21.3795 14.1252 21.9999C14.1252 22.6202 14.6299 23.1249 15.2502 23.1249ZM15.2502 21.6249C15.457 21.6249 15.6252 21.793 15.6252 21.9999C15.6252 22.2068 15.457 22.3749 15.2502 22.3749C15.0435 22.3749 14.8752 22.2068 14.8752 21.9999C14.8752 21.793 15.0435 21.6249 15.2502 21.6249Z" fill="#303030"/>
</g>
<defs>
<clipPath id="clip0_15808_29335">
<rect width="32" height="32" fill="white"/>
</clipPath>
</defs>
</svg>
