<svg width="32" height="32" viewBox="0 0 32 32" fill="none" xmlns="http://www.w3.org/2000/svg">
<g clip-path="url(#clip0_15815_30205)">
<path d="M30.625 1H1.375C1.16791 1 1 1.16791 1 1.375V20.125V24.25C1 24.4573 1.16791 24.625 1.375 24.625H11.2187V27.4375H9.625C9.49957 27.4375 9.38257 27.5001 9.31299 27.6045L7.43799 30.417C7.36127 30.532 7.35413 30.6799 7.41931 30.8019C7.48468 30.9238 7.61176 31 7.75 31H24.25C24.3882 31 24.5153 30.9238 24.5807 30.8019C24.6459 30.6799 24.6387 30.532 24.562 30.417L22.687 27.6045C22.6174 27.5001 22.5004 27.4375 22.375 27.4375H20.7812V24.625H30.625C30.8321 24.625 31 24.4573 31 24.25V20.125V1.375C31 1.16791 30.8321 1 30.625 1ZM22.1743 28.1875L23.5493 30.25H8.45074L9.82568 28.1875H22.1743ZM11.9687 27.4064V24.8436H20.0312V27.4064H11.9687ZM30.25 23.875H1.75V20.5H30.25V23.875ZM30.25 19.75H1.75V1.75H30.25V19.75Z" fill="url(#paint0_linear_15815_30205)"/>
<path fill-rule="evenodd" clip-rule="evenodd" d="M0.799805 1.3748C0.799805 1.05726 1.05726 0.799805 1.3748 0.799805H30.6248C30.9424 0.799805 31.1998 1.05726 31.1998 1.3748V24.2498C31.1998 24.5676 30.9423 24.8248 30.6248 24.8248H20.9811V27.2373H22.3748C22.5671 27.2373 22.7466 27.3334 22.8532 27.4934L24.7282 30.3058C24.7282 30.3058 24.7282 30.3058 24.7282 30.3058C24.8459 30.4822 24.8568 30.7091 24.7569 30.896C24.6568 31.0828 24.4619 31.1998 24.2498 31.1998H7.7498C7.5377 31.1998 7.34297 31.083 7.24284 30.8962C7.14294 30.7093 7.15372 30.4822 7.27142 30.3058L9.14638 27.4934C9.25305 27.3334 9.4325 27.2373 9.6248 27.2373H11.0186V24.8248H1.3748C1.05732 24.8248 0.799805 24.5676 0.799805 24.2498V1.3748ZM1.3748 1.1998C1.27817 1.1998 1.1998 1.27817 1.1998 1.3748V24.2498C1.1998 24.3466 1.27811 24.4248 1.3748 24.4248H11.4186V27.6373H9.6248C9.56625 27.6373 9.51169 27.6665 9.4792 27.7152L7.6042 30.5277C7.56847 30.5813 7.56503 30.6504 7.5955 30.7074C7.62611 30.7645 7.68542 30.7998 7.7498 30.7998H24.2498C24.3141 30.7998 24.3735 30.7644 24.4041 30.7074C24.4346 30.6504 24.4312 30.5814 24.3954 30.5278L22.5204 27.7152C22.4879 27.6665 22.4334 27.6373 22.3748 27.6373H20.5811V24.4248H30.6248C30.7215 24.4248 30.7998 24.3466 30.7998 24.2498V1.3748C30.7998 1.27817 30.7214 1.1998 30.6248 1.1998H1.3748ZM1.5498 1.5498H30.4498V19.9498H1.5498V1.5498ZM1.9498 1.9498V19.5498H30.0498V1.9498H1.9498ZM1.5498 20.2998H30.4498V24.0748H1.5498V20.2998ZM1.9498 20.6998V23.6748H30.0498V20.6998H1.9498ZM11.7686 24.6434H20.2311V27.6062H11.7686V24.6434ZM12.1686 25.0434V27.2062H19.8311V25.0434H12.1686ZM9.71845 27.9873H22.2812L23.9228 30.4498H8.07685L9.71845 27.9873ZM9.93253 28.3873L8.82424 30.0498H23.1754L22.0671 28.3873H9.93253Z" fill="url(#paint1_linear_15815_30205)"/>
<path d="M3.68799 13.9581C3.76031 14.0665 3.87915 14.1251 4.00037 14.1251C4.07178 14.1251 4.1441 14.1048 4.20801 14.0621L11.8466 8.96976L14.2559 11.0348C14.3705 11.1332 14.5331 11.1526 14.6677 11.0855L22.6282 7.1052L25.0677 10.5901C25.1379 10.6904 25.2527 10.7501 25.375 10.7501H28C28.2071 10.7501 28.375 10.5822 28.375 10.3751C28.375 10.168 28.2071 10.0001 28 10.0001H25.5702L23.0573 6.41013C22.9505 6.25761 22.7487 6.20652 22.5823 6.28965L14.5549 10.3033L12.1191 8.21537C11.9911 8.10587 11.8065 8.09507 11.667 8.18809L3.79199 13.4381C3.61969 13.5529 3.57318 13.7858 3.68799 13.9581ZM4 18.2501C4.20709 18.2501 4.375 18.0824 4.375 17.8751V14.8751C4.375 14.668 4.20709 14.5001 4 14.5001C3.79291 14.5001 3.625 14.668 3.625 14.8751V17.8751C3.625 18.0824 3.79291 18.2501 4 18.2501Z" fill="url(#paint2_linear_15815_30205)"/>
<path d="M6.625 12.9999C6.41791 12.9999 6.25 13.1678 6.25 13.3749V17.8749C6.25 18.0822 6.41791 18.2499 6.625 18.2499C6.83209 18.2499 7 18.0822 7 17.8749V13.3749C7 13.1678 6.83209 12.9999 6.625 12.9999ZM9.25 11.4999C9.04291 11.4999 8.875 11.6678 8.875 11.8749V17.8749C8.875 18.0822 9.04291 18.2499 9.25 18.2499C9.45709 18.2499 9.625 18.0822 9.625 17.8749V11.8749C9.625 11.6678 9.45709 11.4999 9.25 11.4999ZM11.875 10.3749C11.6679 10.3749 11.5 10.5428 11.5 10.7499V17.8749C11.5 18.0822 11.6679 18.2499 11.875 18.2499C12.0821 18.2499 12.25 18.0822 12.25 17.8749V10.7499C12.25 10.5428 12.0821 10.3749 11.875 10.3749ZM14.5 11.8749C14.2929 11.8749 14.125 12.0428 14.125 12.2499V17.8749C14.125 18.0822 14.2929 18.2499 14.5 18.2499C14.7071 18.2499 14.875 18.0822 14.875 17.8749V12.2499C14.875 12.0428 14.7071 11.8749 14.5 11.8749ZM17.5 11.1249C17.2929 11.1249 17.125 11.2928 17.125 11.4999V17.8749C17.125 18.0822 17.2929 18.2499 17.5 18.2499C17.7071 18.2499 17.875 18.0822 17.875 17.8749V11.4999C17.875 11.2928 17.7071 11.1249 17.5 11.1249ZM20.125 9.62494C19.9179 9.62494 19.75 9.79285 19.75 9.99994V17.8749C19.75 18.0822 19.9179 18.2499 20.125 18.2499C20.3321 18.2499 20.5 18.0822 20.5 17.8749V9.99994C20.5 9.79285 20.3321 9.62494 20.125 9.62494ZM22.75 9.62494C22.5429 9.62494 22.375 9.79285 22.375 9.99994V17.8749C22.375 18.0822 22.5429 18.2499 22.75 18.2499C22.9571 18.2499 23.125 18.0822 23.125 17.8749V9.99994C23.125 9.79285 22.9571 9.62494 22.75 9.62494ZM25.375 11.8749C25.1679 11.8749 25 12.0428 25 12.2499V17.8749C25 18.0822 25.1679 18.2499 25.375 18.2499C25.5821 18.2499 25.75 18.0822 25.75 17.8749V12.2499C25.75 12.0428 25.5821 11.8749 25.375 11.8749ZM28 11.8749C27.7929 11.8749 27.625 12.0428 27.625 12.2499V17.8749C27.625 18.0822 27.7929 18.2499 28 18.2499C28.2071 18.2499 28.375 18.0822 28.375 17.8749V12.2499C28.375 12.0428 28.2071 11.8749 28 11.8749ZM6.4375 7.77246C7.68207 7.77246 8.80304 7.00378 9.22675 5.85974C9.24213 5.81818 9.25 5.77405 9.25 5.72955V5.69019C9.25 5.64569 9.24213 5.60156 9.22656 5.56C8.80286 4.41595 7.68207 3.64746 6.4375 3.64746C5.19293 3.64746 4.07214 4.41595 3.64844 5.56C3.63287 5.60156 3.625 5.64569 3.625 5.69019V5.72955C3.625 5.77405 3.63287 5.81818 3.64825 5.85974C4.07196 7.00378 5.19293 7.77246 6.4375 7.77246ZM6.4375 4.39746C7.32886 4.39746 8.13416 4.92023 8.47876 5.70996C8.13434 6.49969 7.32886 7.02246 6.4375 7.02246C5.54614 7.02246 4.74066 6.49969 4.39624 5.70996C4.74084 4.92023 5.54614 4.39746 6.4375 4.39746Z" fill="url(#paint3_linear_15815_30205)"/>
<path d="M6.43774 6.78436C7.03027 6.78436 7.51221 6.30243 7.51221 5.7099C7.51221 5.11737 7.03027 4.63525 6.43774 4.63525C5.84521 4.63525 5.36328 5.11737 5.36328 5.7099C5.36328 6.30243 5.84521 6.78436 6.43774 6.78436ZM6.43774 5.38525C6.61664 5.38525 6.76221 5.53082 6.76221 5.7099C6.76221 5.88879 6.61664 6.03436 6.43774 6.03436C6.25885 6.03436 6.11328 5.88879 6.11328 5.7099C6.11328 5.53082 6.25885 5.38525 6.43774 5.38525ZM15.2502 23.1249C15.8706 23.1249 16.3752 22.6202 16.3752 21.9999C16.3752 21.3795 15.8706 20.8749 15.2502 20.8749C14.6299 20.8749 14.1252 21.3795 14.1252 21.9999C14.1252 22.6202 14.6299 23.1249 15.2502 23.1249ZM15.2502 21.6249C15.457 21.6249 15.6252 21.793 15.6252 21.9999C15.6252 22.2068 15.457 22.3749 15.2502 22.3749C15.0435 22.3749 14.8752 22.2068 14.8752 21.9999C14.8752 21.793 15.0435 21.6249 15.2502 21.6249Z" fill="url(#paint4_linear_15815_30205)"/>
</g>
<defs>
<linearGradient id="paint0_linear_15815_30205" x1="31.0936" y1="3.73418" x2="0.208018" y2="19.8324" gradientUnits="userSpaceOnUse">
<stop offset="0.216713" stop-color="#DDDF78"/>
<stop offset="1" stop-color="#36DD68"/>
</linearGradient>
<linearGradient id="paint1_linear_15815_30205" x1="31.2946" y1="3.57044" x2="-0.0027374" y2="19.8833" gradientUnits="userSpaceOnUse">
<stop offset="0.216713" stop-color="#DDDF78"/>
<stop offset="1" stop-color="#36DD68"/>
</linearGradient>
<linearGradient id="paint2_linear_15815_30205" x1="28.4522" y1="7.34368" x2="13.4206" y2="23.5029" gradientUnits="userSpaceOnUse">
<stop offset="0.216713" stop-color="#DDDF78"/>
<stop offset="1" stop-color="#36DD68"/>
</linearGradient>
<linearGradient id="paint3_linear_15815_30205" x1="28.4522" y1="4.97832" x2="10.2529" y2="21.0562" gradientUnits="userSpaceOnUse">
<stop offset="0.216713" stop-color="#DDDF78"/>
<stop offset="1" stop-color="#36DD68"/>
</linearGradient>
<linearGradient id="paint4_linear_15815_30205" x1="16.4096" y1="6.32039" x2="3.25979" y2="10.4024" gradientUnits="userSpaceOnUse">
<stop offset="0.216713" stop-color="#DDDF78"/>
<stop offset="1" stop-color="#36DD68"/>
</linearGradient>
<clipPath id="clip0_15815_30205">
<rect width="32" height="32" fill="white"/>
</clipPath>
</defs>
</svg>
