<svg width="33" height="33" viewBox="0 0 33 33" fill="none" xmlns="http://www.w3.org/2000/svg">
<path fill-rule="evenodd" clip-rule="evenodd" d="M16.2253 0.901408C24.6885 0.901408 31.5492 7.76214 31.5492 16.2253C31.5492 24.6885 24.6885 31.5493 16.2253 31.5493C7.76214 31.5493 0.901376 24.6885 0.901376 16.2253C0.901376 7.76214 7.76214 0.901408 16.2253 0.901408Z" stroke="#FF9E44"/>
<g clip-path="url(#clip0_16059_30205)">
<path d="M12.3322 16.059C12.3146 15.6643 12.3995 15.1618 12.3995 15.1618C12.3995 15.1618 5.59811 15.1759 5.43723 15.1621C5.29045 15.4113 5.16292 16.7169 5.31107 16.9696C5.26982 16.9768 12.5845 16.9768 12.5845 16.9768C12.5845 16.9768 12.35 16.4536 12.3322 16.059ZM6.05048 16.1652C5.95767 16.1301 5.91607 16.0356 6.06698 15.9693C6.11339 15.9703 11.5061 15.9672 11.6674 15.9672C11.6567 16.0366 11.6749 16.114 11.688 16.1789C11.6299 16.1807 6.18592 16.2168 6.05048 16.1652ZM12.7467 17.7114C12.7773 17.7165 7.61626 22.8388 7.61626 22.8388C8.11607 23.4623 8.59183 23.9583 9.32057 24.3568C9.17551 24.3887 14.3785 19.2613 14.3644 19.2961C13.7732 18.9063 13.1603 18.3937 12.7467 17.7114ZM9.13529 23.2643C8.96136 23.1715 8.78192 23.0412 8.77264 22.8934C8.78054 22.8934 12.6223 18.9788 12.7388 18.9681C12.8928 19.1293 12.867 19.1819 13.1255 19.2988C13.118 19.3823 9.12636 23.2777 9.13529 23.2643ZM7.94111 9.01485C8.27729 8.64222 8.46979 8.34831 9.00604 8.00835C9.05623 8.04719 14.0403 12.9271 14.0403 12.9271C13.6171 13.2338 13.2533 13.6151 12.9667 14.0522C12.9035 14.0941 7.78298 9.04166 7.94111 9.01485ZM14.7003 19.4669C14.7157 19.5305 14.7047 26.7568 14.7687 26.6953C15.4871 26.863 16.5025 26.8909 17.212 26.6654C17.198 26.6936 17.1835 19.5305 17.2492 19.4614C16.6521 19.5511 16.0952 19.9114 14.7003 19.4669ZM15.538 25.9762C15.529 26.0147 15.5184 20.4088 15.5407 20.3837C15.8549 20.4961 16.0997 20.4641 16.4118 20.4215C16.419 20.4573 16.3888 25.9631 16.4139 25.9614C16.1224 26.0827 15.826 26.0068 15.538 25.9762ZM26.3438 14.4953C26.5524 14.465 20.8053 14.334 20.2185 14.3911C20.6849 14.0721 24.4504 9.81785 24.5284 9.94469C23.7433 8.8636 23.149 8.23625 22.0177 7.22597C22.2762 7.3841 18.0247 11.5765 17.6428 11.7875L18.0618 5.67806C16.5321 5.21056 15.4802 5.16828 13.9433 5.73238L14.2427 12.7768C14.2427 12.7768 14.7625 12.2777 16.0845 12.3066C17.914 12.3468 19.7558 13.795 19.6073 15.9916C19.4584 18.1885 18.794 18.8172 17.4853 19.4263C17.4289 19.3449 22.2696 24.4582 22.7131 24.6641C23.4164 23.9429 24.0286 23.3341 24.4054 22.4531C24.4377 22.5882 19.5396 17.7702 19.5396 17.7702C19.5396 17.7702 26.3139 17.7482 26.3699 17.6206C26.6837 16.8042 27.0632 15.2353 26.3438 14.4953ZM14.8656 11.8271C14.9041 11.8962 14.9082 6.2236 14.8945 6.22153C15.6136 6.1026 16.3506 6.05069 17.0787 6.22875C17.0931 6.16035 17.0556 11.8852 17.1065 11.8405C16.3712 11.7473 15.5971 11.6404 14.8656 11.8271ZM23.4195 22.6524C23.1259 22.9711 22.8124 23.2148 22.6426 23.5214L18.5238 19.5714C18.8842 19.3259 19.2131 19.0369 19.5028 18.711C19.4743 18.7124 23.328 22.7164 23.4195 22.6524ZM18.3021 12.363C18.3258 12.3668 22.2473 8.50438 22.2621 8.404C22.7763 8.74947 23.1228 9.34416 23.6594 9.78175C23.5425 9.80753 19.7163 13.7118 19.7053 13.7393C19.411 13.168 18.8926 12.7301 18.3021 12.363ZM25.7762 16.8235C25.7752 16.8548 20.2738 16.8324 20.2859 16.8276C20.3195 16.3278 20.4189 16.1728 20.3048 15.2897C20.3154 15.2897 25.7962 15.3041 25.9481 15.3C26.0344 15.8208 26.0481 16.4227 25.7762 16.8235Z" fill="#FF9E44"/>
<path d="M12.3322 15.9125C12.3146 15.5179 12.3995 15.0156 12.3995 15.0156C12.3995 15.0156 5.59776 15.0294 5.43723 15.0156C5.29045 15.2652 5.16292 16.5704 5.31107 16.8234C5.26982 16.8306 12.5845 16.8306 12.5845 16.8306C12.5845 16.8306 12.35 16.3075 12.3322 15.9125ZM6.05048 16.0194C5.95767 15.9843 5.91607 15.8898 6.06698 15.8235C6.11339 15.8245 11.5061 15.821 11.6674 15.821C11.6567 15.8905 11.6749 15.9678 11.688 16.0331C11.6299 16.0342 6.18592 16.0703 6.05048 16.0194ZM12.7467 17.5652C12.7773 17.57 7.61626 22.6926 7.61626 22.6926C8.11608 23.3162 8.59182 23.8122 9.32057 24.2106C9.17551 24.2426 14.3785 19.1152 14.3644 19.1499C13.7732 18.7601 13.1603 18.2476 12.7467 17.5652ZM9.13529 23.1178C8.96136 23.025 8.78192 22.8951 8.77264 22.7473C8.78054 22.7473 12.6223 18.8323 12.7388 18.8216C12.8928 18.9829 12.867 19.0355 13.1255 19.1527C13.118 19.2359 9.12636 23.1312 9.13529 23.1178ZM7.94111 8.86836C8.27729 8.49574 8.46979 8.20183 9.00604 7.86186C9.05623 7.9007 14.0403 12.7806 14.0403 12.7806C13.6172 13.0873 13.2534 13.4684 12.9667 13.9053C12.9035 13.9476 7.78298 8.89517 7.94111 8.86836ZM14.7003 19.3204C14.7157 19.384 14.7047 26.6103 14.7687 26.5491C15.4871 26.7165 16.5025 26.7444 17.212 26.5189C17.198 26.5471 17.1835 19.3844 17.2492 19.3149C16.6521 19.4046 16.0952 19.7652 14.7003 19.3204ZM15.538 25.8304C15.529 25.8685 15.5184 20.2626 15.5407 20.2379C15.8549 20.35 16.0997 20.318 16.4118 20.2754C16.419 20.3111 16.3888 25.817 16.4139 25.8159C16.1224 25.9362 15.826 25.8606 15.538 25.8304ZM26.3438 14.3491C26.5524 14.3189 20.8053 14.1875 20.2185 14.2446C20.6849 13.9256 24.4504 9.67136 24.5284 9.79855C23.7433 8.71745 23.149 8.09045 22.0177 7.07949C22.2762 7.23761 18.0247 11.43 17.6428 11.641L18.0618 5.53158C16.5321 5.06408 15.4802 5.0218 13.9433 5.58589L14.2427 12.6307C14.2427 12.6307 14.7625 12.1316 16.0845 12.1605C17.914 12.2007 19.7558 13.6485 19.6073 15.8451C19.4584 18.042 18.794 18.6711 17.4853 19.2799C17.429 19.1984 22.2696 24.3117 22.7131 24.5172C23.4164 23.7964 24.0286 23.1876 24.4054 22.3066C24.4377 22.4417 19.5396 17.6237 19.5396 17.6237C19.5396 17.6237 26.3139 17.6017 26.3699 17.4745C26.6837 16.6577 27.0632 15.0892 26.3438 14.3491ZM14.8656 11.6813C14.9041 11.75 14.9082 6.07745 14.8945 6.07539C15.6136 5.95645 16.3506 5.90489 17.0787 6.08261C17.0931 6.01455 17.0556 11.7397 17.1065 11.695C16.3712 11.6008 15.5971 11.4943 14.8656 11.6813ZM23.4195 22.506C23.1259 22.8246 22.8124 23.0683 22.6426 23.3753L18.5238 19.4253C18.8842 19.1796 19.213 18.8905 19.5028 18.5645C19.4743 18.5659 23.328 22.5702 23.4195 22.506ZM18.3021 12.2165C18.3258 12.2206 22.2473 8.35789 22.2621 8.25786C22.7763 8.60299 23.1228 9.19767 23.6594 9.63561C23.5425 9.66105 19.7163 13.5654 19.7053 13.5929C19.411 13.0215 18.8926 12.584 18.3021 12.2165ZM25.7762 16.6773C25.7752 16.7083 20.2738 16.6859 20.2859 16.6815C20.3195 16.1813 20.4189 16.0263 20.3048 15.1435C20.3154 15.1435 25.7962 15.158 25.9481 15.1538C26.0344 15.6746 26.0481 16.2765 25.7762 16.6773Z" fill="#FF9E44"/>
</g>
<defs>
<clipPath id="clip0_16059_30205">
<rect width="22" height="22" fill="white" transform="translate(5 5)"/>
</clipPath>
</defs>
</svg>
