<svg width="33" height="33" viewBox="0 0 33 33" fill="none" xmlns="http://www.w3.org/2000/svg">
<path fill-rule="evenodd" clip-rule="evenodd" d="M16.2253 0.901408C24.6885 0.901408 31.5492 7.76214 31.5492 16.2253C31.5492 24.6885 24.6885 31.5493 16.2253 31.5493C7.76214 31.5493 0.901376 24.6885 0.901376 16.2253C0.901376 7.76214 7.76214 0.901408 16.2253 0.901408Z" stroke="#F1587B"/>
<g clip-path="url(#clip0_15863_29252)">
<path d="M23.0133 7.28125C23.0133 7.20666 22.9807 7.13512 22.9226 7.08238C22.8646 7.02963 22.7859 7 22.7038 7H10.2968C10.2147 7 10.136 7.02963 10.078 7.08238C10.0199 7.13512 9.9873 7.20666 9.9873 7.28125C9.9873 7.35584 10.0199 7.42738 10.078 7.48012C10.136 7.53287 10.2147 7.5625 10.2968 7.5625H22.7044C22.7864 7.56235 22.865 7.53265 22.9229 7.47993C22.9808 7.4272 23.0133 7.35574 23.0133 7.28125ZM22.3813 10.438V8.40625C22.3813 8.33166 22.3486 8.26012 22.2906 8.20738C22.2326 8.15463 22.1538 8.125 22.0717 8.125H10.9796C10.8975 8.125 10.8188 8.15463 10.7608 8.20738C10.7027 8.26012 10.6701 8.33166 10.6701 8.40625V10.438C10.6701 13.237 13.0274 15.1349 14.3931 15.9989C12.8275 16.9788 10.6194 18.8434 10.6194 21.562V23.5938C10.6194 23.6683 10.652 23.7399 10.71 23.7926C10.7681 23.8454 10.8468 23.875 10.9289 23.875H22.0717C22.1538 23.875 22.2326 23.8454 22.2906 23.7926C22.3486 23.7399 22.3813 23.6683 22.3813 23.5938V21.5783C22.3813 18.7872 19.9899 16.873 18.6082 16.0006C20.1737 15.0207 22.3813 13.1566 22.3813 10.438ZM16.5003 20.6069L19.4779 23.3125H13.5227L16.5003 20.6069ZM17.882 15.7626C17.8378 15.7878 17.8013 15.8228 17.776 15.8643C17.7507 15.9059 17.7374 15.9525 17.7374 16C17.7374 16.0475 17.7507 16.0941 17.776 16.1357C17.8013 16.1772 17.8378 16.2122 17.882 16.2374C19.0489 16.9096 21.7622 18.7759 21.7622 21.5783V23.3125H20.3458C20.3403 23.3063 20.3378 23.2984 20.3316 23.2928L16.8098 20.0927V19.6562C16.8098 19.5817 16.7772 19.5101 16.7192 19.4574C16.6611 19.4046 16.5824 19.375 16.5003 19.375C16.4182 19.375 16.3395 19.4046 16.2814 19.4574C16.2234 19.5101 16.1908 19.5817 16.1908 19.6562V20.0927L12.669 23.2928C12.6628 23.2984 12.6604 23.3063 12.6548 23.3125H11.2384V21.562C11.2384 18.8749 13.6694 17.0727 15.1186 16.2379C15.1627 16.2126 15.199 16.1775 15.2242 16.1359C15.2494 16.0944 15.2626 16.0477 15.2626 16.0003C15.2626 15.9528 15.2494 15.9062 15.2242 15.8646C15.199 15.8231 15.1627 15.788 15.1186 15.7626C13.9672 15.0989 11.2384 13.2522 11.2384 10.438V8.6875H21.7622V10.438C21.7622 13.1256 19.3312 14.9273 17.882 15.7626Z" fill="#F1587B"/>
<path d="M19.6209 12.0469H13.5456C13.4911 12.047 13.4376 12.0601 13.3905 12.085C13.3434 12.1098 13.3043 12.1455 13.2772 12.1885C13.2501 12.2314 13.2359 12.2801 13.2361 12.3296C13.2362 12.3791 13.2508 12.4277 13.2782 12.4704C14.013 13.6073 15.0858 14.3031 16.2217 15.0405L16.3202 15.1041C16.3727 15.1383 16.4357 15.1567 16.5003 15.1567C16.5649 15.1567 16.6279 15.1383 16.6804 15.1041C16.8426 14.9989 17.0061 14.8954 17.1695 14.7919C18.1841 14.1484 19.2334 13.4835 19.8877 12.4704C19.9155 12.4278 19.9304 12.3791 19.9307 12.3296C19.9311 12.28 19.917 12.2312 19.8899 12.1881C19.8628 12.1451 19.8237 12.1093 19.7764 12.0845C19.7291 12.0597 19.6755 12.0467 19.6209 12.0469ZM16.8148 14.3301L16.5009 14.5298C15.5693 13.9251 14.7459 13.3811 14.1201 12.6088H19.0372C18.4546 13.2906 17.6542 13.7979 16.8148 14.3301ZM10.2968 25.0001H22.7044C22.7865 25.0001 22.8652 24.9705 22.9233 24.9178C22.9813 24.865 23.0139 24.7935 23.0139 24.7189C23.0139 24.6443 22.9813 24.5727 22.9233 24.52C22.8652 24.4673 22.7865 24.4376 22.7044 24.4376H10.2968C10.2147 24.4376 10.136 24.4673 10.078 24.52C10.0199 24.5727 9.9873 24.6443 9.9873 24.7189C9.9873 24.7935 10.0199 24.865 10.078 24.9178C10.136 24.9705 10.2147 25.0001 10.2968 25.0001ZM16.5003 17.6876C16.4182 17.6876 16.3395 17.7173 16.2814 17.77C16.2234 17.8227 16.1908 17.8943 16.1908 17.9689V18.5314C16.1908 18.606 16.2234 18.6775 16.2814 18.7302C16.3395 18.783 16.4182 18.8126 16.5003 18.8126C16.5824 18.8126 16.6611 18.783 16.7192 18.7302C16.7772 18.6775 16.8098 18.606 16.8098 18.5314V17.9689C16.8098 17.8943 16.7772 17.8227 16.7192 17.77C16.6611 17.7173 16.5824 17.6876 16.5003 17.6876ZM16.5003 16.0001C16.4182 16.0001 16.3395 16.0298 16.2814 16.0825C16.2234 16.1352 16.1908 16.2068 16.1908 16.2814V16.8439C16.1908 16.9185 16.2234 16.99 16.2814 17.0427C16.3395 17.0955 16.4182 17.1251 16.5003 17.1251C16.5824 17.1251 16.6611 17.0955 16.7192 17.0427C16.7772 16.99 16.8098 16.9185 16.8098 16.8439V16.2814C16.8098 16.2068 16.7772 16.1352 16.7192 16.0825C16.6611 16.0298 16.5824 16.0001 16.5003 16.0001Z" fill="#F1587B"/>
</g>
<defs>
<clipPath id="clip0_15863_29252">
<rect width="13" height="18" fill="white" transform="translate(10 7)"/>
</clipPath>
</defs>
</svg>
