<svg width="33" height="33" viewBox="0 0 33 33" fill="none" xmlns="http://www.w3.org/2000/svg">
<path fill-rule="evenodd" clip-rule="evenodd" d="M16.2253 0.901408C24.6885 0.901408 31.5492 7.76214 31.5492 16.2253C31.5492 24.6885 24.6885 31.5493 16.2253 31.5493C7.76214 31.5493 0.901376 24.6885 0.901376 16.2253C0.901376 7.76214 7.76214 0.901408 16.2253 0.901408Z" stroke="#EAD610"/>
<g clip-path="url(#clip0_16059_30240)">
<path fill-rule="evenodd" clip-rule="evenodd" d="M9.125 8.95312C9.07942 8.95312 9.0357 8.97123 9.00347 9.00347C8.97123 9.0357 8.95312 9.07942 8.95312 9.125V14.1667C8.95312 21.0186 14.7551 23.2985 15.9512 23.695C15.953 23.6956 15.9549 23.6963 15.9567 23.6969C15.9848 23.7065 16.0152 23.7065 16.0433 23.6969C16.0451 23.6963 16.047 23.6956 16.0488 23.695C17.2449 23.2985 23.0469 21.0186 23.0469 14.1667V9.125C23.0469 9.07941 23.0288 9.0357 22.9965 9.00347C22.9643 8.97123 22.9206 8.95312 22.875 8.95312H9.125ZM8.27426 8.27426C8.49989 8.04863 8.80591 7.92188 9.125 7.92188H22.875C23.1941 7.92188 23.5001 8.04863 23.7257 8.27426C23.9514 8.49989 24.0781 8.80591 24.0781 9.125V14.1667C24.0781 21.75 17.6327 24.2559 16.3758 24.6731C16.1321 24.7562 15.8679 24.7562 15.6242 24.6731C14.3673 24.2559 7.92188 21.75 7.92188 14.1667V9.125C7.92188 8.80591 8.04863 8.49989 8.27426 8.27426Z" fill="#EAD610"/>
<path fill-rule="evenodd" clip-rule="evenodd" d="M20.1542 12.894C20.3509 13.1 20.3433 13.4264 20.1373 13.623L15.0956 18.4355C14.8963 18.6257 14.5828 18.6257 14.3835 18.4355L11.8627 16.0292C11.6567 15.8326 11.6491 15.5062 11.8458 15.3002C12.0424 15.0942 12.3688 15.0866 12.5748 15.2833L14.7396 17.3497L19.4252 12.877C19.6312 12.6804 19.9576 12.688 20.1542 12.894Z" fill="#EAD610"/>
</g>
<defs>
<clipPath id="clip0_16059_30240">
<rect width="22" height="22" fill="white" transform="translate(5 5)"/>
</clipPath>
</defs>
</svg>
