<svg width="32" height="32" viewBox="0 0 32 32" fill="none" xmlns="http://www.w3.org/2000/svg">
<path d="M28.1567 25.9201H27.8367V24.6401C27.8367 23.6897 27.1455 22.9025 26.2367 22.7489V16.6081L29.7471 13.0977C30.1695 12.6753 30.4031 12.1121 30.4031 11.5137C30.4031 10.9153 30.1695 10.3521 29.7471 9.9297C29.3247 9.5073 28.7615 9.2737 28.1631 9.2737C27.5647 9.2737 27.0047 9.5073 26.5791 9.9297L18.8863 17.6225C18.0127 18.4961 18.0127 19.9169 18.8863 20.7905C19.3247 21.2257 19.8975 21.4465 20.4703 21.4465C21.0431 21.4465 21.6191 21.2257 22.0543 20.7905L24.9567 17.8881V22.7489C24.0511 22.9025 23.3567 23.6897 23.3567 24.6401V25.9201H17.5967V24.6401C17.5967 23.6897 16.9055 22.9025 15.9967 22.7489V16.6081L19.5071 13.0977C19.9295 12.6753 20.1631 12.1121 20.1631 11.5137C20.1631 10.9153 19.9295 10.3521 19.5071 9.9297C19.0847 9.5073 18.5215 9.2737 17.9231 9.2737C17.3247 9.2737 16.7647 9.5073 16.3391 9.9297L8.64628 17.6225C8.22388 18.0449 7.99028 18.6081 7.99028 19.2065C7.99028 19.8049 8.22388 20.3681 8.64628 20.7905C9.06868 21.2129 9.63188 21.4465 10.2303 21.4465C10.8287 21.4465 11.3919 21.2129 11.8143 20.7905L14.7167 17.8881V22.7489C13.8111 22.9025 13.1167 23.6897 13.1167 24.6401V25.9201H3.83668C2.60148 25.9201 1.59668 26.9249 1.59668 28.1601C1.59668 29.3953 2.60148 30.4001 3.83668 30.4001H28.1567C29.3919 30.4001 30.3967 29.3953 30.3967 28.1601C30.3967 26.9249 29.3919 25.9201 28.1567 25.9201ZM21.1487 19.8849C20.7743 20.2593 20.1663 20.2593 19.7919 19.8849C19.4175 19.5105 19.4175 18.9025 19.7919 18.5281L27.4847 10.8353C27.6671 10.6529 27.9071 10.5537 28.1631 10.5537C28.4191 10.5537 28.6623 10.6529 28.8415 10.8353C29.0239 11.0145 29.1231 11.2577 29.1231 11.5137C29.1231 11.7697 29.0239 12.0097 28.8415 12.1921L25.2543 15.7825C25.1743 15.8305 25.1103 15.8977 25.0591 15.9745L21.1487 19.8849ZM24.6367 24.6401C24.6367 24.2881 24.9247 24.0001 25.2767 24.0001H25.9167C26.2719 24.0001 26.5567 24.2881 26.5567 24.6401V25.9201H24.6367V24.6401ZM10.9087 19.8849C10.5471 20.2465 9.91348 20.2465 9.55188 19.8849C9.36948 19.7025 9.27028 19.4625 9.27028 19.2065C9.27028 18.9505 9.36948 18.7073 9.55188 18.5281L17.2447 10.8353C17.4271 10.6529 17.6671 10.5537 17.9231 10.5537C18.1791 10.5537 18.4223 10.6529 18.6015 10.8353C18.7839 11.0145 18.8831 11.2577 18.8831 11.5137C18.8831 11.7697 18.7839 12.0097 18.6015 12.1921L15.0143 15.7825C14.9343 15.8305 14.8703 15.8977 14.8191 15.9745L10.9087 19.8849ZM14.3967 24.6401C14.3967 24.2881 14.6847 24.0001 15.0367 24.0001H15.6767C16.0319 24.0001 16.3167 24.2881 16.3167 24.6401V25.9201H14.3967V24.6401ZM28.1567 29.1201H3.83668C3.30868 29.1201 2.87668 28.6881 2.87668 28.1601C2.87668 27.6289 3.30868 27.2001 3.83668 27.2001H28.1567C28.6879 27.2001 29.1167 27.6289 29.1167 28.1601C29.1167 28.6881 28.6879 29.1201 28.1567 29.1201ZM7.67668 5.4401C6.44148 5.4401 5.43668 6.4449 5.43668 7.6801C5.43668 8.9153 6.44148 9.9201 7.67668 9.9201C8.91188 9.9201 9.91668 8.9153 9.91668 7.6801C9.91668 6.4449 8.91188 5.4401 7.67668 5.4401ZM7.67668 8.6401C7.14868 8.6401 6.71668 8.2081 6.71668 7.6801C6.71668 7.1489 7.14868 6.7201 7.67668 6.7201C8.20788 6.7201 8.63668 7.1489 8.63668 7.6801C8.63668 8.2081 8.20788 8.6401 7.67668 8.6401ZM7.67668 4.1601C8.02868 4.1601 8.31668 3.8721 8.31668 3.5201V2.2401C8.31668 1.8881 8.02868 1.6001 7.67668 1.6001C7.32468 1.6001 7.03668 1.8881 7.03668 2.2401V3.5201C7.03668 3.8721 7.32468 4.1601 7.67668 4.1601ZM7.03668 11.8401V13.1201C7.03668 13.4721 7.32468 13.7601 7.67668 13.7601C8.02868 13.7601 8.31668 13.4721 8.31668 13.1201V11.8401C8.31668 11.4881 8.02868 11.2001 7.67668 11.2001C7.32468 11.2001 7.03668 11.4849 7.03668 11.8401ZM11.1967 7.6801C11.1967 8.0321 11.4847 8.3201 11.8367 8.3201H13.1167C13.4687 8.3201 13.7567 8.0321 13.7567 7.6801C13.7567 7.3281 13.4687 7.0401 13.1167 7.0401H11.8367C11.4847 7.0401 11.1967 7.3249 11.1967 7.6801ZM2.23668 8.3201H3.51668C3.86868 8.3201 4.15668 8.0321 4.15668 7.6801C4.15668 7.3281 3.86868 7.0401 3.51668 7.0401H2.23668C1.88468 7.0401 1.59668 7.3281 1.59668 7.6801C1.59668 8.0321 1.88468 8.3201 2.23668 8.3201ZM10.6175 5.3793C10.7807 5.3793 10.9439 5.3153 11.0687 5.1905L11.9743 4.2849C12.2239 4.0353 12.2239 3.6289 11.9743 3.3793C11.7247 3.1297 11.3183 3.1297 11.0687 3.3793L10.1631 4.2849C9.91348 4.5345 9.91348 4.9409 10.1631 5.1905C10.2911 5.3153 10.4543 5.3793 10.6175 5.3793ZM4.28468 10.1697L3.37908 11.0753C3.12948 11.3249 3.12948 11.7313 3.37908 11.9809C3.50388 12.1057 3.66708 12.1697 3.83028 12.1697C3.99348 12.1697 4.15668 12.1057 4.28148 11.9809L5.18708 11.0753C5.43668 10.8257 5.43668 10.4193 5.18708 10.1697C4.93748 9.9201 4.53428 9.9201 4.28468 10.1697ZM11.0719 11.9777C11.1967 12.1025 11.3599 12.1665 11.5231 12.1665C11.6863 12.1665 11.8495 12.1025 11.9743 11.9777C12.2239 11.7281 12.2239 11.3217 11.9743 11.0721L11.0687 10.1665C10.8191 9.9169 10.4127 9.9169 10.1631 10.1665C9.91348 10.4161 9.91348 10.8225 10.1631 11.0721L11.0719 11.9777ZM4.28468 5.1905C4.40948 5.3153 4.57268 5.3793 4.73588 5.3793C4.89908 5.3793 5.06228 5.3153 5.18708 5.1905C5.43668 4.9409 5.43668 4.5345 5.18708 4.2849L4.28148 3.3793C4.03188 3.1297 3.62548 3.1297 3.37588 3.3793C3.12628 3.6289 3.12628 4.0353 3.37588 4.2849L4.28468 5.1905Z" fill="url(#paint0_linear_15815_30201)"/>
<defs>
<linearGradient id="paint0_linear_15815_30201" x1="30.4929" y1="4.22491" x2="0.839025" y2="19.6846" gradientUnits="userSpaceOnUse">
<stop offset="0.216713" stop-color="#DDDF78"/>
<stop offset="1" stop-color="#36DD68"/>
</linearGradient>
</defs>
</svg>
