<svg width="78" height="78" viewBox="0 0 78 78" fill="none" xmlns="http://www.w3.org/2000/svg">
<path d="M38.9598 0C31.6106 0.00948109 24.5652 2.92978 19.3685 8.12049C14.1718 13.3112 11.248 20.3486 11.2384 27.6895C11.2314 30.0538 11.5359 32.4088 12.1442 34.6937C15.5547 33.8503 19.0652 33.4802 22.5769 33.5939C31.9865 33.8903 40.7793 37.5875 46.7139 43.7259C47.7633 44.8181 48.7242 45.9918 49.5875 47.2359L62.7924 41.8072C65.3474 37.541 66.6917 32.6607 66.6812 27.6895C66.6729 20.3482 63.7496 13.31 58.5526 8.11902C53.3556 2.92803 46.3094 0.0081526 38.9598 0ZM36.4453 32.4863L27.106 23.1577L30.4169 19.8506L36.4453 25.8721L47.5808 14.7495L50.8917 18.0566L36.4453 32.4863Z" fill="#23B14D"/>
<path d="M77.6277 54.7798C77.2842 55.8596 76.7116 56.8527 75.9488 57.6913C75.1861 58.5299 74.2512 59.1942 73.2079 59.639L30.2202 77.9999L29.2676 77.5475C9.90943 68.3671 7.3169 66.9787 6.73124 66.5263L10.0968 63.1022C12.7362 64.475 23.1845 69.4825 30.3217 72.8676L71.3728 55.3336C71.7971 55.1529 72.1773 54.8827 72.4875 54.5417C72.7976 54.2006 73.0303 53.7967 73.1697 53.3575C73.3091 52.9183 73.3519 52.4542 73.2952 51.997C73.2384 51.5398 73.0835 51.1002 72.8409 50.7083C72.4429 50.0598 71.8261 49.5746 71.1017 49.3401C70.3773 49.1056 69.5928 49.1371 68.8896 49.4291L37.6308 62.2754L22.6925 54.6705L24.8165 50.5055L37.8417 57.1353L43.2532 54.9046C42.4037 53.1857 41.2949 51.6073 39.9657 50.2247C31.0714 41.0052 14.3058 40.35 4.42767 48.7271L0 46.5431C0.234275 46.1941 0.521423 45.8836 0.851164 45.6227C12.4161 35.2723 32.6644 35.9197 43.3391 46.9721C45.0778 48.7802 46.5146 50.8554 47.5949 53.1184L67.1014 45.1002C68.4909 44.528 70.0151 44.3641 71.4947 44.6277C72.9743 44.8913 74.3478 45.5716 75.4536 46.5884C76.5593 47.6052 77.3513 48.9162 77.7365 50.3674C78.1217 51.8185 78.0839 53.3493 77.6277 54.7798Z" fill="#23B14D"/>
</svg>
