<svg width="72" height="72" viewBox="0 0 72 72" fill="none" xmlns="http://www.w3.org/2000/svg">
<path fill-rule="evenodd" clip-rule="evenodd" d="M59.6344 40.7616H70.0032C70.3456 40.7616 70.6568 40.6216 70.884 40.3952C71.1096 40.1688 71.2496 39.8576 71.2496 39.5152V5.5128C71.2496 3.9936 70.632 2.6152 69.636 1.6176C68.6424 0.6224 67.268 0.00480003 65.752 0.00480003H65.132C63.616 0.00480003 62.2424 0.6216 61.248 1.6176C60.252 2.6152 59.6336 3.9936 59.6336 5.5128V40.7608L59.6344 40.7616ZM20.5288 52.1632C19.872 52.1632 19.3408 51.632 19.3408 50.976C19.3408 50.32 19.872 49.788 20.5288 49.788H51.9672C52.6224 49.788 53.1544 50.32 53.1544 50.976C53.1544 51.632 52.6232 52.1632 51.9672 52.1632H20.5288ZM38.1448 42.8168C37.4888 42.8168 36.9568 42.2856 36.9568 41.6296C36.9568 40.9736 37.488 40.4424 38.1448 40.4424H51.9672C52.6224 40.4424 53.1544 40.9736 53.1544 41.6296C53.1544 42.2856 52.6232 42.8168 51.9672 42.8168H38.1448ZM38.1448 33.4704C37.4888 33.4704 36.9568 32.9384 36.9568 32.2824C36.9568 31.6264 37.488 31.0952 38.1448 31.0952H51.9672C52.6224 31.0952 53.1544 31.6272 53.1544 32.2824C53.1544 32.9376 52.6232 33.4704 51.9672 33.4704H38.1448ZM38.1448 24.1232C37.4888 24.1232 36.9568 23.5912 36.9568 22.936C36.9568 22.2808 37.488 21.7488 38.1448 21.7488H51.9672C52.6224 21.7488 53.1544 22.28 53.1544 22.936C53.1544 23.592 52.6232 24.1232 51.9672 24.1232H38.1448ZM38.1448 14.776C37.4888 14.776 36.9568 14.2448 36.9568 13.5888C36.9568 12.9328 37.488 12.4016 38.1448 12.4016H51.9672C52.6224 12.4016 53.1544 12.9328 53.1544 13.5888C53.1544 14.2448 52.6232 14.776 51.9672 14.776H38.1448ZM33.8576 21.9376C34.0528 22.5624 33.7032 23.2272 33.0784 23.4216C32.4536 23.616 31.788 23.2672 31.5944 22.6416C31.3144 21.7456 30.704 20.9648 29.8864 20.4072C29.0664 19.8488 28.0376 19.5176 26.9144 19.5176C25.5504 19.5176 24.3216 20.0088 23.4392 20.8032C22.5904 21.5672 22.0648 22.6152 22.0648 23.7656C22.0648 24.916 22.5896 25.9632 23.4392 26.728C24.3208 27.5224 25.5496 28.0136 26.9144 28.0136C28.884 28.0136 30.6744 28.7392 31.976 29.912C33.312 31.1152 34.1384 32.7848 34.1384 34.6368C34.1384 36.4888 33.312 38.1592 31.976 39.3616C30.9392 40.2952 29.5928 40.9456 28.0936 41.172V44.8064C28.0936 45.4624 27.5616 45.9936 26.9064 45.9936C26.2512 45.9936 25.7184 45.4616 25.7184 44.8064V41.1688C24.5848 40.9944 23.5376 40.5776 22.6464 39.9776C21.396 39.1368 20.4528 37.9368 19.996 36.5424C19.7936 35.92 20.1344 35.2512 20.7568 35.0488C21.3792 34.8464 22.0488 35.1872 22.2504 35.8096C22.54 36.6944 23.1504 37.4632 23.9632 38.0104C24.7464 38.5368 25.7176 38.8576 26.7776 38.8832C26.82 38.8784 26.8624 38.876 26.9064 38.876C26.9512 38.876 26.9944 38.8784 27.0376 38.8832C28.3536 38.8544 29.5352 38.3688 30.3904 37.5984C31.2392 36.8336 31.764 35.7864 31.764 34.636C31.764 33.4856 31.2392 32.4384 30.3904 31.6736C29.508 30.8792 28.28 30.388 26.9144 30.388C24.9456 30.388 23.1552 29.6624 21.8536 28.4896C20.5168 27.2864 19.6904 25.6168 19.6904 23.7648C19.6904 21.9128 20.5168 20.2424 21.8536 19.0392C22.888 18.1072 24.2312 17.4576 25.7272 17.2304V13.5864C25.7272 12.9304 26.2592 12.3992 26.9144 12.3992C27.5696 12.3992 28.1024 12.9312 28.1024 13.5864V17.2304C29.2568 17.4064 30.32 17.8336 31.2216 18.448C32.4752 19.3016 33.4152 20.5192 33.8584 21.9352L33.8576 21.9376ZM13.9912 57.6552H42.0232C43.0216 57.6552 43.9272 58.0616 44.5824 58.7168C45.2376 59.3728 45.644 60.2776 45.644 61.276V65.7464C45.644 67.2656 46.2624 68.644 47.2584 69.6424C48.252 70.6376 49.6264 71.2544 51.1424 71.2544H51.7624C53.2784 71.2544 54.652 70.6376 55.6464 69.6424C56.6424 68.644 57.26 67.2664 57.26 65.7464V5.5128C57.26 3.3712 58.1224 1.4232 59.5176 0H19.4888V0.00480003C17.972 0.00480003 16.5984 0.6216 15.6048 1.6168C14.608 2.6152 13.9904 3.9928 13.9904 5.5128V57.6544L13.9912 57.6552ZM45.5272 71.26H5.4984V71.2552C3.9824 71.2552 2.6088 70.6384 1.6144 69.6432C0.6176 68.6448 0 67.2672 0 65.7472V61.2768C0 60.9344 0.1408 60.6224 0.3664 60.3968C0.5928 60.1704 0.9032 60.0304 1.2472 60.0304H42.0224C42.3648 60.0304 42.6768 60.1712 42.9024 60.3968C43.1288 60.6232 43.2688 60.9344 43.2688 61.2768V65.7472C43.2688 67.8888 44.1312 69.836 45.5256 71.26H45.5272Z" fill="#EB5757"/>
</svg>
