<svg width="33" height="32" viewBox="0 0 33 32" fill="none" xmlns="http://www.w3.org/2000/svg">
<path fill-rule="evenodd" clip-rule="evenodd" d="M16.6765 0.67627C25.1396 0.67627 32.0004 7.53701 32.0004 16.0002C32.0004 24.4634 25.1396 31.3241 16.6765 31.3241C8.21331 31.3241 1.35254 24.4634 1.35254 16.0002C1.35254 7.53701 8.21331 0.67627 16.6765 0.67627Z" stroke="#FF9E44"/>
<g clip-path="url(#clip0_15863_29220)">
<path d="M22.5348 9.69976C22.4577 9.62251 22.3662 9.56122 22.2654 9.5194C22.1645 9.47758 22.0565 9.45605 21.9473 9.45605C21.8382 9.45605 21.7301 9.47758 21.6293 9.5194C21.5285 9.56122 21.4369 9.62251 21.3598 9.69976L12.2848 18.7664V14.1081C12.2848 13.6498 11.9098 13.2748 11.4515 13.2748C10.9932 13.2748 10.6182 13.6498 10.6182 14.1081V20.7748C10.6182 21.2331 10.9932 21.6081 11.4515 21.6081H18.1182C18.5765 21.6081 18.9515 21.2331 18.9515 20.7748C18.9515 20.3164 18.5765 19.9414 18.1182 19.9414H13.4598L22.5348 10.8664C22.8515 10.5498 22.8515 10.0164 22.5348 9.69976Z" fill="#FF9E44"/>
</g>
<defs>
<clipPath id="clip0_15863_29220">
<rect width="20" height="20" fill="white" transform="translate(6.45117 5.7749)"/>
</clipPath>
</defs>
</svg>
