<svg width="21" height="17" viewBox="0 0 21 17" fill="none" xmlns="http://www.w3.org/2000/svg">
<g id="united 1" clip-path="url(#clip0_15505_27414)">
<g id="Group">
<g id="Group_2">
<path id="Vector" fill-rule="evenodd" clip-rule="evenodd" d="M0 0H29.9253V1.30769H0V0ZM0 2.61541H29.9253V3.9231H0V2.61541ZM0 5.23083H29.9253V6.53852H0V5.23083ZM0 7.84624H29.9253V9.15393H0V7.84624ZM0 10.4616H29.9253V11.7693H0V10.4616ZM0 13.077H29.9253V14.3848H0V13.077ZM0 15.6925H29.9253V17.0002H0V15.6925Z" fill="#BD3D44"/>
<path id="Vector_2" fill-rule="evenodd" clip-rule="evenodd" d="M0 1.30774H29.9253V2.61546H0V1.30774ZM0 3.92315H29.9253V5.23088H0V3.92315ZM0 6.53857H29.9253V7.84629H0V6.53857ZM0 9.15398H29.9253V10.4617H0V9.15398ZM0 11.7694H29.9253V13.0771H0V11.7694ZM0 14.3848H29.9253V15.6925H0V14.3848Z" fill="white"/>
</g>
<path id="Vector_3" fill-rule="evenodd" clip-rule="evenodd" d="M0 0H11.97V9.15379H0V0Z" fill="#192F5D"/>
<path id="Vector_4" fill-rule="evenodd" clip-rule="evenodd" d="M0.997476 0.391846L1.10641 0.753592H1.45882L1.17368 0.977248L1.28262 1.33903L0.997476 1.11541L0.712336 1.33903L0.821273 0.977248L0.536133 0.753592H0.888539L0.997476 0.391846ZM2.99248 0.391846L3.10141 0.753592H3.45389L3.16871 0.977248L3.27765 1.33903L2.99248 1.11541L2.70737 1.33903L2.81627 0.977248L2.53113 0.753592H2.88357L2.99248 0.391846ZM4.98754 0.391846L5.09648 0.753592H5.44892L5.16378 0.977248L5.27271 1.33903L4.98757 1.11541L4.70243 1.33903L4.81134 0.977248L4.5262 0.753592H4.87867L4.98754 0.391846ZM6.98254 0.391846L7.09141 0.753592H7.44382L7.15871 0.977248L7.26762 1.33903L6.98251 1.11541L6.69737 1.33903L6.8063 0.977248L6.52113 0.753592H6.8736L6.98254 0.391846ZM8.97754 0.391846L9.08648 0.753592H9.43892L9.15378 0.977248L9.26271 1.33903L8.97754 1.11541L8.69243 1.33903L8.80134 0.977248L8.5162 0.753592H8.86864L8.97754 0.391846ZM10.9726 0.391846L11.0815 0.753592H11.434L11.1488 0.977248L11.2578 1.33903L10.9726 1.11541L10.6875 1.33903L10.7964 0.977248L10.5113 0.753592H10.8637L10.9726 0.391846ZM1.99504 1.30722L2.10391 1.66901H2.45639L2.17124 1.89259L2.28018 2.25441L1.99504 2.03082L1.7099 2.25441L1.81881 1.89263L1.53367 1.66901H1.88614L1.99504 1.30722ZM3.98998 1.30722L4.09891 1.66901H4.45132L4.16618 1.89259L4.27512 2.25441L3.98998 2.03082L3.70484 2.25441L3.81377 1.89263L3.5286 1.66901H3.88107L3.98998 1.30722ZM5.98504 1.30722L6.09395 1.66901H6.44642L6.16124 1.89259L6.27018 2.25441L5.98501 2.03082L5.6999 2.25441L5.8088 1.89263L5.52366 1.66901H5.8761L5.98504 1.30722ZM7.98007 1.30722L8.08901 1.66901H8.44145L8.15631 1.89259L8.26525 2.25441L7.98011 2.03082L7.69493 2.25441L7.8039 1.89263L7.51876 1.66901H7.87123L7.98007 1.30722ZM9.97507 1.30722L10.0839 1.66901H10.4364L10.1512 1.89259L10.2601 2.25441L9.97504 2.03082L9.6899 2.25441L9.79884 1.89263L9.51366 1.66901H9.86614L9.97507 1.30722ZM0.997476 2.2226L1.10641 2.58439H1.45882L1.17368 2.80801L1.28262 3.16982L0.997476 2.94624L0.712336 3.16982L0.821273 2.80804L0.536133 2.58442H0.888539L0.997476 2.2226ZM2.99248 2.2226L3.10141 2.58439H3.45389L3.16871 2.80801L3.27762 3.16982L2.99248 2.9462L2.70737 3.16982L2.81627 2.80804L2.53113 2.58442H2.88357L2.99248 2.2226ZM4.98754 2.2226L5.09648 2.58439H5.44892L5.16378 2.80801L5.27271 3.16979L4.98757 2.9462L4.70243 3.16979L4.81134 2.80801L4.5262 2.58439H4.87867L4.98754 2.2226ZM6.98254 2.2226L7.09141 2.58439H7.44382L7.15871 2.80801L7.26762 3.16982L6.98251 2.94624L6.69737 3.16982L6.8063 2.80804L6.52113 2.58442H6.8736L6.98254 2.2226ZM8.97754 2.2226L9.08648 2.58439H9.43892L9.15378 2.80801L9.26271 3.16979L8.97754 2.9462L8.69243 3.16979L8.80134 2.80801L8.5162 2.58439H8.86864L8.97754 2.2226ZM10.9726 2.2226L11.0815 2.58439H11.434L11.1488 2.80801L11.2578 3.16979L10.9726 2.9462L10.6875 3.16979L10.7964 2.80801L10.5113 2.58439H10.8637L10.9726 2.2226ZM1.99504 3.13798L2.10391 3.4998H2.45639L2.17124 3.72339L2.28018 4.0852L1.99504 3.86162L1.7099 4.0852L1.81881 3.72339L1.53367 3.4998H1.88614L1.99504 3.13798ZM3.98998 3.13798L4.09891 3.4998H4.45132L4.16618 3.72339L4.27512 4.0852L3.98998 3.86162L3.70484 4.0852L3.81377 3.72339L3.5286 3.4998H3.88107L3.98998 3.13798ZM5.98504 3.13798L6.09395 3.4998H6.44642L6.16124 3.72339L6.27018 4.0852L5.98501 3.86162L5.6999 4.0852L5.8088 3.72339L5.52366 3.4998H5.8761L5.98504 3.13798ZM7.98007 3.13798L8.08901 3.4998H8.44145L8.15631 3.72339L8.26525 4.0852L7.98011 3.86162L7.69493 4.0852L7.80387 3.72339L7.51873 3.4998H7.8712L7.98007 3.13798ZM9.97507 3.13798L10.0839 3.4998H10.4364L10.1512 3.72339L10.2601 4.0852L9.97504 3.86162L9.6899 4.0852L9.79884 3.72339L9.51366 3.4998H9.8661L9.97507 3.13798ZM0.997476 4.0534L1.10641 4.41518H1.45882L1.17368 4.6388L1.28262 5.00058L0.997476 4.777L0.712336 5.00058L0.821273 4.6388L0.536133 4.41518H0.888539L0.997476 4.0534ZM2.99248 4.0534L3.10141 4.41518H3.45389L3.16871 4.6388L3.27765 5.00058L2.99248 4.777L2.70737 5.00058L2.81627 4.6388L2.53113 4.41518H2.88357L2.99248 4.0534ZM4.98754 4.0534L5.09648 4.41518H5.44892L5.16378 4.6388L5.27271 5.00058L4.98757 4.777L4.70243 5.00058L4.81134 4.6388L4.5262 4.41518H4.87867L4.98754 4.0534ZM6.98254 4.0534L7.09141 4.41518H7.44382L7.15871 4.6388L7.26762 5.00058L6.98251 4.777L6.69737 5.00058L6.8063 4.6388L6.52113 4.41518H6.8736L6.98254 4.0534ZM8.97754 4.0534L9.08648 4.41518H9.43892L9.15378 4.6388L9.26271 5.00058L8.97754 4.777L8.69243 5.00058L8.80134 4.6388L8.5162 4.41518H8.86864L8.97754 4.0534ZM10.9726 4.0534L11.0815 4.41518H11.434L11.1488 4.6388L11.2578 5.00058L10.9726 4.777L10.6875 5.00058L10.7964 4.6388L10.5113 4.41518H10.8637L10.9726 4.0534ZM1.99504 4.96878L2.10391 5.33059H2.45639L2.17124 5.55418L2.28018 5.916L1.99504 5.69241L1.7099 5.916L1.81881 5.55418L1.53367 5.33059H1.88614L1.99504 4.96878ZM3.98998 4.96878L4.09891 5.33059H4.45132L4.16618 5.55418L4.27512 5.916L3.98998 5.69241L3.70484 5.916L3.81377 5.55418L3.5286 5.33059H3.88107L3.98998 4.96878ZM5.98504 4.96878L6.09395 5.33059H6.44642L6.16124 5.55418L6.27018 5.916L5.98501 5.69241L5.6999 5.916L5.8088 5.55418L5.52366 5.33059H5.8761L5.98504 4.96878ZM7.98007 4.96878L8.08901 5.33059H8.44145L8.15631 5.55418L8.26525 5.916L7.98011 5.69241L7.69493 5.916L7.80387 5.55418L7.51873 5.33059H7.8712L7.98007 4.96878ZM9.97507 4.96878L10.0839 5.33059H10.4364L10.1512 5.55418L10.2601 5.916L9.97504 5.69241L9.6899 5.916L9.79884 5.55418L9.51366 5.33059H9.8661L9.97507 4.96878ZM0.997476 5.88419L1.10641 6.24597H1.45882L1.17368 6.46959L1.28262 6.83137L0.997476 6.60779L0.712336 6.83137L0.821273 6.46959L0.536133 6.24597H0.888539L0.997476 5.88419ZM2.99248 5.88419L3.10141 6.24597H3.45389L3.16871 6.46959L3.27765 6.83137L2.99248 6.60779L2.70737 6.83137L2.81627 6.46959L2.53113 6.24597H2.88357L2.99248 5.88419ZM4.98754 5.88419L5.09648 6.24597H5.44892L5.16378 6.46959L5.27271 6.83137L4.98757 6.60779L4.70243 6.83137L4.81134 6.46959L4.5262 6.24597H4.87867L4.98754 5.88419ZM6.98254 5.88419L7.09141 6.24597H7.44382L7.15871 6.46959L7.26762 6.83137L6.98251 6.60779L6.69737 6.83137L6.8063 6.46959L6.52113 6.24597H6.8736L6.98254 5.88419ZM8.97754 5.88419L9.08648 6.24597H9.43892L9.15378 6.46959L9.26271 6.83137L8.97754 6.60779L8.69243 6.83137L8.80134 6.46959L8.5162 6.24597H8.86864L8.97754 5.88419ZM10.9726 5.88419L11.0815 6.24597H11.434L11.1488 6.46959L11.2578 6.83137L10.9726 6.60779L10.6875 6.83137L10.7964 6.46959L10.5113 6.24597H10.8637L10.9726 5.88419ZM1.99504 6.79957L2.10391 7.16139H2.45639L2.17124 7.38497L2.28018 7.74679L1.99504 7.5232L1.7099 7.74679L1.81881 7.38497L1.53367 7.16139H1.88614L1.99504 6.79957ZM3.98998 6.79957L4.09891 7.16139H4.45132L4.16618 7.38497L4.27512 7.74679L3.98998 7.5232L3.70484 7.74679L3.81377 7.38497L3.5286 7.16139H3.88107L3.98998 6.79957ZM5.98504 6.79957L6.09395 7.16139H6.44642L6.16124 7.38497L6.27018 7.74679L5.98501 7.5232L5.6999 7.74679L5.8088 7.38497L5.52366 7.16139H5.8761L5.98504 6.79957ZM7.98007 6.79957L8.08901 7.16139H8.44145L8.15631 7.38497L8.26525 7.74679L7.98011 7.5232L7.69493 7.74679L7.80387 7.38497L7.51873 7.16139H7.8712L7.98007 6.79957ZM9.97507 6.79957L10.0839 7.16139H10.4364L10.1512 7.38497L10.2601 7.74679L9.97504 7.5232L9.6899 7.74679L9.79884 7.38497L9.51366 7.16139H9.8661L9.97507 6.79957ZM0.997476 7.71498L1.10641 8.07677H1.45882L1.17368 8.30039L1.28262 8.66217L0.997476 8.43858L0.712336 8.66217L0.821273 8.30039L0.536133 8.07677H0.888539L0.997476 7.71498ZM2.99248 7.71498L3.10141 8.07677H3.45389L3.16871 8.30039L3.27765 8.66217L2.99248 8.43858L2.70737 8.66217L2.81627 8.30039L2.53113 8.07677H2.88357L2.99248 7.71498ZM4.98754 7.71498L5.09648 8.07677H5.44892L5.16378 8.30039L5.27271 8.66217L4.98757 8.43858L4.70243 8.66217L4.81134 8.30039L4.5262 8.07677H4.87867L4.98754 7.71498ZM6.98254 7.71498L7.09141 8.07677H7.44382L7.15871 8.30039L7.26762 8.66217L6.98251 8.43858L6.69737 8.66217L6.8063 8.30039L6.52113 8.07677H6.8736L6.98254 7.71498ZM8.97754 7.71498L9.08648 8.07677H9.43892L9.15378 8.30039L9.26271 8.66217L8.97754 8.43858L8.69243 8.66217L8.80134 8.30039L8.5162 8.07677H8.86864L8.97754 7.71498ZM10.9726 7.71498L11.0815 8.07677H11.434L11.1488 8.30039L11.2578 8.66217L10.9726 8.43858L10.6875 8.66217L10.7964 8.30039L10.5113 8.07677H10.8637L10.9726 7.71498Z" fill="white"/>
</g>
</g>
<defs>
<clipPath id="clip0_15505_27414">
<rect width="21" height="17" fill="white"/>
</clipPath>
</defs>
</svg>
