<svg width="17" height="16" viewBox="0 0 17 16" fill="none" xmlns="http://www.w3.org/2000/svg">
<g id="pajamas:arrow-right">
<path id="Vector" fill-rule="evenodd" clip-rule="evenodd" d="M10.659 10.7201C10.5853 10.7887 10.5262 10.8715 10.4852 10.9635C10.4442 11.0555 10.4222 11.1548 10.4204 11.2555C10.4186 11.3562 10.4372 11.4563 10.4749 11.5497C10.5126 11.643 10.5687 11.7279 10.64 11.7991C10.7112 11.8703 10.796 11.9265 10.8894 11.9642C10.9828 12.0019 11.0828 12.0204 11.1835 12.0187C11.2842 12.0169 11.3835 11.9948 11.4755 11.9538C11.5675 11.9128 11.6503 11.8537 11.719 11.7801L14.97 8.53006L15.5 8.00006L14.97 7.47006L11.72 4.22006C11.5786 4.08337 11.3892 4.00769 11.1925 4.0093C10.9959 4.01092 10.8078 4.08971 10.6686 4.2287C10.5295 4.36769 10.4505 4.55576 10.4487 4.75241C10.4469 4.94906 10.5224 5.13854 10.659 5.28006L12.629 7.25006L2.25 7.25006C2.05109 7.25006 1.86032 7.32908 1.71967 7.46973C1.57902 7.61038 1.5 7.80115 1.5 8.00006C1.5 8.19897 1.57902 8.38974 1.71967 8.53039C1.86032 8.67104 2.05109 8.75006 2.25 8.75006L12.629 8.75006L10.659 10.7201Z" fill="#303030"/>
</g>
</svg>
