<svg width="177" height="30" viewBox="0 0 177 30" fill="none" xmlns="http://www.w3.org/2000/svg">
<path fill-rule="evenodd" clip-rule="evenodd" d="M25.1926 28C22.724 29.2721 19.8591 30 16.8038 30C7.52332 30 0 23.2843 0 15C0 6.71573 7.52332 0 16.8038 0C19.8591 0 22.724 0.727888 25.1926 2H171C174.313 2 177 4.68629 177 8V22C177 25.3137 174.313 28 171 28H25.1926Z" fill="white" fill-opacity="0.41"/>
<path fill-rule="evenodd" clip-rule="evenodd" d="M25.1926 28C22.724 29.2721 19.8591 30 16.8038 30C7.52332 30 0 23.2843 0 15C0 6.71573 7.52332 0 16.8038 0C19.8591 0 22.724 0.727888 25.1926 2H171C174.313 2 177 4.68629 177 8V22C177 25.3137 174.313 28 171 28H25.1926Z" fill="black" fill-opacity="0.26"/>
</svg>
