<svg width="68" height="54" viewBox="0 0 68 54" fill="none" xmlns="http://www.w3.org/2000/svg">
<g id="1_G" filter="url(#filter0_d_11657_2938)">
<path d="M57.861 16.8435C57.8533 16.7818 57.8455 16.72 57.8378 16.6582C57.7413 16.5092 57.8533 16.3167 57.7258 16.175L57.7297 16.1822C57.6331 16.0878 57.7142 15.9424 57.6254 15.8443C57.5945 15.8225 57.5868 15.7934 57.6061 15.7607C57.5598 15.6808 57.5675 15.5863 57.5134 15.51C57.4825 15.4882 57.4748 15.4592 57.4903 15.4265C57.4439 15.3465 57.4516 15.2448 57.386 15.1721C57.2701 15.0922 57.3821 14.925 57.247 14.8524C57.247 14.856 57.247 14.8596 57.2508 14.8596L57.2431 14.8487C57.247 14.8487 57.247 14.8524 57.247 14.8524C57.2084 14.7797 57.2161 14.6816 57.1311 14.6307C57.1311 14.6344 57.1311 14.6344 57.135 14.638L57.1273 14.6271L57.1311 14.6307C57.0848 14.558 57.0964 14.4599 57.0114 14.4091C57.0114 14.4127 57.0153 14.4127 57.0153 14.4163L57.0076 14.4054L57.0114 14.4091C56.9689 14.34 56.9844 14.2383 56.8917 14.1947C56.8917 14.1983 56.8956 14.1983 56.8956 14.202L56.8801 14.1874C56.884 14.1874 56.8878 14.1911 56.8917 14.1947C56.8801 14.1366 56.8338 14.1039 56.7952 14.0639C56.7218 14.0094 56.745 13.904 56.6639 13.8568C56.6639 13.8604 56.6677 13.8604 56.6677 13.8604L56.6561 13.8495C56.66 13.8495 56.66 13.8531 56.6639 13.8568C56.6446 13.8059 56.5944 13.7732 56.5673 13.7296L56.5635 13.726C56.4862 13.6787 56.5094 13.5697 56.4244 13.5298C56.4244 13.5334 56.4283 13.5334 56.4283 13.5334L56.4167 13.5225C56.4206 13.5225 56.4206 13.5261 56.4244 13.5298C56.4051 13.4753 56.3627 13.4389 56.3163 13.4026C56.3163 13.4026 56.3163 13.4026 56.3163 13.4062L56.3125 13.4026C56.2236 13.3045 56.185 13.1664 56.0614 13.0937C56.0614 13.0937 56.0614 13.0937 56.0614 13.0974L56.046 13.0865C56.0499 13.0901 56.0537 13.0937 56.0614 13.0974C56.0499 13.032 56.0074 12.9956 55.9495 12.9702C55.9495 12.9738 55.9533 12.9738 55.9533 12.9775L55.9417 12.9666C55.9456 12.9666 55.9456 12.9702 55.9456 12.9702C55.9224 12.9193 55.8838 12.883 55.8336 12.8539L55.8375 12.8576L55.8297 12.8503L55.8336 12.8539C55.8027 12.8067 55.7641 12.7704 55.7178 12.7377L55.7216 12.7413L55.7178 12.7377C55.6869 12.6941 55.6444 12.6577 55.6019 12.625L55.6058 12.6286C55.5672 12.5887 55.5285 12.5523 55.4861 12.516C55.4474 12.476 55.4088 12.4397 55.3663 12.4034C55.3277 12.3634 55.2891 12.3234 55.2428 12.2907L55.2466 12.2944C55.2119 12.2508 55.1733 12.2144 55.1231 12.1854L55.1269 12.189L55.1192 12.1817L55.1231 12.1854C55.0922 12.1418 55.0536 12.1018 54.9995 12.08C54.9995 12.0836 55.0034 12.0836 55.0034 12.0836L54.9918 12.0727C54.9956 12.0727 54.9956 12.0764 54.9995 12.0764C54.9725 12.0255 54.9338 11.9855 54.8682 11.9674C54.8721 11.971 54.8759 11.9746 54.8798 11.9783L54.8682 11.9674C54.8682 11.9674 54.8682 11.9674 54.8721 11.9674C54.791 11.8547 54.6404 11.822 54.5477 11.7275L54.5438 11.7239C54.5013 11.6948 54.4666 11.6549 54.4202 11.6258L54.4125 11.6185C54.4164 11.6185 54.4164 11.6222 54.4202 11.6222C54.3855 11.5749 54.3469 11.535 54.2889 11.5204C54.2889 11.5241 54.2928 11.5277 54.2928 11.5313L54.2774 11.5168C54.2812 11.5168 54.2812 11.5204 54.2851 11.5204C54.2426 11.4369 54.1229 11.4587 54.0727 11.3896L54.0688 11.386C54.0225 11.3569 53.9877 11.3133 53.9375 11.2915C53.9375 11.2952 53.9414 11.2952 53.9453 11.2988L53.9337 11.2915L53.9375 11.2951C53.8873 11.2225 53.7715 11.2443 53.729 11.168L53.7213 11.1643C53.6711 11.1389 53.6402 11.0989 53.59 11.0735C53.59 11.0771 53.5938 11.0771 53.5938 11.0771L53.5823 11.0699C53.5861 11.0699 53.5861 11.0735 53.5861 11.0735C53.5359 10.9972 53.4201 11.0226 53.366 10.95L53.3621 10.9463C53.3158 10.9136 53.2811 10.87 53.2231 10.8555C53.227 10.8591 53.2309 10.8591 53.2309 10.8664L53.2154 10.8555C53.2193 10.8555 53.2193 10.8555 53.2193 10.8591C53.1691 10.7792 53.0648 10.7937 52.9953 10.7429L52.9876 10.7392C52.9876 10.7392 52.9914 10.7392 52.9914 10.7429C52.9335 10.6666 52.8215 10.6884 52.7597 10.623C52.6979 10.5575 52.586 10.583 52.5319 10.5067L52.528 10.503C52.474 10.4631 52.4276 10.4195 52.3543 10.4122C52.3234 10.4231 52.3002 10.4158 52.2886 10.3868C52.2384 10.3504 52.1921 10.3105 52.1226 10.3032C52.0917 10.3141 52.0646 10.3068 52.053 10.2778C51.9874 10.2233 51.8831 10.2523 51.8291 10.176L51.8213 10.1724C51.7518 10.1179 51.6476 10.1361 51.5858 10.067C51.5163 10.0053 51.412 10.0198 51.3386 9.96165L51.3464 9.96529C51.2807 9.89262 51.1803 9.89988 51.0992 9.86354C51.0992 9.86718 51.1031 9.86718 51.1031 9.86718L51.0954 9.85991H51.0992C51.0799 9.82358 51.0452 9.80178 51.0027 9.79087C50.9177 9.78724 50.825 9.79451 50.7555 9.73274H50.7594C50.6783 9.66371 50.5702 9.66733 50.4775 9.631C50.4466 9.64553 50.4196 9.63827 50.4041 9.6092C50.3346 9.5547 50.2342 9.56196 50.1608 9.51836C50.1608 9.51836 50.1647 9.51836 50.1647 9.522L50.157 9.51836C50.157 9.51836 50.1608 9.51836 50.1608 9.522C50.1377 9.4893 50.1029 9.46386 50.0604 9.45659C49.9755 9.45659 49.8905 9.45296 49.8133 9.40935L49.8056 9.40572C49.8094 9.40936 49.8133 9.40935 49.8133 9.40935C49.7129 9.29308 49.5468 9.37665 49.4348 9.29672C49.4001 9.31125 49.3692 9.30398 49.346 9.27492C49.2611 9.22405 49.1568 9.22042 49.0641 9.18772C49.0332 9.20588 49.0101 9.19861 48.9946 9.17318C48.8904 9.07871 48.7359 9.15864 48.6278 9.07144L48.6355 9.07507C48.6046 9.03874 48.5621 9.0133 48.5119 9.00967C48.3922 8.99877 48.2648 9.0351 48.1605 8.95517L48.1682 8.9588C48.1335 8.92247 48.091 8.90066 48.0408 8.90066C47.9172 8.8934 47.7898 8.91883 47.6778 8.8498C47.643 8.86796 47.6083 8.8607 47.5812 8.83526C47.4577 8.75896 47.3071 8.80983 47.1796 8.74443C47.1526 8.76623 47.1294 8.76259 47.1101 8.73353C46.9557 8.62089 46.751 8.71899 46.5888 8.63178L46.5502 8.64632L46.5193 8.62452C46.4807 8.58818 46.4305 8.57002 46.3725 8.56638C46.2104 8.55548 46.0443 8.59181 45.8937 8.51914C45.8628 8.54095 45.8358 8.53731 45.8087 8.50824C45.6079 8.38834 45.3685 8.50824 45.1638 8.41014C45.1021 8.4065 45.0403 8.39924 44.9824 8.39561C44.7429 8.2757 44.4688 8.40651 44.2255 8.30114C44.1212 8.33021 44.0169 8.31567 43.9204 8.27934C43.6385 8.1667 43.3296 8.30114 43.0477 8.1885C42.9048 8.22483 42.7619 8.20666 42.6229 8.16669C42.1054 8.03952 41.5648 8.20666 41.0473 8.07586C40.7075 8.11219 40.3677 8.09039 40.0278 8.05769C39.3212 7.97775 38.6145 7.98502 37.9078 8.05406C37.5294 8.09039 37.1548 8.11219 36.7763 8.07586C36.255 8.20303 35.7182 8.04315 35.1969 8.16669C35.054 8.20303 34.9111 8.2212 34.7683 8.1885C34.4477 8.3084 34.1002 8.15943 33.7835 8.27934C33.6831 8.31567 33.5827 8.33384 33.4823 8.30114C33.2391 8.40651 32.9649 8.27934 32.7216 8.39197C32.6559 8.39924 32.5903 8.40287 32.5246 8.41014C32.3277 8.51188 32.096 8.39924 31.8991 8.50098C31.8334 8.50824 31.7678 8.51551 31.6982 8.52278C31.5013 8.62815 31.2657 8.50098 31.0688 8.62088C31.0418 8.64632 31.0109 8.64995 30.98 8.63178C30.8294 8.71172 30.6633 8.66812 30.505 8.68265C30.4471 8.68265 30.4007 8.70082 30.3621 8.74079L30.3312 8.76259L30.2965 8.74806C30.1343 8.83526 29.9296 8.73716 29.7713 8.8498L29.7404 8.87523L29.7018 8.8607C29.5743 8.92247 29.4237 8.87523 29.3002 8.9479C29.2693 8.97334 29.2345 8.9806 29.1998 8.96243C29.053 9.07507 28.8522 8.9479 28.7093 9.07144L28.6784 9.09688L28.6437 9.08597C28.5162 9.15138 28.3579 9.08961 28.2382 9.18408C28.2228 9.21315 28.1996 9.21678 28.1726 9.19862C28.049 9.26402 27.8868 9.20225 27.7709 9.30035H27.7748C27.6744 9.39483 27.5199 9.31488 27.4157 9.39845C27.3886 9.42752 27.3577 9.43116 27.323 9.41662C27.211 9.49656 27.0488 9.42389 26.9407 9.522H26.9445C26.848 9.6201 26.6858 9.5329 26.5854 9.62737C26.5661 9.65644 26.5429 9.66007 26.512 9.64554C26.4194 9.67824 26.3151 9.67824 26.234 9.73637C26.2108 9.76544 26.1838 9.77271 26.1529 9.75454C26.0641 9.79451 25.9637 9.78724 25.8826 9.84538C25.8633 9.87445 25.8363 9.88172 25.8054 9.86718C25.7165 9.90352 25.6084 9.89988 25.5273 9.96165C25.5119 9.99072 25.4887 9.99799 25.4617 9.97982C25.3651 10.0125 25.257 10.0125 25.1759 10.0779H25.1798C25.0871 10.1797 24.9133 10.0816 24.8284 10.2015C24.8322 10.2015 24.8361 10.1978 24.8361 10.1978L24.8245 10.2015C24.7511 10.2451 24.6507 10.2342 24.5851 10.2959C24.5696 10.325 24.5503 10.3323 24.5194 10.3141C24.4229 10.3468 24.3109 10.3395 24.2375 10.4231C24.2414 10.4231 24.2414 10.4195 24.2453 10.4195L24.2337 10.4231C24.1603 10.4667 24.0599 10.4594 23.9904 10.5212C23.9209 10.5866 23.8321 10.5757 23.7471 10.583C23.7046 10.5939 23.6737 10.6157 23.6544 10.652H23.6583L23.6506 10.6593C23.6506 10.6557 23.6544 10.6557 23.6544 10.652C23.5733 10.6884 23.4691 10.6775 23.4111 10.7574C23.415 10.7574 23.415 10.7574 23.4189 10.7538L23.4073 10.761C23.4073 10.761 23.4111 10.761 23.4111 10.7574C23.3339 10.801 23.2296 10.7901 23.1678 10.8628L23.1756 10.8591C23.1061 10.9173 22.9979 10.8991 22.9323 10.9681H22.9361C22.8705 11.0299 22.7624 11.0117 22.6967 11.0808H22.7006C22.6349 11.1462 22.5268 11.1244 22.4612 11.1934H22.465C22.3994 11.2588 22.2913 11.237 22.2256 11.306H22.2295C22.1638 11.3715 22.0518 11.3497 21.9939 11.4223L21.9978 11.4187C21.9321 11.4805 21.8201 11.4587 21.7622 11.535C21.7622 11.535 21.7661 11.535 21.7699 11.5313L21.7622 11.535C21.7622 11.535 21.7622 11.535 21.7661 11.535C21.6966 11.5858 21.5884 11.5713 21.5344 11.6512C21.5382 11.6512 21.5382 11.6476 21.5421 11.6476L21.5305 11.6549L21.5344 11.6512C21.461 11.6912 21.3529 11.6767 21.3065 11.7639C21.3104 11.7639 21.3104 11.7602 21.3143 11.7602L21.2988 11.7748C21.2988 11.7711 21.3027 11.7675 21.3065 11.7639C21.2447 11.7748 21.21 11.8184 21.1675 11.8511C21.1096 11.9201 20.9899 11.8983 20.9397 11.9746C20.9435 11.9746 20.9435 11.971 20.9474 11.971L20.9397 11.9746C20.8702 12.0219 20.762 12.0073 20.7196 12.0909C20.7234 12.0909 20.7234 12.0873 20.7273 12.0873L20.7118 12.1018C20.7118 12.0982 20.7157 12.0945 20.7196 12.0909C20.6616 12.1018 20.623 12.1454 20.5805 12.1817C20.5226 12.2471 20.4106 12.229 20.3604 12.3053C20.3643 12.3053 20.3643 12.3016 20.3643 12.3016L20.3527 12.3125C20.3527 12.3089 20.3566 12.3089 20.3604 12.3053C20.3064 12.3234 20.2716 12.367 20.2253 12.3961L20.2175 12.3997C20.1673 12.4724 20.0515 12.4506 20.0013 12.5269C20.0052 12.5269 20.0052 12.5233 20.0052 12.5233L19.9936 12.5305C19.9936 12.5269 19.9974 12.5269 20.0013 12.5233C19.9472 12.5451 19.9163 12.5887 19.8661 12.6141L19.8584 12.6177C19.8082 12.6904 19.6924 12.6686 19.646 12.7449L19.6499 12.7413L19.6383 12.7522C19.6383 12.7486 19.6422 12.7486 19.646 12.7449C19.592 12.7631 19.5572 12.8067 19.5109 12.843C19.4568 12.9121 19.3371 12.8903 19.2985 12.9738C19.3023 12.9738 19.3023 12.9702 19.3062 12.9702L19.2907 12.9847C19.2907 12.9811 19.2946 12.9775 19.2946 12.9738C19.2367 12.9884 19.1981 13.0283 19.1633 13.0719L19.1594 13.0756C19.1594 13.0756 19.1594 13.0719 19.1633 13.0719C19.1286 13.0937 19.0938 13.1119 19.0552 13.1264C19.0204 13.1519 18.9895 13.1773 18.9625 13.2064C18.9162 13.2391 18.8544 13.2536 18.8273 13.3045L18.8312 13.3009L18.8196 13.3118C18.8196 13.3081 18.8235 13.3045 18.8273 13.3009C18.7656 13.319 18.7269 13.359 18.6922 13.4062C18.696 13.4062 18.696 13.4026 18.696 13.4026L18.6883 13.4099C18.642 13.4389 18.6072 13.4789 18.5609 13.508L18.557 13.5116C18.5107 13.5843 18.3833 13.5588 18.3524 13.6497C18.3562 13.6497 18.3601 13.6497 18.3601 13.646L18.3446 13.6606C18.3446 13.6569 18.3485 13.6533 18.3485 13.6497C18.2829 13.6569 18.2442 13.6969 18.2211 13.755C18.2249 13.755 18.2249 13.7514 18.2288 13.7514L18.2172 13.7623C18.2172 13.7587 18.2211 13.7587 18.2211 13.755C18.167 13.7732 18.1284 13.8132 18.0975 13.8568L18.1014 13.8531L18.0936 13.8604C18.0936 13.8604 18.0936 13.8604 18.0975 13.8568C18.0473 13.8822 18.0125 13.9222 17.9739 13.9585C17.9353 13.9949 17.8967 14.0312 17.8503 14.0603L17.8426 14.0639C17.7577 14.1656 17.5993 14.1911 17.5298 14.311C17.5298 14.311 17.5298 14.311 17.5337 14.311L17.5221 14.3255C17.526 14.3219 17.5298 14.3182 17.5337 14.311C17.4642 14.3219 17.4256 14.3618 17.4024 14.42C17.4063 14.42 17.4063 14.4163 17.414 14.4163L17.4024 14.4272C17.4024 14.4236 17.4063 14.4236 17.4063 14.42C17.3483 14.4381 17.3097 14.4745 17.2865 14.529C17.2904 14.529 17.2904 14.5253 17.2943 14.5253L17.2827 14.5362C17.2827 14.5326 17.2865 14.5326 17.2865 14.529C17.2325 14.5508 17.1939 14.5871 17.1668 14.638C17.1707 14.638 17.1707 14.6344 17.1746 14.6344L17.163 14.6453C17.163 14.6416 17.1668 14.6416 17.1668 14.638C17.1128 14.6634 17.0742 14.6998 17.0471 14.747C17.051 14.747 17.051 14.7434 17.0548 14.7434L17.0433 14.7543C17.0433 14.7506 17.0471 14.7506 17.0471 14.7506C16.9969 14.7761 16.9583 14.8124 16.9235 14.8596L16.9274 14.856L16.9197 14.8633L16.9235 14.8596C16.8772 14.8887 16.8386 14.925 16.8038 14.9686L16.8077 14.965L16.8 14.9723L16.8038 14.9686C16.7575 14.9977 16.7189 15.034 16.6841 15.0813L16.688 15.0776L16.6803 15.0849L16.6841 15.0813C16.6378 15.1103 16.5992 15.1467 16.5644 15.1939L16.5683 15.1903L16.5606 15.1975L16.5644 15.1939C16.5181 15.223 16.4795 15.2593 16.4486 15.3066L16.4524 15.3029L16.4447 15.3102C16.4447 15.3066 16.4486 15.3066 16.4486 15.3066C16.3984 15.3356 16.3597 15.372 16.3327 15.4192C16.3366 15.4192 16.3366 15.4156 16.3404 15.4156L16.3289 15.4265C16.3289 15.4228 16.3327 15.4228 16.3327 15.4192C16.2787 15.4446 16.24 15.481 16.2169 15.5318C16.2207 15.5318 16.2207 15.5282 16.2246 15.5282L16.213 15.5391C16.213 15.5355 16.2169 15.5355 16.2169 15.5318C16.1628 15.5573 16.1242 15.59 16.1049 15.6445C16.1087 15.6445 16.1087 15.6408 16.1126 15.6408L16.101 15.6517C16.101 15.6481 16.1049 15.6445 16.1049 15.6445C16.0431 15.6663 16.0006 15.7026 15.9852 15.768C15.989 15.7644 15.9929 15.7607 16.0006 15.7571L15.9852 15.768C15.8461 15.8697 15.7612 16.0151 15.6299 16.1241C15.6106 16.1423 15.5951 16.1604 15.5758 16.1786C15.5527 16.2222 15.5256 16.2622 15.4947 16.3021L15.4986 16.2985C15.4523 16.3312 15.4136 16.3675 15.3866 16.4184L15.3905 16.4148L15.3789 16.4257C15.3789 16.422 15.3827 16.422 15.3827 16.4184C15.3248 16.4438 15.2823 16.4838 15.2708 16.5456C15.2746 16.542 15.2785 16.5383 15.2823 16.5347L15.2669 16.5492C15.2669 16.5492 15.2669 16.5492 15.2669 16.5456C15.1433 16.6183 15.1047 16.7527 15.0159 16.8544L15.012 16.8581C15.012 16.8581 15.012 16.8581 15.012 16.8544C14.9657 16.8908 14.9232 16.9271 14.9 16.9816C14.9039 16.978 14.9078 16.9743 14.9116 16.9707L14.9 16.9816C14.7919 17.0688 14.7456 17.1996 14.6529 17.2977C14.6143 17.3341 14.5679 17.3704 14.5486 17.4249C14.5525 17.4249 14.5525 17.4213 14.5564 17.4176L14.5448 17.4285C14.5448 17.4249 14.5486 17.4249 14.5486 17.4249C14.4675 17.4685 14.4907 17.5775 14.4096 17.6211L14.4057 17.6284C14.3787 17.672 14.3362 17.7047 14.3092 17.7483L14.3015 17.7555C14.3015 17.7519 14.3053 17.7519 14.3053 17.7483C14.2551 17.781 14.2088 17.8137 14.2011 17.8754C14.2049 17.8754 14.2088 17.8718 14.2127 17.8718L14.1972 17.8863C14.1972 17.8827 14.1972 17.8791 14.2011 17.8791C14.1045 17.9154 14.1277 18.0281 14.0621 18.0862L14.0659 18.0826C14.0196 18.1189 13.9732 18.1516 13.9617 18.2134C13.9655 18.2134 13.9694 18.2097 13.9732 18.2061L13.9578 18.2206C13.9578 18.217 13.9578 18.2134 13.9617 18.2134C13.8651 18.2497 13.8844 18.3551 13.8342 18.4168L13.8304 18.4241C13.8342 18.4205 13.8342 18.4205 13.8342 18.4168C13.7493 18.4641 13.7802 18.5767 13.6991 18.6276L13.6952 18.6349C13.6643 18.6785 13.6141 18.7112 13.5987 18.7657C13.6025 18.762 13.6025 18.7584 13.6064 18.7584L13.5948 18.7693C13.5948 18.7693 13.5948 18.7657 13.5987 18.7657C13.5137 18.8129 13.533 18.9183 13.4712 18.9764L13.4751 18.9728C13.4017 19.0273 13.4287 19.1363 13.3477 19.1835L13.3438 19.1908C13.3129 19.2344 13.2666 19.2671 13.2511 19.3216C13.255 19.318 13.2588 19.3143 13.2627 19.3143L13.2511 19.3289C13.2511 19.3252 13.2511 19.3252 13.255 19.3216C13.17 19.3688 13.1816 19.4669 13.1314 19.5323L13.1353 19.5287L13.1275 19.5396C13.1275 19.5396 13.1275 19.536 13.1314 19.5323C13.0503 19.5832 13.0658 19.6849 13.0078 19.7503L13.004 19.7576C13.004 19.7576 13.004 19.754 13.0078 19.754C12.9306 19.8085 12.9499 19.9138 12.8843 19.9756V19.972C12.8109 20.0301 12.8341 20.1355 12.7645 20.1973V20.1936C12.6912 20.2518 12.7143 20.3571 12.6448 20.4189V20.4153C12.5715 20.4734 12.5946 20.5788 12.5251 20.6406V20.6369C12.4556 20.6987 12.4711 20.8004 12.4093 20.8658L12.4131 20.8622C12.3398 20.9203 12.3513 21.0184 12.3011 21.0875C12.3011 21.0875 12.3011 21.0875 12.3011 21.0838L12.3205 21.0693C12.3205 21.0657 12.3205 21.0657 12.3243 21.062C12.2432 21.1202 12.2509 21.2146 12.2123 21.2873L12.2162 21.2837L12.2085 21.2946C12.2085 21.291 12.2123 21.2873 12.2123 21.2873C12.0772 21.3564 12.193 21.5271 12.0733 21.6071V21.6107C12.0115 21.6761 12.0231 21.7742 11.9652 21.8432L11.969 21.836C11.8841 21.905 11.8918 22.0104 11.8571 22.1012C11.8725 22.1303 11.8648 22.1521 11.8339 22.1703C11.776 22.2357 11.7875 22.3265 11.7373 22.3955L11.7335 22.4028C11.7373 22.3992 11.7373 22.3992 11.7373 22.3955C11.6138 22.4791 11.718 22.639 11.606 22.7262C11.5365 22.8025 11.5365 22.9042 11.5018 22.9914C11.5172 23.0205 11.5134 23.0423 11.4825 23.0605C11.4168 23.1368 11.4245 23.2349 11.3821 23.3185C11.3975 23.3512 11.3898 23.3766 11.3589 23.3948C11.301 23.4711 11.3048 23.5692 11.2624 23.6527C11.2778 23.6818 11.2739 23.7072 11.2431 23.729C11.1813 23.809 11.1813 23.9071 11.1465 23.9979C11.1658 24.0234 11.1581 24.0452 11.1311 24.0597C11.0307 24.1542 11.1195 24.3031 11.0191 24.4012L11.0229 24.394C10.9109 24.4957 10.9882 24.652 10.9109 24.7646C10.9303 24.7937 10.9225 24.8191 10.8955 24.8373C10.799 24.939 10.8762 25.088 10.7912 25.1933C10.8067 25.226 10.8028 25.2551 10.7719 25.2806C10.687 25.3859 10.7565 25.5313 10.6715 25.633C10.6908 25.6657 10.6831 25.6948 10.6561 25.7238C10.5711 25.8365 10.6329 25.9782 10.5595 26.0945C10.5788 26.1235 10.575 26.149 10.5441 26.1671C10.4244 26.3088 10.5441 26.4941 10.436 26.6395C10.4553 26.6722 10.4514 26.6976 10.4205 26.7231C10.3124 26.872 10.4128 27.0573 10.3201 27.2099C10.3124 27.2717 10.3047 27.3299 10.2969 27.3916C10.185 27.5733 10.3163 27.7913 10.1965 27.9694C10.1888 28.0348 10.185 28.1002 10.1772 28.1656C10.0575 28.4272 10.2004 28.7179 10.0807 28.9795C10.1193 29.1175 10.1 29.252 10.0614 29.3828C9.97256 29.8987 9.98801 30.4147 10.0575 30.9307C10.0961 31.0687 10.1116 31.2104 10.0768 31.3485C10.212 31.6029 10.0459 31.8936 10.1811 32.1515C10.2081 32.1806 10.212 32.2133 10.1927 32.246C10.324 32.4204 10.1656 32.6457 10.3047 32.8201C10.3356 32.8383 10.3394 32.8601 10.3163 32.8855C10.3858 33.0018 10.3278 33.1507 10.4167 33.2634C10.4475 33.2852 10.4514 33.3106 10.4321 33.3397C10.5093 33.4487 10.436 33.6013 10.5441 33.7067L10.5402 33.703C10.6406 33.7975 10.548 33.9501 10.6599 34.041V34.0373C10.7681 34.1282 10.6638 34.288 10.7874 34.3716C10.7874 34.368 10.7835 34.3643 10.7835 34.3643L10.7874 34.3716C10.8376 34.4406 10.826 34.5315 10.8878 34.5969C10.9187 34.6114 10.9264 34.6296 10.9109 34.6587C10.9457 34.7459 10.938 34.8549 11.0307 34.9203C11.0307 34.9166 11.0307 34.9166 11.0268 34.913L11.0345 34.9239C11.0307 34.9239 11.0307 34.9203 11.0307 34.9203C11.0731 34.9929 11.0616 35.091 11.1465 35.1419C11.1465 35.1383 11.1465 35.1383 11.1426 35.1346L11.1504 35.1455L11.1465 35.1419C11.1928 35.2146 11.1813 35.3127 11.2662 35.3636C11.2662 35.3599 11.2662 35.3599 11.2624 35.3563L11.2701 35.3672L11.2662 35.3636C11.3126 35.4326 11.301 35.5307 11.3859 35.5779C11.3859 35.5743 11.3859 35.5743 11.3821 35.5743L11.3937 35.5888C11.3898 35.5852 11.3859 35.5816 11.3821 35.5816C11.3937 35.6361 11.4477 35.6688 11.4747 35.7124L11.4786 35.7196C11.5636 35.7669 11.5327 35.8759 11.6099 35.9268L11.606 35.9231C11.6678 35.9813 11.6524 36.0866 11.7373 36.1302C11.7373 36.1266 11.7373 36.1266 11.7335 36.1266L11.7451 36.1411C11.7412 36.1375 11.7373 36.1339 11.7335 36.1339C11.7489 36.192 11.7953 36.2247 11.8377 36.2647C11.9073 36.3192 11.8841 36.4318 11.9768 36.4681C11.9768 36.4645 11.9729 36.4645 11.9729 36.4609L11.9883 36.4754C11.9845 36.4754 11.9806 36.4718 11.9768 36.4718C11.9884 36.5299 12.0347 36.5662 12.0849 36.5989C12.0849 36.5953 12.081 36.5953 12.081 36.5917L12.0888 36.5989C12.0888 36.5989 12.0888 36.5989 12.0849 36.5989C12.1119 36.6426 12.1544 36.6753 12.1853 36.7189L12.1892 36.7225C12.2664 36.7661 12.2394 36.886 12.3359 36.9151C12.3359 36.9114 12.3359 36.9078 12.332 36.9078L12.3475 36.9223C12.3436 36.9223 12.3398 36.9187 12.3359 36.9187C12.3436 36.9805 12.3861 37.0168 12.4479 37.0386C12.4479 37.035 12.444 37.035 12.444 37.0313L12.4556 37.0422C12.4517 37.0422 12.4517 37.0386 12.4479 37.0386C12.4672 37.0895 12.5097 37.1258 12.5599 37.1549C12.5599 37.1512 12.556 37.1512 12.556 37.1476L12.5637 37.1549L12.5599 37.1512C12.5869 37.1985 12.6294 37.2348 12.6719 37.2675L12.668 37.2639L12.6719 37.2675C12.7028 37.3111 12.7452 37.3475 12.7839 37.3802L12.7877 37.3838C12.8263 37.4238 12.8649 37.4601 12.9036 37.4964C12.9422 37.5328 12.9808 37.5691 13.0156 37.6091L13.0194 37.5945C13.0619 37.6272 13.1005 37.6636 13.1353 37.6999C13.1777 37.7326 13.2164 37.7726 13.255 37.8089C13.2936 37.8489 13.3322 37.8852 13.3785 37.9215L13.3747 37.9179C13.4094 37.9579 13.4481 37.9979 13.4983 38.0269L13.4944 38.0233L13.5021 38.0306L13.4983 38.0269C13.5292 38.0705 13.5678 38.1105 13.6218 38.1323L13.618 38.1287L13.6296 38.1396C13.6257 38.1396 13.6257 38.1359 13.6218 38.1359C13.6489 38.1904 13.6875 38.2304 13.757 38.2449C13.7531 38.2413 13.7493 38.2377 13.7454 38.234L13.757 38.2486C13.757 38.2486 13.757 38.2486 13.7531 38.2486C13.8342 38.3648 13.9771 38.3975 14.0814 38.4847C14.1238 38.5247 14.1586 38.5683 14.2165 38.5901C14.2127 38.5865 14.2088 38.5829 14.2049 38.5792L14.2165 38.5901C14.3131 38.6882 14.4444 38.7355 14.5564 38.8154L14.5602 38.819C14.5602 38.819 14.5564 38.819 14.5564 38.8154C14.595 38.8554 14.6297 38.899 14.6915 38.9135C14.6915 38.9099 14.6876 38.9062 14.6838 38.9026L14.6992 38.9171C14.6954 38.9171 14.6954 38.9135 14.6915 38.9135C14.7379 38.9971 14.8537 38.9789 14.9116 39.0407H14.9078C14.9464 39.0806 14.985 39.1242 15.0468 39.1351C15.0468 39.1315 15.0429 39.1279 15.0391 39.1242L15.0545 39.1388C15.0506 39.1388 15.0468 39.1351 15.0468 39.1351C15.0893 39.2224 15.1974 39.2078 15.2669 39.2551L15.2746 39.2587C15.2708 39.2551 15.2708 39.2551 15.2669 39.2551C15.321 39.335 15.4368 39.3096 15.4947 39.3786C15.5449 39.4222 15.5951 39.4694 15.6685 39.4731H15.7071L15.7303 39.5021C15.7766 39.5276 15.8075 39.5712 15.8655 39.5821C15.8616 39.5784 15.8577 39.5784 15.8577 39.5748L15.8732 39.5857C15.8693 39.5857 15.8693 39.5857 15.8655 39.5821C15.9157 39.662 16.0199 39.6511 16.0933 39.6947L16.0894 39.6911L16.101 39.6983C16.101 39.6983 16.0972 39.6983 16.0933 39.6947C16.1474 39.7746 16.2516 39.7637 16.3289 39.8073L16.325 39.8037L16.3366 39.811C16.3366 39.811 16.3327 39.811 16.3289 39.8073C16.3868 39.8873 16.4872 39.8764 16.5683 39.9163C16.5683 39.9127 16.5644 39.9127 16.5644 39.9127L16.576 39.92C16.5721 39.92 16.5721 39.92 16.5683 39.9163C16.6339 40.0036 16.7498 39.9927 16.8386 40.029L16.8811 40.0254L16.912 40.0544C16.9815 40.1089 17.0857 40.0871 17.1475 40.1562C17.2132 40.2179 17.3136 40.2107 17.3908 40.2543L17.4024 40.2579C17.3985 40.2579 17.3985 40.2543 17.3947 40.2543C17.4796 40.3742 17.6534 40.2724 17.7422 40.3778C17.8195 40.4396 17.9276 40.4359 18.0164 40.4759L18.0627 40.4723L18.1014 40.5013C18.1709 40.5522 18.2674 40.545 18.3408 40.5886L18.3485 40.5922C18.3446 40.5886 18.3408 40.5886 18.3408 40.5886C18.4335 40.7048 18.5995 40.614 18.7038 40.7048L18.696 40.7012C18.8003 40.8175 18.9664 40.7375 19.0822 40.8138L19.1286 40.8066L19.1672 40.832C19.2676 40.9192 19.4259 40.8356 19.5224 40.9337H19.5186C19.6306 41.0282 19.7889 40.9628 19.9086 41.0355L19.9549 41.0282L19.9936 41.0536C20.1094 41.1408 20.2639 41.0754 20.3836 41.1481L20.4299 41.1372L20.4685 41.1626C20.5883 41.2462 20.7466 41.1917 20.874 41.2535L20.9088 41.2389L20.9397 41.2644C21.0941 41.3807 21.2949 41.2753 21.4533 41.3661L21.4958 41.3552L21.5305 41.3807C21.712 41.5115 21.9514 41.3625 22.1368 41.486L22.1908 41.4751L22.2411 41.4969C22.4303 41.6096 22.662 41.4751 22.8473 41.595L22.8975 41.5841L22.9439 41.6059C23.1756 41.7295 23.4459 41.5805 23.6776 41.704C23.7471 41.7113 23.8205 41.7149 23.89 41.7222C24.1642 41.8421 24.4692 41.6931 24.7395 41.8167C24.8091 41.8203 24.8786 41.8239 24.9519 41.8276C25.3497 41.9584 25.7745 41.7985 26.1761 41.9221C26.3614 41.8857 26.5429 41.9039 26.7244 41.9402C27.3616 42.042 28.0065 41.9838 28.6475 41.9802C29.8138 41.9729 30.9838 42.0456 32.1501 41.9402C32.3316 41.9039 32.5131 41.8821 32.6946 41.9221C33.0962 41.7985 33.5171 41.9548 33.9187 41.8276C34.0191 41.7912 34.1234 41.7767 34.2276 41.8094C34.5057 41.6931 34.8185 41.8385 35.0965 41.7149C35.1622 41.7077 35.2278 41.704 35.2973 41.6968C35.5329 41.5805 35.8071 41.7258 36.0426 41.5987L36.0851 41.5769L36.1353 41.5914C36.3245 41.4788 36.5562 41.6059 36.7493 41.4969C36.8111 41.4897 36.8729 41.4824 36.9308 41.4751C37.0968 41.3916 37.2977 41.4824 37.456 41.3807L37.4946 41.3552L37.5409 41.3661C37.6954 41.268 37.8962 41.377 38.0468 41.268L38.0854 41.2426L38.1279 41.2535C38.2476 41.1844 38.3982 41.239 38.5179 41.1626L38.5643 41.1372L38.6183 41.1445C38.7612 41.0318 38.9698 41.1626 39.1088 41.0318L39.101 41.0355C39.2053 40.9483 39.3559 41.0209 39.464 40.941L39.5065 40.9156L39.5567 40.9228C39.6687 40.8429 39.8309 40.9156 39.939 40.8175H39.9352C40.0317 40.7194 40.19 40.8029 40.2904 40.7121L40.3213 40.6867L40.3638 40.6939C40.4565 40.6576 40.5608 40.6612 40.6418 40.6031L40.6766 40.5777L40.7191 40.5849C40.8079 40.5486 40.916 40.5522 40.9971 40.4941L41.028 40.4686L41.0705 40.4759C41.1632 40.4432 41.2713 40.4432 41.3524 40.3778H41.3485C41.4412 40.2761 41.615 40.3742 41.6999 40.2543C41.6961 40.2543 41.6922 40.2579 41.6922 40.2579L41.7038 40.2543C41.781 40.2107 41.8776 40.2179 41.9471 40.1598C42.032 40.0508 42.2097 40.1562 42.2869 40.029C42.2831 40.029 42.2792 40.0326 42.2792 40.0326L42.2908 40.0254L42.2869 40.029C42.368 39.989 42.4684 39.9999 42.5302 39.9272L42.5225 39.9309C42.5958 39.8764 42.7001 39.8909 42.7696 39.8255C42.8353 39.7601 42.9395 39.7783 43.009 39.7165C43.0708 39.6475 43.1751 39.6656 43.2446 39.6111L43.2523 39.6075C43.3064 39.5312 43.4184 39.5566 43.4802 39.4949H43.484C43.542 39.4222 43.6539 39.444 43.7157 39.3822C43.7775 39.3132 43.8895 39.335 43.9474 39.266L43.9436 39.2696C44.0092 39.2078 44.1212 39.2296 44.1753 39.1497C44.1753 39.1497 44.1714 39.1497 44.1675 39.1533L44.1791 39.146L44.1753 39.1497C44.2448 39.1061 44.3529 39.117 44.3992 39.0334C44.3954 39.0334 44.3954 39.0334 44.3915 39.0334L44.407 39.0189C44.4031 39.0225 44.3992 39.0261 44.3992 39.0298C44.461 39.0189 44.4958 38.9753 44.5421 38.9389C44.6 38.8699 44.7159 38.8917 44.7661 38.8118C44.7622 38.8118 44.7622 38.8154 44.7584 38.8154L44.7661 38.8081C44.7661 38.8081 44.7661 38.8081 44.7622 38.8118C44.8897 38.75 45.0132 38.6846 45.1214 38.5938L45.1175 38.5974C45.1793 38.5392 45.3029 38.5647 45.3415 38.4629V38.4557C45.5809 38.4012 45.5037 38.6374 45.6041 38.7137L45.6272 38.7391L45.6118 38.7718C45.6736 38.8917 45.6272 39.037 45.7083 39.1533C45.7354 39.1787 45.7431 39.2114 45.7238 39.2441C45.8358 39.3822 45.7161 39.5712 45.8319 39.7092C45.8628 39.731 45.8667 39.7601 45.8474 39.7892C45.9516 39.9345 45.8319 40.1235 45.9555 40.2652C45.9864 40.2833 45.9902 40.3051 45.9671 40.3306C46.0327 40.4505 45.9825 40.5922 46.0598 40.7085C46.0868 40.7375 46.0945 40.7702 46.0752 40.8066C46.1795 40.8974 46.0636 41.0754 46.2219 41.1445C48.2068 41.1445 50.1956 41.1445 52.1805 41.1481C52.2461 41.1154 52.2925 41.0682 52.3079 40.9991C52.2886 40.9701 52.2925 40.9483 52.3234 40.9301C52.4199 40.8247 52.3427 40.6794 52.4276 40.574C52.4122 40.5413 52.416 40.5122 52.4469 40.4868C52.5358 40.3887 52.4547 40.2434 52.5512 40.1453L52.5473 40.1525C52.6555 40.0435 52.5937 39.8909 52.6593 39.771L52.6477 39.7383L52.6748 39.7129C52.779 39.6075 52.7057 39.4549 52.7829 39.3423C52.7636 39.3132 52.7713 39.2878 52.7983 39.2696C52.8949 39.1642 52.8177 39.0189 52.9026 38.9135C52.8872 38.8808 52.891 38.8517 52.9219 38.8263C53.0107 38.7282 52.9296 38.5828 53.0262 38.4847L53.0223 38.492C53.1613 38.3685 53.0185 38.1723 53.1459 38.0487V38.0524C53.2463 37.9433 53.1806 37.7944 53.254 37.6781C53.2347 37.649 53.2386 37.6272 53.2695 37.6054C53.366 37.5001 53.2888 37.3547 53.3737 37.2457C53.3583 37.213 53.3621 37.1839 53.393 37.1621C53.4819 37.064 53.4008 36.9187 53.4973 36.8206L53.4934 36.8279C53.6363 36.7043 53.4896 36.5081 53.6209 36.3846V36.3882C53.7213 36.2792 53.6556 36.1302 53.729 36.014C53.7097 35.9849 53.7136 35.9631 53.7444 35.9413C53.841 35.8359 53.7638 35.6906 53.8487 35.5816C53.8333 35.5489 53.8371 35.5198 53.868 35.498C53.9568 35.3999 53.8757 35.2545 53.9723 35.1564L53.9684 35.1637C54.1113 35.0402 53.9646 34.844 54.0959 34.7204V34.7241C54.1963 34.6151 54.1306 34.4661 54.204 34.3498C54.1847 34.3207 54.1885 34.2989 54.2194 34.2771C54.316 34.1718 54.2426 34.0228 54.3237 33.9174C54.3044 33.8847 54.3121 33.8556 54.343 33.8338C54.4318 33.7321 54.3546 33.5868 54.4473 33.485C54.4318 33.4487 54.4357 33.416 54.4666 33.3906C54.5515 33.2924 54.4666 33.1507 54.567 33.0563V33.0599C54.6712 32.9545 54.6017 32.8019 54.6751 32.6857C54.6558 32.6566 54.6597 32.6348 54.6906 32.6166C54.7871 32.5112 54.7137 32.3623 54.7948 32.2569C54.7794 32.2242 54.7832 32.1951 54.8141 32.1733C54.903 32.0716 54.8257 31.9262 54.9184 31.8245C54.9029 31.7882 54.9068 31.7555 54.9377 31.73C55.0227 31.6319 54.9377 31.4902 55.0381 31.3958V31.3994C55.1424 31.294 55.0729 31.1414 55.1462 31.0251C55.1269 30.9961 55.1308 30.9743 55.1617 30.9561C55.2582 30.8507 55.1848 30.7018 55.2659 30.5964C55.2505 30.5637 55.2544 30.5346 55.2853 30.5128C55.3741 30.4111 55.2968 30.2657 55.3895 30.164C55.3741 30.1277 55.3779 30.095 55.4088 30.0695C55.4938 29.9714 55.4088 29.8297 55.5092 29.7352V29.7389C55.6135 29.6299 55.544 29.4809 55.6174 29.3646C55.598 29.3356 55.6019 29.3138 55.6328 29.2956C55.7293 29.1902 55.656 29.0412 55.7371 28.9322C55.7178 28.8995 55.7255 28.8741 55.7564 28.8487C55.8452 28.7469 55.768 28.6016 55.8606 28.4998C55.8452 28.4635 55.8529 28.4344 55.88 28.4054C55.9649 28.3073 55.8799 28.1619 55.9804 28.0711V28.0747C56.0846 27.9694 56.019 27.8167 56.0885 27.7005C56.0692 27.6714 56.073 27.6496 56.1039 27.6314C56.2005 27.5261 56.1271 27.3771 56.2082 27.2681C56.1889 27.2354 56.1966 27.21 56.2275 27.1845C56.3163 27.0828 56.2391 26.9374 56.3318 26.8357C56.3163 26.7994 56.324 26.7703 56.3511 26.7412C56.436 26.6431 56.3511 26.4978 56.4515 26.4069V26.4106C56.5557 26.3052 56.4901 26.1526 56.5596 26.0363C56.5403 26.0073 56.5442 25.9855 56.575 25.9673C56.6716 25.8619 56.5982 25.7129 56.6793 25.6039C56.66 25.5712 56.6677 25.5458 56.6986 25.5204C56.7913 25.4186 56.7102 25.2697 56.8029 25.1679C56.7874 25.1316 56.7913 25.1025 56.8222 25.0734C56.9072 24.9753 56.8261 24.83 56.9226 24.7355V24.7392C57.0269 24.6302 56.9612 24.4775 57.0307 24.3613C57.0114 24.3358 57.0153 24.314 57.0462 24.2959C57.1427 24.1905 57.0732 24.0415 57.1504 23.9289C57.1311 23.8962 57.1388 23.8707 57.1697 23.8489C57.2624 23.7472 57.1852 23.5982 57.274 23.4965C57.2586 23.4602 57.2624 23.4311 57.2933 23.402C57.3783 23.3039 57.2972 23.1622 57.3937 23.0677C57.4401 22.5663 57.023 22.8098 56.8415 22.8098C50.771 22.7952 44.6966 22.7989 38.6261 22.8025C38.4368 22.8025 38.2322 22.7335 38.0584 22.8752L38.0738 22.8606C37.9348 22.9442 38.0391 23.1113 37.9425 23.2058C37.958 23.2421 37.9503 23.2712 37.9232 23.3003C37.8383 23.3984 37.9194 23.5437 37.8228 23.6382V23.6346C37.7186 23.7436 37.7842 23.8962 37.7147 24.0125C37.734 24.0379 37.7302 24.0597 37.6993 24.0779C37.6027 24.1832 37.6722 24.3322 37.595 24.4448C37.6143 24.4775 37.6066 24.503 37.5757 24.5248C37.483 24.6265 37.5602 24.7755 37.4714 24.8772C37.4869 24.9136 37.483 24.9426 37.4521 24.9717C37.3672 25.0698 37.4483 25.2152 37.3517 25.3096V25.306C37.2475 25.415 37.3131 25.5676 37.2436 25.6839C37.2629 25.7093 37.259 25.7311 37.2281 25.7493C37.1316 25.8546 37.2011 26.0036 37.1239 26.1163C37.1432 26.149 37.1355 26.1744 37.1046 26.1962C37.0119 26.2979 37.0891 26.4469 37.0003 26.5487C37.0158 26.585 37.0119 26.6141 36.981 26.6431C36.896 26.7412 36.9771 26.8866 36.8806 26.981V26.9774C36.7763 27.0864 36.842 27.239 36.7725 27.3553C36.7918 27.3807 36.7879 27.4025 36.757 27.4207C36.6605 27.5261 36.73 27.675 36.6528 27.7877C36.6721 27.8204 36.6643 27.8458 36.6334 27.8676C36.5408 27.9694 36.618 28.1183 36.5292 28.2201C36.5446 28.2564 36.5408 28.2855 36.5099 28.3145C36.4249 28.4126 36.506 28.558 36.4095 28.6525L36.4133 28.6488C36.3052 28.7578 36.3747 28.9104 36.3052 29.0267C36.3245 29.0521 36.3207 29.0739 36.2898 29.0921C36.1894 29.1975 36.2627 29.3465 36.1855 29.4591C36.2048 29.4918 36.1971 29.5172 36.1662 29.5354C36.1044 29.6517 36.0696 29.7607 36.1971 29.8624C37.958 29.8515 39.7189 29.8261 41.4798 29.8733C41.5648 29.946 41.5378 30.0223 41.4876 30.095L41.4914 30.0913L41.4876 30.0986C41.4142 30.1495 41.4373 30.2548 41.3601 30.3093V30.313C41.3254 30.3566 41.2752 30.3893 41.2597 30.4438C41.2636 30.4401 41.2636 30.4365 41.2713 30.4365L41.2597 30.4474C41.2597 30.4474 41.2597 30.4438 41.2636 30.4438C41.1825 30.4874 41.2057 30.5964 41.1284 30.64L41.1246 30.6436C41.0937 30.6872 41.0512 30.7199 41.0242 30.7635C41.0242 30.7635 41.0242 30.7635 41.028 30.7635L41.0203 30.7708C41.0203 30.7672 41.0242 30.7672 41.0242 30.7635C40.974 30.7962 40.9276 30.8326 40.9083 30.8907L40.9199 30.8798C40.6148 31.1959 40.2943 31.4939 39.9622 31.7809L39.9738 31.77C39.9081 31.7845 39.8695 31.8281 39.8386 31.879C39.8425 31.879 39.8425 31.8754 39.8463 31.8754L39.8386 31.8826L39.8425 31.879C39.7923 31.9045 39.7575 31.9444 39.7151 31.9771C39.661 32.0462 39.5413 32.0207 39.5027 32.1116C39.5065 32.1116 39.5065 32.1079 39.5104 32.1079L39.4949 32.1225C39.4949 32.1188 39.4988 32.1152 39.4988 32.1116C39.437 32.1225 39.3984 32.1661 39.3636 32.2097L39.3675 32.206C39.3057 32.2642 39.186 32.2424 39.1474 32.3332C39.1512 32.3332 39.1512 32.3296 39.1551 32.3296L39.1397 32.3441C39.1397 32.3405 39.1435 32.3368 39.1474 32.3332C39.0856 32.3405 39.047 32.3877 39.0084 32.424H39.0122C38.9504 32.4894 38.8346 32.4676 38.7844 32.5476C38.7844 32.5476 38.7883 32.5476 38.7921 32.544L38.7805 32.5512L38.7844 32.5476C38.711 32.5912 38.6068 32.5803 38.5566 32.6602C38.5604 32.6602 38.5604 32.6602 38.5643 32.6566L38.5488 32.6675C38.5527 32.6639 38.5566 32.6602 38.5566 32.6566C38.4986 32.6675 38.4677 32.7111 38.4214 32.7365C38.4059 32.7656 38.3828 32.7765 38.3519 32.762C38.2862 32.7692 38.236 32.8092 38.1858 32.8455C38.1704 32.8746 38.1434 32.8855 38.1125 32.8746C38.0198 32.9109 37.9078 32.9 37.8421 32.9872C37.846 32.9872 37.846 32.9872 37.8499 32.9836L37.8383 32.9909L37.8421 32.9872C37.7649 33.0272 37.6645 33.0199 37.5989 33.089L37.6027 33.0853C37.5332 33.1435 37.4328 33.1289 37.3633 33.1834C37.344 33.2125 37.317 33.2198 37.2822 33.2052C37.1934 33.2452 37.0853 33.2379 37.008 33.2997C36.9926 33.3288 36.9694 33.3324 36.9424 33.3179C36.8458 33.347 36.7377 33.3506 36.6528 33.4124C36.6373 33.4414 36.6141 33.4451 36.5832 33.4305C36.4906 33.4596 36.3863 33.4669 36.2975 33.5177C36.2705 33.5468 36.2396 33.5504 36.2048 33.5359C36.0928 33.6158 35.9384 33.5468 35.8264 33.6304C35.7993 33.6594 35.7723 33.6631 35.7375 33.6449C35.5869 33.7466 35.3823 33.6304 35.2355 33.7503C35.2162 33.7793 35.1931 33.783 35.166 33.7612C35.0038 33.8447 34.8107 33.7612 34.6486 33.8484C34.5829 33.8556 34.5134 33.8629 34.4478 33.8702C34.1697 33.9865 33.8608 33.8447 33.5866 33.9647C33.4476 34.0046 33.3047 34.0228 33.1618 33.9828C32.544 34.0555 31.9299 34.0628 31.3121 33.9792C31.2001 34.0119 31.092 33.9974 30.9877 33.961C30.7521 33.8484 30.478 33.9792 30.2424 33.8702C30.1768 33.8629 30.1111 33.8556 30.0455 33.8484C29.918 33.7793 29.7674 33.8193 29.64 33.7648L29.6052 33.7793L29.5782 33.7539C29.4623 33.6558 29.3002 33.7176 29.1727 33.6522C29.1457 33.6703 29.1225 33.6667 29.1071 33.6376C29.0067 33.5395 28.8483 33.6267 28.7479 33.5286H28.7518C28.6707 33.4596 28.5626 33.4596 28.4699 33.4269C28.439 33.4414 28.4158 33.4342 28.3965 33.4051C28.327 33.347 28.2228 33.3651 28.1571 33.307L28.161 33.3106C28.0953 33.2416 27.9872 33.2561 27.9177 33.198L27.9254 33.2016C27.8675 33.1289 27.7516 33.1471 27.686 33.0853H27.6898C27.6319 33.0163 27.5161 33.0454 27.4697 32.9654L27.462 32.9618C27.4118 32.9364 27.3771 32.8891 27.323 32.871C27.3269 32.8746 27.3307 32.8746 27.3307 32.8782L27.3191 32.871C27.3191 32.871 27.3191 32.871 27.323 32.871C27.2264 32.7729 27.0952 32.722 26.9832 32.6457L26.9793 32.6421C26.9793 32.6421 26.9832 32.6421 26.9832 32.6457C26.9445 32.6057 26.9098 32.5658 26.8557 32.544C26.8557 32.5476 26.8596 32.5476 26.8596 32.5476L26.848 32.5367C26.8519 32.5367 26.8519 32.5403 26.8557 32.5403C26.8287 32.4894 26.7901 32.4531 26.7322 32.4349C26.7322 32.4386 26.736 32.4386 26.736 32.4422L26.7244 32.4313C26.7283 32.4313 26.7322 32.4349 26.736 32.4349C26.7167 32.3768 26.6781 32.3368 26.6124 32.3259C26.6124 32.3296 26.6163 32.3332 26.6163 32.3368L26.6047 32.3259C26.6086 32.3259 26.6086 32.3259 26.6124 32.3296C26.597 32.2714 26.5584 32.2351 26.4966 32.2206C26.4966 32.2242 26.5005 32.2242 26.5005 32.2278L26.485 32.2169C26.4889 32.2169 26.4889 32.2206 26.4927 32.2206C26.4812 32.1588 26.4387 32.1225 26.3769 32.1079C26.3769 32.1116 26.3769 32.1116 26.3807 32.1152L26.3692 32.1043C26.373 32.1043 26.3769 32.1079 26.3807 32.1079C26.3692 32.0462 26.3267 32.0098 26.2649 31.988C26.2649 31.9917 26.2688 31.9917 26.2688 31.9953L26.2572 31.9844C26.261 31.9844 26.261 31.988 26.2649 31.988C26.2456 31.9372 26.2031 31.9008 26.1529 31.8717C26.1529 31.8754 26.1568 31.8754 26.1568 31.8754L26.149 31.8681C26.149 31.8681 26.1529 31.8681 26.1529 31.8717C26.1259 31.8245 26.0834 31.7918 26.0486 31.7518C25.9753 31.701 25.9984 31.5883 25.9096 31.552C25.9096 31.5556 25.9135 31.5556 25.9135 31.5593L25.898 31.5447C25.9019 31.5447 25.9058 31.5484 25.9096 31.5484C25.898 31.4902 25.8517 31.4575 25.8092 31.4212V31.4248C25.7397 31.3667 25.7629 31.2577 25.6779 31.2104C25.6779 31.2141 25.6779 31.2141 25.6818 31.2177L25.6741 31.2068C25.6779 31.2068 25.6779 31.2104 25.6779 31.2104C25.6316 31.1378 25.647 31.0397 25.5582 30.9924C25.5582 30.9961 25.5582 30.9961 25.5621 30.9997L25.5544 30.9888C25.5582 30.9888 25.5582 30.9924 25.5621 30.9924C25.5235 30.9198 25.5312 30.8217 25.4462 30.7672C25.4462 30.7708 25.4462 30.7708 25.4501 30.7744L25.4424 30.7635C25.4462 30.7635 25.4462 30.7672 25.4462 30.7672C25.4037 30.6909 25.4115 30.5964 25.3381 30.5346V30.5382C25.2338 30.4474 25.3342 30.2875 25.2145 30.204L25.2184 30.2112C25.1218 30.1131 25.2068 29.9678 25.1103 29.8697C25.0794 29.8479 25.0755 29.8224 25.0948 29.7897C24.9944 29.6444 25.1025 29.4591 24.9944 29.3138C24.9674 29.2847 24.9635 29.2556 24.9828 29.2193C24.8901 28.4998 24.8979 27.7804 24.979 27.061C24.9867 26.9956 24.9906 26.9338 24.9983 26.8684C25.1141 26.6904 24.979 26.4723 25.0987 26.2943C25.0794 26.2616 25.0832 26.2325 25.1141 26.2035C25.2261 26.0654 25.1103 25.8801 25.2184 25.7384C25.1991 25.7057 25.2068 25.673 25.2338 25.6475C25.3188 25.5422 25.2531 25.3968 25.3342 25.2878C25.3149 25.2551 25.3227 25.226 25.3535 25.2042C25.4462 25.1061 25.3651 24.9608 25.4578 24.8627L25.4539 24.87C25.5698 24.7682 25.4926 24.6156 25.5698 24.503C25.5544 24.4739 25.5582 24.4485 25.5891 24.4267C25.6509 24.3467 25.647 24.2486 25.6856 24.1651C25.6702 24.136 25.6741 24.1106 25.705 24.096C25.7667 24.0197 25.7629 23.9216 25.8015 23.8344C25.7861 23.8053 25.7938 23.7799 25.8247 23.7617C25.8826 23.6963 25.871 23.6055 25.9212 23.5365L25.9251 23.5292C25.9251 23.5328 25.9212 23.5328 25.9212 23.5365C26.0486 23.4565 25.9367 23.293 26.0564 23.2131V23.2094C26.1182 23.144 26.1066 23.0496 26.1606 22.9842L26.1645 22.9769C26.1645 22.9805 26.1606 22.9805 26.1606 22.9842C26.2379 22.926 26.2301 22.8279 26.2726 22.7553L26.2688 22.7589L26.2765 22.748C26.2765 22.7516 26.2765 22.7516 26.2726 22.7553C26.3653 22.6935 26.3499 22.5881 26.3923 22.5045C26.3807 22.4718 26.3885 22.4464 26.4232 22.4319C26.4618 22.3846 26.5043 22.341 26.512 22.2756C26.5005 22.2429 26.5082 22.2211 26.5429 22.2102C26.57 22.1666 26.6163 22.1376 26.6279 22.0831C26.624 22.0867 26.624 22.0903 26.6202 22.0903L26.6318 22.0758C26.6318 22.0794 26.6318 22.0794 26.6279 22.0831C26.7129 22.0358 26.7013 21.9377 26.7476 21.8687L26.7437 21.8723L26.7515 21.8614C26.7515 21.8614 26.7515 21.865 26.7476 21.8687C26.8326 21.8178 26.8171 21.7161 26.8712 21.6543L26.875 21.647C26.875 21.647 26.875 21.6507 26.8712 21.6507C26.9484 21.5998 26.9214 21.4908 26.9986 21.4363V21.4327C27.0334 21.3891 27.0797 21.3564 27.0952 21.3019C27.0913 21.3055 27.0913 21.3091 27.0836 21.3091L27.0952 21.2946C27.0952 21.2982 27.0952 21.2982 27.0913 21.2982C27.1762 21.2546 27.1569 21.1456 27.2226 21.0911L27.2187 21.0947C27.2612 21.0584 27.3075 21.0221 27.3191 20.9676C27.3153 20.9676 27.3114 20.9712 27.3075 20.9748L27.323 20.9603C27.323 20.9639 27.3191 20.9639 27.3191 20.9676C27.4118 20.9276 27.3886 20.815 27.4543 20.7605V20.7641C27.4968 20.7278 27.5392 20.6914 27.5586 20.6369C27.5547 20.6406 27.5547 20.6442 27.5508 20.6442L27.5624 20.6297C27.5624 20.6333 27.5586 20.6333 27.5586 20.6369C27.6435 20.597 27.6203 20.4843 27.6976 20.4407L27.7014 20.4334C27.7285 20.3898 27.7709 20.3571 27.8018 20.3135L27.8057 20.3063C27.8057 20.3099 27.8018 20.3099 27.8018 20.3099C27.852 20.2772 27.8945 20.2409 27.9138 20.1827C27.91 20.1864 27.9061 20.19 27.9022 20.1936L27.9138 20.1827C27.9138 20.1827 27.9138 20.1827 27.9138 20.1864C28.0297 20.1064 28.0644 19.9684 28.1687 19.8811L28.1726 19.8775C28.2034 19.8339 28.2459 19.8012 28.2807 19.7612L28.2768 19.7649C28.3193 19.7285 28.3618 19.6922 28.3888 19.6486C28.3888 19.6486 28.3888 19.6486 28.3849 19.6522L28.3927 19.645L28.3888 19.6486C28.4352 19.6195 28.4776 19.5832 28.5047 19.5323C28.5008 19.5323 28.5008 19.536 28.5008 19.536L28.5124 19.5251C28.5124 19.5287 28.5085 19.5287 28.5085 19.5323C28.5587 19.5069 28.6012 19.4706 28.6244 19.4197C28.6205 19.4197 28.6205 19.4233 28.6166 19.4233L28.6282 19.4124C28.6282 19.4161 28.6244 19.4161 28.6244 19.4197C28.6784 19.3979 28.7209 19.3616 28.7402 19.3071C28.7364 19.3071 28.7364 19.3107 28.7325 19.3107L28.7441 19.2998C28.7441 19.3034 28.7402 19.3034 28.7402 19.3071C28.7981 19.2889 28.8368 19.2526 28.8599 19.1944C28.8561 19.1944 28.8561 19.198 28.8522 19.198L28.8638 19.1871C28.8638 19.1908 28.8599 19.1908 28.8599 19.1944C28.9179 19.1762 28.9565 19.1399 28.9796 19.0818C28.9758 19.0818 28.9758 19.0854 28.9719 19.0854L28.9835 19.0745C28.9835 19.0781 28.9796 19.0781 28.9796 19.0818C29.0376 19.0636 29.0762 19.0273 29.0994 18.9728C29.0955 18.9728 29.0955 18.9764 29.0916 18.9764L29.1032 18.9655C29.1032 18.9691 29.0994 18.9691 29.0994 18.9728C29.1573 18.9546 29.1959 18.9146 29.2229 18.8638C29.2191 18.8638 29.2191 18.8674 29.2152 18.8674L29.2268 18.8565C29.2268 18.8601 29.2229 18.8601 29.2229 18.8638C29.277 18.8383 29.3156 18.802 29.3465 18.7548C29.3426 18.7548 29.3426 18.7584 29.3426 18.7584L29.3504 18.7511L29.3465 18.7548C29.3967 18.7293 29.4353 18.6894 29.4701 18.6494L29.4662 18.653L29.4701 18.6494C29.5126 18.6167 29.5512 18.5803 29.5936 18.5476C29.6902 18.4532 29.8408 18.4241 29.918 18.3042C29.918 18.3042 29.918 18.3042 29.9142 18.3042L29.9257 18.2897C29.9219 18.2933 29.918 18.2969 29.9142 18.3006C29.9798 18.2897 30.0184 18.2461 30.0493 18.1952C30.0455 18.1952 30.0455 18.1988 30.0416 18.1988L30.0493 18.1916C30.0493 18.1916 30.0493 18.1952 30.0455 18.1952C30.0957 18.1734 30.1304 18.1298 30.1729 18.0971C30.227 18.0317 30.3505 18.0535 30.3853 17.9627C30.3814 17.9627 30.3814 17.9627 30.3776 17.9663L30.393 17.9518C30.393 17.9554 30.3891 17.959 30.3891 17.9627C30.4548 17.9554 30.4934 17.9118 30.5243 17.8645C30.5204 17.8645 30.5204 17.8682 30.5166 17.8682L30.5243 17.8609C30.5243 17.8609 30.5243 17.8609 30.5243 17.8645C30.5745 17.8427 30.6054 17.7991 30.6517 17.7737L30.6595 17.7701C30.7097 17.6938 30.8255 17.7192 30.8719 17.6429C30.868 17.6429 30.868 17.6465 30.868 17.6465L30.8796 17.6393C30.8796 17.6429 30.8757 17.6429 30.8719 17.6465C30.9221 17.6247 30.9568 17.5811 31.007 17.5557L31.0147 17.5521C31.0649 17.4758 31.1808 17.5012 31.2349 17.4285C31.2349 17.4285 31.231 17.4285 31.231 17.4322L31.2387 17.4285C31.3044 17.3777 31.4125 17.3886 31.4627 17.3123C31.4588 17.3123 31.4588 17.3123 31.4588 17.3159L31.4743 17.305C31.4704 17.3086 31.4666 17.3086 31.4666 17.3123C31.5206 17.3013 31.5554 17.2577 31.6017 17.2287L31.6249 17.1996L31.6635 17.2032C31.7369 17.1996 31.7871 17.1524 31.8411 17.1088H31.845C31.9029 17.0361 32.011 17.0579 32.0767 16.9961C32.1385 16.9271 32.2466 16.9453 32.3123 16.8871H32.3161C32.3702 16.8145 32.4744 16.8399 32.544 16.789L32.5787 16.76L32.625 16.7636C32.7139 16.7236 32.822 16.7309 32.8954 16.6582L32.8876 16.6619C32.9571 16.6037 33.0576 16.6219 33.1309 16.5674L33.1695 16.5383L33.2159 16.5419C33.3008 16.4983 33.4051 16.5092 33.4862 16.4475L33.521 16.422L33.5634 16.4293C33.6522 16.393 33.7565 16.393 33.8376 16.3421L33.8801 16.3167L33.9303 16.3239C34.0423 16.2404 34.1967 16.313 34.3087 16.2258L34.3473 16.2004L34.3937 16.2113C34.5134 16.1423 34.664 16.1968 34.7799 16.1241C34.8416 16.1168 34.9034 16.1096 34.9652 16.0987C35.1313 16.0187 35.3243 16.0987 35.4865 16.0115C35.556 16.0042 35.6256 16.0006 35.6951 15.9933C36.1276 15.8661 36.5871 16.0224 37.0196 15.9025C37.1007 15.9025 37.1779 15.8988 37.259 15.8988C37.6915 16.026 38.1511 15.8625 38.5836 15.9933L38.6299 15.9788L38.6724 16.0006C38.8539 16.1277 39.0895 15.9788 39.2671 16.1059H39.2632C39.3791 16.204 39.5413 16.1423 39.6648 16.2077L39.7035 16.1968L39.7344 16.2222C39.8193 16.284 39.9274 16.2876 40.024 16.3167L40.0626 16.3094L40.0896 16.3348C40.1591 16.3966 40.2557 16.3821 40.3329 16.4293C40.3329 16.4293 40.3329 16.4293 40.3291 16.4293L40.3368 16.4329C40.3329 16.4329 40.3329 16.4293 40.3291 16.4293C40.3908 16.5056 40.4912 16.4947 40.5685 16.5383C40.5685 16.5347 40.5646 16.5347 40.5646 16.5347L40.5762 16.5419C40.5723 16.5419 40.5723 16.5419 40.5685 16.5383C40.6225 16.6183 40.7268 16.6074 40.8002 16.651L40.7963 16.6473L40.804 16.6546C40.804 16.6546 40.8002 16.6546 40.7963 16.651C40.8504 16.7273 40.9624 16.7091 41.0242 16.7745C41.0628 16.8108 41.1014 16.8544 41.1593 16.869C41.1593 16.8653 41.1554 16.8617 41.1554 16.8581L41.1709 16.869C41.167 16.869 41.167 16.8653 41.1632 16.8653C41.2057 16.9489 41.3254 16.9235 41.3756 16.9961L41.3794 16.9998C41.4258 17.0288 41.4605 17.0688 41.503 17.0979L41.5069 17.1015L41.503 17.0979C41.5378 17.1415 41.5764 17.1814 41.6266 17.2032C41.6266 17.1996 41.6227 17.1996 41.6227 17.1996L41.6343 17.2069C41.6304 17.2069 41.6304 17.2032 41.6266 17.2032C41.6536 17.2505 41.6922 17.2904 41.7463 17.3123C41.7463 17.3086 41.7424 17.3086 41.7424 17.305L41.754 17.3159C41.7501 17.3159 41.7501 17.3123 41.7463 17.3123C41.7733 17.3631 41.8119 17.3995 41.866 17.4249C41.866 17.4213 41.8621 17.4213 41.8621 17.4176L41.8737 17.4285C41.8699 17.4285 41.8699 17.4249 41.866 17.4249C41.893 17.4758 41.9316 17.5121 41.9818 17.5375C41.9818 17.5339 41.978 17.5339 41.978 17.5339L41.9857 17.5412L41.9818 17.5375C42.0089 17.5848 42.0514 17.6211 42.0938 17.6574L42.09 17.6538C42.1286 17.6901 42.1633 17.7301 42.1942 17.7737L42.202 17.781C42.2831 17.8209 42.2599 17.93 42.341 17.9736C42.341 17.9736 42.341 17.9699 42.3371 17.9699L42.3487 17.9808C42.3448 17.9808 42.3448 17.9772 42.341 17.9736C42.3603 18.0281 42.4066 18.0571 42.4414 18.1007L42.4452 18.1044C42.5225 18.1552 42.4954 18.2642 42.5727 18.3187L42.5688 18.3151C42.6306 18.3805 42.6113 18.4822 42.6924 18.5404C42.6924 18.5367 42.6924 18.5367 42.6885 18.5331L42.6924 18.5404C42.6924 18.5404 42.6924 18.5404 42.6924 18.5367C42.7426 18.6058 42.731 18.7039 42.8044 18.762L42.8005 18.7584C42.8662 18.8202 42.8469 18.9183 42.9048 18.9837C42.9357 19.0018 42.9434 19.0273 42.928 19.06C42.9666 19.1435 42.9627 19.2416 43.0245 19.318C43.0554 19.3361 43.0631 19.3616 43.0438 19.3906C43.0979 19.5287 43.0901 19.7031 43.2909 19.754C43.4454 19.7467 43.6037 19.7322 43.7582 19.7322C48.315 19.7322 52.8679 19.7322 57.4246 19.7322C57.5598 19.7322 57.6988 19.7467 57.8339 19.754C58.0888 19.565 57.8533 19.2744 58 19.0636C58 18.5658 58 18.0717 58 17.5739C57.8339 17.3159 57.9768 17.0615 57.861 16.8435Z" fill="white"/>
</g>
<defs>
<filter id="filter0_d_11657_2938" x="0" y="0" width="68" height="54" filterUnits="userSpaceOnUse" color-interpolation-filters="sRGB">
<feFlood flood-opacity="0" result="BackgroundImageFix"/>
<feColorMatrix in="SourceAlpha" type="matrix" values="0 0 0 0 0 0 0 0 0 0 0 0 0 0 0 0 0 0 127 0" result="hardAlpha"/>
<feOffset dy="2"/>
<feGaussianBlur stdDeviation="5"/>
<feComposite in2="hardAlpha" operator="out"/>
<feColorMatrix type="matrix" values="0 0 0 0 0 0 0 0 0 0 0 0 0 0 0 0 0 0 0.5 0"/>
<feBlend mode="normal" in2="BackgroundImageFix" result="effect1_dropShadow_11657_2938"/>
<feBlend mode="normal" in="SourceGraphic" in2="effect1_dropShadow_11657_2938" result="shape"/>
</filter>
</defs>
</svg>
