<svg width="71" height="53" viewBox="0 0 71 53" fill="none" xmlns="http://www.w3.org/2000/svg">
<g id="5_N" filter="url(#filter0_d_11648_3082)">
<path d="M60.441 8.03038C56.4787 8.02294 52.5203 8.02294 48.558 8.02665C48.3931 8.02665 48.2089 7.96714 48.0593 8.09733C47.9481 8.19775 48.021 8.35397 47.9481 8.46928C47.9673 8.49531 47.9635 8.51763 47.9328 8.53622C47.8369 8.64409 47.9059 8.79659 47.8292 8.9119C47.8484 8.94537 47.8407 8.97141 47.81 8.99373C47.718 9.09415 47.7985 9.24293 47.7065 9.34336L47.7103 9.33592C47.6719 9.36568 47.6489 9.40659 47.6451 9.45494C47.6336 9.57024 47.6758 9.68927 47.5875 9.79342V9.7897C47.484 9.90128 47.5492 10.0575 47.4802 10.1765C47.4993 10.2026 47.4955 10.2249 47.4648 10.2435C47.3651 10.3513 47.438 10.5038 47.3613 10.6191C47.3804 10.6526 47.3727 10.6787 47.3421 10.6973C47.25 10.7977 47.3306 10.9465 47.2385 11.0469L47.2423 11.0394C47.2001 11.0692 47.181 11.1101 47.1733 11.1585C47.1618 11.2738 47.2001 11.3965 47.1158 11.4969L47.1196 11.4932C47.0122 11.6048 47.0812 11.761 47.0122 11.8801C47.0314 11.9061 47.0275 11.9284 46.9969 11.9433C46.8971 12.0511 46.97 12.2037 46.8933 12.319C46.9125 12.3524 46.9048 12.3785 46.8741 12.3971C46.7821 12.4975 46.8626 12.6463 46.7705 12.7467L46.7744 12.7393C46.7322 12.769 46.713 12.8099 46.7053 12.8583C46.6938 12.9736 46.7322 13.0963 46.6478 13.1968L46.6516 13.193C46.5442 13.3046 46.6133 13.4608 46.5442 13.5799C46.5634 13.6059 46.5596 13.6282 46.5289 13.6468C46.4292 13.7547 46.5021 13.9072 46.4253 14.0225C46.4445 14.0522 46.4368 14.082 46.41 14.1006C46.3179 14.2047 46.3947 14.3572 46.3064 14.4651C46.3218 14.4986 46.3179 14.5321 46.2872 14.5581C46.2028 14.6585 46.2834 14.8073 46.1875 14.904L46.1913 14.8966C46.0839 15.0082 46.1492 15.1644 46.0801 15.2834C46.0993 15.3094 46.0955 15.3317 46.0648 15.3466C45.965 15.4545 46.0379 15.6107 45.9612 15.7223C45.9804 15.7521 45.9727 15.7781 45.9459 15.8004C45.8538 15.9046 45.9305 16.0571 45.8423 16.1649C45.8576 16.1984 45.8538 16.2319 45.8231 16.2579C45.7387 16.3583 45.8193 16.5071 45.7234 16.6038L45.7272 16.5964C45.6198 16.708 45.685 16.8642 45.616 16.9832C45.6352 17.0092 45.6313 17.0316 45.6007 17.0464C45.5009 17.1543 45.5738 17.3105 45.4932 17.4221C45.5124 17.4519 45.5048 17.4779 45.4779 17.5002C45.3858 17.6044 45.4626 17.7569 45.3743 17.8647C45.3897 17.8982 45.3858 17.9317 45.3552 17.9577C45.2708 18.0581 45.3513 18.2069 45.2554 18.3036L45.2593 18.2962C45.1519 18.4078 45.2171 18.564 45.148 18.6867L45.1595 18.7202L45.1327 18.7462C45.033 18.8541 45.102 19.0103 45.0253 19.1256C45.0445 19.1554 45.0368 19.1814 45.01 19.2037C44.9179 19.3079 44.9908 19.4604 44.9064 19.5683C44.9217 19.6017 44.9179 19.6352 44.8872 19.6575C44.799 19.7579 44.8795 19.9067 44.7836 20.0034L44.7875 19.996C44.6801 20.1076 44.7453 20.2638 44.6763 20.3865L44.6877 20.42L44.6609 20.4461C44.5612 20.5539 44.6302 20.7101 44.5535 20.8254C44.5727 20.8552 44.565 20.8812 44.5382 20.9036C44.4461 21.0077 44.519 21.1602 44.4346 21.2681C44.4499 21.3015 44.4461 21.335 44.4154 21.3573C44.3272 21.4578 44.4077 21.6065 44.3119 21.7032L44.3157 21.6958C44.2083 21.8074 44.2735 21.9636 44.2044 22.0864L44.216 22.1198L44.1891 22.1459C44.0894 22.2575 44.1584 22.4099 44.0855 22.5253C44.1047 22.555 44.0971 22.581 44.0702 22.5996C43.9743 22.7038 44.051 22.8563 43.9666 22.9642C43.982 22.9976 43.9781 23.0274 43.9475 23.0534C43.8592 23.1539 43.9398 23.3026 43.8439 23.4031L43.8477 23.3956C43.7403 23.5072 43.8017 23.6634 43.7365 23.7862L43.748 23.8196L43.7211 23.8457C43.6176 23.9535 43.6905 24.1098 43.6138 24.2251C43.6329 24.2548 43.6252 24.2809 43.5984 24.2995C43.5025 24.4036 43.5792 24.5561 43.4949 24.664C43.5102 24.6974 43.5064 24.7272 43.4757 24.7532C43.3875 24.8537 43.468 25.0024 43.3721 25.0991L43.3759 25.0917C43.2685 25.2033 43.3299 25.3595 43.2647 25.4823L43.2762 25.5157L43.2494 25.5418C43.1458 25.6496 43.2187 25.8059 43.142 25.9212C43.1612 25.9509 43.1535 25.9769 43.1266 25.9955C43.0537 26.0625 43.0921 26.1778 43.0346 26.2522C43.0614 26.2857 43.0576 26.3229 43.023 26.3638C43.0384 26.3973 43.0346 26.427 43.0039 26.4493C42.977 26.4828 42.9425 26.5051 42.9003 26.52C42.8735 26.52 42.8505 26.5163 42.8274 26.5126C42.8159 26.5237 42.8044 26.5349 42.7929 26.546C42.7891 26.5312 42.7929 26.5163 42.7891 26.5014C42.7852 26.4977 42.7814 26.4977 42.7737 26.4977C42.7239 26.4568 42.7085 26.3898 42.6663 26.3452C42.6318 26.3229 42.6203 26.2894 42.628 26.2522C42.6318 26.2522 42.6318 26.2522 42.6357 26.2522C42.6011 26.1704 42.6088 26.0737 42.5282 26.0104C42.5282 26.0141 42.5321 26.0141 42.5321 26.0179L42.5282 26.0104C42.4784 25.9398 42.486 25.843 42.4247 25.7761C42.3096 25.6943 42.4208 25.5232 42.2904 25.4451C42.2904 25.4488 42.2943 25.4525 42.2943 25.4525L42.2866 25.4413C42.2866 25.4413 42.2866 25.4413 42.2904 25.4451C42.2482 25.3707 42.2559 25.274 42.1869 25.2107V25.2145C42.1217 25.1475 42.1293 25.0657 42.1255 24.9838C42.1102 24.9838 42.0987 24.9838 42.0833 24.9838C42.0488 24.9578 42.0373 24.9243 42.0449 24.8834C42.0449 24.8834 42.0488 24.8834 42.0488 24.8871C42.0104 24.809 42.0181 24.7123 41.9414 24.6491L41.9452 24.6565C41.8838 24.5896 41.903 24.4891 41.8417 24.4222C41.811 24.4073 41.8033 24.385 41.8186 24.3515C41.7803 24.2623 41.788 24.1544 41.7036 24.0837C41.7036 24.0874 41.7074 24.0874 41.7074 24.0912L41.7036 24.0837C41.6537 24.0131 41.6614 23.9163 41.6 23.8531V23.8494C41.4849 23.7676 41.5923 23.5965 41.4657 23.5184C41.4657 23.5221 41.4696 23.5258 41.4696 23.5258L41.4619 23.5146C41.4619 23.5146 41.4619 23.5146 41.4657 23.5184C41.4236 23.444 41.4312 23.3473 41.3622 23.284V23.2878C41.297 23.2208 41.3046 23.139 41.3008 23.0571C41.2855 23.0571 41.274 23.0571 41.2586 23.0571C41.2241 23.0311 41.2126 22.9976 41.2203 22.9567C41.2241 22.9567 41.2241 22.9567 41.2241 22.9604C41.1858 22.8823 41.1934 22.7856 41.1167 22.7224L41.1205 22.7298C41.0592 22.6629 41.0783 22.5625 41.017 22.4955C40.9863 22.4806 40.9786 22.4583 40.994 22.4248C40.9556 22.3356 40.9633 22.2277 40.8789 22.157C40.8789 22.1607 40.8827 22.1607 40.8827 22.1645L40.8789 22.157C40.829 22.0864 40.8367 21.9896 40.7753 21.9264V21.9227C40.6603 21.8409 40.7677 21.6698 40.6411 21.5917C40.6411 21.5954 40.6449 21.5991 40.6449 21.5991L40.6372 21.5879C40.6372 21.5879 40.6372 21.5879 40.6411 21.5917C40.5951 21.5173 40.6027 21.4243 40.5375 21.3573C40.4723 21.2904 40.48 21.2086 40.4762 21.1267C40.4608 21.1267 40.4493 21.1267 40.4339 21.1267C40.3994 21.1007 40.3879 21.0672 40.3994 21.0263L40.4033 21.03C40.3611 20.9519 40.3726 20.8552 40.2959 20.792L40.2997 20.7957C40.2383 20.7287 40.2575 20.6283 40.1961 20.5614C40.1654 20.5465 40.1578 20.5242 40.1731 20.4907C40.1348 20.4014 40.1424 20.2936 40.058 20.2229C40.058 20.2266 40.0619 20.2266 40.0619 20.2303L40.058 20.2229C40.0082 20.1522 40.0158 20.0555 39.9545 19.9923V19.9886C39.8394 19.9067 39.9468 19.7356 39.8202 19.6575C39.8202 19.6612 39.8241 19.665 39.8241 19.665L39.8164 19.6538C39.8164 19.6538 39.8164 19.6538 39.8202 19.6575C39.7742 19.5831 39.7819 19.4901 39.7167 19.4232C39.6515 19.3562 39.6591 19.2744 39.6553 19.1926C39.6438 19.1926 39.6285 19.1926 39.617 19.1926C39.6054 19.1591 39.5939 19.1256 39.5824 19.0884L39.5863 19.0922C39.5441 19.014 39.5517 18.9173 39.4789 18.8541L39.4827 18.8578C39.4213 18.7909 39.4405 18.6942 39.3791 18.6272C39.3484 18.6123 39.3408 18.5863 39.3561 18.5566C39.3177 18.4673 39.3254 18.3594 39.241 18.2887C39.241 18.2925 39.2449 18.2925 39.2449 18.2962L39.241 18.2887C39.1912 18.2181 39.1989 18.1251 39.1375 18.0581V18.0544C39.0186 17.9726 39.1298 17.8015 39.0032 17.7234C39.0032 17.7271 39.0071 17.7308 39.0071 17.7308L38.9994 17.7197C38.9994 17.7197 38.9994 17.7197 39.0032 17.7197C38.9572 17.6453 38.9649 17.5523 38.8997 17.4853C38.8344 17.4184 38.8421 17.3366 38.8383 17.2547C38.8268 17.2547 38.8115 17.2547 38.7999 17.2547C38.7884 17.2213 38.7769 17.1878 38.7654 17.1506L38.7693 17.1543C38.7271 17.0762 38.7347 16.9795 38.6618 16.9163L38.6657 16.92C38.6043 16.853 38.6235 16.7563 38.5621 16.6894C38.5315 16.6745 38.5238 16.6485 38.5391 16.6187C38.5008 16.5294 38.5084 16.4216 38.424 16.3509L38.4279 16.3583C38.3703 16.2877 38.3857 16.1872 38.3243 16.1203C38.2936 16.1091 38.2859 16.0868 38.3013 16.0608C38.2706 15.9678 38.2744 15.8599 38.1862 15.7855C38.1862 15.7892 38.1901 15.7892 38.1901 15.793L38.1824 15.7818C38.1824 15.7818 38.1824 15.7855 38.1862 15.7855C38.1402 15.7111 38.1479 15.6181 38.0827 15.5512C38.0136 15.488 38.0251 15.4024 38.0213 15.3243C38.0098 15.3243 37.9944 15.3243 37.9829 15.3243C37.9714 15.2908 37.9599 15.2574 37.9484 15.2202L37.9522 15.2239C37.9101 15.1458 37.9177 15.0491 37.8448 14.9858L37.8487 14.9896C37.7835 14.9263 37.8027 14.8259 37.7451 14.7589C37.7144 14.7441 37.7068 14.718 37.7221 14.6883C37.6838 14.599 37.6914 14.4911 37.607 14.4205L37.6109 14.4279C37.5533 14.3572 37.5687 14.2568 37.5073 14.1899C37.4766 14.1787 37.469 14.1564 37.4843 14.1304C37.4536 14.0374 37.4574 13.9295 37.3692 13.8551C37.3692 13.8588 37.3731 13.8588 37.3731 13.8625L37.3654 13.8514C37.3654 13.8514 37.3654 13.8551 37.3692 13.8551C37.3232 13.7807 37.3309 13.6877 37.2657 13.6208C37.1544 13.5352 37.2618 13.3641 37.1314 13.2897C37.1314 13.2935 37.1352 13.2972 37.1352 13.2972L37.1276 13.286L37.1314 13.2897C37.0892 13.2154 37.0969 13.1186 37.0279 13.0554V13.0591C36.9626 12.9959 36.9818 12.8955 36.9243 12.8285C36.8936 12.8136 36.8859 12.7876 36.8974 12.7579C36.8591 12.6686 36.8668 12.5607 36.7862 12.4901L36.79 12.4975C36.7325 12.4305 36.7478 12.3264 36.6865 12.2594C36.6558 12.2446 36.6481 12.226 36.6635 12.1962C36.6289 12.1032 36.6366 11.9954 36.5484 11.9247C36.5484 11.9284 36.5522 11.9284 36.5522 11.9321L36.5484 11.921C36.5484 11.921 36.5484 11.921 36.5522 11.9247C36.5062 11.8503 36.5139 11.7573 36.4487 11.6904C36.3374 11.6048 36.4448 11.4337 36.3144 11.3593C36.3144 11.363 36.3182 11.3668 36.3182 11.3668L36.3106 11.3556L36.3144 11.3593C36.2722 11.2849 36.2799 11.1882 36.2108 11.125V11.1287C36.1456 11.0655 36.1648 10.9651 36.1073 10.8981C36.0766 10.8832 36.0689 10.8572 36.0804 10.8274C36.0421 10.7382 36.0497 10.6303 35.9692 10.5596L35.973 10.5671C35.9155 10.5001 35.9308 10.3997 35.8695 10.3327C35.8388 10.3179 35.8311 10.2993 35.8464 10.2695C35.8119 10.1765 35.8196 10.0687 35.7314 9.99799C35.7314 10.0017 35.7352 10.0017 35.7352 10.0054L35.7314 9.99427C35.7314 9.99427 35.7314 9.99427 35.7314 9.99799C35.6854 9.92732 35.693 9.83061 35.6278 9.76366C35.5127 9.68183 35.624 9.51073 35.4936 9.43262C35.4936 9.43634 35.4974 9.44006 35.4974 9.44006L35.4897 9.42891L35.4936 9.43262C35.4514 9.35823 35.459 9.26153 35.39 9.1983V9.20202C35.3248 9.13135 35.3363 9.0458 35.3286 8.96025C35.3171 8.91934 35.2941 8.88958 35.2557 8.87098V8.8747L35.2481 8.86726C35.2519 8.86726 35.2519 8.87098 35.2557 8.87098C35.2174 8.79287 35.2289 8.69244 35.1483 8.62921L35.1522 8.63665C35.0908 8.5697 35.11 8.46928 35.0486 8.40233C35.0179 8.38745 35.0103 8.36885 35.0256 8.33909C34.9911 8.2461 35.0026 8.1308 34.899 8.06757L34.9182 8.08245C34.83 7.9783 34.7072 8.00434 34.5922 8.00434C29.5559 8.00434 24.5196 8.00434 19.4833 8.00434C19.2954 8.00434 19.0767 7.95227 19 8.20891C19.0192 8.23867 19.0115 8.2647 18.9847 8.28702C18.8926 8.39116 18.9655 8.54367 18.8811 8.65153C18.8965 8.68501 18.8926 8.71848 18.8619 8.7408C18.7737 8.84122 18.8543 8.99001 18.7584 9.08671L18.7622 9.07927C18.6548 9.19086 18.72 9.34708 18.651 9.46982L18.6625 9.5033L18.6356 9.52933C18.5359 9.6372 18.6049 9.79341 18.5282 9.90872C18.5474 9.93848 18.5397 9.96451 18.5129 9.98683C18.4208 10.091 18.4937 10.2435 18.4093 10.3513C18.4247 10.3848 18.4208 10.4183 18.3901 10.4406C18.3019 10.541 18.3825 10.6898 18.2866 10.7865L18.2904 10.7791C18.183 10.8907 18.2482 11.0469 18.1792 11.1696L18.1907 11.2031L18.1638 11.2291C18.0603 11.337 18.1331 11.4932 18.0564 11.6085C18.0756 11.6383 18.0679 11.6643 18.0411 11.6829C17.9452 11.7871 18.0219 11.9396 17.9375 12.0474C17.9529 12.0809 17.949 12.1107 17.9183 12.1367C17.8301 12.2371 17.9107 12.3859 17.8148 12.4863L17.8186 12.4789C17.7112 12.5905 17.7726 12.7467 17.7074 12.8694L17.7189 12.9029L17.692 12.929C17.5885 13.0368 17.6614 13.193 17.5846 13.3083C17.6038 13.3381 17.5961 13.3641 17.5693 13.3827C17.4734 13.4869 17.5501 13.6394 17.4657 13.7472C17.4811 13.7807 17.4772 13.8105 17.4466 13.8365C17.3583 13.9369 17.4389 14.0857 17.343 14.1861L17.3468 14.1787C17.2394 14.2903 17.3008 14.4465 17.2356 14.5692L17.2471 14.6027L17.2203 14.6288C17.1167 14.7366 17.1896 14.8928 17.1129 15.0082C17.132 15.0379 17.1244 15.0639 17.0975 15.0825C17.0055 15.1904 17.0783 15.3392 16.9939 15.4508C17.0093 15.4842 17.0054 15.514 16.9748 15.5363C16.8865 15.6367 16.9671 15.7855 16.8712 15.886L16.875 15.8785C16.7331 16.005 16.8789 16.2058 16.7523 16.3323V16.3286C16.6526 16.4402 16.7178 16.5927 16.6449 16.7117C16.6641 16.7414 16.6602 16.7638 16.6296 16.7861C16.5337 16.8939 16.6104 17.0427 16.526 17.1543C16.5413 17.1878 16.5375 17.2175 16.5068 17.2399C16.4186 17.3403 16.4991 17.4891 16.4032 17.5895L16.4071 17.582C16.2652 17.7085 16.4109 17.9094 16.2843 18.0358V18.0321C16.1846 18.1437 16.2498 18.2962 16.1769 18.4152C16.1961 18.445 16.1923 18.4673 16.1616 18.4896C16.0657 18.5975 16.1424 18.7462 16.058 18.8578C16.0734 18.8913 16.0695 18.9211 16.0388 18.9434C15.9506 19.0438 16.0312 19.1926 15.9353 19.293L15.9391 19.2856C15.7972 19.412 15.943 19.6129 15.8164 19.7431V19.7394C15.7128 19.8509 15.7819 20.0034 15.709 20.1225C15.7282 20.1522 15.7243 20.1745 15.6936 20.1931C15.5977 20.301 15.6706 20.4535 15.5901 20.5614C15.6054 20.5948 15.6016 20.6246 15.5709 20.6469C15.4827 20.7473 15.5594 20.8924 15.4712 20.9928C15.4635 21.03 15.4558 21.0635 15.4481 21.1007C15.4366 21.1007 15.4213 21.1007 15.4098 21.1007C15.4098 21.1044 15.406 21.1081 15.406 21.1118C15.3906 21.2234 15.4366 21.3462 15.3446 21.4466V21.4429C15.241 21.5507 15.3101 21.707 15.2372 21.826C15.2564 21.8557 15.2525 21.8781 15.2218 21.8967C15.1259 22.0045 15.1988 22.157 15.1183 22.2649C15.1336 22.2984 15.1298 22.3281 15.0991 22.3504C15.0109 22.4509 15.0876 22.5959 14.9994 22.6964C14.9917 22.7335 14.984 22.767 14.9764 22.8042C14.9649 22.8042 14.9495 22.8042 14.938 22.8042C14.938 22.8079 14.9342 22.8117 14.9342 22.8154C14.9188 22.927 14.9648 23.0497 14.8728 23.1501V23.1464C14.7692 23.2543 14.8383 23.4105 14.7654 23.5295C14.7846 23.5593 14.7807 23.5816 14.7501 23.6002C14.6542 23.7081 14.727 23.8606 14.6465 23.9684C14.6618 24.0019 14.658 24.0316 14.6273 24.054C14.5391 24.1544 14.6158 24.2995 14.5276 24.3999C14.5199 24.4371 14.5122 24.4706 14.5046 24.5077C14.4931 24.5077 14.4777 24.5077 14.4662 24.5077C14.4662 24.5115 14.4624 24.5152 14.4624 24.5189C14.447 24.6305 14.4931 24.7532 14.4048 24.8574V24.8537C14.3013 24.9615 14.3665 25.1177 14.2974 25.2368C14.3166 25.2665 14.3128 25.2888 14.2821 25.3074C14.1862 25.4153 14.2591 25.5678 14.1785 25.6794C14.1977 25.7129 14.19 25.7389 14.1594 25.7649C14.0711 25.8654 14.1478 26.0104 14.0596 26.1108C14.052 26.148 14.0443 26.1815 14.0366 26.2187C14.0251 26.2187 14.0098 26.2187 13.9982 26.2187C13.9982 26.2224 13.9944 26.2262 13.9944 26.2299C13.9791 26.3415 14.0251 26.4642 13.9369 26.5683V26.5646C13.8333 26.6725 13.8985 26.8287 13.8295 26.9477C13.8487 26.9775 13.8448 26.9998 13.8141 27.0184C13.7182 27.1263 13.7911 27.2788 13.7106 27.3904C13.7297 27.4238 13.7221 27.4499 13.6914 27.4759C13.6032 27.5763 13.6799 27.7214 13.5917 27.8218C13.584 27.859 13.5763 27.8925 13.5687 27.9297C13.5571 27.9297 13.5418 27.9297 13.5303 27.9297C13.5303 27.9334 13.5265 27.9371 13.5265 27.9408C13.5111 28.0524 13.5572 28.1752 13.4689 28.2793V28.2756C13.3654 28.3872 13.4306 28.5434 13.3615 28.6624C13.3807 28.6885 13.3769 28.7108 13.3462 28.7294C13.2503 28.8372 13.3193 28.9897 13.2426 29.105C13.2618 29.1385 13.2541 29.1646 13.2234 29.1869C13.1314 29.2873 13.2081 29.4324 13.1237 29.5328C13.116 29.57 13.1084 29.6035 13.1007 29.6407C13.0854 29.6407 13.0739 29.6407 13.0585 29.6407C13.0585 29.6444 13.0547 29.6481 13.0547 29.6518C13.0432 29.7671 13.0854 29.8861 12.9971 29.9903V29.9866C12.8936 30.0982 12.9588 30.2544 12.8897 30.3734C12.9089 30.3994 12.9051 30.4218 12.8744 30.4403C12.7785 30.5482 12.8475 30.7007 12.7708 30.816C12.79 30.8495 12.7823 30.8755 12.7516 30.8978C12.6596 30.9983 12.7363 31.1433 12.6519 31.2438C12.6443 31.281 12.6366 31.3144 12.6289 31.3516C12.6136 31.3516 12.6021 31.3516 12.5867 31.3516C12.5867 31.3553 12.5829 31.3591 12.5829 31.3628C12.5714 31.4781 12.6136 31.5971 12.5253 31.7013V31.6975C12.4218 31.8091 12.487 31.9653 12.4179 32.0844C12.4371 32.1104 12.4333 32.1327 12.4026 32.1513C12.3067 32.2592 12.3757 32.4117 12.299 32.527C12.3182 32.5605 12.3105 32.5865 12.2799 32.6088C12.1878 32.7092 12.2645 32.8543 12.1801 32.9547C12.1725 32.9919 12.1648 33.0254 12.1571 33.0626C12.1418 33.0626 12.1303 33.0626 12.1149 33.0626C12.1149 33.0663 12.1111 33.07 12.1111 33.0737C12.0996 33.1891 12.1379 33.3118 12.0536 33.4122L12.0574 33.4085C11.95 33.5201 12.019 33.6763 11.95 33.7953C11.9692 33.8214 11.9653 33.8437 11.9346 33.8586C11.8349 33.9664 11.9078 34.1189 11.8311 34.2342C11.8503 34.2677 11.8426 34.2937 11.8119 34.3123C11.7198 34.4128 11.7966 34.5578 11.7122 34.6583C11.7045 34.6955 11.6968 34.7289 11.6892 34.7661C11.6738 34.7661 11.6623 34.7661 11.647 34.7661C11.647 34.7698 11.6431 34.7736 11.6431 34.7773C11.6316 34.8926 11.67 35.0153 11.5856 35.1158L11.5894 35.112C11.482 35.2236 11.5511 35.3798 11.482 35.4989C11.5012 35.5249 11.4974 35.5472 11.4667 35.5621C11.367 35.67 11.4398 35.8225 11.3631 35.9378C11.3823 35.9712 11.3746 35.9973 11.3439 36.0159C11.2519 36.1163 11.3286 36.2614 11.2442 36.3618C11.2365 36.399 11.2289 36.4325 11.2212 36.4696C11.2059 36.4696 11.1944 36.4696 11.179 36.4696C11.179 36.4734 11.1752 36.4771 11.1752 36.4808C11.1637 36.5961 11.202 36.7189 11.1176 36.8193L11.1215 36.8156C11.0141 36.9272 11.0793 37.0834 11.0141 37.2024C11.0332 37.2284 11.0294 37.2507 10.9987 37.2656C10.899 37.3735 10.9719 37.5297 10.8913 37.6413C10.9105 37.671 10.9028 37.6971 10.876 37.7194C10.7839 37.8235 10.8607 37.976 10.7724 38.0839C10.7878 38.1174 10.7839 38.1509 10.7532 38.1769C10.6689 38.2773 10.7494 38.4261 10.6535 38.5228L10.6574 38.5154C10.55 38.627 10.6152 38.7832 10.5461 38.9022C10.5653 38.9282 10.5615 38.9506 10.5308 38.9654C10.431 39.0733 10.5039 39.2295 10.4234 39.3411C10.4426 39.3709 10.4349 39.3969 10.408 39.4192C10.316 39.5234 10.3927 39.6759 10.3045 39.7837C10.3198 39.8172 10.316 39.8507 10.2853 39.8767C10.2009 39.9771 10.2814 40.1259 10.1856 40.2226L10.1894 40.2152C10.082 40.3268 10.1472 40.483 10.0782 40.602C10.0973 40.628 10.0935 40.6504 10.0628 40.6652C9.98994 40.7843 9.95925 40.8959 10.0897 41C14.2437 41 18.4016 40.9963 22.5557 40.9963C22.7245 40.933 22.6094 40.7508 22.7053 40.6615C22.713 40.6243 22.7207 40.5909 22.7283 40.5537C22.7437 40.5537 22.7552 40.5537 22.7705 40.5537C22.7705 40.5499 22.7744 40.5462 22.7744 40.5425C22.7859 40.4272 22.7437 40.3082 22.8319 40.204V40.2077C22.9354 40.0962 22.8702 39.9399 22.9393 39.8209C22.9201 39.7949 22.9239 39.7726 22.9546 39.754C23.0505 39.6461 22.9815 39.4936 23.0582 39.3783C23.039 39.3448 23.0467 39.3188 23.0774 39.2965C23.1694 39.196 23.0927 39.051 23.1771 38.9506C23.1848 38.9134 23.1924 38.8799 23.2001 38.8427C23.2155 38.8427 23.227 38.8427 23.2423 38.8427C23.2423 38.839 23.2461 38.8353 23.2461 38.8315C23.2577 38.7162 23.2155 38.5972 23.3037 38.4931V38.4968C23.4072 38.3852 23.342 38.229 23.4111 38.1099C23.3919 38.0839 23.3957 38.0616 23.4264 38.043C23.5223 37.9351 23.4533 37.7826 23.53 37.6673C23.5108 37.6339 23.5185 37.6078 23.5492 37.5855C23.6412 37.4851 23.5645 37.34 23.6489 37.2396C23.6566 37.2024 23.6642 37.1689 23.6719 37.1317C23.6872 37.1317 23.6988 37.1317 23.7141 37.1317C23.7141 37.128 23.7179 37.1243 23.7179 37.1206C23.7295 37.0053 23.6911 36.8825 23.7755 36.7821L23.7716 36.7858C23.879 36.6742 23.81 36.518 23.879 36.399C23.8599 36.3729 23.8637 36.3506 23.8944 36.3357C23.9941 36.2279 23.9212 36.0754 23.9979 35.9601C23.9788 35.9266 23.9864 35.9006 24.0171 35.882C24.1092 35.7815 24.0325 35.6365 24.1168 35.5361C24.1245 35.4989 24.1322 35.4654 24.1399 35.4282C24.1552 35.4282 24.1667 35.4282 24.1821 35.4282C24.1821 35.4245 24.1859 35.4207 24.1859 35.417C24.1974 35.3017 24.159 35.179 24.2434 35.0786L24.2396 35.0823C24.347 34.9707 24.278 34.8145 24.347 34.6954C24.3278 34.6694 24.3317 34.6471 24.3623 34.6322C24.4621 34.5244 24.3892 34.3719 24.4659 34.2565C24.4467 34.2231 24.4544 34.197 24.4851 34.1784C24.5771 34.078 24.5004 33.933 24.5848 33.8325C24.5925 33.7953 24.6001 33.7619 24.6078 33.7247C24.6232 33.7247 24.6347 33.7247 24.65 33.7247C24.65 33.7209 24.6538 33.7172 24.6538 33.7135C24.6654 33.5982 24.627 33.4755 24.7114 33.375L24.7076 33.3825C24.8149 33.2709 24.7497 33.1147 24.8188 32.9956C24.7996 32.9696 24.8034 32.9473 24.8341 32.9324C24.9339 32.8245 24.861 32.6683 24.9415 32.5567C24.9223 32.527 24.93 32.5009 24.9569 32.4786C25.0489 32.3745 24.9722 32.222 25.0604 32.1141C25.0451 32.0806 25.0489 32.0472 25.0796 32.0211C25.164 31.9207 25.0835 31.7719 25.1793 31.6752L25.1755 31.6827C25.2829 31.5711 25.2177 31.4149 25.2867 31.2958C25.2676 31.2698 25.2714 31.2475 25.3021 31.2326C25.4018 31.1247 25.3289 30.9685 25.4057 30.8569C25.3865 30.8272 25.3941 30.8011 25.421 30.7788C25.513 30.6747 25.4363 30.5222 25.5245 30.4143C25.5092 30.3808 25.5131 30.3474 25.5437 30.3213C25.6281 30.2209 25.5476 30.0721 25.6435 29.9754L25.6396 29.9828C25.747 29.8713 25.6818 29.715 25.7509 29.596C25.7317 29.57 25.7355 29.5477 25.7662 29.5328C25.8659 29.4249 25.7969 29.2687 25.8736 29.1534C25.8544 29.1236 25.8621 29.0976 25.8889 29.0753C25.981 28.9711 25.9081 28.8186 25.9925 28.7108C25.9772 28.6773 25.981 28.6438 26.0117 28.6215C26.0999 28.5211 26.0194 28.3723 26.1153 28.2756L26.1114 28.283C26.2188 28.1715 26.1536 28.0152 26.2226 27.8925L26.2112 27.859L26.238 27.833C26.3377 27.7251 26.2687 27.5689 26.3454 27.4536C26.3262 27.4238 26.3339 27.3978 26.3608 27.3755C26.4528 27.2713 26.3799 27.1188 26.4643 27.011C26.449 26.9775 26.4528 26.944 26.4835 26.9217C26.5717 26.8213 26.4912 26.6725 26.587 26.5758L26.5832 26.5832C26.6906 26.4716 26.6254 26.3154 26.6945 26.1927L26.6829 26.1592L26.7098 26.1332C26.8095 26.0253 26.7405 25.8691 26.8172 25.7538C26.798 25.724 26.8057 25.698 26.8325 25.6757C26.9246 25.5678 26.8517 25.419 26.9361 25.3112C26.9208 25.2777 26.9246 25.2479 26.9553 25.2219C27.0435 25.1215 26.9629 24.9727 27.0588 24.8723L27.055 24.8797C27.1624 24.7681 27.101 24.6119 27.1662 24.4892L27.1547 24.4557L27.1816 24.4296C27.2851 24.3218 27.2123 24.1656 27.289 24.0502C27.2698 24.0205 27.2775 23.9945 27.3043 23.9759C27.4002 23.8717 27.3235 23.7192 27.4079 23.6114C27.3925 23.5779 27.3964 23.5481 27.4271 23.5221C27.5153 23.4217 27.4347 23.2729 27.5306 23.1762L27.5268 23.1836C27.6342 23.072 27.5728 22.9158 27.638 22.7931L27.6265 22.7596L27.6534 22.7335C27.7569 22.6257 27.6841 22.4695 27.7608 22.3542C27.7416 22.3244 27.7493 22.2984 27.7761 22.2798C27.872 22.224 27.7608 21.9711 28.0024 22.0566V22.0603C28.0753 22.1198 28.0638 22.2054 28.0676 22.2835C28.083 22.2835 28.0945 22.2835 28.1098 22.2835C28.1444 22.3058 28.1597 22.3393 28.1482 22.3802C28.1443 22.3802 28.1443 22.3802 28.1405 22.3765C28.175 22.4546 28.1635 22.555 28.2518 22.6108C28.2518 22.6071 28.2517 22.6071 28.2479 22.6034L28.2556 22.6145C28.2517 22.6145 28.2518 22.6108 28.2518 22.6108C28.2939 22.6852 28.2824 22.7856 28.363 22.8451C28.363 22.8414 28.363 22.8414 28.3591 22.8377L28.363 22.8451C28.363 22.8451 28.363 22.8451 28.3591 22.8414C28.409 22.9121 28.3975 23.0125 28.4704 23.072L28.4666 23.0683C28.5279 23.1353 28.5126 23.2394 28.5778 23.3026C28.6507 23.3621 28.6238 23.4663 28.689 23.5295C28.7197 23.5407 28.7274 23.563 28.7159 23.5928C28.7159 23.6523 28.7542 23.7006 28.7581 23.7601C28.7734 23.7601 28.7849 23.7601 28.8003 23.7601C28.8348 23.7862 28.8501 23.8196 28.8386 23.8606C28.8348 23.8606 28.8348 23.8606 28.8348 23.8568C28.8731 23.9349 28.8616 24.0317 28.946 24.0874C28.946 24.0837 28.946 24.0837 28.9422 24.08L28.9499 24.0912L28.946 24.0874C28.992 24.1618 28.9805 24.2623 29.0572 24.3218C29.0572 24.3181 29.0534 24.3181 29.0534 24.3143L29.0572 24.3218C29.1109 24.3924 29.0956 24.4892 29.1685 24.5524V24.5487C29.2337 24.6119 29.2145 24.716 29.2797 24.783V24.7867C29.3526 24.8425 29.3296 24.9466 29.3871 25.0099C29.4178 25.0248 29.4255 25.0471 29.414 25.0768C29.4523 25.1661 29.4408 25.274 29.5329 25.3372C29.5329 25.3335 29.5329 25.3335 29.529 25.3298L29.5367 25.3409C29.5329 25.3409 29.5329 25.3372 29.5329 25.3372C29.5751 25.4116 29.5636 25.512 29.6441 25.5678C29.6441 25.5641 29.6441 25.5641 29.6403 25.5604L29.6479 25.5678C29.6479 25.5678 29.648 25.5641 29.6441 25.5641C29.694 25.6385 29.6825 25.7352 29.7553 25.7947L29.7515 25.7873C29.8129 25.8542 29.7975 25.9584 29.8627 26.0216C29.9318 26.0848 29.9126 26.1852 29.974 26.2522V26.2559C30.0507 26.3154 30.0353 26.401 30.0392 26.4791C30.0545 26.4791 30.066 26.4791 30.0814 26.4791C30.1159 26.5051 30.1313 26.5349 30.1236 26.5795C30.1197 26.5795 30.1197 26.5795 30.1159 26.5758C30.1504 26.6539 30.1427 26.7506 30.2271 26.8101C30.2271 26.8064 30.2271 26.8064 30.2233 26.8027L30.231 26.8138C30.2271 26.8138 30.2271 26.8101 30.2271 26.8101C30.2732 26.8845 30.2617 26.9849 30.3384 27.0444C30.3384 27.0407 30.3384 27.0407 30.3345 27.037L30.3384 27.0444C30.3882 27.1151 30.3767 27.2155 30.4496 27.2751L30.4458 27.2713C30.511 27.3383 30.4918 27.4387 30.557 27.5057C30.6299 27.5615 30.6069 27.6656 30.6644 27.7288C30.6951 27.74 30.7028 27.7623 30.6913 27.7921C30.7258 27.8813 30.7143 27.9929 30.8102 28.0561C30.8102 28.0524 30.8102 28.0524 30.8063 28.0487L30.814 28.0599C30.8102 28.0599 30.8102 28.0561 30.8102 28.0561C30.8485 28.1343 30.8408 28.231 30.9214 28.2868C30.9214 28.283 30.9214 28.283 30.9175 28.2793L30.9252 28.2905C30.9252 28.2905 30.9252 28.2868 30.9214 28.2868C30.9674 28.3611 30.9559 28.4616 31.0326 28.5211L31.0288 28.5136C31.0863 28.5843 31.071 28.6847 31.1439 28.748V28.7443C31.2129 28.8075 31.1937 28.9079 31.2551 28.9749V28.9786C31.328 29.0381 31.3165 29.1236 31.3203 29.2018C31.3357 29.2018 31.3472 29.2018 31.3625 29.2018C31.397 29.2241 31.4124 29.2575 31.4047 29.2985C31.4009 29.2985 31.4008 29.2947 31.397 29.2947C31.4315 29.3729 31.4239 29.4733 31.5083 29.5291C31.5083 29.5253 31.5083 29.5254 31.5044 29.5216L31.5121 29.5328C31.5083 29.5328 31.5083 29.5291 31.5083 29.5291C31.5505 29.6035 31.5428 29.7039 31.6195 29.7597C31.6195 29.756 31.6195 29.756 31.6157 29.7522L31.6195 29.7597C31.6195 29.7597 31.6195 29.7597 31.6157 29.756C31.6655 29.8266 31.654 29.9271 31.7269 29.9866L31.7231 29.9828C31.7844 30.0498 31.7691 30.1539 31.8343 30.2172C31.9072 30.2767 31.8803 30.3808 31.9455 30.4441C31.9762 30.4552 31.9877 30.4775 31.9724 30.5073C31.9724 30.5556 31.9992 30.6003 32.0107 30.6449C32.0261 30.6449 32.0414 30.6524 32.0568 30.671C32.0913 30.697 32.1066 30.7305 32.0951 30.7714C32.0913 30.7714 32.0913 30.7714 32.0913 30.7677C32.1296 30.8458 32.1181 30.9425 32.2025 30.9983C32.2025 30.9946 32.2025 30.9946 32.1987 30.9908L32.2064 31.002L32.2025 30.9983C32.2486 31.0727 32.237 31.1731 32.3138 31.2326C32.3138 31.2289 32.3099 31.2289 32.3099 31.2252L32.3138 31.2326C32.3675 31.3033 32.356 31.4 32.425 31.4632V31.4595C32.4902 31.5227 32.4749 31.6269 32.5362 31.6938V31.6975C32.6129 31.7533 32.5861 31.8575 32.6436 31.9207C32.6743 31.9356 32.682 31.9579 32.6705 31.9914C32.7088 32.0806 32.6973 32.1885 32.7894 32.2517C32.7894 32.248 32.7894 32.248 32.7856 32.2443L32.7932 32.2555C32.7894 32.2555 32.7894 32.2517 32.7894 32.2517C32.8316 32.3261 32.8201 32.4266 32.9006 32.4823C32.9006 32.4786 32.9006 32.4786 32.8968 32.4749L32.9006 32.4823C32.9006 32.4823 32.9006 32.4823 32.8968 32.4786C32.9467 32.5493 32.9351 32.6497 33.008 32.7092L33.0042 32.7018C33.0655 32.7687 33.0502 32.8729 33.1154 32.9361C33.1883 32.9956 33.1614 33.0998 33.2267 33.163C33.2573 33.1742 33.265 33.1965 33.2497 33.2262C33.2497 33.2746 33.2765 33.3192 33.288 33.3676C33.3034 33.3676 33.3187 33.375 33.3341 33.3936C33.3686 33.4197 33.3839 33.4494 33.3763 33.4941C33.3724 33.4941 33.3724 33.4941 33.3686 33.4903C33.4031 33.5684 33.3954 33.6651 33.4798 33.7247C33.4798 33.7209 33.4798 33.7209 33.476 33.7172L33.4836 33.7284L33.4798 33.7247C33.5259 33.799 33.5143 33.8995 33.5911 33.959C33.5911 33.9553 33.5872 33.9553 33.5872 33.9515L33.5911 33.959C33.6409 34.0297 33.6294 34.1301 33.7023 34.1896L33.6984 34.1859C33.7636 34.2528 33.7445 34.3533 33.8097 34.4202C33.8826 34.476 33.8595 34.5801 33.9171 34.6434C33.9478 34.6583 33.9554 34.6806 33.9439 34.7103C33.9823 34.7996 33.9708 34.9112 34.0628 34.9744C34.0628 34.9707 34.0628 34.9707 34.059 34.967L34.0667 34.9781C34.0628 34.9781 34.0628 34.9744 34.0628 34.9744C34.1012 35.0525 34.0935 35.1492 34.1741 35.205C34.1741 35.2013 34.1741 35.2013 34.1702 35.1976L34.1779 35.2087C34.1779 35.2087 34.1779 35.205 34.1741 35.205C34.2201 35.2794 34.2086 35.3798 34.2853 35.4393L34.2815 35.4319C34.3428 35.4989 34.3237 35.603 34.3965 35.6662V35.6625C34.4656 35.7257 34.4464 35.8262 34.5078 35.8931V35.8968C34.5845 35.9564 34.5692 36.0419 34.573 36.12C34.5883 36.12 34.5998 36.12 34.6152 36.12C34.6497 36.1461 34.665 36.1758 34.6574 36.2167C34.6535 36.2167 34.6535 36.2167 34.6497 36.213C34.6842 36.2911 34.6766 36.3915 34.7609 36.4473C34.7609 36.4436 34.7609 36.4436 34.7571 36.4399L34.7648 36.451C34.7609 36.451 34.7609 36.4473 34.7609 36.4473C34.8031 36.5217 34.7955 36.6221 34.8722 36.6779C34.8722 36.6742 34.8722 36.6742 34.8683 36.6705L34.8722 36.6779C34.8722 36.6779 34.8722 36.6779 34.8722 36.6742C34.922 36.7449 34.9105 36.8453 34.9834 36.9048L34.9796 36.9011C35.0409 36.9681 35.0256 37.0685 35.0908 37.1354C35.1637 37.195 35.1407 37.2954 35.1982 37.3586C35.2289 37.3735 35.2366 37.3921 35.2251 37.4256C35.2289 37.4814 35.2634 37.5334 35.2711 37.5892C35.2864 37.5892 35.2979 37.5892 35.3133 37.5892C35.3478 37.6153 35.3593 37.6487 35.3516 37.6896C35.3478 37.6896 35.3478 37.6896 35.3478 37.6859C35.3862 37.764 35.3785 37.8607 35.459 37.9165C35.459 37.9128 35.459 37.9128 35.4552 37.9091L35.4629 37.9202L35.459 37.9165C35.5051 37.9909 35.4936 38.0913 35.5703 38.1471C35.5703 38.1434 35.5664 38.1434 35.5664 38.1397L35.5703 38.1471C35.624 38.2178 35.6125 38.3145 35.6815 38.3778V38.374C35.7467 38.4373 35.7314 38.5414 35.7927 38.6046V38.6084C35.8656 38.6679 35.8503 38.7534 35.8579 38.8315C35.8733 38.8315 35.8848 38.8315 35.9002 38.8315C35.9347 38.8538 35.95 38.8873 35.9423 38.9282C35.9385 38.9282 35.9385 38.9245 35.9347 38.9245C35.9692 39.0026 35.9577 39.1031 36.0459 39.1588C36.0459 39.1551 36.0459 39.1551 36.0421 39.1514L36.0497 39.1626C36.0459 39.1626 36.0459 39.1588 36.0459 39.1588C36.0881 39.2332 36.0766 39.3337 36.1571 39.3895C36.1571 39.3857 36.1571 39.3857 36.1533 39.382L36.1571 39.3895C36.1571 39.3895 36.1571 39.3895 36.1533 39.3857C36.2032 39.4564 36.1916 39.5568 36.2645 39.6163L36.2607 39.6126C36.3221 39.6796 36.3067 39.7837 36.3719 39.847C36.441 39.9065 36.418 40.0106 36.4832 40.0738C36.5139 40.085 36.5215 40.1073 36.5062 40.1334C36.5062 40.1929 36.5446 40.2449 36.5484 40.3007C36.5637 40.3007 36.5752 40.3007 36.5906 40.3007C36.6251 40.3268 36.6404 40.3602 36.6328 40.4012C36.6289 40.4012 36.6289 40.4012 36.6251 40.3974C36.6596 40.4755 36.6519 40.5723 36.7363 40.6318C36.7363 40.628 36.7363 40.628 36.7325 40.6243L36.7402 40.6355L36.7363 40.6318C36.7824 40.7062 36.7708 40.8029 36.8476 40.8624C36.8476 40.8587 36.8437 40.8587 36.8437 40.8587L36.8514 40.8698L36.8476 40.8661C36.8782 40.9145 36.9243 40.9516 36.978 40.9814C40.7562 40.9777 44.5343 40.9702 48.3163 40.9702C49.4862 40.9702 50.6523 40.9777 51.8222 40.9814C51.872 40.9516 51.9181 40.9144 51.9487 40.8624C51.9449 40.8624 51.9449 40.8661 51.9449 40.8661L51.9526 40.8587L51.9487 40.8624C51.9871 40.8326 52.0063 40.7954 52.0139 40.7508C52.0293 40.6392 51.9833 40.5165 52.0753 40.416V40.4198C52.1789 40.3119 52.1098 40.1557 52.1827 40.0366C52.1635 40.0069 52.1674 39.9846 52.1981 39.966C52.294 39.8581 52.2211 39.7056 52.3016 39.5977C52.2863 39.5643 52.2901 39.5345 52.3208 39.5122C52.409 39.4118 52.3285 39.263 52.4244 39.1626L52.4205 39.17C52.4589 39.1402 52.4819 39.0993 52.4857 39.051C52.5011 38.9394 52.4551 38.8167 52.5433 38.7162V38.7199C52.6468 38.6084 52.5778 38.4559 52.6507 38.3368C52.6315 38.3071 52.6353 38.2848 52.666 38.2662C52.7619 38.1583 52.689 38.0058 52.7696 37.8942C52.7504 37.8607 52.7581 37.8347 52.7888 37.8087C52.8808 37.7082 52.8003 37.5595 52.8923 37.459L52.8885 37.4665C52.9269 37.4367 52.9499 37.3958 52.9537 37.3475C52.969 37.2359 52.923 37.1131 53.0112 37.009V37.0127C53.1148 36.9048 53.0496 36.7486 53.1186 36.6296C53.0994 36.5998 53.1033 36.5775 53.134 36.5589C53.2299 36.4511 53.157 36.2986 53.2375 36.187C53.2184 36.1535 53.226 36.1275 53.2567 36.1014C53.3488 36.001 53.2682 35.8522 53.3603 35.7518L53.3564 35.7592C53.3948 35.7295 53.4178 35.6886 53.4217 35.6402C53.437 35.5286 53.391 35.4059 53.4792 35.3017V35.3054C53.5827 35.1976 53.5176 35.0414 53.5866 34.9223C53.5674 34.8926 53.5712 34.8703 53.6019 34.8517C53.6978 34.7438 53.625 34.5913 53.7055 34.4797C53.6863 34.4462 53.694 34.4202 53.7247 34.3942C53.8167 34.2937 53.7362 34.145 53.8282 34.0445L53.8244 34.052C53.8628 34.0222 53.8858 33.9813 53.8896 33.933C53.9011 33.8176 53.8589 33.6986 53.9472 33.5945V33.5982C54.0507 33.4866 53.9855 33.3304 54.0545 33.2114C54.0354 33.1853 54.0392 33.163 54.0699 33.1444C54.1658 33.0366 54.0967 32.8841 54.1734 32.7688C54.1543 32.7353 54.162 32.7092 54.1926 32.6869C54.2847 32.5865 54.2041 32.4377 54.2962 32.3373L54.2924 32.3447C54.3307 32.315 54.3537 32.2741 54.3576 32.2257C54.3691 32.1104 54.3269 31.9914 54.4151 31.8872V31.8909C54.5187 31.7794 54.4535 31.6231 54.5225 31.5041C54.5033 31.4781 54.5072 31.4558 54.5378 31.4372C54.6337 31.3293 54.5647 31.1768 54.6414 31.0615C54.6222 31.028 54.6299 31.002 54.6606 30.9797C54.7526 30.8792 54.6721 30.7305 54.7642 30.63L54.7603 30.6375C54.7987 30.6077 54.8217 30.5668 54.8255 30.5185C54.837 30.4031 54.7948 30.2841 54.8831 30.18V30.1837C54.9866 30.0721 54.9214 29.9159 54.9905 29.7969C54.9713 29.7708 54.9751 29.7485 55.0058 29.7336C55.1055 29.6258 55.0326 29.4733 55.1094 29.358C55.0902 29.3245 55.0979 29.2985 55.1286 29.2799C55.2206 29.1794 55.14 29.0307 55.2321 28.9302L55.2283 28.9377C55.2705 28.9079 55.2896 28.867 55.2973 28.8186C55.3088 28.7033 55.2705 28.5806 55.3549 28.4802L55.351 28.4839C55.4584 28.3723 55.3894 28.2161 55.4584 28.0971C55.4392 28.071 55.4431 28.0487 55.4738 28.0338C55.5735 27.926 55.5006 27.7735 55.5773 27.6582C55.5582 27.6247 55.5658 27.5987 55.5965 27.5801C55.6886 27.4796 55.608 27.3308 55.7001 27.2304L55.6962 27.2379C55.7384 27.2081 55.7576 27.1672 55.7653 27.1188C55.7768 27.0035 55.7384 26.8808 55.8228 26.7804L55.819 26.7841C55.9264 26.6725 55.8573 26.5163 55.9264 26.3973C55.9072 26.3712 55.911 26.3489 55.9417 26.334C56.0415 26.2262 55.9686 26.0737 56.0453 25.9584C56.0261 25.9249 56.0338 25.8988 56.0644 25.8802C56.1565 25.7761 56.0798 25.6236 56.168 25.5157C56.1527 25.4823 56.1565 25.4488 56.1872 25.4227C56.2716 25.3223 56.191 25.1735 56.2869 25.0768L56.3636 25.114C56.471 25.0024 56.4058 24.8462 56.4749 24.7272C56.4557 24.7012 56.4595 24.6788 56.4902 24.664C56.59 24.5561 56.5171 24.3999 56.5976 24.2883C56.5784 24.2585 56.5861 24.2325 56.613 24.2102C56.705 24.106 56.6283 23.9535 56.7165 23.8457C56.7012 23.8122 56.705 23.7787 56.7357 23.7527C56.8201 23.6523 56.7395 23.5035 56.8354 23.4068L56.8316 23.4142C56.939 23.3026 56.8738 23.1464 56.9428 23.0274C56.9237 23.0014 56.9275 22.979 56.9582 22.9642C57.0579 22.8563 56.985 22.7001 57.0656 22.5885C57.0464 22.5587 57.0541 22.5327 57.0809 22.5104C57.173 22.4062 57.0963 22.2537 57.1845 22.1459C57.1691 22.1124 57.173 22.0789 57.2037 22.0529C57.2881 21.9525 57.2075 21.8037 57.3034 21.707L57.2996 21.7144C57.407 21.6028 57.3417 21.4466 57.4108 21.3239L57.3993 21.2904L57.4261 21.2643C57.5259 21.1565 57.4568 21.0003 57.5335 20.885C57.5144 20.8552 57.522 20.8292 57.5489 20.8068C57.6409 20.7027 57.5681 20.5502 57.6524 20.4423C57.6371 20.4089 57.6409 20.3754 57.6716 20.3531C57.7598 20.2526 57.6793 20.1039 57.7752 20.0072L57.7713 20.0146C57.8787 19.903 57.8135 19.7468 57.8826 19.6241L57.8711 19.5906L57.8979 19.5645C57.9977 19.4567 57.9286 19.3005 58.0053 19.1851C57.9862 19.1554 57.9938 19.1294 58.0207 19.107C58.1127 19.0029 58.0399 18.8504 58.1242 18.7425C58.1089 18.709 58.1127 18.6756 58.1434 18.6533C58.2316 18.5528 58.1511 18.4041 58.247 18.3073L58.2431 18.3148C58.3506 18.2032 58.2853 18.047 58.3544 17.9242L58.3429 17.8908L58.3697 17.8647C58.4694 17.7569 58.4004 17.6006 58.4771 17.4853C58.4579 17.4556 58.4656 17.4295 58.4925 17.4072C58.5845 17.3031 58.5116 17.1506 58.596 17.0427C58.5807 17.0092 58.5845 16.9795 58.6152 16.9534C58.7034 16.853 58.6229 16.7042 58.7188 16.6075L58.7149 16.615C58.8223 16.5034 58.761 16.3472 58.8262 16.2244L58.8147 16.1909L58.8415 16.1649C58.9451 16.0571 58.8722 15.9008 58.9489 15.7855C58.9297 15.7558 58.9374 15.7297 58.9643 15.7111C59.0602 15.607 58.9834 15.4545 59.0678 15.3466C59.0525 15.3132 59.0563 15.2834 59.087 15.2574C59.1752 15.1569 59.0947 15.0082 59.1906 14.9077L59.1867 14.9152C59.2941 14.8036 59.2328 14.6474 59.298 14.5246L59.2864 14.4911L59.3133 14.4651C59.4169 14.3572 59.344 14.201 59.4207 14.0857C59.4015 14.056 59.4092 14.0299 59.436 14.0113C59.5319 13.9072 59.4552 13.7547 59.5396 13.6468C59.5243 13.6133 59.5281 13.5836 59.5588 13.5575C59.647 13.4571 59.5664 13.3083 59.6623 13.2079L59.6585 13.2154C59.7659 13.1038 59.7045 12.9476 59.7698 12.8248L59.7582 12.7913L59.7851 12.7653C59.8886 12.6537 59.8158 12.5012 59.8925 12.3822C59.8733 12.3524 59.8771 12.3301 59.9078 12.3078C60.0037 12.1999 59.927 12.0512 60.0114 11.9396C59.9961 11.9061 59.9999 11.8763 60.0306 11.854C60.1188 11.7536 60.0383 11.6048 60.1341 11.5044L60.1303 11.5118C60.2722 11.3854 60.1265 11.1845 60.2569 11.058V11.0618C60.3566 10.9502 60.2914 10.7977 60.3643 10.6787C60.3451 10.6489 60.3489 10.6266 60.3796 10.6043C60.4755 10.4964 60.3988 10.3476 60.4832 10.236C60.4678 10.2026 60.4717 10.1728 60.5024 10.1505C60.5906 10.0501 60.51 9.90128 60.6059 9.80086L60.6021 9.8083C60.744 9.68183 60.5983 9.48098 60.7248 9.35452V9.35824C60.8246 9.24665 60.7594 9.09415 60.8322 8.97513C60.8131 8.94537 60.8169 8.92306 60.8476 8.90074C60.9435 8.79287 60.8668 8.64409 60.9512 8.53251C60.9358 8.49903 60.9396 8.46927 60.9703 8.44324C61.1161 7.88159 60.6903 8.03038 60.441 8.03038Z" fill="white"/>
</g>
<defs>
<filter id="filter0_d_11648_3082" x="0" y="0" width="71" height="53" filterUnits="userSpaceOnUse" color-interpolation-filters="sRGB">
<feFlood flood-opacity="0" result="BackgroundImageFix"/>
<feColorMatrix in="SourceAlpha" type="matrix" values="0 0 0 0 0 0 0 0 0 0 0 0 0 0 0 0 0 0 127 0" result="hardAlpha"/>
<feOffset dy="2"/>
<feGaussianBlur stdDeviation="5"/>
<feComposite in2="hardAlpha" operator="out"/>
<feColorMatrix type="matrix" values="0 0 0 0 0 0 0 0 0 0 0 0 0 0 0 0 0 0 0.17 0"/>
<feBlend mode="normal" in2="BackgroundImageFix" result="effect1_dropShadow_11648_3082"/>
<feBlend mode="normal" in="SourceGraphic" in2="effect1_dropShadow_11648_3082" result="shape"/>
</filter>
</defs>
</svg>
