<svg width="69" height="53" viewBox="0 0 69 53" fill="none" xmlns="http://www.w3.org/2000/svg">
<g id="2_R" filter="url(#filter0_d_11648_3601)">
<path d="M58.168 18.2847L58.1719 18.2773C58.168 18.2773 58.168 18.281 58.168 18.2847C58.2957 18.2029 58.1912 18.0354 58.2996 17.946V17.9498C58.4079 17.8567 58.3112 17.7004 58.4196 17.6073V17.6111C58.524 17.5143 58.435 17.3617 58.5356 17.2649L58.5318 17.2686C58.6401 17.1644 58.5666 17.0081 58.644 16.8927C58.6246 16.8629 58.6324 16.8369 58.6595 16.8146C58.7485 16.6992 58.6866 16.5503 58.7601 16.4312C58.7407 16.4051 58.7446 16.3791 58.7717 16.3605C58.8916 16.2116 58.7833 16.0143 58.8762 15.8617C58.8839 15.7985 58.8916 15.7389 58.8994 15.6756C59.0271 15.4114 58.8723 15.1136 59 14.8494C58.9613 14.5293 58.9652 14.2129 59 13.8928C58.9033 13.6732 58.969 13.4424 58.9497 13.2191C58.9536 13.1596 58.9342 13.1075 58.8916 13.0628L58.8646 13.033L58.88 12.9958C58.8104 12.8767 58.8723 12.7241 58.7794 12.6087C58.7485 12.5901 58.7446 12.5678 58.764 12.538C58.7291 12.4487 58.7253 12.3482 58.6711 12.27C58.6401 12.2514 58.6324 12.2254 58.6479 12.1919C58.6053 12.1063 58.613 12.002 58.5395 11.9276L58.5434 11.9313C58.4776 11.8643 58.4969 11.7638 58.4312 11.6968C58.3576 11.6373 58.3809 11.5331 58.3112 11.4735C58.2377 11.414 58.2648 11.3023 58.1796 11.2502L58.1835 11.2576C58.1255 11.1944 58.1487 11.079 58.0481 11.0418C58.0481 11.0455 58.0519 11.0455 58.0519 11.0492L58.0365 11.0343C58.0403 11.0343 58.0442 11.038 58.0481 11.0418C58.0403 10.9785 57.9939 10.9413 57.9397 10.9115L57.9475 10.9152C57.9242 10.878 57.9049 10.8371 57.8855 10.7998C57.8585 10.7663 57.8236 10.7366 57.7927 10.7068C57.7114 10.6398 57.6766 10.5319 57.5798 10.4797V10.4835L57.5644 10.4723C57.5682 10.476 57.5721 10.4797 57.576 10.4797C57.5644 10.4127 57.5218 10.3755 57.456 10.3606C57.456 10.3644 57.4599 10.3644 57.4599 10.3681L57.4444 10.3569C57.4483 10.3569 57.4483 10.3606 57.4521 10.3606C57.4367 10.2936 57.398 10.2564 57.3283 10.2453C57.3322 10.249 57.3361 10.2527 57.3399 10.2564L57.3245 10.2415C57.3245 10.2415 57.3244 10.2415 57.3283 10.2415C57.2084 10.0927 57.042 9.99217 56.8833 9.88423H56.8794C56.8794 9.88423 56.8794 9.88423 56.8833 9.88423C56.8446 9.84329 56.8059 9.80235 56.7517 9.78001C56.7556 9.78374 56.7556 9.78373 56.7595 9.78745L56.7479 9.77629C56.7517 9.77629 56.7517 9.78001 56.7517 9.78001C56.7053 9.70185 56.5892 9.72418 56.5389 9.64974L56.5312 9.64602C56.4847 9.61625 56.4499 9.57158 56.3957 9.55297C56.3957 9.5567 56.3996 9.55669 56.4035 9.56041L56.3919 9.54925C56.3957 9.54925 56.3957 9.55297 56.3957 9.55297C56.3416 9.47481 56.2293 9.49342 56.1674 9.43015L56.1713 9.43387C56.1094 9.36315 55.9972 9.38549 55.9391 9.31477C55.8695 9.25149 55.765 9.26638 55.6953 9.20683L55.6992 9.21055C55.6334 9.13983 55.5328 9.151 55.4593 9.10633C55.4593 9.10633 55.4593 9.10634 55.4632 9.11006L55.4515 9.10261C55.4554 9.10261 55.4554 9.10633 55.4593 9.10633C55.3742 8.98351 55.2 9.084 55.1072 8.97979H55.111C55.0143 8.87557 54.8518 8.96862 54.755 8.8644H54.7589C54.6583 8.76391 54.4996 8.8458 54.3913 8.75647L54.399 8.76019C54.3681 8.72297 54.3255 8.69691 54.2752 8.69319C54.1552 8.68203 54.0275 8.71925 53.9192 8.64108L53.9269 8.64481C53.8921 8.60759 53.8495 8.58526 53.7953 8.58154C53.6677 8.58154 53.54 8.58898 53.4161 8.53315C53.3852 8.55548 53.362 8.54804 53.3387 8.52198C53.153 8.39171 52.9131 8.53687 52.7273 8.41404C52.6925 8.43265 52.6577 8.42893 52.6267 8.40288C52.4294 8.29122 52.1895 8.4066 51.9882 8.30611C51.9263 8.29866 51.8605 8.29494 51.7986 8.2875C51.5161 8.16095 51.2027 8.30611 50.9202 8.19073C50.8157 8.22422 50.7151 8.20934 50.6145 8.17212C50.1385 8.0344 49.6432 8.20933 49.1673 8.07162C48.939 8.10884 48.7107 8.09023 48.4862 8.05301C48.2773 7.9674 48.0567 8.01207 47.8439 8.01207C38.4987 8.00835 29.1536 8.00835 19.8084 8.00835C19.6885 8.00835 19.5724 8.01952 19.4563 8.00463C19.1932 7.97113 19.1119 8.12373 19.0655 8.32472C19.0848 8.35822 19.0771 8.38427 19.0461 8.4066C18.9532 8.5071 19.0345 8.65598 18.9416 8.75647L18.9455 8.74902C18.9068 8.7788 18.8836 8.81974 18.8797 8.86812C18.8681 8.98351 18.9107 9.10261 18.8217 9.20683V9.20311C18.7172 9.31477 18.783 9.47109 18.7133 9.59019C18.7327 9.61624 18.7288 9.63858 18.6978 9.65719C18.6011 9.76513 18.6708 9.91773 18.5934 10.0331C18.6127 10.0666 18.605 10.0927 18.574 10.115C18.4812 10.2155 18.5624 10.3644 18.4695 10.4649L18.4734 10.4574C18.4347 10.4872 18.4115 10.5281 18.4076 10.5765C18.396 10.6919 18.4386 10.811 18.3496 10.9152V10.9115C18.2451 11.0232 18.3109 11.1795 18.2412 11.2986C18.2606 11.3246 18.2567 11.347 18.2258 11.3656C18.1251 11.4735 18.1987 11.6261 18.1213 11.7415C18.1406 11.775 18.1329 11.801 18.1019 11.8197C18.0091 11.9202 18.0903 12.069 17.9974 12.1695L18.0013 12.1621C17.9587 12.1919 17.9394 12.2328 17.9317 12.2812C17.9201 12.3966 17.9587 12.5194 17.8736 12.6199L17.8775 12.6162C17.7691 12.7278 17.8388 12.8841 17.7691 13.0032C17.7885 13.0293 17.7846 13.0516 17.7537 13.0702C17.653 13.1782 17.7266 13.3308 17.6492 13.4462C17.6685 13.4797 17.6608 13.5057 17.6298 13.5243C17.537 13.6248 17.6144 13.77 17.5292 13.8705C17.5215 13.9077 17.5137 13.9412 17.506 13.9784C17.4905 13.9784 17.4789 13.9784 17.4634 13.9784C17.4634 13.9821 17.4596 13.9859 17.4596 13.9896C17.448 14.105 17.4867 14.2278 17.4015 14.3283L17.4054 14.3246C17.297 14.4362 17.3667 14.5925 17.297 14.7116C17.3164 14.7377 17.3125 14.76 17.2816 14.7786C17.181 14.8866 17.2545 15.0392 17.1771 15.1546C17.1964 15.1881 17.1887 15.2141 17.1577 15.2327C17.0649 15.3369 17.1423 15.4895 17.0533 15.5975C17.0687 15.631 17.0649 15.6645 17.0339 15.6905C16.9488 15.791 17.03 15.9399 16.9333 16.0367L16.9372 16.0292C16.8288 16.1409 16.8946 16.2972 16.825 16.4163C16.8443 16.4424 16.8404 16.4647 16.8095 16.4796C16.7089 16.5875 16.7824 16.7438 16.7011 16.8555C16.7205 16.8853 16.7127 16.9113 16.6856 16.9337C16.5928 17.0379 16.6702 17.1905 16.5812 17.2984C16.5966 17.3319 16.5928 17.3654 16.5618 17.3915C16.4767 17.492 16.5579 17.6408 16.4612 17.7376L16.4651 17.7302C16.3567 17.8418 16.4225 17.9981 16.3529 18.1173C16.3722 18.1433 16.3683 18.1656 16.3374 18.1805C16.2368 18.2885 16.3103 18.4448 16.229 18.5564C16.2484 18.5862 16.2406 18.6123 16.2097 18.6346C16.1168 18.7388 16.1942 18.8914 16.1052 18.9994C16.1207 19.0329 16.1168 19.0664 16.0859 19.0924C16.0007 19.1929 16.082 19.3418 15.9852 19.4386L15.9891 19.4311C15.8808 19.5428 15.9465 19.6991 15.8769 19.8219L15.8885 19.8554L15.8614 19.8815C15.7608 19.9894 15.8305 20.1457 15.7531 20.2611C15.7724 20.2909 15.7647 20.3169 15.7376 20.3393C15.6447 20.4435 15.7182 20.5961 15.6331 20.704C15.6486 20.7375 15.6447 20.771 15.6138 20.7934C15.5248 20.8939 15.606 21.0427 15.5093 21.1395L15.5131 21.1321C15.4048 21.2437 15.4706 21.4 15.4009 21.5229L15.4125 21.5564L15.3855 21.5824C15.2848 21.6904 15.3545 21.8467 15.2771 21.9621C15.2964 21.9918 15.2887 22.0179 15.2616 22.0402C15.1687 22.1444 15.2423 22.297 15.1571 22.405C15.1726 22.4385 15.1688 22.472 15.1378 22.4943C15.0488 22.5948 15.1301 22.7437 15.0333 22.8405L15.0372 22.833C14.9288 22.9447 14.9946 23.101 14.925 23.2238L14.9366 23.2573L14.9095 23.2834C14.8089 23.395 14.8785 23.5476 14.8011 23.663C14.8205 23.6928 14.8127 23.7188 14.7857 23.7374C14.6889 23.8454 14.7663 23.9943 14.6812 24.1022C14.6967 24.1357 14.6928 24.1655 14.6618 24.1915C14.5728 24.292 14.6541 24.4409 14.5574 24.5377L14.5612 24.5302C14.4529 24.6419 14.5148 24.7982 14.449 24.921L14.4606 24.9545L14.4335 24.9806C14.329 25.0885 14.4026 25.2448 14.3252 25.3602C14.3445 25.39 14.3368 25.4161 14.3097 25.4347C14.213 25.5426 14.2903 25.6915 14.2052 25.7994C14.2207 25.8329 14.2168 25.8627 14.1859 25.8888C14.0969 25.9892 14.1781 26.1381 14.0814 26.2386L14.0853 26.2312C13.9769 26.3428 14.0388 26.4992 13.973 26.622L13.9846 26.6555L13.9576 26.6815C13.8531 26.7895 13.9266 26.9458 13.8492 27.0612C13.8686 27.091 13.8608 27.117 13.8337 27.1356C13.7409 27.2436 13.8144 27.3924 13.7293 27.5041C13.7447 27.5376 13.7409 27.5674 13.7099 27.5897C13.6209 27.6902 13.7022 27.8391 13.6054 27.9396L13.6093 27.9321C13.4661 28.0587 13.6132 28.2597 13.4816 28.3862V28.3825C13.381 28.4941 13.4468 28.6467 13.3732 28.7658C13.3926 28.7956 13.3887 28.818 13.3578 28.8403C13.261 28.9482 13.3384 29.0971 13.2533 29.2088C13.2688 29.2423 13.2649 29.272 13.2339 29.2944C13.1449 29.3949 13.2262 29.5437 13.1295 29.6442L13.1333 29.6368C12.9901 29.7633 13.1372 29.9643 13.0056 30.0909V30.0872C12.905 30.1988 12.9708 30.3514 12.8973 30.4705C12.9166 30.5003 12.9128 30.5226 12.8818 30.545C12.7851 30.6529 12.8625 30.8018 12.7773 30.9134C12.7928 30.9469 12.7889 30.9767 12.758 30.999C12.669 31.0995 12.7502 31.2484 12.6535 31.3489L12.6574 31.3415C12.5142 31.468 12.6612 31.669 12.5335 31.7993V31.7955C12.4291 31.9035 12.4987 32.0598 12.4252 32.1789C12.4445 32.2087 12.4407 32.231 12.4097 32.2496C12.313 32.3576 12.3865 32.5102 12.3052 32.6181C12.3207 32.6516 12.3168 32.6814 12.2859 32.7037C12.1969 32.8079 12.2743 32.9568 12.1814 33.061C12.1969 33.0982 12.193 33.1317 12.1621 33.1578C12.0769 33.2583 12.1621 33.4034 12.0614 33.5002V33.4965C11.957 33.6044 12.0266 33.7607 11.9531 33.8799C11.9724 33.9096 11.9686 33.932 11.9376 33.9506C11.8409 34.0585 11.9144 34.2111 11.8331 34.319C11.8486 34.3525 11.8447 34.3823 11.8138 34.4046C11.7248 34.5089 11.8022 34.6577 11.7093 34.762C11.7248 34.7992 11.7209 34.8327 11.69 34.8587C11.6048 34.9592 11.69 35.1044 11.5893 35.2011V35.1974C11.4849 35.3054 11.5545 35.4617 11.481 35.5808C11.5003 35.6106 11.4965 35.6329 11.4655 35.6515C11.3688 35.7594 11.4423 35.9121 11.361 36.0237C11.3804 36.0572 11.3726 36.0833 11.3417 36.1093C11.2527 36.2135 11.3301 36.3624 11.2372 36.4666C11.2527 36.5038 11.2449 36.5336 11.2179 36.5634C11.1327 36.6639 11.2179 36.8128 11.1173 36.9058V36.9021C11.0128 37.01 11.0786 37.1664 11.0089 37.2855C11.0283 37.3152 11.0244 37.3376 10.9934 37.3562C10.8967 37.4641 10.9702 37.6167 10.8889 37.7284C10.9083 37.7619 10.9006 37.7879 10.8696 37.814C10.7806 37.9182 10.858 38.0671 10.7651 38.1713C10.7806 38.2085 10.7729 38.2383 10.7458 38.2681C10.6606 38.3686 10.7458 38.5174 10.6452 38.6105V38.6068C10.5407 38.7147 10.6065 38.871 10.5368 38.9901C10.5562 39.0199 10.5523 39.0422 10.5213 39.0609C10.4246 39.1688 10.4981 39.3214 10.4169 39.433C10.4362 39.4665 10.4285 39.4926 10.3975 39.5187C10.3085 39.6229 10.3859 39.7717 10.293 39.8797C10.3085 39.9169 10.3046 39.9467 10.2737 39.9765C10.1885 40.0769 10.2698 40.2258 10.1731 40.3226V40.3189C10.0686 40.4305 10.1344 40.5869 10.0647 40.706C10.0841 40.732 10.0802 40.7543 10.0492 40.773C9.98345 40.8586 9.97184 40.933 10.0879 40.9888C11.7441 40.9851 13.3965 40.9814 15.0527 40.9814C17.9084 40.9814 20.7642 40.9888 23.62 40.9926C23.6935 40.9591 23.74 40.907 23.7516 40.8288L23.7361 40.799L23.7593 40.773C23.8638 40.665 23.7903 40.5087 23.8677 40.3933C23.8483 40.3635 23.8561 40.3375 23.8832 40.3189C23.9799 40.2109 23.9025 40.0621 23.9876 39.9541C23.9721 39.9206 23.976 39.8908 24.007 39.8648C24.096 39.7643 24.0147 39.6154 24.1115 39.5149L24.1076 39.5224C24.2159 39.4107 24.154 39.2544 24.2198 39.1316L24.2082 39.0981L24.2353 39.072C24.3398 38.9641 24.2662 38.8078 24.3436 38.6924C24.3243 38.6626 24.332 38.6365 24.3591 38.6179C24.4559 38.51 24.3785 38.3611 24.4636 38.2532C24.4481 38.2197 24.452 38.1899 24.4829 38.1639C24.5719 38.0634 24.4907 37.9145 24.5874 37.814L24.5836 37.8214C24.7229 37.6949 24.5797 37.4939 24.7074 37.3673V37.3711C24.808 37.2594 24.7422 37.1068 24.8157 36.9877C24.7964 36.9579 24.8003 36.9356 24.8312 36.9133C24.9279 36.8053 24.8506 36.6564 24.9357 36.5448C24.9202 36.5113 24.9241 36.4815 24.955 36.4592C25.044 36.3587 24.9628 36.2098 25.0595 36.1093L25.0556 36.1168C25.1988 35.9902 25.0518 35.7892 25.1833 35.6627V35.6664C25.284 35.5547 25.2182 35.4021 25.2917 35.283C25.2723 35.2533 25.2762 35.2309 25.3072 35.2086C25.4039 35.1007 25.3265 34.9518 25.4117 34.8401C25.3962 34.8066 25.4 34.7768 25.431 34.7545C25.52 34.654 25.4387 34.5051 25.5355 34.4046L25.5316 34.4121C25.6748 34.2855 25.5277 34.0846 25.6593 33.958V33.9617C25.7599 33.8501 25.6941 33.6975 25.7677 33.5784C25.7483 33.5486 25.7522 33.5263 25.7831 33.5039C25.8799 33.396 25.8064 33.2434 25.8876 33.1355C25.8721 33.102 25.876 33.0722 25.907 33.0498C25.996 32.9456 25.9186 32.7968 26.0114 32.6925C25.996 32.6553 25.9998 32.6218 26.0308 32.5958C26.1159 32.4953 26.0308 32.3501 26.1314 32.2533V32.2571C26.2359 32.1491 26.1662 31.9928 26.2397 31.8737C26.2204 31.8439 26.2243 31.8216 26.2552 31.803C26.352 31.695 26.2784 31.5424 26.3597 31.4345C26.3442 31.401 26.3481 31.3712 26.3791 31.3489C26.4758 31.2596 26.3713 31.1032 26.4951 31.0214L26.5029 31.0139C26.6615 30.9023 26.8434 30.9506 27.0137 30.9506C29.5986 30.9469 32.1796 30.9469 34.7645 30.9506C34.9387 30.9506 35.1167 30.9209 35.2869 30.9953C35.4301 30.9544 35.5733 30.9767 35.7126 31.0176C35.9099 31.1219 36.1383 31.0028 36.3356 31.1107L36.382 31.0995L36.4207 31.1256C36.5368 31.2149 36.6955 31.1554 36.8193 31.2223L36.8619 31.2112L36.8928 31.2372C36.9741 31.3005 37.0824 31.2968 37.1714 31.334L37.214 31.3303L37.245 31.3601C37.3069 31.4159 37.4152 31.3861 37.4694 31.468L37.4771 31.4717C37.5274 31.5015 37.5623 31.5499 37.6203 31.5648C37.6164 31.5611 37.6126 31.5573 37.6087 31.5536L37.6203 31.5648C37.7867 31.7025 37.9492 31.8514 38.0847 32.0189V32.0151L38.0924 32.0226C38.0924 32.0189 38.0885 32.0189 38.0885 32.0189C38.1388 32.0896 38.1234 32.1938 38.2124 32.2459C38.2124 32.2422 38.2124 32.2422 38.2085 32.2385L38.2162 32.2496C38.2124 32.2496 38.2124 32.2459 38.2085 32.2459C38.2472 32.3241 38.2395 32.4208 38.3091 32.4878L38.3362 32.5139L38.3246 32.5474C38.4097 32.7074 38.3207 32.8972 38.4213 33.0536C38.4832 33.2806 38.4755 33.5114 38.4175 33.7384C38.2936 33.958 38.4484 34.2186 38.3168 34.4381C38.3362 34.4716 38.3323 34.5051 38.3052 34.5312C38.1969 34.6801 38.2975 34.8699 38.2046 35.0262C38.2278 35.056 38.224 35.0783 38.193 35.1007C38.0731 35.2458 38.1892 35.4394 38.0847 35.5845C38.104 35.618 38.1001 35.6441 38.0692 35.6701C37.9531 35.8041 38.0808 35.9939 37.9608 36.1316V36.1279C37.8293 36.2656 37.957 36.4629 37.8448 36.6043C37.8641 36.6378 37.8564 36.6676 37.8293 36.6974C37.7441 36.809 37.8099 36.9579 37.7287 37.0696C37.748 37.1031 37.7403 37.1291 37.7132 37.1515C37.6242 37.2706 37.6784 37.4195 37.6164 37.5423L37.6319 37.5758L37.6048 37.6018C37.481 37.7507 37.5894 37.948 37.4965 38.1006C37.5197 38.1266 37.5158 38.149 37.4849 38.1676C37.3494 38.3499 37.4926 38.5844 37.3765 38.7705C37.3688 38.8338 37.3611 38.9008 37.3572 38.9641C37.2875 39.608 37.2566 40.2482 37.3765 40.8883C37.4114 40.9367 37.4539 40.9702 37.5004 41C42.4496 41 47.395 40.9963 52.3442 40.9963C52.4565 40.9442 52.4371 40.8251 52.4835 40.7432C52.4642 40.7134 52.4719 40.6874 52.499 40.665C52.6267 40.3896 52.3559 40.2854 52.2436 40.1142L52.2359 40.1067C52.2359 40.1104 52.2398 40.1142 52.2436 40.1142C52.1933 40.0397 52.2088 39.9355 52.1275 39.8722L52.1314 39.8797C52.0347 39.7792 52.1159 39.6303 52.0269 39.5298C51.9921 39.474 51.9805 39.4144 52.0076 39.3512C51.9341 38.6812 51.9224 38.0112 52.0115 37.3413C52.0153 37.2743 52.0192 37.2073 52.0269 37.1403C52.1508 36.9095 52.0115 36.6453 52.1275 36.4108C52.1353 36.3512 52.1391 36.2917 52.1469 36.2284C52.2668 36.0423 52.1314 35.819 52.2475 35.6329C52.2281 35.5994 52.232 35.5734 52.2591 35.5473C52.3907 35.3686 52.2436 35.1379 52.3675 34.9592C52.3481 34.9257 52.352 34.8922 52.3829 34.8662C52.4913 34.721 52.3791 34.5312 52.4835 34.386C52.4642 34.3525 52.4681 34.3265 52.499 34.3004C52.6112 34.1553 52.499 33.9655 52.6035 33.8166C52.5842 33.7831 52.588 33.7533 52.619 33.731C52.7312 33.5933 52.6112 33.4072 52.7235 33.2732C52.7312 33.2359 52.7351 33.2024 52.7428 33.1652C52.7544 33.1652 52.7699 33.1652 52.7815 33.1652C52.7815 33.1615 52.7854 33.1541 52.7854 33.1503C52.7892 33.0312 52.7699 32.9084 52.8357 32.7968C52.8163 32.7633 52.8241 32.7372 52.8512 32.7111C52.9673 32.5734 52.8396 32.3873 52.9595 32.2533C52.9634 32.2161 52.9711 32.1826 52.975 32.1454C52.9866 32.1454 53.0021 32.1454 53.0137 32.1454C53.0137 32.138 53.0176 32.1305 53.0176 32.1268C53.0176 32.004 53.0176 31.8774 53.064 31.7583L53.0485 31.7211L53.0756 31.6913C53.2188 31.5164 53.0601 31.2819 53.1917 31.107C53.1723 31.0697 53.1762 31.04 53.2033 31.0102C53.3194 30.8204 53.1917 30.5971 53.3039 30.4072C53.3116 30.344 53.3155 30.2807 53.3233 30.2137C53.4006 29.4581 53.4084 28.6988 53.3194 27.9433C53.2923 27.9172 53.2846 27.8912 53.3039 27.8577C53.2188 27.7497 53.3 27.5897 53.1878 27.4892L53.1917 27.4966C53.1298 27.4297 53.1453 27.3254 53.0795 27.2584C53.0059 27.2026 53.0292 27.091 52.9556 27.0351L52.9595 27.0388C52.8937 26.9793 52.9169 26.8676 52.8241 26.823C52.8241 26.8267 52.8279 26.8267 52.8279 26.8304L52.8125 26.8155C52.8163 26.8155 52.8202 26.8192 52.8241 26.823C52.8086 26.7671 52.766 26.7299 52.7196 26.7001L52.7157 26.6964L52.7196 26.7001C52.7002 26.6704 52.6848 26.6369 52.6693 26.6034C52.6499 26.6034 52.6306 26.5959 52.6074 26.5773C52.5687 26.5401 52.5339 26.5029 52.499 26.4619L52.4913 26.4545C52.4487 26.4247 52.4139 26.3912 52.3829 26.3466L52.3713 26.3391C52.3288 26.3093 52.2901 26.2758 52.2591 26.2349L52.2552 26.2312C52.232 26.2126 52.2243 26.1977 52.2243 26.1791C52.1895 26.1642 52.1585 26.1493 52.1314 26.127C52.0927 26.0897 52.054 26.0488 52.0076 26.0227C52.0076 26.0227 52.0076 26.0227 52.0076 26.0265L51.9998 26.019C52.0037 26.019 52.0037 26.0227 52.0076 26.0227C51.9766 25.9744 51.9379 25.9334 51.876 25.9185C51.876 25.9222 51.8799 25.926 51.8799 25.9297L51.8644 25.9148C51.8683 25.9148 51.8683 25.9185 51.8721 25.9185C51.8296 25.8329 51.7096 25.8553 51.6593 25.7845C51.6168 25.751 51.5781 25.7064 51.5239 25.6878C51.5277 25.6915 51.5278 25.6915 51.5316 25.6952L51.5161 25.684C51.52 25.684 51.52 25.6878 51.5239 25.6878C51.4736 25.6059 51.3614 25.6245 51.2994 25.5612L51.3033 25.5649C51.2607 25.5203 51.195 25.5091 51.1485 25.4719C51.1369 25.4607 51.1292 25.4533 51.1176 25.4421C51.106 25.4421 51.0905 25.4458 51.0789 25.4458L51.075 25.4421C51.0479 25.4198 51.0402 25.3975 51.044 25.3751C51.044 25.3788 51.0402 25.3788 51.0402 25.3788C51.0053 25.3602 50.9667 25.3528 50.928 25.3528L50.9202 25.3565C50.9434 25.3342 50.9705 25.3118 50.9937 25.2895C50.986 25.2709 50.9744 25.256 50.9667 25.2374C50.9783 25.1779 51.0286 25.1406 51.0634 25.0923H51.0595L51.0634 25.0885C51.0634 25.0885 51.0634 25.0885 51.0634 25.0923C51.1369 25.0401 51.2375 25.0513 51.3111 24.9918H51.3149C51.3962 24.8764 51.5781 24.988 51.6554 24.8578C51.6516 24.8578 51.6477 24.8578 51.6477 24.8615L51.6593 24.854C51.6593 24.8578 51.6554 24.8578 51.6554 24.8578C51.7328 24.8205 51.8373 24.828 51.8954 24.7498C51.8915 24.7498 51.8915 24.7498 51.8876 24.7535L51.8992 24.7461L51.8954 24.7498C51.9728 24.7052 52.0734 24.7163 52.1353 24.6382C52.1314 24.6382 52.1314 24.6382 52.1275 24.6419L52.1353 24.6382C52.1353 24.6382 52.1314 24.6382 52.1314 24.6419C52.2049 24.5935 52.3094 24.6047 52.3636 24.5265C52.3597 24.5265 52.3597 24.5265 52.3558 24.5302L52.3675 24.5228C52.3675 24.5265 52.3636 24.5265 52.3636 24.5265C52.4371 24.4818 52.5416 24.493 52.5919 24.4111C52.588 24.4111 52.588 24.4111 52.5842 24.4148L52.5996 24.4037C52.5958 24.4074 52.5919 24.4111 52.5919 24.4148C52.6499 24.4 52.6848 24.3553 52.7312 24.3255L52.7389 24.3218C52.7931 24.2436 52.9092 24.2697 52.9634 24.199L52.9595 24.2027C53.0214 24.1431 53.1336 24.158 53.1839 24.0761C53.1801 24.0761 53.1801 24.0761 53.1801 24.0799L53.1956 24.0687C53.1917 24.0724 53.1878 24.0761 53.1878 24.0799C53.2459 24.065 53.2846 24.0203 53.3271 23.9831C53.3813 23.9124 53.4974 23.9347 53.5438 23.8528C53.54 23.8528 53.54 23.8565 53.5361 23.8565L53.5516 23.8454C53.5516 23.8491 53.5477 23.8491 53.5438 23.8528C53.6019 23.8342 53.6406 23.7933 53.6793 23.7523C53.7373 23.6853 53.8573 23.7114 53.8921 23.6183C53.8882 23.6183 53.8882 23.6221 53.8844 23.6221L53.8998 23.6072C53.8998 23.6109 53.896 23.6146 53.896 23.6183C53.9617 23.6109 54.0004 23.5662 54.0275 23.5141C54.0237 23.5141 54.0237 23.5178 54.0198 23.5178L54.0314 23.5104C54.0314 23.5104 54.0314 23.5141 54.0275 23.5141C54.0778 23.4918 54.1165 23.4509 54.1552 23.4136C54.2558 23.3206 54.4029 23.2871 54.4841 23.168C54.4841 23.168 54.4841 23.168 54.4803 23.168L54.4919 23.1531C54.488 23.1568 54.4841 23.1605 54.4803 23.1643C54.5461 23.1494 54.5848 23.1084 54.6118 23.0563C54.608 23.0563 54.608 23.06 54.6041 23.06L54.6157 23.0489C54.6157 23.0526 54.6118 23.0526 54.6118 23.0563C54.666 23.034 54.7047 22.993 54.7357 22.9484L54.7318 22.9521L54.7395 22.9447C54.7395 22.9447 54.7395 22.9484 54.7357 22.9484C54.786 22.9186 54.8208 22.8814 54.8595 22.8405C54.8595 22.8405 54.8595 22.8404 54.8556 22.8442L54.8595 22.8405C54.9021 22.807 54.9408 22.766 54.9795 22.7325C55.0027 22.7102 55.0336 22.6953 55.0646 22.6841C55.0646 22.6767 55.0607 22.6655 55.0646 22.6581C55.0762 22.6357 55.0878 22.6246 55.0955 22.6246L55.0994 22.6209C55.1342 22.5799 55.1729 22.5464 55.2116 22.5129L55.2155 22.5092C55.2503 22.4683 55.289 22.4348 55.3277 22.4013L55.3316 22.3975C55.3664 22.3566 55.4051 22.3231 55.4438 22.2896L55.4477 22.2859C55.4825 22.2449 55.5212 22.2077 55.5599 22.1742L55.5638 22.1705C55.587 22.1482 55.6063 22.137 55.6296 22.1407C55.6412 22.1109 55.6566 22.0812 55.676 22.0551C55.7147 22.0179 55.7573 21.9807 55.7882 21.9397L55.7921 21.936L55.7882 21.9397C55.8346 21.9062 55.8733 21.869 55.9004 21.8206L55.8966 21.8243L55.9043 21.8169C55.9043 21.8206 55.9004 21.8206 55.9004 21.8206C55.9507 21.7908 55.9894 21.7536 56.0126 21.7015C56.0088 21.7015 56.0088 21.7052 56.0049 21.7052L56.0165 21.6941C56.0165 21.6978 56.0126 21.6978 56.0126 21.7015C56.0746 21.6792 56.1171 21.6382 56.1249 21.575C56.121 21.575 56.1171 21.5824 56.1133 21.5824L56.1287 21.5713V21.575C56.21 21.5452 56.2177 21.4521 56.2758 21.4075C56.2796 21.4038 56.2797 21.4 56.2835 21.3963V21.3926C56.2835 21.3926 56.2835 21.3926 56.2874 21.3926C56.3222 21.3517 56.3493 21.3033 56.3803 21.2623L56.3841 21.2586C56.3841 21.2586 56.3841 21.2586 56.3841 21.2623C56.4306 21.2251 56.4731 21.1879 56.4963 21.1321C56.4925 21.1358 56.4886 21.1395 56.4847 21.1432L56.4963 21.1321C56.6047 21.0427 56.655 20.9162 56.7363 20.8082L56.7401 20.8045C56.7401 20.8045 56.7401 20.8082 56.7363 20.8082C56.7827 20.7747 56.8291 20.7375 56.8407 20.678C56.8369 20.678 56.833 20.6817 56.8291 20.6854L56.8446 20.6705C56.8446 20.6743 56.8407 20.6743 56.8407 20.678C56.9336 20.637 56.9104 20.5217 56.9762 20.4658V20.4695C57.0187 20.4323 57.0652 20.3951 57.0768 20.3393C57.0729 20.343 57.0691 20.343 57.0652 20.3467L57.0807 20.3318C57.0807 20.3356 57.0768 20.3356 57.0768 20.3393C57.1697 20.2983 57.1503 20.1867 57.2084 20.1197L57.2045 20.1271C57.2858 20.075 57.2587 19.9634 57.3361 19.9075V19.9038C57.3709 19.8629 57.4212 19.8256 57.4289 19.7661C57.4251 19.7661 57.4212 19.7698 57.4173 19.7698C57.4134 19.7289 57.4289 19.6954 57.4638 19.673C57.4792 19.673 57.4908 19.673 57.5063 19.673C57.5141 19.6284 57.5411 19.5912 57.5489 19.5465C57.545 19.5465 57.545 19.5502 57.545 19.5502L57.5528 19.539C57.5528 19.5428 57.5528 19.5428 57.5528 19.5465C57.6418 19.4981 57.6301 19.3939 57.6766 19.3232L57.6727 19.3269L57.6805 19.3157C57.6805 19.3195 57.6805 19.3195 57.6766 19.3232C57.7617 19.2673 57.7501 19.1706 57.7927 19.0961C57.7888 19.0961 57.7888 19.0999 57.7888 19.0999L57.7965 19.0887C57.7965 19.0924 57.7965 19.0924 57.7927 19.0961C57.8778 19.0403 57.8701 18.9435 57.9049 18.8654C57.901 18.8654 57.901 18.8654 57.8972 18.8691C57.8894 18.8282 57.901 18.7947 57.9359 18.7686C57.9513 18.7686 57.9629 18.7686 57.9784 18.7686C57.9823 18.6904 57.9745 18.6048 58.0442 18.5416C58.1293 18.4522 58.1216 18.3555 58.168 18.2847ZM40.5728 21.8132C39.648 22.1072 38.6883 22.23 37.7248 22.2412C34.869 22.271 32.0171 22.2598 29.1613 22.2635C29.0839 22.2635 29.0065 22.2449 28.8904 22.2263C29.0994 21.4633 29.3006 20.7152 29.5096 19.9671C29.8037 18.9063 30.1132 17.853 30.3841 16.7885C30.4654 16.4647 30.6202 16.3754 30.953 16.3791C33.4721 16.3903 35.9912 16.3679 38.5103 16.394C39.5319 16.4051 40.5574 16.4386 41.5596 16.6806C41.7492 16.7252 41.9427 16.7699 42.1246 16.8369C42.8907 17.1235 43.2622 17.6781 43.2235 18.4708C43.1461 20.0638 42.1555 21.3144 40.5728 21.8132Z" fill="white"/>
</g>
<defs>
<filter id="filter0_d_11648_3601" x="0" y="0" width="69" height="53" filterUnits="userSpaceOnUse" color-interpolation-filters="sRGB">
<feFlood flood-opacity="0" result="BackgroundImageFix"/>
<feColorMatrix in="SourceAlpha" type="matrix" values="0 0 0 0 0 0 0 0 0 0 0 0 0 0 0 0 0 0 127 0" result="hardAlpha"/>
<feOffset dy="2"/>
<feGaussianBlur stdDeviation="5"/>
<feComposite in2="hardAlpha" operator="out"/>
<feColorMatrix type="matrix" values="0 0 0 0 0 0 0 0 0 0 0 0 0 0 0 0 0 0 0.17 0"/>
<feBlend mode="normal" in2="BackgroundImageFix" result="effect1_dropShadow_11648_3601"/>
<feBlend mode="normal" in="SourceGraphic" in2="effect1_dropShadow_11648_3601" result="shape"/>
</filter>
</defs>
</svg>
