<svg width="65" height="53" viewBox="0 0 65 53" fill="none" xmlns="http://www.w3.org/2000/svg">
<g id="3_E" filter="url(#filter0_d_11648_3066)">
<path d="M47.1677 40.9963C47.3424 40.9294 47.2209 40.7398 47.3196 40.6432C47.3044 40.6097 47.3082 40.58 47.3386 40.554C47.4259 40.4536 47.3462 40.305 47.4411 40.2083L47.4373 40.2157C47.5437 40.1042 47.4829 39.9481 47.5475 39.8255L47.5361 39.792L47.5627 39.766C47.6652 39.6582 47.593 39.5021 47.669 39.3869C47.65 39.3572 47.6576 39.3311 47.6842 39.3126C47.7791 39.2085 47.7032 39.0561 47.7867 38.9483C47.7715 38.9149 47.7754 38.8851 47.8057 38.8591C47.8931 38.7587 47.8133 38.6101 47.9083 38.5097L47.9045 38.5172C48.0108 38.4056 47.9501 38.2495 48.0146 38.1269L48.0032 38.0934L48.0298 38.0674C48.1324 37.9596 48.0602 37.8035 48.1362 37.6883C48.1172 37.6586 48.1248 37.6325 48.1514 37.614C48.2463 37.5099 48.1703 37.3575 48.2539 37.2497C48.2387 37.2163 48.2425 37.1865 48.2729 37.1605C48.3602 37.0601 48.2805 36.9115 48.3754 36.8111L48.3716 36.8186C48.478 36.707 48.4172 36.5509 48.4818 36.4283L48.4704 36.3948L48.497 36.3688C48.5995 36.2573 48.5273 36.1049 48.6033 35.986C48.5843 35.9562 48.5881 35.9339 48.6185 35.9116C48.7134 35.8039 48.6375 35.6552 48.721 35.5437C48.7059 35.5102 48.7096 35.4805 48.74 35.4582C48.8274 35.3578 48.7476 35.2092 48.8426 35.1088L48.8388 35.1162C48.9793 34.9899 48.835 34.7892 48.9603 34.6628V34.6665C49.0591 34.555 48.9945 34.4026 49.0667 34.2837C49.0477 34.2539 49.0515 34.2316 49.0818 34.2093C49.1768 34.1015 49.1008 33.9529 49.1844 33.8414C49.1692 33.8079 49.173 33.7782 49.2034 33.7559C49.2907 33.6555 49.211 33.5068 49.3059 33.4065L49.3021 33.4139C49.4427 33.2875 49.2983 33.0868 49.4237 32.9605V32.9642C49.5224 32.849 49.4578 32.6966 49.5262 32.5739H49.5338C49.3591 32.3472 49.1084 32.4624 48.8995 32.4624C41.3644 32.455 33.8255 32.455 26.2904 32.455C26.1157 32.455 25.941 32.4624 25.7701 32.4475C25.6523 32.4364 25.5991 32.3732 25.6257 32.258C25.6105 32.2245 25.6181 32.1948 25.6447 32.1688C25.7321 32.0684 25.6561 31.9235 25.7435 31.8231C25.7511 31.7859 25.7587 31.7525 25.7663 31.7153C25.7776 31.7153 25.7928 31.7153 25.8042 31.7153C25.8042 31.7116 25.808 31.7079 25.808 31.7042C25.8232 31.5927 25.7777 31.47 25.865 31.3659V31.3697C25.9676 31.2619 25.903 31.1058 25.9713 30.9868C25.9524 30.9571 25.9561 30.9348 25.9865 30.9162C26.0815 30.8084 26.0093 30.656 26.0891 30.5445C26.0701 30.5111 26.0777 30.485 26.1081 30.459C26.1954 30.3587 26.1195 30.2137 26.2068 30.1134C26.2144 30.0762 26.222 30.0427 26.2296 30.0056C26.241 30.0056 26.2562 30.0056 26.2676 30.0056C26.2676 30.0019 26.2714 29.9981 26.2714 29.9944C26.2866 29.8829 26.241 29.7603 26.3283 29.6562V29.6599C26.4309 29.5521 26.3663 29.396 26.4347 29.2771C26.4157 29.2473 26.4195 29.225 26.4499 29.2065C26.5448 29.0987 26.4727 28.9463 26.5524 28.8348C26.5334 28.8013 26.541 28.7753 26.5714 28.7493C26.6588 28.6489 26.5866 28.504 26.6702 28.4036C26.6778 28.3664 26.6891 28.333 26.6967 28.2958C26.7195 28.2958 26.7385 28.2958 26.7613 28.2995C26.7803 28.281 26.7993 28.2624 26.8221 28.2475C27.0348 28.2252 27.2475 28.2364 27.4601 28.2364C33.1836 28.2364 38.9034 28.2364 44.6269 28.2326C44.8281 28.2326 45.0522 28.3144 45.2383 28.1546L45.2193 28.1732C45.3599 28.0802 45.2649 27.913 45.3485 27.8015C45.3295 27.7718 45.3371 27.7457 45.3637 27.7271C45.4586 27.6194 45.3826 27.4707 45.4662 27.3629C45.451 27.3294 45.4548 27.2997 45.4852 27.2737C45.5725 27.1733 45.4928 27.0247 45.5877 26.928L45.5839 26.9355C45.6903 26.824 45.6295 26.6678 45.6941 26.5452L45.6827 26.5117L45.7093 26.4857C45.8118 26.3779 45.7397 26.2218 45.8156 26.1066C45.7966 26.0769 45.8042 26.0509 45.8308 26.0323C45.9258 25.9282 45.8498 25.7758 45.9334 25.668C45.9182 25.6346 45.922 25.6048 45.9523 25.5788C46.0397 25.4785 45.9599 25.3298 46.0549 25.2331L46.0511 25.2406C46.1574 25.1291 46.0967 24.973 46.1612 24.8503L46.1498 24.8169L46.1764 24.7908C46.279 24.6831 46.2068 24.5269 46.2828 24.4117C46.2638 24.382 46.2714 24.356 46.298 24.3374C46.3929 24.2296 46.3169 24.0809 46.4005 23.9694C46.3853 23.936 46.3891 23.9062 46.4195 23.8839C46.5068 23.7836 46.4271 23.6349 46.522 23.5345L46.5182 23.542C46.6588 23.4156 46.5144 23.2149 46.6436 23.0885V23.0922C46.7423 22.9807 46.6777 22.8283 46.7499 22.7094C46.7309 22.6797 46.7347 22.6574 46.7651 22.6351C46.8601 22.5273 46.7841 22.3786 46.8676 22.2671C46.8525 22.2337 46.8562 22.2039 46.8866 22.1816C46.974 22.0813 46.8942 21.9326 46.9892 21.8322L46.9854 21.8397C47.1259 21.7133 46.9816 21.5126 47.1107 21.3862V21.3899C47.2095 21.2784 47.1449 21.126 47.217 21.0071C47.1981 20.9774 47.2019 20.9551 47.2322 20.9365C47.3272 20.8287 47.2512 20.68 47.3348 20.5685C47.3196 20.5351 47.3234 20.5053 47.3538 20.483C47.4032 20.3269 47.4639 20.1745 47.3082 20.037C47.1563 20.0444 47.0006 20.0593 46.8487 20.0593C41.0948 20.0593 35.3447 20.0593 29.5908 20.0593C29.4389 20.0593 29.2831 20.0407 29.1312 20.0333C29.0933 20.0258 29.0553 20.0147 29.0135 20.0073C28.9869 19.985 28.9793 19.9589 28.9831 19.9329C28.9907 19.9069 28.9945 19.892 29.0021 19.892C28.9869 19.8586 28.9907 19.8289 29.0211 19.8028C29.0363 19.8028 29.0515 19.8028 29.0667 19.8028C29.0667 19.7768 29.0667 19.7508 29.0667 19.7248C29.0705 19.6319 29.0553 19.5352 29.1198 19.4534L29.116 19.4609C29.2224 19.3494 29.1578 19.1933 29.2262 19.0743C29.2072 19.0483 29.211 19.026 29.2414 19.0111C29.3401 18.9034 29.268 18.7472 29.3439 18.6357C29.3249 18.606 29.3325 18.58 29.3591 18.5577C29.4503 18.4536 29.3743 18.3012 29.4616 18.1934C29.4465 18.16 29.4503 18.1265 29.4806 18.1005C29.5642 18.0002 29.4844 17.8515 29.5794 17.7549L29.5756 17.7623C29.6819 17.6508 29.6174 17.4947 29.6857 17.3757C29.6667 17.3497 29.6705 17.3274 29.7009 17.3125C29.7997 17.2048 29.7275 17.0487 29.8073 16.9371C29.7883 16.9074 29.7959 16.8814 29.8225 16.8591C29.9136 16.755 29.8376 16.6026 29.925 16.4948C29.9098 16.4614 29.9136 16.4279 29.944 16.4019C30.1149 16.1232 30.3959 16.2347 30.6276 16.2347C37.8247 16.2272 45.0256 16.2309 52.2228 16.2235C52.4544 16.2235 52.7355 16.335 52.9026 16.0525L52.8988 16.06C53.0051 15.9522 52.9368 15.7961 53.0089 15.6771C52.9899 15.6474 52.9937 15.6251 53.0241 15.6065C53.1191 15.4987 53.0469 15.3463 53.1267 15.2348C53.1077 15.2014 53.1153 15.1754 53.1456 15.1493C53.233 15.049 53.157 14.904 53.2444 14.8037C53.252 14.7665 53.2596 14.7331 53.2672 14.6959C53.2786 14.6959 53.2938 14.6959 53.3052 14.6959C53.3052 14.6922 53.309 14.6885 53.309 14.6847C53.3242 14.5732 53.2786 14.4506 53.3659 14.3465V14.3502C53.4685 14.2424 53.4039 14.0863 53.4723 13.9674C53.4533 13.9377 53.4571 13.9154 53.4875 13.8968C53.5824 13.789 53.5103 13.6366 53.59 13.5251C53.571 13.4916 53.5786 13.4656 53.609 13.4396C53.7001 13.3392 53.6204 13.1906 53.7115 13.0902L53.7077 13.0976C53.7457 13.0679 53.7685 13.027 53.7723 12.9787C53.7837 12.8635 53.7419 12.7445 53.8293 12.6405V12.6442C53.9318 12.5327 53.8673 12.3766 53.9356 12.2576C53.9166 12.2316 53.9204 12.2093 53.9508 12.1907C54.0458 12.0829 53.9774 11.9306 54.0534 11.8153C54.0344 11.7819 54.042 11.7559 54.0723 11.7336C54.1635 11.6332 54.0837 11.4845 54.1749 11.3842L54.1711 11.3916C54.2091 11.3619 54.2319 11.321 54.2357 11.2727C54.2471 11.1575 54.2053 11.0385 54.2926 10.9344V10.9382C54.3952 10.8267 54.3306 10.6705 54.399 10.5516C54.38 10.5256 54.3838 10.5033 54.4142 10.4847C54.5091 10.3769 54.4407 10.2245 54.5167 10.1093C54.4977 10.0758 54.5053 10.0498 54.5357 10.0275C54.6269 9.92718 54.5471 9.77851 54.6382 9.67815L54.6344 9.68558C54.6724 9.65585 54.6952 9.61496 54.699 9.56664C54.7104 9.45142 54.6686 9.33248 54.756 9.22841V9.23213C54.8585 9.12062 54.794 8.96451 54.8623 8.84558C54.8433 8.81956 54.8471 8.79725 54.8775 8.77867C54.9725 8.67088 54.9041 8.51849 54.9801 8.40327C54.9611 8.36982 54.9687 8.3438 54.999 8.3215C55.0218 7.82716 54.6306 8.05017 54.4369 8.05017C42.7773 8.03902 31.1176 8.03902 19.4579 8.04274C19.2794 8.04274 19.0705 7.94981 18.9186 8.13566C18.9337 8.16539 18.9299 8.18769 18.8996 8.20999C18.8122 8.31035 18.892 8.45902 18.797 8.55938L18.8008 8.55194C18.6603 8.67831 18.8046 8.87902 18.6755 9.0054V9.00168C18.5767 9.11319 18.6413 9.26558 18.5691 9.38452C18.5881 9.41425 18.5843 9.43655 18.554 9.45514C18.459 9.56293 18.5312 9.71532 18.4514 9.82311C18.4666 9.85656 18.4628 9.88629 18.4324 9.90859C18.3451 10.0089 18.4248 10.1576 18.3299 10.258L18.3337 10.2505C18.2957 10.2803 18.2729 10.3212 18.2691 10.3695C18.2539 10.481 18.2995 10.6036 18.2083 10.704V10.7003C18.1058 10.8081 18.1742 10.9642 18.102 11.0831C18.121 11.1129 18.1172 11.1351 18.0868 11.1537C17.9919 11.2615 18.064 11.4139 17.9843 11.5217C17.9995 11.5552 17.9957 11.5849 17.9653 11.6072C17.8779 11.7075 17.9577 11.8562 17.8627 11.9566L17.8665 11.9491C17.8285 11.9789 17.8058 12.0198 17.802 12.0681C17.7868 12.1796 17.8323 12.3022 17.7412 12.4026V12.3989C17.6386 12.5067 17.707 12.6628 17.6349 12.7817C17.6538 12.8114 17.65 12.8338 17.6197 12.8523C17.5247 12.9601 17.5969 13.1125 17.5171 13.2203C17.5323 13.2538 17.5285 13.2835 17.4981 13.3058C17.4108 13.4061 17.4905 13.5548 17.3994 13.6552L17.4032 13.6477C17.3652 13.6775 17.3424 13.7184 17.3386 13.7667C17.3234 13.8782 17.369 14.0008 17.2816 14.1049V14.1012C17.1791 14.209 17.2437 14.3651 17.1753 14.484C17.1943 14.5138 17.1905 14.5361 17.1601 14.5547C17.0652 14.6624 17.1373 14.8148 17.0576 14.9263C17.0766 14.9598 17.069 14.9858 17.0386 15.0118C16.9512 15.1122 17.0272 15.2571 16.9398 15.3575C16.9322 15.3947 16.9246 15.4281 16.917 15.4653C16.9056 15.4653 16.8905 15.4653 16.8791 15.4653C16.8791 15.469 16.8753 15.4727 16.8753 15.4764C16.8601 15.5879 16.9056 15.7106 16.8183 15.8147V15.8109C16.7157 15.9187 16.7803 16.0748 16.712 16.1938C16.7309 16.2235 16.7271 16.2458 16.6968 16.2644C16.6018 16.3722 16.674 16.5246 16.5942 16.6361C16.6132 16.6695 16.6056 16.6956 16.5752 16.7216C16.4879 16.8219 16.5638 16.9669 16.4765 17.0672C16.4689 17.1044 16.4613 17.1379 16.4537 17.175C16.4423 17.175 16.4271 17.175 16.4157 17.175C16.4157 17.1787 16.4119 17.1825 16.4119 17.1862C16.3967 17.2977 16.4423 17.4203 16.3549 17.5244V17.5207C16.2524 17.6322 16.317 17.7883 16.2486 17.9072C16.2676 17.9333 16.2638 17.9556 16.2334 17.9741C16.1385 18.0819 16.2068 18.2343 16.1309 18.3495C16.1499 18.383 16.1423 18.409 16.1119 18.4313C16.0207 18.5317 16.0967 18.6766 16.0131 18.777C16.0055 18.8142 15.9979 18.8476 15.9903 18.8848C15.9752 18.8848 15.9638 18.8848 15.9486 18.8848C15.9486 18.8885 15.9448 18.8922 15.9448 18.8959C15.9334 19.0111 15.9751 19.1301 15.8878 19.2342V19.2304C15.7852 19.3419 15.8498 19.4981 15.7815 19.617C15.8004 19.643 15.7966 19.6653 15.7663 19.6839C15.6713 19.7917 15.7397 19.9441 15.6637 20.0593C15.6827 20.0927 15.6751 20.1188 15.6447 20.1411C15.5536 20.2414 15.6295 20.3864 15.546 20.4867C15.5384 20.5239 15.5308 20.5574 15.5232 20.5945C15.508 20.5945 15.4966 20.5945 15.4814 20.5945C15.4814 20.5982 15.4776 20.602 15.4776 20.6057C15.4662 20.7209 15.508 20.8398 15.4207 20.9439V20.9402C15.3181 21.0517 15.3827 21.2078 15.3143 21.3267C15.3333 21.3528 15.3295 21.3751 15.2991 21.3936C15.2042 21.5014 15.2725 21.6538 15.1966 21.769C15.2156 21.8025 15.208 21.8285 15.1776 21.8508C15.0864 21.9512 15.1624 22.0961 15.0788 22.1965C15.0712 22.2337 15.0636 22.2671 15.056 22.3043C15.0408 22.3043 15.0295 22.3043 15.0143 22.3043C15.0143 22.308 15.0105 22.3117 15.0105 22.3154C14.9991 22.4306 15.0371 22.5533 14.9535 22.6537L14.9573 22.6499C14.851 22.7614 14.9193 22.9175 14.851 23.0365C14.87 23.0625 14.8661 23.0848 14.8358 23.1034C14.737 23.2112 14.8092 23.3636 14.7332 23.4788C14.7522 23.5085 14.7446 23.5383 14.7142 23.5568C14.6231 23.6572 14.699 23.8022 14.6155 23.9025C14.6079 23.9397 14.6003 23.9731 14.5927 24.0103C14.5775 24.0103 14.5661 24.0103 14.5509 24.0103C14.5509 24.014 14.5471 24.0177 14.5471 24.0215C14.5357 24.1367 14.5737 24.2593 14.4902 24.3597L14.494 24.356C14.3876 24.4675 14.456 24.6236 14.3876 24.7425C14.4066 24.7685 14.4028 24.7908 14.3724 24.8094C14.2737 24.9172 14.3458 25.0696 14.2699 25.1848C14.2889 25.2183 14.2813 25.2443 14.2509 25.2629C14.1597 25.367 14.2357 25.5193 14.1483 25.6234C14.1635 25.6606 14.1597 25.6903 14.1293 25.7163C14.0458 25.8167 14.1256 25.9654 14.0306 26.062L14.0344 26.0546C13.9281 26.1661 13.9926 26.3222 13.9243 26.4411C13.9433 26.4671 13.9394 26.4894 13.9091 26.5043C13.8103 26.6121 13.8825 26.7682 13.8027 26.8797C13.8217 26.9094 13.8141 26.9355 13.7875 26.9578C13.6964 27.0618 13.7723 27.2142 13.685 27.322C13.7002 27.3555 13.6964 27.3889 13.666 27.4149C13.5824 27.5153 13.6622 27.664 13.5673 27.7606L13.571 27.7532C13.4647 27.8647 13.5293 28.0208 13.4609 28.1397C13.4799 28.1657 13.4761 28.188 13.4457 28.2029C13.347 28.3107 13.4191 28.4668 13.3394 28.5783C13.3584 28.608 13.3508 28.6341 13.3242 28.6564C13.233 28.7604 13.309 28.9128 13.2216 29.0206C13.2368 29.0541 13.233 29.0875 13.2026 29.1135C13.1191 29.2139 13.1989 29.3626 13.1039 29.4592L13.1077 29.4518C13.0014 29.5633 13.0659 29.7194 12.9976 29.842L13.009 29.8755L12.9824 29.9015C12.8836 30.0093 12.952 30.1654 12.876 30.2806C12.895 30.3104 12.8874 30.3364 12.8608 30.3587C12.7697 30.4627 12.8418 30.6151 12.7583 30.7229C12.7735 30.7564 12.7697 30.7898 12.7393 30.8121C12.6519 30.9125 12.7317 31.0612 12.6368 31.1578L12.6406 31.1504C12.5342 31.2619 12.5988 31.418 12.5304 31.5406L12.5418 31.5741L12.5152 31.6001C12.4165 31.7079 12.4848 31.864 12.4089 31.9792C12.4279 32.009 12.4203 32.035 12.3937 32.0573C12.3025 32.1613 12.3747 32.3137 12.2911 32.4215C12.3063 32.455 12.3025 32.4884 12.2722 32.5107C12.1848 32.6111 12.2645 32.7598 12.1696 32.8564L12.1734 32.849C12.0671 32.9605 12.1316 33.1166 12.0633 33.2392L12.0747 33.2727L12.0481 33.2987C11.9455 33.4065 12.0177 33.5626 11.9417 33.6778C11.9607 33.7076 11.9531 33.7336 11.9265 33.7559C11.8354 33.8637 11.9076 34.0123 11.824 34.1201C11.8392 34.1536 11.8354 34.1833 11.805 34.2093C11.7176 34.3097 11.7974 34.4584 11.7025 34.555L11.7063 34.5476C11.5999 34.6591 11.6607 34.8152 11.5961 34.9378L11.6075 34.9713L11.5809 34.9973C11.4784 35.1051 11.5505 35.2612 11.4746 35.3764C11.4936 35.4062 11.486 35.4322 11.4594 35.4508C11.3644 35.5585 11.4404 35.7072 11.3568 35.815C11.372 35.8485 11.3682 35.8782 11.3379 35.9042C11.2505 36.0046 11.3303 36.1532 11.2353 36.2499L11.2391 36.2424C11.1328 36.3539 11.1935 36.5101 11.129 36.6327L11.1404 36.6662L11.1138 36.6922C11.0112 36.8 11.0834 36.9561 11.0074 37.0713C11.0264 37.101 11.0188 37.127 10.9922 37.1456C10.8973 37.2534 10.9733 37.4021 10.8897 37.5099C10.9049 37.5433 10.9011 37.5731 10.8707 37.5991C10.7834 37.6994 10.8631 37.8481 10.772 37.9485L10.7758 37.941C10.6352 38.0674 10.7796 38.2681 10.6504 38.3945V38.3908C10.5517 38.5023 10.6162 38.6547 10.5441 38.7736C10.5631 38.8033 10.5593 38.8256 10.5289 38.8479C10.4339 38.9557 10.5099 39.1044 10.4263 39.2159C10.4415 39.2494 10.4377 39.2791 10.4074 39.3014C10.32 39.4018 10.3998 39.5504 10.3048 39.6508L10.3086 39.6434C10.1681 39.7697 10.3124 39.9704 10.1833 40.0968V40.0931C10.0845 40.2046 10.1491 40.357 10.0769 40.4759C10.0959 40.5057 10.0921 40.528 10.0617 40.5503C9.98958 40.7027 9.963 40.855 10.0807 41C10.3124 40.9963 10.5441 40.9851 10.7758 40.9851C22.6481 40.9851 34.5205 40.9851 46.3929 40.9851C46.6664 40.9926 46.917 40.9963 47.1677 40.9963Z" fill="white"/>
</g>
<defs>
<filter id="filter0_d_11648_3066" x="0" y="0" width="65" height="53" filterUnits="userSpaceOnUse" color-interpolation-filters="sRGB">
<feFlood flood-opacity="0" result="BackgroundImageFix"/>
<feColorMatrix in="SourceAlpha" type="matrix" values="0 0 0 0 0 0 0 0 0 0 0 0 0 0 0 0 0 0 127 0" result="hardAlpha"/>
<feOffset dy="2"/>
<feGaussianBlur stdDeviation="5"/>
<feComposite in2="hardAlpha" operator="out"/>
<feColorMatrix type="matrix" values="0 0 0 0 0 0 0 0 0 0 0 0 0 0 0 0 0 0 0.17 0"/>
<feBlend mode="normal" in2="BackgroundImageFix" result="effect1_dropShadow_11648_3066"/>
<feBlend mode="normal" in="SourceGraphic" in2="effect1_dropShadow_11648_3066" result="shape"/>
</filter>
</defs>
</svg>
