<svg width="133" height="132" viewBox="0 0 133 132" fill="none" xmlns="http://www.w3.org/2000/svg">
<g id="Vector" filter="url(#filter0_di_9934_16400)">
<path d="M66.5075 10.7266C36.8997 10.7266 12.8978 34.716 12.8978 64.3086C12.8978 93.9011 36.8997 117.891 66.5075 117.891C96.1153 117.891 120.117 93.9011 120.117 64.3086C120.117 34.7161 96.1153 10.7266 66.5075 10.7266Z" fill="#EEFFE9"/>
<path d="M14.0691 64.3086C14.0691 35.3635 37.546 11.8979 66.5075 11.8979C95.469 11.8979 118.946 35.3635 118.946 64.3086C118.946 93.2537 95.469 116.719 66.5075 116.719C37.546 116.719 14.0691 93.2537 14.0691 64.3086Z" stroke="url(#paint0_linear_9934_16400)" stroke-width="2.34263"/>
</g>
<defs>
<filter id="filter0_di_9934_16400" x="0.898438" y="0.726562" width="131.219" height="131.164" filterUnits="userSpaceOnUse" color-interpolation-filters="sRGB">
<feFlood flood-opacity="0" result="BackgroundImageFix"/>
<feColorMatrix in="SourceAlpha" type="matrix" values="0 0 0 0 0 0 0 0 0 0 0 0 0 0 0 0 0 0 127 0" result="hardAlpha"/>
<feOffset dy="2"/>
<feGaussianBlur stdDeviation="6"/>
<feComposite in2="hardAlpha" operator="out"/>
<feColorMatrix type="matrix" values="0 0 0 0 0 0 0 0 0 0 0 0 0 0 0 0 0 0 0.05 0"/>
<feBlend mode="normal" in2="BackgroundImageFix" result="effect1_dropShadow_9934_16400"/>
<feBlend mode="normal" in="SourceGraphic" in2="effect1_dropShadow_9934_16400" result="shape"/>
<feColorMatrix in="SourceAlpha" type="matrix" values="0 0 0 0 0 0 0 0 0 0 0 0 0 0 0 0 0 0 127 0" result="hardAlpha"/>
<feOffset dy="4.68526"/>
<feGaussianBlur stdDeviation="14.0558"/>
<feComposite in2="hardAlpha" operator="arithmetic" k2="-1" k3="1"/>
<feColorMatrix type="matrix" values="0 0 0 0 0 0 0 0 0 0 0 0 0 0 0 0 0 0 0.12 0"/>
<feBlend mode="normal" in2="shape" result="effect2_innerShadow_9934_16400"/>
</filter>
<linearGradient id="paint0_linear_9934_16400" x1="27.0295" y1="107.432" x2="110.512" y2="63.4191" gradientUnits="userSpaceOnUse">
<stop stop-color="#23B14D" stop-opacity="0.31"/>
<stop offset="1" stop-color="#23B14D" stop-opacity="0"/>
</linearGradient>
</defs>
</svg>
