<svg width="1356" height="231" viewBox="0 0 1356 231" fill="none" xmlns="http://www.w3.org/2000/svg">
<path d="M57.5 6.54301C35.9 -0.954485 10.1667 5.99172 0 10.402V230.5H1356V10.402C1334.67 14.2607 1286.9 19.6628 1266.5 10.402C1241 -1.17391 1183.5 -5.58638 1133.5 10.402C1083.5 26.3904 1046 23.629 993 10.402C940 -2.82493 924 -3.38408 861 10.402C798 24.1881 768.5 19.77 723 10.402C677.5 1.03408 643 1.02621 601 10.402C559 19.7778 521 18.1161 491.5 10.402C462 2.68794 401 -0.627645 370 10.402C339 21.4317 299 19.7733 270.5 10.402C242 1.0307 216 -0.624264 171 10.402C126 21.4283 84.5 15.9149 57.5 6.54301Z" fill="#23B14D" fill-opacity="0.2"/>
</svg>
