<svg width="19" height="19" viewBox="0 0 19 19" fill="none" xmlns="http://www.w3.org/2000/svg">
<g clip-path="url(#clip0_14836_5807)">
<path d="M12.0622 12.1903L9.53472 10.6903V7.29283C9.53472 6.99283 9.29472 6.75283 8.99472 6.75283H8.94972C8.64972 6.75283 8.40972 6.99283 8.40972 7.29283V10.8328C8.40972 11.0953 8.54472 11.3428 8.77722 11.4778L11.5147 13.1203C11.7697 13.2703 12.0997 13.1953 12.2497 12.9403C12.4072 12.6778 12.3247 12.3403 12.0622 12.1903ZM16.0447 4.51033L13.7347 2.59033C13.4197 2.32783 12.9472 2.36533 12.6772 2.68783C12.4147 3.00283 12.4597 3.47533 12.7747 3.74533L15.0772 5.66533C15.3922 5.92783 15.8647 5.89033 16.1347 5.56783C16.1983 5.49251 16.2464 5.4054 16.2763 5.31147C16.3062 5.21754 16.3173 5.11864 16.3089 5.02042C16.3006 4.92221 16.2729 4.82661 16.2276 4.73908C16.1823 4.65155 16.1201 4.57382 16.0447 4.51033ZM3.23472 5.66533L5.53722 3.74533C5.85972 3.47533 5.90472 3.00283 5.63472 2.68783C5.57255 2.61196 5.49592 2.54918 5.4093 2.50315C5.32267 2.45712 5.22777 2.42875 5.1301 2.41968C5.03242 2.41061 4.93392 2.42102 4.8403 2.45032C4.74668 2.47961 4.65981 2.5272 4.58472 2.59033L2.27472 4.51033C2.19932 4.57382 2.13718 4.65155 2.09185 4.73908C2.04651 4.82661 2.01887 4.92221 2.01051 5.02042C2.00216 5.11864 2.01324 5.21754 2.04313 5.31147C2.07302 5.4054 2.12114 5.49251 2.18472 5.56783C2.44722 5.89033 2.91972 5.92783 3.23472 5.66533ZM9.15972 3.75283C7.36941 3.75293 5.65247 4.46422 4.3866 5.73024C3.12073 6.99625 2.40962 8.71327 2.40972 10.5036C2.40982 12.2939 3.12112 14.0108 4.38713 15.2767C5.65314 16.5426 7.37016 17.2537 9.16047 17.2536C10.0469 17.2535 10.9247 17.0789 11.7437 16.7396C12.5627 16.4003 13.3068 15.903 13.9336 15.2762C14.5604 14.6493 15.0576 13.9051 15.3968 13.0861C15.736 12.2671 15.9105 11.3893 15.9105 10.5028C15.9104 9.61636 15.7358 8.73858 15.3965 7.9196C15.0572 7.10063 14.5599 6.3565 13.9331 5.72971C13.3062 5.10291 12.562 4.60572 11.743 4.26653C10.924 3.92734 10.0462 3.75278 9.15972 3.75283ZM9.15972 15.7528C6.26472 15.7528 3.90972 13.3978 3.90972 10.5028C3.90972 7.60783 6.26472 5.25283 9.15972 5.25283C12.0547 5.25283 14.4097 7.60783 14.4097 10.5028C14.4097 13.3978 12.0547 15.7528 9.15972 15.7528Z" fill="url(#paint0_linear_14836_5807)"/>
</g>
<defs>
<linearGradient id="paint0_linear_14836_5807" x1="8.59732" y1="-7.8639" x2="8.59732" y2="23.4402" gradientUnits="userSpaceOnUse">
<stop stop-color="#CDEC0F"/>
<stop offset="1" stop-color="#23B14D"/>
</linearGradient>
<clipPath id="clip0_14836_5807">
<rect width="18" height="18" fill="white" transform="translate(0.160156 0.75293)"/>
</clipPath>
</defs>
</svg>
