<svg width="14" height="16" viewBox="0 0 14 16" fill="none" xmlns="http://www.w3.org/2000/svg">
<path fill-rule="evenodd" clip-rule="evenodd" d="M11.5872 1.75783H12.2539C12.9872 1.75783 13.5872 2.35783 13.5872 3.09117V13.7578C13.5872 14.4912 12.9872 15.0912 12.2539 15.0912H1.58724C0.853906 15.0912 0.253906 14.4912 0.253906 13.7578V3.09117C0.253906 2.35783 0.853906 1.75783 1.58724 1.75783H2.25391V1.09117C2.25391 0.724499 2.55391 0.4245 2.92057 0.4245C3.28724 0.4245 3.58724 0.724499 3.58724 1.09117V1.75783H10.2539V1.09117C10.2539 0.724499 10.5539 0.4245 10.9206 0.4245C11.2872 0.4245 11.5872 0.724499 11.5872 1.09117V1.75783ZM2.25391 13.7578H11.5872C11.9539 13.7578 12.2539 13.4578 12.2539 13.0912V5.09117H1.58724V13.0912C1.58724 13.4578 1.88724 13.7578 2.25391 13.7578Z" fill="black"/>
</svg>
