<svg width="33" height="31" viewBox="0 0 33 31" fill="none" xmlns="http://www.w3.org/2000/svg">
<path d="M26.5994 8.33344C26.4788 6.77862 25.9535 5.35364 24.9472 4.13023C24.0542 3.04491 22.9059 2.34042 21.5333 2.02112C19.961 1.65482 18.4042 1.6742 16.8775 2.24981C15.6662 2.70574 14.7752 3.5396 14.1007 4.62396C13.9772 4.82213 13.8672 5.02902 13.7562 5.23494C13.6031 5.51838 13.3304 5.63515 13.0779 5.51983C12.7872 5.38659 12.6714 5.10266 12.8357 4.7979C13.0745 4.36183 13.3512 3.94515 13.6109 3.52119C13.6593 3.44706 13.7078 3.37584 13.7645 3.29153C13.225 2.91423 12.6131 2.65306 11.9674 2.52453C11.1437 2.36755 10.32 2.35931 9.50362 2.57299C8.23515 2.90537 7.21814 3.6181 6.41384 4.64673C5.60953 5.67537 5.14633 6.85905 4.99856 8.1595C4.99274 8.21134 5.06833 8.31212 5.12211 8.32569C5.40701 8.3974 5.59064 8.582 5.59112 8.82765C5.59112 9.08251 5.4322 9.27002 5.13616 9.34124C4.43264 9.51131 3.76497 9.76423 3.16949 10.1819C1.88019 11.086 1.19701 12.3138 1.19217 13.9035C1.18926 15.0106 1.47949 16.0218 2.1961 16.8842C2.85747 17.6803 3.72136 18.1406 4.73207 18.3073C5.18592 18.3766 5.64465 18.409 6.10374 18.4042C10.771 18.411 15.4385 18.4123 20.1064 18.4081C20.4082 18.4081 20.5909 18.5117 20.6694 18.7303C20.7513 18.9628 20.6985 19.1741 20.4988 19.3073C20.3753 19.3781 20.2346 19.4131 20.0923 19.4086C17.161 19.4141 14.2298 19.4155 11.2988 19.413C9.38491 19.413 7.47106 19.4183 5.55769 19.413C4.2679 19.4081 3.08664 19.035 2.08901 18.2152C1.05166 17.3649 0.459575 16.2442 0.243964 14.9181C0.0743819 13.8768 0.157232 12.8656 0.53758 11.8816C0.768468 11.2954 1.10039 10.7542 1.51825 10.2827C2.13747 9.56945 2.90204 9.07136 3.76061 8.69683C3.80566 8.67181 3.84459 8.63711 3.87459 8.59521C3.90458 8.55331 3.9249 8.50528 3.93407 8.45457C4.01547 7.5427 4.18699 6.65313 4.55619 5.81103C5.40361 3.87877 6.73072 2.41213 8.76764 1.73428C10.6786 1.09762 12.5319 1.29337 14.2577 2.38451C14.4137 2.48141 14.53 2.50079 14.6846 2.369C15.7418 1.4678 16.9865 0.982309 18.3514 0.835984C20.6011 0.593724 22.7257 0.936763 24.5736 2.35641C25.7418 3.25374 26.5481 4.4224 27.0694 5.7931C27.3834 6.61679 27.5825 7.46857 27.6067 8.35379C27.6125 8.5539 27.7133 8.62512 27.8897 8.67309C28.6983 8.89403 29.446 9.24385 30.0996 9.77585C31.1365 10.6189 31.7784 11.6883 31.9747 13.0221C32.1554 14.2538 32.0028 15.4365 31.4417 16.546C30.6602 18.0902 29.3839 19.0171 27.692 19.2971C26.8727 19.4323 26.0224 19.3868 25.1856 19.4096C24.9404 19.4163 24.7171 19.1537 24.7219 18.911C24.7272 18.6513 24.9559 18.4114 25.2161 18.409C25.6764 18.4042 26.1367 18.4245 26.597 18.409C27.6949 18.3669 28.7114 18.0791 29.5613 17.3431C30.3297 16.6788 30.7653 15.8265 30.9378 14.8347C31.1137 13.825 31.0444 12.8409 30.5662 11.9169C29.977 10.7783 29.007 10.1063 27.8141 9.71723C27.0025 9.4522 26.1638 9.36353 25.3164 9.3393C24.9772 9.32961 24.718 9.12078 24.719 8.84219C24.719 8.55147 24.9646 8.33683 25.3082 8.33489C25.7365 8.3315 26.1624 8.33344 26.5994 8.33344Z" fill="url(#paint0_linear_14826_27847)"/>
<path d="M14.641 27.1057V26.7946C14.641 24.8323 14.641 22.8702 14.641 20.9082C14.641 20.5206 14.8464 20.2977 15.174 20.3025C15.4162 20.3059 15.5693 20.4338 15.6357 20.6557C15.6657 20.7728 15.6792 20.8935 15.6759 21.0143C15.6788 23.3235 15.6788 25.6331 15.6759 27.9429C15.6727 28.0181 15.686 28.093 15.715 28.1624C15.7439 28.2319 15.7878 28.2941 15.8436 28.3446C16.2365 28.7278 16.6188 29.1198 17.02 29.5278C17.0872 29.4798 17.1519 29.4284 17.2138 29.3737C17.3693 29.2211 17.521 29.0646 17.6721 28.9081C17.9183 28.6532 18.2579 28.4352 18.3815 28.1329C18.505 27.8305 18.4164 27.4337 18.4164 27.0785C18.4164 25.6492 18.4164 24.2199 18.4164 22.791C18.4164 22.384 18.6814 22.1355 19.0322 22.198C19.2996 22.2464 19.4557 22.4809 19.4557 22.8424C19.4557 24.1583 19.4557 25.4745 19.4557 26.7907V27.0451L19.538 27.0936C19.8118 26.8028 20.0802 26.5078 20.3617 26.2214C20.808 25.7665 21.261 25.3183 21.713 24.8686C21.87 24.7131 22.0566 24.6613 22.2664 24.7441C22.4529 24.8178 22.5987 24.9612 22.5823 25.1589C22.5692 25.3307 22.5012 25.4937 22.3885 25.624C21.416 26.6148 20.4291 27.5907 19.4469 28.5718C18.8009 29.2179 18.156 29.8629 17.5123 30.507C17.1556 30.8631 16.9274 30.8505 16.5718 30.4939C15.3611 29.2787 14.1473 28.0665 12.9301 26.8571C12.5246 26.4525 12.1191 26.0484 11.7188 25.64C11.4436 25.3599 11.4233 25.0809 11.651 24.8541C11.87 24.6356 12.1714 24.6603 12.4359 24.9253C13.1046 25.5924 13.7727 26.2602 14.4404 26.9288C14.4893 26.9758 14.5436 27.0185 14.641 27.1057Z" fill="url(#paint1_linear_14826_27847)"/>
<path d="M14.6415 11.3307C14.6415 10.7338 14.6415 10.1362 14.6415 9.53796C14.6415 7.93323 15.7404 6.64198 17.3344 6.45447C19.039 6.25388 20.5671 7.47196 20.6689 9.13629C20.7532 10.5186 20.7445 11.9102 20.7081 13.2959C20.6699 14.7306 19.7454 15.8323 18.3921 16.1851C16.6876 16.6284 14.8619 15.3997 14.6982 13.6481C14.6264 12.8816 14.686 12.1025 14.686 11.3297L14.6415 11.3307ZM15.6846 11.3549H15.688C15.688 12.0332 15.6682 12.7116 15.6929 13.3899C15.7321 14.4771 16.6745 15.3139 17.7826 15.2572C18.8907 15.2005 19.6795 14.3221 19.6805 13.2101C19.6805 11.9756 19.6592 10.7391 19.6858 9.50695C19.7188 7.95406 17.9866 6.96564 16.7477 7.71422C16.0742 8.12122 15.7089 8.65225 15.688 9.42022C15.6696 10.0637 15.6846 10.7095 15.6846 11.3549Z" fill="url(#paint2_linear_14826_27847)"/>
<path d="M31.199 21.6335C30.1892 22.4737 29.0055 22.8729 27.7918 23.2184C26.6585 23.5406 26.0359 24.3526 25.8305 25.4738C25.7374 25.9811 25.7593 26.5121 25.7534 27.033C25.7505 27.3043 25.5843 27.566 25.3324 27.5999C25.031 27.6425 24.751 27.4545 24.7272 27.1468C24.6231 25.8299 24.7805 24.5692 25.6187 23.4824C26.1033 22.8564 26.7423 22.4538 27.5016 22.2372C28.3456 21.995 29.1945 21.7575 29.9358 21.2711C30.2667 21.054 30.557 20.7691 30.8414 20.4905C30.9422 20.3936 30.9824 20.2236 31.0308 20.0801C31.1248 19.803 31.2963 19.662 31.5565 19.6707C31.8167 19.6794 32.0062 19.8364 32.0478 20.1184C32.1612 20.882 32.2775 21.6461 32.3516 22.4136C32.4202 23.0787 32.4526 23.747 32.4485 24.4156C32.4355 25.4205 32.2809 26.4075 31.7983 27.3087C31.1495 28.52 30.1049 29.1872 28.7754 29.4406C28.6577 29.4665 28.5381 29.4827 28.4178 29.489C28.2836 29.4962 28.1518 29.4509 28.0503 29.3628C27.9488 29.2747 27.8854 29.1505 27.8737 29.0166C27.8577 28.7744 28.0573 28.5554 28.3141 28.4836C28.7391 28.3674 29.1732 28.2661 29.5773 28.096C30.4232 27.7389 30.8942 27.0422 31.1602 26.1923C31.3991 25.4292 31.4538 24.6419 31.4155 23.8492C31.3826 23.1665 31.3133 22.4853 31.2571 21.8036C31.2436 21.745 31.2241 21.688 31.199 21.6335Z" fill="url(#paint3_linear_14826_27847)"/>
<path d="M8.75552 11.3457C8.75552 11.9916 8.74389 12.6379 8.75843 13.2838C8.78023 14.2431 9.39702 14.9888 10.3254 15.2049C11.5163 15.483 12.717 14.5518 12.7509 13.324C12.761 12.9533 12.9849 12.7208 13.3115 12.7426C13.6235 12.7615 13.811 13.0502 13.7814 13.4078C13.7223 14.1317 13.4689 14.7713 12.9762 15.3042C12.4408 15.8827 11.7688 16.2117 10.9829 16.2616C9.92128 16.33 9.0506 15.9433 8.3713 15.1138C7.92893 14.5731 7.73125 13.9456 7.71914 13.2692C7.69588 11.994 7.70169 10.7178 7.71477 9.44154C7.71838 9.01869 7.8104 8.60126 7.98491 8.21609C8.15942 7.83091 8.41257 7.48649 8.72809 7.20496C9.04362 6.92343 9.41454 6.71101 9.81704 6.58135C10.2195 6.45168 10.6447 6.40764 11.0652 6.45205C11.7611 6.5174 12.4118 6.82523 12.9037 7.32174C13.3956 7.81824 13.6974 8.47184 13.7563 9.16827C13.7616 9.23222 13.7805 9.29521 13.7858 9.35917C13.812 9.68719 13.5993 9.95416 13.3037 9.96821C12.9941 9.98226 12.7586 9.76083 12.7538 9.42555C12.754 9.15464 12.6964 8.88681 12.5848 8.63997C12.4731 8.39314 12.3101 8.17299 12.1065 7.99428C11.5013 7.45113 10.7876 7.29269 10.023 7.6023C9.26572 7.909 8.81173 8.48558 8.77006 9.31265C8.73469 9.99098 8.76279 10.6693 8.76279 11.3476L8.75552 11.3457Z" fill="url(#paint4_linear_14826_27847)"/>
<path d="M23.2703 15.2611C23.7252 15.2611 24.1424 15.2611 24.5596 15.2611C24.8939 15.2611 25.1337 15.4869 25.1236 15.7878C25.1139 16.0678 24.8842 16.2645 24.563 16.2645C23.764 16.2645 22.9641 16.2587 22.1656 16.2684C21.9097 16.2713 21.7295 16.1846 21.6205 15.954C21.5115 15.7233 21.6137 15.5344 21.7658 15.3624C22.1869 14.8846 22.6317 14.4253 23.0217 13.9233C23.3565 13.4931 23.6429 13.0226 23.92 12.5517C24.0179 12.3678 24.0734 12.1643 24.0823 11.9562C24.108 11.5831 23.9321 11.3748 23.5687 11.273C23.2431 11.1819 22.8449 11.3098 22.6966 11.571C22.6482 11.6572 22.6482 11.7706 22.6191 11.8709C22.5818 12.009 22.5658 12.1616 22.4955 12.2799C22.3846 12.4703 22.1312 12.5337 21.918 12.462C21.8119 12.4209 21.7217 12.347 21.6603 12.2513C21.5989 12.1555 21.5695 12.0426 21.5764 11.9291C21.6248 11.0085 22.0939 10.3985 23.0881 10.2405C23.9845 10.0985 24.8663 10.5797 25.0809 11.5414C25.2156 12.1452 25.0373 12.6931 24.7447 13.2038C24.5092 13.6152 24.2369 14.0067 23.9617 14.3938C23.7529 14.684 23.5188 14.952 23.2703 15.2611Z" fill="url(#paint5_linear_14826_27847)"/>
<path d="M23.3996 30.1228C23.0925 30.1194 22.8948 29.9508 22.841 29.6901C22.7925 29.4667 22.95 29.2274 23.202 29.1276C23.5154 29.0026 23.8318 28.8882 24.14 28.7458C25.5073 28.1081 26.6924 27.2181 27.7216 26.1192C28.5328 25.2453 29.2223 24.2658 29.7711 23.2072C29.8638 23.0436 30.0061 22.9138 30.1776 22.8366C30.3607 22.7581 30.5594 22.8366 30.6839 23.0187C30.7478 23.1034 30.7841 23.2057 30.7878 23.3117C30.7916 23.4178 30.7626 23.5224 30.7048 23.6113C30.2585 24.3381 29.8472 25.091 29.3408 25.7732C28.1116 27.4303 26.5514 28.7099 24.6967 29.6194C24.3367 29.7957 23.9554 29.9299 23.5823 30.0796C23.523 30.1 23.4618 30.1144 23.3996 30.1228Z" fill="url(#paint6_linear_14826_27847)"/>
<path d="M22.7126 19.4144C22.4369 19.412 22.1961 19.1721 22.2014 18.9071C22.2068 18.6421 22.4602 18.4042 22.7257 18.4105C23.0019 18.4173 23.2402 18.6561 23.2354 18.9207C23.2285 19.0544 23.1704 19.1804 23.073 19.2724C22.9756 19.3643 22.8465 19.4152 22.7126 19.4144Z" fill="url(#paint7_linear_14826_27847)"/>
<path d="M26.5994 8.33344C26.4788 6.77862 25.9535 5.35364 24.9472 4.13023C24.0542 3.04491 22.9059 2.34042 21.5333 2.02112C19.961 1.65482 18.4042 1.6742 16.8775 2.24981C15.6662 2.70574 14.7752 3.5396 14.1007 4.62396C13.9772 4.82213 13.8672 5.02902 13.7562 5.23494C13.6031 5.51838 13.3304 5.63515 13.0779 5.51983C12.7872 5.38659 12.6714 5.10266 12.8357 4.7979C13.0745 4.36183 13.3512 3.94515 13.6109 3.52119C13.6593 3.44706 13.7078 3.37584 13.7645 3.29153C13.225 2.91423 12.6131 2.65306 11.9674 2.52453C11.1437 2.36755 10.32 2.35931 9.50362 2.57299C8.23515 2.90537 7.21814 3.6181 6.41384 4.64673C5.60953 5.67537 5.14633 6.85905 4.99856 8.1595C4.99274 8.21134 5.06833 8.31212 5.12211 8.32569C5.40701 8.3974 5.59064 8.582 5.59112 8.82765C5.59112 9.08251 5.4322 9.27002 5.13616 9.34124C4.43264 9.51131 3.76497 9.76423 3.16949 10.1819C1.88019 11.086 1.19701 12.3138 1.19217 13.9035C1.18926 15.0106 1.47949 16.0218 2.1961 16.8842C2.85746 17.6803 3.72136 18.1406 4.73207 18.3073C5.18592 18.3766 5.64465 18.409 6.10374 18.4042C10.771 18.411 15.4385 18.4123 20.1064 18.4081C20.4082 18.4081 20.5909 18.5117 20.6694 18.7303C20.7513 18.9628 20.6985 19.1741 20.4988 19.3073C20.3753 19.3781 20.2346 19.4131 20.0923 19.4086C17.161 19.4141 14.2298 19.4155 11.2988 19.413C9.38491 19.413 7.47106 19.4183 5.55769 19.413C4.2679 19.4081 3.08664 19.035 2.08901 18.2152C1.05166 17.3649 0.459575 16.2442 0.243964 14.9181C0.0743819 13.8768 0.157232 12.8656 0.53758 11.8816C0.768468 11.2954 1.10039 10.7542 1.51825 10.2827C2.13747 9.56945 2.90204 9.07136 3.76061 8.69683C3.80566 8.67182 3.84459 8.63711 3.87459 8.59521C3.90458 8.55331 3.9249 8.50528 3.93407 8.45457C4.01547 7.5427 4.18699 6.65313 4.55619 5.81103C5.40361 3.87877 6.73072 2.41213 8.76764 1.73428C10.6786 1.09762 12.5319 1.29337 14.2577 2.38451C14.4137 2.48141 14.53 2.50079 14.6846 2.369C15.7418 1.4678 16.9865 0.982309 18.3514 0.835984C20.6011 0.593724 22.7257 0.936763 24.5736 2.35641C25.7418 3.25374 26.5481 4.4224 27.0694 5.7931C27.3834 6.61679 27.5825 7.46857 27.6067 8.35379C27.6125 8.5539 27.7133 8.62512 27.8897 8.67309C28.6983 8.89403 29.446 9.24385 30.0996 9.77585C31.1365 10.6189 31.7784 11.6883 31.9747 13.0221C32.1554 14.2538 32.0028 15.4365 31.4417 16.546C30.6602 18.0902 29.3839 19.0171 27.692 19.2971C26.8727 19.4323 26.0223 19.3868 25.1856 19.4096C24.9404 19.4163 24.7171 19.1537 24.7219 18.911C24.7272 18.6513 24.9559 18.4114 25.2161 18.409C25.6764 18.4042 26.1367 18.4245 26.597 18.409C27.6949 18.3669 28.7114 18.0791 29.5613 17.3431C30.3297 16.6788 30.7653 15.8265 30.9378 14.8347C31.1137 13.825 31.0444 12.8409 30.5662 11.9169C29.977 10.7783 29.007 10.1063 27.8141 9.71723C27.0025 9.4522 26.1638 9.36353 25.3164 9.3393C24.9772 9.32961 24.718 9.12078 24.719 8.84219C24.719 8.55147 24.9646 8.33683 25.3082 8.33489C25.7365 8.3315 26.1624 8.33344 26.5994 8.33344Z" stroke="url(#paint8_linear_14826_27847)" stroke-width="0.25"/>
<path d="M14.641 27.1057V26.7946C14.641 24.8323 14.641 22.8702 14.641 20.9082C14.641 20.5206 14.8464 20.2977 15.174 20.3025C15.4162 20.3059 15.5693 20.4338 15.6357 20.6557C15.6657 20.7728 15.6792 20.8935 15.6759 21.0143C15.6788 23.3235 15.6788 25.6331 15.6759 27.9429C15.6727 28.0181 15.686 28.093 15.715 28.1624C15.7439 28.2319 15.7878 28.2941 15.8436 28.3446C16.2365 28.7278 16.6188 29.1198 17.02 29.5278C17.0872 29.4798 17.1519 29.4284 17.2138 29.3737C17.3693 29.2211 17.521 29.0646 17.6721 28.9081C17.9183 28.6532 18.2579 28.4352 18.3815 28.1328C18.505 27.8305 18.4164 27.4337 18.4164 27.0785C18.4164 25.6492 18.4164 24.2199 18.4164 22.791C18.4164 22.384 18.6814 22.1355 19.0322 22.198C19.2996 22.2464 19.4557 22.4809 19.4557 22.8424C19.4557 24.1583 19.4557 25.4745 19.4557 26.7907V27.0451L19.538 27.0936C19.8118 26.8028 20.0802 26.5078 20.3617 26.2214C20.808 25.7665 21.261 25.3183 21.713 24.8686C21.87 24.7131 22.0566 24.6613 22.2664 24.7441C22.4529 24.8178 22.5987 24.9612 22.5823 25.1589C22.5692 25.3307 22.5012 25.4937 22.3885 25.624C21.416 26.6148 20.4291 27.5907 19.4469 28.5718C18.8009 29.2179 18.156 29.8629 17.5123 30.507C17.1556 30.8631 16.9274 30.8505 16.5718 30.4939C15.3611 29.2787 14.1473 28.0665 12.9301 26.8571C12.5246 26.4525 12.1191 26.0484 11.7188 25.64C11.4436 25.3599 11.4233 25.0809 11.651 24.8541C11.87 24.6356 12.1714 24.6603 12.4359 24.9253C13.1046 25.5924 13.7727 26.2602 14.4404 26.9288C14.4893 26.9758 14.5436 27.0185 14.641 27.1057Z" stroke="url(#paint9_linear_14826_27847)" stroke-width="0.25"/>
<path d="M14.6415 11.3307C14.6415 10.7338 14.6415 10.1362 14.6415 9.53796C14.6415 7.93323 15.7404 6.64198 17.3344 6.45447C19.039 6.25388 20.5671 7.47196 20.6689 9.13629C20.7532 10.5186 20.7445 11.9102 20.7081 13.2959C20.6699 14.7306 19.7454 15.8323 18.3921 16.1851C16.6876 16.6284 14.8619 15.3997 14.6982 13.6481C14.6264 12.8816 14.686 12.1025 14.686 11.3297L14.6415 11.3307ZM15.6846 11.3549H15.688C15.688 12.0332 15.6682 12.7116 15.6929 13.3899C15.7321 14.4771 16.6745 15.3139 17.7826 15.2572C18.8907 15.2005 19.6795 14.3221 19.6805 13.2101C19.6805 11.9756 19.6592 10.7391 19.6858 9.50695C19.7188 7.95406 17.9866 6.96564 16.7477 7.71422C16.0742 8.12122 15.7089 8.65225 15.688 9.42022C15.6696 10.0637 15.6846 10.7095 15.6846 11.3549Z" stroke="url(#paint10_linear_14826_27847)" stroke-width="0.25"/>
<path d="M31.199 21.6335C30.1892 22.4737 29.0055 22.8729 27.7918 23.2184C26.6585 23.5406 26.0359 24.3526 25.8305 25.4738C25.7374 25.9811 25.7593 26.5121 25.7534 27.033C25.7505 27.3043 25.5843 27.566 25.3324 27.5999C25.031 27.6425 24.751 27.4545 24.7272 27.1468C24.6231 25.8299 24.7805 24.5692 25.6187 23.4824C26.1033 22.8564 26.7423 22.4538 27.5016 22.2372C28.3456 21.995 29.1945 21.7575 29.9358 21.2711C30.2667 21.054 30.557 20.7691 30.8414 20.4905C30.9422 20.3936 30.9824 20.2236 31.0308 20.0801C31.1248 19.803 31.2963 19.662 31.5565 19.6707C31.8167 19.6794 32.0062 19.8364 32.0478 20.1184C32.1612 20.882 32.2775 21.6461 32.3516 22.4136C32.4202 23.0787 32.4526 23.747 32.4485 24.4156C32.4355 25.4205 32.2809 26.4075 31.7983 27.3087C31.1495 28.52 30.1049 29.1872 28.7754 29.4406C28.6577 29.4665 28.5381 29.4827 28.4178 29.489C28.2836 29.4962 28.1518 29.4509 28.0503 29.3628C27.9488 29.2747 27.8854 29.1505 27.8737 29.0166C27.8577 28.7744 28.0573 28.5554 28.3141 28.4836C28.7391 28.3674 29.1732 28.2661 29.5773 28.096C30.4232 27.7389 30.8942 27.0422 31.1602 26.1923C31.3991 25.4292 31.4538 24.6419 31.4155 23.8492C31.3826 23.1665 31.3133 22.4853 31.2571 21.8036C31.2436 21.745 31.2241 21.688 31.199 21.6335Z" stroke="url(#paint11_linear_14826_27847)" stroke-width="0.25"/>
<path d="M8.75553 11.3457C8.75553 11.9916 8.74389 12.6379 8.75843 13.2838C8.78023 14.2431 9.39702 14.9888 10.3254 15.2049C11.5163 15.483 12.717 14.5518 12.7509 13.324C12.761 12.9533 12.9849 12.7208 13.3115 12.7426C13.6235 12.7615 13.811 13.0502 13.7814 13.4078C13.7223 14.1317 13.4689 14.7713 12.9762 15.3042C12.4408 15.8827 11.7688 16.2117 10.9829 16.2616C9.92128 16.33 9.05059 15.9433 8.3713 15.1138C7.92893 14.5731 7.73125 13.9456 7.71914 13.2692C7.69588 11.994 7.70169 10.7178 7.71477 9.44154C7.71838 9.01869 7.8104 8.60126 7.98491 8.21609C8.15942 7.83091 8.41257 7.48649 8.72809 7.20496C9.04362 6.92343 9.41454 6.71101 9.81704 6.58135C10.2195 6.45168 10.6447 6.40764 11.0652 6.45205C11.7611 6.5174 12.4118 6.82523 12.9037 7.32174C13.3956 7.81824 13.6974 8.47184 13.7563 9.16827C13.7616 9.23222 13.7805 9.29521 13.7858 9.35917C13.812 9.68719 13.5993 9.95416 13.3037 9.96821C12.9941 9.98226 12.7586 9.76083 12.7538 9.42555C12.754 9.15464 12.6964 8.88681 12.5848 8.63997C12.4731 8.39314 12.3101 8.17299 12.1065 7.99428C11.5013 7.45113 10.7876 7.29269 10.023 7.6023C9.26572 7.909 8.81173 8.48558 8.77006 9.31265C8.73469 9.99098 8.76279 10.6693 8.76279 11.3476L8.75553 11.3457Z" stroke="url(#paint12_linear_14826_27847)" stroke-width="0.25"/>
<path d="M23.2703 15.2611C23.7252 15.2611 24.1424 15.2611 24.5596 15.2611C24.8939 15.2611 25.1337 15.4869 25.1236 15.7878C25.1139 16.0678 24.8842 16.2645 24.563 16.2645C23.764 16.2645 22.9641 16.2587 22.1656 16.2684C21.9097 16.2713 21.7295 16.1846 21.6205 15.954C21.5115 15.7233 21.6137 15.5344 21.7658 15.3624C22.1869 14.8846 22.6317 14.4253 23.0217 13.9233C23.3565 13.4931 23.6429 13.0226 23.92 12.5517C24.0179 12.3678 24.0734 12.1643 24.0823 11.9562C24.108 11.5831 23.9321 11.3748 23.5687 11.273C23.2431 11.1819 22.8449 11.3098 22.6966 11.571C22.6482 11.6572 22.6482 11.7706 22.6191 11.8709C22.5818 12.009 22.5658 12.1616 22.4955 12.2799C22.3846 12.4703 22.1312 12.5337 21.918 12.462C21.8119 12.4209 21.7217 12.347 21.6603 12.2513C21.5989 12.1555 21.5695 12.0426 21.5764 11.9291C21.6248 11.0085 22.0939 10.3985 23.0881 10.2405C23.9845 10.0985 24.8663 10.5797 25.0809 11.5414C25.2156 12.1452 25.0373 12.6931 24.7447 13.2038C24.5092 13.6152 24.2369 14.0067 23.9617 14.3938C23.7529 14.684 23.5188 14.952 23.2703 15.2611Z" stroke="url(#paint13_linear_14826_27847)" stroke-width="0.25"/>
<path d="M23.3996 30.1228C23.0925 30.1194 22.8948 29.9508 22.841 29.6901C22.7925 29.4667 22.95 29.2274 23.202 29.1276C23.5154 29.0026 23.8318 28.8882 24.14 28.7458C25.5073 28.1081 26.6924 27.2181 27.7216 26.1192C28.5328 25.2453 29.2223 24.2658 29.7711 23.2072C29.8638 23.0436 30.0061 22.9138 30.1776 22.8366C30.3607 22.7581 30.5594 22.8366 30.6839 23.0187C30.7478 23.1034 30.7841 23.2057 30.7878 23.3117C30.7916 23.4178 30.7626 23.5224 30.7048 23.6113C30.2585 24.3381 29.8472 25.091 29.3408 25.7732C28.1116 27.4303 26.5514 28.7099 24.6967 29.6194C24.3367 29.7957 23.9554 29.9299 23.5823 30.0796C23.523 30.1 23.4618 30.1144 23.3996 30.1228Z" stroke="url(#paint14_linear_14826_27847)" stroke-width="0.25"/>
<path d="M22.7126 19.4144C22.4369 19.412 22.1961 19.1721 22.2014 18.9071C22.2068 18.6421 22.4602 18.4042 22.7257 18.4105C23.0019 18.4173 23.2402 18.6561 23.2354 18.9207C23.2285 19.0544 23.1704 19.1804 23.073 19.2724C22.9756 19.3643 22.8465 19.4152 22.7126 19.4144Z" stroke="url(#paint15_linear_14826_27847)" stroke-width="0.25"/>
<defs>
<linearGradient id="paint0_linear_14826_27847" x1="15.035" y1="-20.0241" x2="15.035" y2="43.2783" gradientUnits="userSpaceOnUse">
<stop stop-color="#CDEC0F"/>
<stop offset="1" stop-color="#23B14D"/>
</linearGradient>
<linearGradient id="paint1_linear_14826_27847" x1="15.035" y1="-20.0241" x2="15.035" y2="43.2783" gradientUnits="userSpaceOnUse">
<stop stop-color="#CDEC0F"/>
<stop offset="1" stop-color="#23B14D"/>
</linearGradient>
<linearGradient id="paint2_linear_14826_27847" x1="15.035" y1="-20.0241" x2="15.035" y2="43.2783" gradientUnits="userSpaceOnUse">
<stop stop-color="#CDEC0F"/>
<stop offset="1" stop-color="#23B14D"/>
</linearGradient>
<linearGradient id="paint3_linear_14826_27847" x1="15.035" y1="-20.0241" x2="15.035" y2="43.2783" gradientUnits="userSpaceOnUse">
<stop stop-color="#CDEC0F"/>
<stop offset="1" stop-color="#23B14D"/>
</linearGradient>
<linearGradient id="paint4_linear_14826_27847" x1="15.035" y1="-20.0241" x2="15.035" y2="43.2783" gradientUnits="userSpaceOnUse">
<stop stop-color="#CDEC0F"/>
<stop offset="1" stop-color="#23B14D"/>
</linearGradient>
<linearGradient id="paint5_linear_14826_27847" x1="15.035" y1="-20.0241" x2="15.035" y2="43.2783" gradientUnits="userSpaceOnUse">
<stop stop-color="#CDEC0F"/>
<stop offset="1" stop-color="#23B14D"/>
</linearGradient>
<linearGradient id="paint6_linear_14826_27847" x1="15.035" y1="-20.0241" x2="15.035" y2="43.2783" gradientUnits="userSpaceOnUse">
<stop stop-color="#CDEC0F"/>
<stop offset="1" stop-color="#23B14D"/>
</linearGradient>
<linearGradient id="paint7_linear_14826_27847" x1="15.035" y1="-20.0241" x2="15.035" y2="43.2783" gradientUnits="userSpaceOnUse">
<stop stop-color="#CDEC0F"/>
<stop offset="1" stop-color="#23B14D"/>
</linearGradient>
<linearGradient id="paint8_linear_14826_27847" x1="15.035" y1="-20.0241" x2="15.035" y2="43.2783" gradientUnits="userSpaceOnUse">
<stop stop-color="#CDEC0F"/>
<stop offset="1" stop-color="#23B14D"/>
</linearGradient>
<linearGradient id="paint9_linear_14826_27847" x1="15.035" y1="-20.0241" x2="15.035" y2="43.2783" gradientUnits="userSpaceOnUse">
<stop stop-color="#CDEC0F"/>
<stop offset="1" stop-color="#23B14D"/>
</linearGradient>
<linearGradient id="paint10_linear_14826_27847" x1="15.035" y1="-20.0241" x2="15.035" y2="43.2783" gradientUnits="userSpaceOnUse">
<stop stop-color="#CDEC0F"/>
<stop offset="1" stop-color="#23B14D"/>
</linearGradient>
<linearGradient id="paint11_linear_14826_27847" x1="15.035" y1="-20.0241" x2="15.035" y2="43.2783" gradientUnits="userSpaceOnUse">
<stop stop-color="#CDEC0F"/>
<stop offset="1" stop-color="#23B14D"/>
</linearGradient>
<linearGradient id="paint12_linear_14826_27847" x1="15.035" y1="-20.0241" x2="15.035" y2="43.2783" gradientUnits="userSpaceOnUse">
<stop stop-color="#CDEC0F"/>
<stop offset="1" stop-color="#23B14D"/>
</linearGradient>
<linearGradient id="paint13_linear_14826_27847" x1="15.035" y1="-20.0241" x2="15.035" y2="43.2783" gradientUnits="userSpaceOnUse">
<stop stop-color="#CDEC0F"/>
<stop offset="1" stop-color="#23B14D"/>
</linearGradient>
<linearGradient id="paint14_linear_14826_27847" x1="15.035" y1="-20.0241" x2="15.035" y2="43.2783" gradientUnits="userSpaceOnUse">
<stop stop-color="#CDEC0F"/>
<stop offset="1" stop-color="#23B14D"/>
</linearGradient>
<linearGradient id="paint15_linear_14826_27847" x1="15.035" y1="-20.0241" x2="15.035" y2="43.2783" gradientUnits="userSpaceOnUse">
<stop stop-color="#CDEC0F"/>
<stop offset="1" stop-color="#23B14D"/>
</linearGradient>
</defs>
</svg>
