<svg width="30" height="30" viewBox="0 0 30 30" fill="none" xmlns="http://www.w3.org/2000/svg">
<path d="M9.83542 6.11937C11.1598 4.48579 12.4552 2.88702 13.7523 1.28942C14.1414 0.80967 14.6835 0.635639 15.1926 0.875802C15.4155 0.987663 15.61 1.14874 15.7615 1.34685C16.9032 2.82147 18.0304 4.30538 19.1617 5.78929C19.2667 5.92677 19.3728 6.06426 19.4986 6.22785C19.7885 5.96564 20.0698 5.71736 20.3452 5.46501C20.823 5.02761 21.2992 4.58886 21.7739 4.14875C22.2912 3.66901 22.9881 3.66843 23.4862 4.17544C25.2072 5.92581 26.9222 7.68178 28.6312 9.44337C28.816 9.63988 28.9457 9.88156 29.0076 10.1441C29.0977 10.5725 29.1455 11.0087 29.1502 11.4465C29.1693 12.4802 29.1566 13.5151 29.1566 14.5494C29.1566 15.4045 28.8087 15.7723 27.943 15.8303C27.9078 15.8366 27.8733 15.8459 27.8397 15.8582C27.7957 16.5172 27.7499 17.1802 27.707 17.8439C27.6559 18.6345 27.6142 19.4258 27.5556 20.2165C27.5127 20.792 27.4495 20.85 26.8731 20.9451C26.803 21.4898 26.7299 22.0432 26.6609 22.5967C26.5345 23.6229 26.4011 24.6479 26.2875 25.6753C26.1964 26.4955 25.456 27.2352 24.6761 27.1493C24.5702 27.1337 24.4622 27.1431 24.3606 27.1766C24.2621 27.2155 24.1368 27.2856 24.102 27.3738C23.5123 28.8629 22.2587 29.7598 20.7331 29.7685C19.2075 29.7772 17.94 28.8862 17.3329 27.3773C17.3098 27.3318 17.2764 27.2923 17.2353 27.2621C17.1942 27.2319 17.1466 27.2117 17.0963 27.2033C15.5116 27.1928 13.9274 27.1975 12.3415 27.1917C12.185 27.1917 12.1316 27.2497 12.0794 27.3895C11.5129 28.8664 10.2175 29.7755 8.70529 29.7679C7.15535 29.7592 5.86693 28.8351 5.32593 27.3222C5.25867 27.1348 5.15198 27.1168 5.00238 27.1313C4.43354 27.1893 3.90472 27.0907 3.55275 26.5994C3.37416 26.3488 3.21122 26.0442 3.16889 25.746C2.95261 24.2378 2.77575 22.7185 2.59194 21.2038C2.56991 21.0252 2.55367 20.9068 2.31883 20.8964C2.03819 20.8836 1.9054 20.6962 1.88452 20.3783C1.79059 18.9613 1.69781 17.5438 1.6062 16.1256C1.6004 16.0397 1.5917 15.9545 1.583 15.846C1.49371 15.8384 1.40905 15.8292 1.32845 15.8251C0.716129 15.7926 0.274283 15.3506 0.270804 14.7409C0.263846 13.5905 0.270804 12.4402 0.266745 11.2898C0.267617 11.1659 0.252019 11.0424 0.220357 10.9226C0.0782943 10.4069 0.16875 9.93645 0.527677 9.5443C0.97706 9.05238 1.445 8.57727 1.9141 8.10391C2.14604 7.87186 2.43596 7.86432 2.63369 8.06156C2.83142 8.25879 2.81808 8.56045 2.58208 8.80351C2.16459 9.23318 1.74768 9.66323 1.33135 10.0937C1.16435 10.2677 1.0681 10.4556 1.17711 10.6941C1.2809 10.9221 1.47921 10.9638 1.70709 10.9638C5.10887 10.9607 8.51066 10.9607 11.9124 10.9638C12.1658 10.9638 12.3763 10.9058 12.4795 10.6552C12.5827 10.4046 12.4848 10.212 12.3056 10.0304C10.6406 8.33382 8.9784 6.63411 7.31887 4.93131C7.12114 4.72828 6.98662 4.75148 6.79121 4.93653C6.22702 5.47719 5.64717 5.99929 5.06268 6.52138C4.78609 6.77083 4.49791 6.77489 4.30018 6.54516C4.10245 6.31544 4.14536 6.04976 4.40803 5.80785C5.01996 5.24515 5.63267 4.68438 6.24615 4.12555C6.74308 3.67249 7.43484 3.68293 7.91612 4.16209C8.45074 4.69347 8.97202 5.23819 9.49911 5.77653L9.83542 6.11937ZM2.82504 19.9259H26.6047L26.8633 15.8471H2.56759L2.82504 19.9259ZM1.24031 11.9164C1.24031 12.7975 1.24031 13.6277 1.24031 14.4578C1.24031 14.8499 1.24031 14.8505 1.63635 14.8505H27.7562C28.1853 14.8505 28.1859 14.8505 28.1859 14.434V11.9164H1.24031ZM25.8839 20.9979H3.55159C3.57131 21.18 3.58696 21.3425 3.60958 21.5043C3.77135 22.7887 3.95749 24.0701 4.08679 25.3574C4.1529 26.0158 4.4347 26.2809 5.11776 26.1254C5.28418 23.7894 7.04055 22.7133 8.45654 22.621C9.25374 22.5569 10.0487 22.7696 10.7075 23.2232C11.7512 23.9384 12.2551 24.9583 12.305 26.1979H17.1282C17.2036 24.1096 18.7228 22.7939 20.3562 22.6309C21.1611 22.5399 21.9724 22.7352 22.6478 23.1826C23.7269 23.8903 24.2487 24.9194 24.3079 26.1846C25.0252 26.2426 25.3122 26.0106 25.3412 25.3527C25.3568 25.0047 25.4264 24.663 25.4699 24.3184C25.6067 23.2179 25.7442 22.1175 25.8839 20.9979ZM13.4224 10.9412C13.5128 10.9499 13.5783 10.9621 13.6439 10.9621C16.1739 10.9621 18.704 10.9603 21.2341 10.9569C21.3501 10.9569 21.5356 10.8861 21.5611 10.8066C21.5965 10.6987 21.5449 10.5235 21.4695 10.4237C19.3198 7.59322 17.1655 4.76676 15.0065 1.94436C14.8024 1.67693 14.6876 1.67925 14.4684 1.94842C13.8708 2.68321 13.2735 3.41801 12.6767 4.15281C11.9617 5.03747 11.2503 5.92445 10.5312 6.82129C10.6345 6.93151 10.7174 7.02375 10.8043 7.11135C11.4729 7.79471 12.1281 8.492 12.8153 9.1568C13.3273 9.65394 13.6491 10.1905 13.4224 10.9412ZM20.0959 7.01157C20.7876 7.91885 21.4591 8.81453 22.1479 9.69571C22.4379 10.0664 22.6484 10.4498 22.5643 10.9493C22.6704 10.9545 22.7556 10.9627 22.8409 10.9627C24.3757 10.9627 25.9141 10.9598 27.446 10.9656C27.7093 10.9656 27.9279 10.9168 28.0398 10.6546C28.1517 10.3924 28.0259 10.1952 27.8444 10.0119C27.2336 9.39309 26.6253 8.77238 26.0196 8.14973C24.9728 7.08002 23.9265 6.00973 22.8809 4.93885C22.7521 4.80717 22.6275 4.68477 22.4425 4.85474L20.0959 7.01157ZM18.1139 26.155C18.103 26.8444 18.3652 27.5101 18.8432 28.0068C19.3212 28.5035 19.9762 28.7909 20.6653 28.8061C22.0981 28.8403 23.2995 27.6755 23.3216 26.2316C23.3266 25.8895 23.2642 25.5498 23.138 25.2318C23.0118 24.9138 22.8242 24.6238 22.586 24.3784C22.3477 24.1329 22.0635 23.9368 21.7495 23.8013C21.4355 23.6657 21.098 23.5934 20.756 23.5883C20.4141 23.5833 20.0745 23.6457 19.7567 23.772C19.4388 23.8983 19.149 24.0859 18.9036 24.3243C18.6583 24.5626 18.4623 24.8469 18.3268 25.1611C18.1913 25.4752 18.119 25.8129 18.1139 26.155ZM6.11105 26.2003C6.11226 26.8892 6.38564 27.5497 6.87159 28.0378C7.35755 28.526 8.01668 28.8021 8.70529 28.8061C9.04878 28.8059 9.38887 28.7381 9.70611 28.6063C10.0233 28.4746 10.3115 28.2815 10.5541 28.0383C10.7967 27.795 10.989 27.5063 11.12 27.1886C11.251 26.871 11.3181 26.5306 11.3175 26.1869C11.3172 25.4979 11.0435 24.8371 10.5565 24.3498C10.0695 23.8625 9.40913 23.5885 8.72037 23.5881C8.377 23.5861 8.03665 23.6523 7.71906 23.7829C7.40146 23.9134 7.11294 24.1058 6.87022 24.3488C6.6275 24.5918 6.43541 24.8806 6.30509 25.1984C6.17477 25.5162 6.10882 25.8568 6.11105 26.2003Z" fill="url(#paint0_linear_14826_27864)"/>
<defs>
<linearGradient id="paint0_linear_14826_27864" x1="13.5181" y1="-19.3251" x2="13.5181" y2="41.8608" gradientUnits="userSpaceOnUse">
<stop stop-color="#CDEC0F"/>
<stop offset="1" stop-color="#23B14D"/>
</linearGradient>
</defs>
</svg>
