<svg width="19" height="19" viewBox="0 0 19 19" fill="none" xmlns="http://www.w3.org/2000/svg">
<path d="M14.2227 8.06543C14.2227 6.72277 13.6893 5.4351 12.7399 4.4857C11.7905 3.5363 10.5028 3.00293 9.16016 3.00293C7.8175 3.00293 6.52983 3.5363 5.58043 4.4857C4.63103 5.4351 4.09766 6.72277 4.09766 8.06543C4.09766 10.1422 5.75928 12.8489 9.16016 16.0912C12.561 12.8489 14.2227 10.1422 14.2227 8.06543ZM9.16016 17.6279C5.03478 13.8783 2.97266 10.6901 2.97266 8.06543C2.97266 6.4244 3.62455 4.85059 4.78493 3.69021C5.94531 2.52983 7.51913 1.87793 9.16016 1.87793C10.8012 1.87793 12.375 2.52983 13.5354 3.69021C14.6958 4.85059 15.3477 6.4244 15.3477 8.06543C15.3477 10.6901 13.2855 13.8783 9.16016 17.6279Z" fill="url(#paint0_linear_14836_5797)"/>
<path d="M9.16016 9.75293C9.60771 9.75293 10.0369 9.57514 10.3534 9.25867C10.6699 8.9422 10.8477 8.51298 10.8477 8.06543C10.8477 7.61788 10.6699 7.18865 10.3534 6.87219C10.0369 6.55572 9.60771 6.37793 9.16016 6.37793C8.7126 6.37793 8.28338 6.55572 7.96691 6.87219C7.65045 7.18865 7.47266 7.61788 7.47266 8.06543C7.47266 8.51298 7.65045 8.9422 7.96691 9.25867C8.28338 9.57514 8.7126 9.75293 9.16016 9.75293ZM9.16016 10.8779C8.41423 10.8779 7.69886 10.5816 7.17142 10.0542C6.64397 9.52672 6.34766 8.81135 6.34766 8.06543C6.34766 7.31951 6.64397 6.60414 7.17142 6.07669C7.69886 5.54925 8.41423 5.25293 9.16016 5.25293C9.90608 5.25293 10.6214 5.54925 11.1489 6.07669C11.6763 6.60414 11.9727 7.31951 11.9727 8.06543C11.9727 8.81135 11.6763 9.52672 11.1489 10.0542C10.6214 10.5816 9.90608 10.8779 9.16016 10.8779Z" fill="url(#paint1_linear_14836_5797)"/>
<defs>
<linearGradient id="paint0_linear_14836_5797" x1="8.67359" y1="-9.03503" x2="8.67359" y2="24.1952" gradientUnits="userSpaceOnUse">
<stop stop-color="#CDEC0F"/>
<stop offset="1" stop-color="#23B14D"/>
</linearGradient>
<linearGradient id="paint1_linear_14836_5797" x1="8.93899" y1="1.35545" x2="8.93899" y2="13.2234" gradientUnits="userSpaceOnUse">
<stop stop-color="#CDEC0F"/>
<stop offset="1" stop-color="#23B14D"/>
</linearGradient>
</defs>
</svg>
