<svg width="88" height="33" viewBox="0 0 88 33" fill="none" xmlns="http://www.w3.org/2000/svg">
<rect x="0.660156" y="0.25293" width="86.4837" height="32" fill="white"/>
<rect x="1.16016" y="0.75293" width="85.4837" height="31" stroke="url(#paint0_linear_14826_27986)" stroke-opacity="0.8"/>
<path fill-rule="evenodd" clip-rule="evenodd" d="M7.66016 9.49785C7.66016 8.97318 8.08549 8.54785 8.61016 8.54785L15.3652 8.54785L21.1439 14.3266V23.0079C21.1439 23.5325 20.7186 23.9579 20.1939 23.9579H8.61016C8.08549 23.9579 7.66016 23.5325 7.66016 23.0079V9.49785Z" fill="#F85640"/>
<path d="M15.7422 21.5338V18.8652H17.52V19.2373H16.1631V20.0341H17.2982V20.3837H16.1631V21.5338H15.7422Z" fill="white"/>
<path d="M12.8594 21.5338V18.8652H13.8065C14.0947 18.8652 14.3352 18.9254 14.5282 19.0456C14.7211 19.1634 14.8652 19.3238 14.9604 19.5267C15.0581 19.7272 15.107 19.9502 15.107 20.1958C15.107 20.4664 15.0531 20.7019 14.9454 20.9024C14.8401 21.1028 14.6898 21.2582 14.4943 21.3684C14.2989 21.4787 14.0696 21.5338 13.8065 21.5338H12.8594ZM14.6785 20.1958C14.6785 20.0078 14.6434 19.8425 14.5733 19.6996C14.5056 19.5543 14.4066 19.4415 14.2763 19.3614C14.1486 19.2787 13.9919 19.2373 13.8065 19.2373H13.2803V21.1617H13.8065C13.9945 21.1617 14.1523 21.1191 14.2801 21.0339C14.4104 20.9487 14.5094 20.8335 14.577 20.6881C14.6447 20.5428 14.6785 20.3787 14.6785 20.1958Z" fill="white"/>
<path d="M10.3359 21.5338V18.8652H11.456C11.5763 18.8652 11.6865 18.8903 11.7867 18.9404C11.887 18.9905 11.9747 19.0569 12.0498 19.1396C12.125 19.2223 12.1826 19.315 12.2227 19.4177C12.2628 19.5205 12.2829 19.6257 12.2829 19.7335C12.2829 19.8813 12.249 20.0229 12.1814 20.1582C12.1162 20.291 12.0223 20.3987 11.8995 20.4814C11.7792 20.5641 11.6389 20.6054 11.4785 20.6054H10.7569V21.5338H10.3359ZM10.7569 20.2333H11.4522C11.5324 20.2333 11.6026 20.212 11.6627 20.1694C11.7228 20.1243 11.7692 20.0642 11.8018 19.989C11.8368 19.9139 11.8544 19.8287 11.8544 19.7335C11.8544 19.6357 11.8343 19.5493 11.7942 19.4741C11.7542 19.3989 11.7015 19.3413 11.6364 19.3012C11.5737 19.2586 11.5048 19.2373 11.4297 19.2373H10.7569V20.2333Z" fill="white"/>
<path fill-rule="evenodd" clip-rule="evenodd" d="M15.3633 8.54785L21.142 14.3266H16.3133C15.7886 14.3266 15.3633 13.9013 15.3633 13.3766V8.54785Z" fill="#D13F2B"/>
<path d="M32.8145 19.4529V20.2529H27.9945V13.1529H32.7245V13.9529H28.8945V16.2529H32.2245V17.0029H28.8945V19.4529H32.8145ZM34.2992 15.0329L35.6792 16.9529L35.7592 17.1129L35.8492 16.9529L37.2192 15.0329H38.1992L36.2692 17.6529L38.2092 20.2529H37.2292L35.8492 18.3429L35.7592 18.1929L35.6792 18.3429L34.2992 20.2529H33.3192L35.2592 17.6529L33.3292 15.0329H34.2992ZM41.8462 20.3529C41.4195 20.3529 41.0395 20.2463 40.7062 20.0329C40.3728 19.8196 40.1095 19.5496 39.9162 19.2229V22.3829H39.0362V15.0329H39.8162V16.0129C40.0228 15.6929 40.2928 15.4363 40.6262 15.2429C40.9595 15.0429 41.3228 14.9429 41.7162 14.9429C42.0762 14.9429 42.4062 15.0163 42.7062 15.1629C43.0062 15.3096 43.2662 15.5096 43.4862 15.7629C43.7062 16.0163 43.8762 16.3063 43.9962 16.6329C44.1228 16.9529 44.1862 17.2896 44.1862 17.6429C44.1862 18.1363 44.0862 18.5896 43.8862 19.0029C43.6928 19.4163 43.4195 19.7463 43.0662 19.9929C42.7128 20.2329 42.3062 20.3529 41.8462 20.3529ZM41.5762 19.5929C41.8362 19.5929 42.0695 19.5396 42.2762 19.4329C42.4895 19.3196 42.6695 19.1729 42.8162 18.9929C42.9695 18.8063 43.0862 18.5963 43.1662 18.3629C43.2462 18.1296 43.2862 17.8896 43.2862 17.6429C43.2862 17.3829 43.2395 17.1363 43.1462 16.9029C43.0595 16.6696 42.9328 16.4629 42.7662 16.2829C42.6062 16.1029 42.4162 15.9629 42.1962 15.8629C41.9828 15.7563 41.7495 15.7029 41.4962 15.7029C41.3362 15.7029 41.1695 15.7329 40.9962 15.7929C40.8295 15.8529 40.6695 15.9396 40.5162 16.0529C40.3628 16.1596 40.2328 16.2829 40.1262 16.4229C40.0195 16.5629 39.9495 16.7129 39.9162 16.8729V18.3629C40.0162 18.5896 40.1495 18.7963 40.3162 18.9829C40.4828 19.1696 40.6762 19.3196 40.8962 19.4329C41.1162 19.5396 41.3428 19.5929 41.5762 19.5929ZM47.5466 20.3529C47.1533 20.3529 46.7966 20.2829 46.4766 20.1429C46.1566 19.9963 45.88 19.7996 45.6466 19.5529C45.4133 19.2996 45.2333 19.0096 45.1066 18.6829C44.98 18.3563 44.9166 18.0129 44.9166 17.6529C44.9166 17.2863 44.98 16.9396 45.1066 16.6129C45.2333 16.2863 45.4133 15.9996 45.6466 15.7529C45.88 15.4996 46.1566 15.3029 46.4766 15.1629C46.8033 15.0163 47.16 14.9429 47.5466 14.9429C47.94 14.9429 48.2966 15.0163 48.6166 15.1629C48.9366 15.3029 49.2133 15.4996 49.4466 15.7529C49.6866 15.9996 49.87 16.2863 49.9966 16.6129C50.1233 16.9396 50.1866 17.2863 50.1866 17.6529C50.1866 18.0129 50.1233 18.3563 49.9966 18.6829C49.87 19.0096 49.69 19.2996 49.4566 19.5529C49.2233 19.7996 48.9433 19.9963 48.6166 20.1429C48.2966 20.2829 47.94 20.3529 47.5466 20.3529ZM45.8166 17.6629C45.8166 18.0229 45.8933 18.3496 46.0466 18.6429C46.2066 18.9363 46.4166 19.1696 46.6766 19.3429C46.9366 19.5096 47.2266 19.5929 47.5466 19.5929C47.8666 19.5929 48.1566 19.5063 48.4166 19.3329C48.6833 19.1596 48.8933 18.9263 49.0466 18.6329C49.2066 18.3329 49.2866 18.0029 49.2866 17.6429C49.2866 17.2829 49.2066 16.9563 49.0466 16.6629C48.8933 16.3696 48.6833 16.1363 48.4166 15.9629C48.1566 15.7896 47.8666 15.7029 47.5466 15.7029C47.2266 15.7029 46.9366 15.7929 46.6766 15.9729C46.4166 16.1463 46.2066 16.3796 46.0466 16.6729C45.8933 16.9663 45.8166 17.2963 45.8166 17.6629ZM54.013 15.8029C53.573 15.8096 53.183 15.9229 52.843 16.1429C52.5096 16.3563 52.273 16.6529 52.133 17.0329V20.2529H51.253V15.0329H52.073V16.2429C52.253 15.8829 52.4896 15.5929 52.783 15.3729C53.083 15.1463 53.3963 15.0196 53.723 14.9929C53.7896 14.9929 53.8463 14.9929 53.893 14.9929C53.9396 14.9929 53.9796 14.9963 54.013 15.0029V15.8029ZM57.5858 19.9929C57.5124 20.0263 57.4124 20.0696 57.2858 20.1229C57.1591 20.1763 57.0124 20.2229 56.8458 20.2629C56.6791 20.3029 56.5024 20.3229 56.3158 20.3229C56.1024 20.3229 55.9058 20.2863 55.7258 20.2129C55.5458 20.1329 55.4024 20.0129 55.2958 19.8529C55.1891 19.6863 55.1358 19.4796 55.1358 19.2329V15.7229H54.4258V15.0329H55.1358V13.2929H56.0158V15.0329H57.1858V15.7229H56.0158V18.9629C56.0291 19.1496 56.0924 19.2896 56.2058 19.3829C56.3191 19.4696 56.4524 19.5129 56.6058 19.5129C56.7791 19.5129 56.9391 19.4829 57.0858 19.4229C57.2324 19.3629 57.3291 19.3196 57.3758 19.2929L57.5858 19.9929ZM61.0707 20.2529V13.1529H64.0307C64.344 13.1529 64.6307 13.2196 64.8907 13.3529C65.1507 13.4796 65.3774 13.6529 65.5707 13.8729C65.764 14.0863 65.914 14.3296 66.0207 14.6029C66.1274 14.8696 66.1807 15.1429 66.1807 15.4229C66.1807 15.8096 66.094 16.1796 65.9207 16.5329C65.7474 16.8796 65.504 17.1629 65.1907 17.3829C64.8774 17.5963 64.5107 17.7029 64.0907 17.7029H61.9707V20.2529H61.0707ZM61.9707 16.9029H64.0407C64.2874 16.9029 64.5007 16.8363 64.6807 16.7029C64.8674 16.5696 65.0107 16.3896 65.1107 16.1629C65.2174 15.9363 65.2707 15.6896 65.2707 15.4229C65.2707 15.1429 65.2107 14.8929 65.0907 14.6729C64.9707 14.4463 64.814 14.2696 64.6207 14.1429C64.4274 14.0163 64.214 13.9529 63.9807 13.9529H61.9707V16.9029ZM67.3012 20.2529V13.1529H69.7612C70.5212 13.1529 71.1545 13.3129 71.6612 13.6329C72.1745 13.9463 72.5578 14.3729 72.8112 14.9129C73.0645 15.4463 73.1912 16.0396 73.1912 16.6929C73.1912 17.4129 73.0512 18.0396 72.7712 18.5729C72.4912 19.1063 72.0945 19.5196 71.5812 19.8129C71.0678 20.1063 70.4612 20.2529 69.7612 20.2529H67.3012ZM72.2812 16.6929C72.2812 16.1596 72.1812 15.6863 71.9812 15.2729C71.7878 14.8596 71.5045 14.5363 71.1312 14.3029C70.7578 14.0696 70.3012 13.9529 69.7612 13.9529H68.2012V19.4529H69.7612C70.3078 19.4529 70.7678 19.3329 71.1412 19.0929C71.5145 18.8463 71.7978 18.5163 71.9912 18.1029C72.1845 17.6829 72.2812 17.2129 72.2812 16.6929ZM74.4594 20.2529V13.1529H79.1494V13.9529H75.3594V16.3229H78.5494V17.0729H75.3594V20.2529H74.4594Z" fill="#303030"/>
<defs>
<linearGradient id="paint0_linear_14826_27986" x1="22.6355" y1="32.2529" x2="30.1313" y2="-2.73842" gradientUnits="userSpaceOnUse">
<stop stop-color="#36DD68"/>
<stop offset="1" stop-color="#DDDF78"/>
</linearGradient>
</defs>
</svg>
