<svg width="27" height="27" viewBox="0 0 27 27" fill="none" xmlns="http://www.w3.org/2000/svg">
<g id="iconamoon:home-fill">
<rect width="26" height="26" transform="translate(0.753906 0.75293)" fill="white"/>
<g id="Group 74">
<path id="Vector" fill-rule="evenodd" clip-rule="evenodd" d="M14.6525 4.16742C14.464 3.97893 14.2083 3.87305 13.9417 3.87305C13.6751 3.87305 13.4194 3.97893 13.2308 4.16742L6.19281 11.2054L4.18195 13.2163C4.08592 13.309 4.00932 13.42 3.95663 13.5427C3.90393 13.6653 3.8762 13.7973 3.87504 13.9308C3.87388 14.0643 3.89932 14.1967 3.94987 14.3202C4.00042 14.4438 4.07508 14.556 4.16948 14.6504C4.26389 14.7448 4.37614 14.8195 4.49971 14.8701C4.62327 14.9206 4.75567 14.946 4.88917 14.9449C5.02267 14.9437 5.1546 14.916 5.27727 14.8633C5.39993 14.8106 5.51088 14.734 5.60363 14.638L5.89822 14.3434V20.9652C5.89822 21.7651 6.216 22.5323 6.78167 23.098C7.34733 23.6637 8.11454 23.9814 8.91451 23.9814H18.9688C19.7688 23.9814 20.536 23.6637 21.1017 23.098C21.6673 22.5323 21.9851 21.7651 21.9851 20.9652V14.3434L22.2797 14.638C22.4693 14.8211 22.7233 14.9225 22.9869 14.9202C23.2505 14.9179 23.5027 14.8121 23.6891 14.6257C23.8755 14.4393 23.9813 14.1871 23.9836 13.9235C23.9859 13.6599 23.8845 13.4059 23.7014 13.2163L14.6525 4.16742Z" stroke="url(#paint0_linear_14826_27781)" stroke-width="2"/>
<path id="Vector_2" d="M11.825 21.1668L16.8857 15.0285H14.5637L16.8374 11.5146H14.2719C14.0169 11.5146 13.7812 11.6797 13.6537 11.9478L11.5234 16.4231H13.3476L11.8248 21.1668H11.825Z" fill="url(#paint1_linear_14826_27781)"/>
</g>
</g>
<defs>
<linearGradient id="paint0_linear_14826_27781" x1="13.1387" y1="-10.0598" x2="13.1387" y2="32.3661" gradientUnits="userSpaceOnUse">
<stop stop-color="#CDEC0F"/>
<stop offset="1" stop-color="#23B14D"/>
</linearGradient>
<linearGradient id="paint1_linear_14826_27781" x1="13.9937" y1="4.82682" x2="13.9937" y2="25.1915" gradientUnits="userSpaceOnUse">
<stop stop-color="#CDEC0F"/>
<stop offset="1" stop-color="#23B14D"/>
</linearGradient>
</defs>
</svg>
