<svg width="26" height="26" viewBox="0 0 26 26" fill="none" xmlns="http://www.w3.org/2000/svg">
<g id="icon-park:signal-tower-one">
<rect width="26" height="26" transform="translate(0.199219 0.25293)" fill="white"/>
<g id="Group">
<path id="Vector (Stroke)" fill-rule="evenodd" clip-rule="evenodd" d="M10.6068 1.89844H15.7928L16.4428 5.14844H18.0748C18.362 5.14844 18.5948 5.38125 18.5948 5.66844C18.5948 5.95563 18.362 6.18844 18.0748 6.18844H16.9693C16.9753 6.32886 16.9247 6.47126 16.8175 6.57848L16.7435 6.65241L18.1477 13.6733L18.2902 13.8158H19.6998C19.987 13.8158 20.2198 14.0486 20.2198 14.3358C20.2198 14.623 19.987 14.8558 19.6998 14.8558H18.5958C18.601 14.9914 18.5529 15.1263 18.4588 15.2284L19.6656 21.2626C19.6673 21.2704 19.6689 21.2781 19.6703 21.2859L20.2097 23.9831C20.266 24.2647 20.0834 24.5387 19.8018 24.595C19.5202 24.6513 19.2462 24.4687 19.1899 24.1871L18.6932 21.7035L13.3325 18.4871L8.06215 21.8157C7.94089 21.8923 7.8001 21.9126 7.67042 21.8834L7.20969 24.1871C7.15337 24.4687 6.87942 24.6513 6.59781 24.595C6.3162 24.5387 6.13356 24.2647 6.18989 23.9831L7.94106 15.2272C7.84787 15.1255 7.79992 14.9911 7.80509 14.8558H6.69979C6.4126 14.8558 6.17979 14.623 6.17979 14.3358C6.17979 14.0486 6.4126 13.8158 6.69979 13.8158H8.1094L8.25184 13.6733L9.65603 6.65241L9.58209 6.57848C9.47487 6.47126 9.42426 6.32886 9.43026 6.18844H8.32479C8.0376 6.18844 7.80479 5.95563 7.80479 5.66844C7.80479 5.38125 8.0376 5.14844 8.32479 5.14844H9.95682L10.6068 1.89844ZM10.785 6.31059L10.8094 6.18844H15.5902L15.6146 6.31059L13.1998 8.72539L10.785 6.31059ZM10.5399 7.53624L9.57759 12.3476L12.4644 9.46078L10.5399 7.53624ZM13.1998 10.1962L9.58018 13.8158H16.8194L13.1998 10.1962ZM17.1345 14.8558H9.30163L13.3185 17.2659L17.1345 14.8558ZM14.3173 17.8652L18.4175 20.3253L17.5208 15.8418L14.3173 17.8652ZM12.3337 17.8879L8.88355 15.8178L7.91086 20.6812L12.3337 17.8879ZM16.822 12.3476L15.8597 7.53624L13.9352 9.46078L16.822 12.3476ZM15.3822 5.14844H11.0174L11.4594 2.93844H14.9402L15.3822 5.14844Z" fill="url(#paint0_linear_14826_27789)"/>
<path id="Vector 18" d="M15.6341 5.67236H10.4883L7.23828 21.3807L13.1966 17.8599L18.6133 20.839L15.6341 5.67236Z" fill="white"/>
<path id="Vector 18 (Stroke)" fill-rule="evenodd" clip-rule="evenodd" d="M10.0661 5.15234H16.0632L19.3394 21.8311L13.2071 18.4584L6.49219 22.4263L10.0661 5.15234ZM10.913 6.19234L7.98688 20.3351L13.1886 17.2613L17.8897 19.8469L15.2076 6.19234H10.913Z" fill="url(#paint1_linear_14826_27789)"/>
</g>
<path id="Vector" d="M10.7728 15.8792L15.35 11.9832H13.2498L15.3063 9.75293H12.9859C12.7552 9.75293 12.5421 9.8577 12.4267 10.0278L10.5 12.8684H12.1499L10.7728 15.8792Z" fill="url(#paint2_linear_14826_27789)"/>
</g>
<defs>
<linearGradient id="paint0_linear_14826_27789" x1="13.6928" y1="0.583113" x2="13.6928" y2="17.7257" gradientUnits="userSpaceOnUse">
<stop stop-color="#CDEC0F"/>
<stop offset="1" stop-color="#23B14D"/>
</linearGradient>
<linearGradient id="paint1_linear_14826_27789" x1="12.4798" y1="-5.21174" x2="12.4798" y2="27.9306" gradientUnits="userSpaceOnUse">
<stop stop-color="#CDEC0F"/>
<stop offset="1" stop-color="#23B14D"/>
</linearGradient>
<linearGradient id="paint2_linear_14826_27789" x1="12.7343" y1="5.50814" x2="12.7343" y2="18.4337" gradientUnits="userSpaceOnUse">
<stop stop-color="#CDEC0F"/>
<stop offset="1" stop-color="#23B14D"/>
</linearGradient>
</defs>
</svg>
