<svg width="110" height="110" viewBox="0 0 110 110" fill="none" xmlns="http://www.w3.org/2000/svg">
<g id="icon-park:remote-control">
<g id="Group">
<path id="Vector" d="M80.1367 9.33643H30.1784C27.6701 9.33643 25.6367 11.3698 25.6367 13.8781V95.6281C25.6367 98.1364 27.6701 100.17 30.1784 100.17H80.1367C82.645 100.17 84.6783 98.1364 84.6783 95.6281V13.8781C84.6783 11.3698 82.645 9.33643 80.1367 9.33643Z" stroke="url(#paint0_linear_14826_28030)" stroke-width="2"/>
<path id="Vector_2" d="M48.1232 91.856L64.1523 72.9539H56.7976L63.9992 62.1333H55.8734C55.0656 62.1333 54.3191 62.6416 53.9152 63.467L47.168 77.2484H52.9458L48.1225 91.856H48.1232Z" fill="url(#paint1_linear_14826_28030)"/>
<path id="Vector_3" d="M68.7852 22.9614H41.5352V41.1281H68.7852V22.9614Z" stroke="url(#paint2_linear_14826_28030)" stroke-width="2"/>
</g>
</g>
<defs>
<linearGradient id="paint0_linear_14826_28030" x1="52.8361" y1="-53.6007" x2="52.8361" y2="138.045" gradientUnits="userSpaceOnUse">
<stop stop-color="#CDEC0F"/>
<stop offset="1" stop-color="#23B14D"/>
</linearGradient>
<linearGradient id="paint1_linear_14826_28030" x1="54.9924" y1="41.5389" x2="54.9924" y2="104.25" gradientUnits="userSpaceOnUse">
<stop stop-color="#CDEC0F"/>
<stop offset="1" stop-color="#23B14D"/>
</linearGradient>
<linearGradient id="paint2_linear_14826_28030" x1="54.0887" y1="10.374" x2="54.0887" y2="48.7031" gradientUnits="userSpaceOnUse">
<stop stop-color="#CDEC0F"/>
<stop offset="1" stop-color="#23B14D"/>
</linearGradient>
</defs>
</svg>
