<svg width="19" height="19" viewBox="0 0 19 19" fill="none" xmlns="http://www.w3.org/2000/svg">
<g clip-path="url(#clip0_14836_5812)">
<path d="M16.4025 14.5656V10.3395C16.4025 9.14607 15.5612 8.18737 14.3677 8.18737H9.94596V4.93955C10.709 4.6265 11.2373 3.88302 11.2373 3.02216C11.2373 1.88737 10.3177 0.948242 9.16335 0.948242C8.009 0.948242 7.08944 1.88737 7.08944 3.02216C7.08944 3.88302 7.63726 4.6265 8.38074 4.93955V8.18737H3.959C2.76552 8.18737 1.92422 9.16563 1.92422 10.3395V14.5656C1.14161 14.8787 0.574219 15.6222 0.574219 16.483C0.574219 17.6178 1.47422 18.5569 2.609 18.5569C3.74378 18.5569 4.72204 17.6178 4.72204 16.483C4.72204 15.6222 4.05683 14.8787 3.46987 14.5656V10.3395C3.46987 10.0069 3.62639 9.75259 3.93944 9.75259H8.38074V14.5656C7.59813 14.8787 7.08944 15.6222 7.08944 16.483C7.08944 17.6178 8.009 18.5569 9.16335 18.5569C10.3177 18.5569 11.2373 17.6178 11.2373 16.483C11.2373 15.6222 10.7286 14.8787 9.94596 14.5656V9.75259H14.3677C14.7003 9.75259 14.8373 10.0265 14.8373 10.3395V14.5656C14.2503 14.8787 13.6047 15.6222 13.6047 16.483C13.6047 17.6178 14.5633 18.5569 15.7177 18.5569C16.872 18.5569 17.7525 17.6178 17.7525 16.483C17.7525 15.6222 17.1851 14.8787 16.4025 14.5656ZM9.16335 2.12216C9.65248 2.12216 10.0633 2.53302 10.0633 3.02216C10.0633 3.51129 9.65248 3.92216 9.16335 3.92216C8.67422 3.92216 8.26335 3.51129 8.26335 3.02216C8.26335 2.53302 8.67422 2.12216 9.16335 2.12216ZM2.58944 17.383C2.10031 17.383 1.68944 16.9722 1.68944 16.483C1.68944 15.9939 2.10031 15.583 2.58944 15.583C3.07857 15.583 3.48944 15.9939 3.48944 16.483C3.48944 16.9722 3.07857 17.383 2.58944 17.383ZM9.16335 17.383C8.67422 17.383 8.26335 16.9722 8.26335 16.483C8.26335 15.9939 8.67422 15.583 9.16335 15.583C9.65248 15.583 10.0633 15.9939 10.0633 16.483C10.0633 16.9722 9.65248 17.383 9.16335 17.383ZM15.7373 17.383C15.2481 17.383 14.8373 16.9722 14.8373 16.483C14.8373 15.9939 15.2481 15.583 15.7373 15.583C16.2264 15.583 16.6373 15.9939 16.6373 16.483C16.6373 16.9722 16.2264 17.383 15.7373 17.383Z" fill="url(#paint0_linear_14836_5812)"/>
</g>
<defs>
<linearGradient id="paint0_linear_14836_5812" x1="8.48792" y1="-11.2526" x2="8.48792" y2="25.8993" gradientUnits="userSpaceOnUse">
<stop stop-color="#CDEC0F"/>
<stop offset="1" stop-color="#23B14D"/>
</linearGradient>
<clipPath id="clip0_14836_5812">
<rect width="18" height="18" fill="white" transform="translate(0.160156 0.75293)"/>
</clipPath>
</defs>
</svg>
