<svg width="41" height="41" viewBox="0 0 41 41" fill="none" xmlns="http://www.w3.org/2000/svg">
<rect x="0.160156" y="0.374023" width="40" height="40" rx="20" fill="white"/>
<rect x="0.910156" y="1.12402" width="38.5" height="38.5" rx="19.25" stroke="url(#paint0_linear_14826_27824)" stroke-opacity="0.8" stroke-width="1.5"/>
<path d="M18.1002 10.3362C18.2662 9.93173 18.551 9.58536 18.918 9.34147C19.285 9.09758 19.7175 8.96729 20.1602 8.96729C20.6028 8.96729 21.0353 9.09758 21.4023 9.34147C21.7693 9.58536 22.0541 9.93173 22.2201 10.3362C23.8632 10.7816 25.3124 11.7463 26.3453 13.0823C27.3783 14.4182 27.9377 16.0515 27.9378 17.7312V22.8754L29.9733 25.8851C30.085 26.0501 30.1491 26.2418 30.1588 26.4398C30.1686 26.6379 30.1236 26.8348 30.0287 27.0097C29.9338 27.1845 29.7926 27.3306 29.62 27.4325C29.4474 27.5344 29.2501 27.5882 29.0489 27.5882H24.0101C23.8763 28.5006 23.4135 29.335 22.7064 29.9385C21.9994 30.542 21.0954 30.8741 20.1602 30.8741C19.2249 30.8741 18.3209 30.542 17.6139 29.9385C16.9068 29.335 16.444 28.5006 16.3102 27.5882H11.2714C11.0703 27.5882 10.8729 27.5344 10.7003 27.4325C10.5277 27.3306 10.3865 27.1845 10.2916 27.0097C10.1967 26.8348 10.1517 26.6379 10.1615 26.4398C10.1712 26.2418 10.2353 26.0501 10.347 25.8851L12.3825 22.8754V17.7312C12.3825 14.2001 14.8047 11.2255 18.1002 10.3362ZM18.5891 27.5882C18.7038 27.9087 18.9166 28.1863 19.1981 28.3826C19.4796 28.5789 19.8159 28.6843 20.1607 28.6843C20.5055 28.6843 20.8419 28.5789 21.1233 28.3826C21.4048 28.1863 21.6176 27.9087 21.7324 27.5882H18.588H18.5891ZM20.1602 12.255C18.6868 12.255 17.2737 12.832 16.2319 13.8589C15.19 14.8859 14.6047 16.2788 14.6047 17.7312V23.2073C14.6047 23.4236 14.5398 23.6351 14.418 23.8151L13.348 25.3977H26.9712L25.9012 23.8151C25.7798 23.635 25.7152 23.4235 25.7156 23.2073V17.7312C25.7156 16.2788 25.1303 14.8859 24.0885 13.8589C23.0466 12.832 21.6336 12.255 20.1602 12.255Z" fill="white"/>
<path d="M18.2956 11.0603L18.6533 10.9637L18.794 10.621C18.9027 10.3563 19.0898 10.1278 19.3331 9.96612C19.5765 9.80436 19.8645 9.71729 20.1602 9.71729C20.4558 9.71729 20.7438 9.80436 20.9872 9.96612C21.2305 10.1278 21.4176 10.3563 21.5263 10.621L21.6668 10.9632L22.0239 11.0601C23.5106 11.4631 24.8199 12.3355 25.752 13.541C26.684 14.7464 27.1877 16.2185 27.1878 17.7312C27.1878 17.7312 27.1878 17.7312 27.1878 17.7312V22.8754V23.1052L27.3166 23.2956L29.3521 26.3053L29.3522 26.3055C29.3873 26.3573 29.4068 26.4165 29.4098 26.4767C29.4127 26.537 29.3991 26.5975 29.3696 26.6519C29.34 26.7064 29.2952 26.7533 29.2387 26.7867C29.1821 26.8201 29.1165 26.8382 29.049 26.8382H29.0489H24.0101H23.362L23.268 27.4794C23.1608 28.2105 22.7897 28.8814 22.2196 29.368C21.6492 29.8548 20.9181 30.1241 20.1602 30.1241C19.4022 30.1241 18.6711 29.8548 18.1008 29.368C17.5306 28.8814 17.1595 28.2105 17.0523 27.4794L16.9583 26.8382H16.3102H11.2714H11.2713C11.2038 26.8382 11.1382 26.8201 11.0816 26.7867C11.0251 26.7533 10.9803 26.7064 10.9507 26.6519C10.9212 26.5975 10.9076 26.537 10.9106 26.4767C10.9135 26.4165 10.933 26.3573 10.9681 26.3055L10.9682 26.3053L13.0038 23.2956L13.1325 23.1052V22.8754V17.7312C13.1325 14.554 15.3128 11.8652 18.2956 11.0603ZM18.588 27.5882V27.5886L17.883 27.841C18.0507 28.3094 18.3609 28.7131 18.769 28.9977L19.1981 28.3826L18.7691 28.9977C19.177 29.2823 19.6632 29.4343 20.1607 29.4343C20.6582 29.4343 21.1444 29.2823 21.5524 28.9977C21.9605 28.7131 22.2708 28.3094 22.4385 27.841L22.7975 26.8382H21.7324H19.1172H18.5891H18.588V27.5882ZM13.8547 23.2073V23.2075C13.8547 23.2732 13.835 23.3384 13.7968 23.3949L13.7967 23.3951L12.7267 24.9777L11.9357 26.1477H13.348H26.9712H28.3835L27.5925 24.9777L26.5231 23.396C26.523 23.3958 26.5229 23.3957 26.5228 23.3955C26.4849 23.3391 26.4655 23.2741 26.4656 23.2086V23.2073V17.7312C26.4656 16.0764 25.7986 14.4916 24.615 13.3248C23.4317 12.1584 21.829 11.505 20.1602 11.505C18.4913 11.505 16.8887 12.1584 15.7053 13.3248C14.5217 14.4916 13.8547 16.0764 13.8547 17.7312V23.2073Z" stroke="url(#paint1_linear_14826_27824)" stroke-opacity="0.8" stroke-width="1.5"/>
<defs>
<linearGradient id="paint0_linear_14826_27824" x1="10.3241" y1="40.374" x2="30.1602" y2="6.11173" gradientUnits="userSpaceOnUse">
<stop stop-color="#36DD68"/>
<stop offset="1" stop-color="#DDDF78"/>
</linearGradient>
<linearGradient id="paint1_linear_14826_27824" x1="15.2421" y1="30.8741" x2="26.5733" y2="13.0058" gradientUnits="userSpaceOnUse">
<stop stop-color="#36DD68"/>
<stop offset="1" stop-color="#DDDF78"/>
</linearGradient>
</defs>
</svg>
