<svg width="19" height="19" viewBox="0 0 19 19" fill="none" xmlns="http://www.w3.org/2000/svg">
<g clip-path="url(#clip0_14836_5802)">
<rect width="18" height="18" transform="translate(0.160156 0.75293)" fill="white"/>
<path fill-rule="evenodd" clip-rule="evenodd" d="M0.207031 4.83936H10.0159L18.1125 14.679H7.79783L0.207031 4.83936ZM1.6369 5.54219L4.619 9.40776H8.41393L5.32147 5.54219H1.6369ZM6.22154 5.54219L9.314 9.40776H12.8649L9.68408 5.54219H6.22154ZM13.2567 9.88392V10.1106H9.87626L12.9687 13.9762H16.624L13.2567 9.88392ZM12.0687 13.9762L8.9762 10.1106H5.1612L8.1433 13.9762H12.0687ZM1.02739 8.38866H1.73022V13.9762H5.94721V14.679H1.02739V8.38866Z" fill="url(#paint0_linear_14836_5802)"/>
</g>
<defs>
<linearGradient id="paint0_linear_14836_5802" x1="8.49845" y1="-1.14" x2="8.49845" y2="18.1374" gradientUnits="userSpaceOnUse">
<stop stop-color="#CDEC0F"/>
<stop offset="1" stop-color="#23B14D"/>
</linearGradient>
<clipPath id="clip0_14836_5802">
<rect width="18" height="18" fill="white" transform="translate(0.160156 0.75293)"/>
</clipPath>
</defs>
</svg>
