<svg width="32" height="32" viewBox="0 0 32 32" fill="none" xmlns="http://www.w3.org/2000/svg">
<g id="save-money 1">
<path id="Vector" d="M30.3744 20.8897H29.2739L28.7376 19.7489C28.5494 19.3563 28.4415 18.93 28.4202 18.4951C28.3989 18.0602 28.4647 17.6254 28.6136 17.2162L29.928 13.583C30.0209 13.3448 30.0209 13.0804 29.928 12.8421C29.3357 11.4366 28.3933 10.2061 27.1907 9.26784C26.0152 8.35167 24.6681 7.68023 23.2289 7.29314C22.9634 7.21524 22.68 7.22437 22.42 7.3192C22.1601 7.41403 21.9373 7.58957 21.7843 7.82014C21.6578 8.02065 21.6041 8.2586 21.6323 8.49401C21.6606 8.72942 21.769 8.94794 21.9393 9.11284L24.224 11.4285L22.8817 15.6197C22.5126 16.759 22.5476 17.9908 22.9809 19.1072L23.6629 20.8897H23.2971C23.1787 20.8897 23.065 20.9361 22.9803 21.019C22.8957 21.1019 22.847 21.2146 22.8445 21.333V23.813C22.8445 23.9331 22.8922 24.0482 22.9771 24.1331C23.062 24.218 23.1771 24.2656 23.2971 24.2656H30.3744C30.4337 24.2656 30.4924 24.2539 30.5472 24.2311C30.6019 24.2083 30.6516 24.175 30.6934 24.1329C30.7352 24.0908 30.7682 24.0409 30.7906 23.986C30.813 23.9311 30.8243 23.8723 30.8239 23.813V21.333C30.8223 21.2149 30.7742 21.1022 30.6901 21.0192C30.606 20.9362 30.4926 20.8897 30.3744 20.8897ZM23.821 18.7848C23.4633 17.8596 23.4349 16.8394 23.7404 15.8956L25.2904 11.0844C25.3288 11.0116 25.3896 10.9529 25.4638 10.9172C25.5381 10.8815 25.6218 10.8706 25.7027 10.886L25.8453 10.9046C26.0344 10.9263 26.1553 11.0503 26.1553 11.1495L25.9166 15.2012L26.8187 15.2539L27.0543 11.2022C27.0583 10.9017 26.9471 10.6109 26.7437 10.3896C26.5402 10.1683 26.2599 10.0332 25.96 10.0118L25.8174 9.99324C25.5867 9.96146 25.3517 9.99216 25.1369 10.0821C24.922 10.1721 24.7353 10.318 24.596 10.5047L22.5965 8.48044C22.5689 8.45742 22.5511 8.42484 22.5465 8.3892C22.5419 8.35357 22.5509 8.31751 22.5717 8.28824C22.6234 8.22662 22.6924 8.18188 22.7697 8.15978C22.8471 8.13768 22.9293 8.13924 23.0057 8.16424C24.324 8.51509 25.5577 9.12877 26.6327 9.96844C27.7157 10.809 28.5644 11.9138 29.0972 13.1769C29.1033 13.1912 29.1064 13.2064 29.1064 13.2219C29.1064 13.2373 29.1033 13.2526 29.0972 13.2668L27.7673 16.9093C27.5784 17.4303 27.4951 17.9837 27.5223 18.5372C27.5494 19.0908 27.6865 19.6333 27.9254 20.1333L28.2819 20.8897H24.6239L23.821 18.7848ZM29.9218 23.3604H23.7466V21.7918H29.9218V23.3604Z" fill="url(#paint0_linear_14826_27818)"/>
<path id="Vector_2" d="M10.7201 7.81682C10.5672 7.58706 10.3448 7.41226 10.0854 7.31799C9.82607 7.22372 9.54333 7.21493 9.2786 7.29292C7.84391 7.67881 6.50104 8.34814 5.3292 9.26142C4.12481 10.1991 3.18212 11.4311 2.5919 12.8388C2.50054 13.0741 2.50054 13.3351 2.5919 13.5704L3.9063 17.216C4.05459 17.6253 4.12 18.06 4.09871 18.4948C4.07742 18.9296 3.96987 19.3559 3.7823 19.7487L3.2336 20.8895H2.1331C2.01496 20.8895 1.90155 20.936 1.81743 21.019C1.73331 21.1019 1.68523 21.2147 1.6836 21.3328V23.8128C1.6832 23.8721 1.69452 23.9309 1.71693 23.9858C1.73933 24.0407 1.77238 24.0906 1.81416 24.1327C1.85594 24.1747 1.90563 24.2081 1.96037 24.2309C2.01511 24.2537 2.07381 24.2654 2.1331 24.2654H9.2104C9.33044 24.2654 9.44556 24.2177 9.53044 24.1329C9.61532 24.048 9.663 23.9329 9.663 23.8128V21.3328C9.663 21.2128 9.61532 21.0977 9.53044 21.0128C9.44556 20.9279 9.33044 20.8802 9.2104 20.8802H8.8446L9.5266 19.0977C9.95991 17.9812 9.99494 16.7495 9.6258 15.6102L8.2835 11.4283L10.5682 9.11262C10.7388 8.94714 10.8471 8.72784 10.8748 8.49176C10.9025 8.25567 10.8478 8.01728 10.7201 7.81682ZM8.7609 23.3602H2.5857V21.7916H8.7609V23.3602ZM9.9265 8.48022L7.927 10.5045C7.78728 10.3176 7.59998 10.1715 7.38462 10.0815C7.16925 9.99155 6.9337 9.96099 6.7025 9.99302H6.5692C6.26825 10.0143 5.98678 10.1497 5.78225 10.3715C5.57773 10.5933 5.46558 10.8848 5.4687 11.1865L5.7136 15.2537L6.6126 15.201L6.377 11.1493C6.377 11.0501 6.4917 10.9261 6.687 10.9044H6.8203C6.90136 10.8874 6.98574 10.8973 7.06068 10.9326C7.13563 10.9678 7.19706 11.0265 7.2357 11.0997L8.7857 15.9109C9.08973 16.8549 9.06129 17.8745 8.7051 18.8001L7.8836 20.8895H4.2256L4.5821 20.13C4.82116 19.6306 4.95826 19.0885 4.98541 18.5355C5.01255 17.9825 4.92919 17.4296 4.7402 16.9091L3.4227 13.2728C3.41185 13.246 3.41185 13.216 3.4227 13.1891C3.95882 11.9228 4.81311 10.8165 5.9027 9.97752C6.97777 9.13785 8.21148 8.52416 9.5297 8.17332C9.60795 8.14843 9.69191 8.14784 9.77049 8.17164C9.84908 8.19544 9.91861 8.2425 9.9699 8.30662C9.98417 8.33605 9.98764 8.36956 9.97971 8.40129C9.97177 8.43302 9.95294 8.46096 9.9265 8.48022Z" fill="url(#paint1_linear_14826_27818)"/>
<path id="Vector_3" d="M16.2538 8.73779C15.1783 8.73779 14.1269 9.05677 13.2326 9.65438C12.3384 10.252 11.6415 11.1014 11.23 12.0951C10.8186 13.0888 10.7111 14.1823 10.9211 15.2371C11.1312 16.292 11.6493 17.2608 12.4101 18.0211C13.1708 18.7814 14.14 19.299 15.1949 19.5085C16.2499 19.7179 17.3433 19.6098 18.3368 19.1978C19.3303 18.7858 20.1793 18.0884 20.7763 17.1938C21.3734 16.2992 21.6918 15.2476 21.6912 14.1721C21.6896 12.7308 21.1161 11.349 20.0966 10.3302C19.0772 9.31132 17.6951 8.73861 16.2538 8.73779ZM16.2538 18.7074C15.3568 18.7074 14.48 18.4414 13.7341 17.9431C12.9883 17.4447 12.407 16.7364 12.0637 15.9077C11.7205 15.079 11.6307 14.1671 11.8057 13.2873C11.9806 12.4075 12.4126 11.5994 13.0469 10.9652C13.6811 10.3309 14.4893 9.89893 15.369 9.72394C16.2488 9.54894 17.1607 9.63876 17.9894 9.98202C18.8181 10.3253 19.5264 10.9066 20.0248 11.6524C20.5231 12.3982 20.7891 13.2751 20.7891 14.1721C20.7883 15.3747 20.3102 16.5278 19.4598 17.3781C18.6095 18.2285 17.4564 18.7066 16.2538 18.7074Z" fill="url(#paint2_linear_14826_27818)"/>
<path id="Vector_4" d="M16.4011 11.7694C17.0552 11.7694 17.5853 12.2158 17.5853 12.7614H18.4843C18.4675 12.3166 18.2986 11.8911 18.0057 11.556C17.7129 11.2208 17.3139 10.9963 16.8754 10.92V10.2349H15.9764V10.9076C15.5266 10.9759 15.1148 11.1991 14.812 11.5387C14.5092 11.8782 14.3344 12.3129 14.3179 12.7676C14.3394 13.2563 14.5416 13.7197 14.8852 14.0679C15.2288 14.4162 15.6895 14.6244 16.1779 14.6524C16.8723 14.6524 17.4365 15.1267 17.4365 15.7126C17.4365 16.2985 16.8754 16.7759 16.1841 16.7759C15.4928 16.7759 14.9255 16.2985 14.9255 15.7157H14.0234C14.0469 16.2258 14.2603 16.7087 14.6217 17.0695C14.9831 17.4303 15.4663 17.6429 15.9764 17.6656V18.112H16.8754V17.5726C17.2869 17.4605 17.6514 17.2193 17.9154 16.8844C18.1794 16.5496 18.3288 16.1388 18.3417 15.7126C18.3191 15.2037 18.1073 14.7217 17.7477 14.361C17.3881 14.0003 16.9068 13.7869 16.398 13.7627C15.747 13.7627 15.2169 13.3194 15.2169 12.7707C15.2169 12.222 15.7501 11.7694 16.4011 11.7694Z" fill="url(#paint3_linear_14826_27818)"/>
</g>
<defs>
<linearGradient id="paint0_linear_14826_27818" x1="23.9624" y1="24.2656" x2="33.6746" y2="15.2014" gradientUnits="userSpaceOnUse">
<stop stop-color="#36DD68"/>
<stop offset="1" stop-color="#DDDF78"/>
</linearGradient>
<linearGradient id="paint1_linear_14826_27818" x1="4.02085" y1="24.2654" x2="13.7331" y2="15.2019" gradientUnits="userSpaceOnUse">
<stop stop-color="#36DD68"/>
<stop offset="1" stop-color="#DDDF78"/>
</linearGradient>
<linearGradient id="paint2_linear_14826_27818" x1="13.5797" y1="19.6126" x2="18.9725" y2="10.2977" gradientUnits="userSpaceOnUse">
<stop stop-color="#36DD68"/>
<stop offset="1" stop-color="#DDDF78"/>
</linearGradient>
<linearGradient id="paint3_linear_14826_27818" x1="15.1569" y1="18.112" x2="19.6602" y2="13.707" gradientUnits="userSpaceOnUse">
<stop stop-color="#36DD68"/>
<stop offset="1" stop-color="#DDDF78"/>
</linearGradient>
</defs>
</svg>
