<svg width="31" height="33" viewBox="0 0 31 33" fill="none" xmlns="http://www.w3.org/2000/svg">
<path d="M21.0236 18.4046C20.3882 17.3607 19.6069 16.6082 18.6358 16.1045L18.2787 15.9194L18.326 15.8543C18.4411 15.696 18.5604 15.5315 18.6638 15.3601C18.8664 15.028 19.0292 14.6733 19.1491 14.3033C19.2879 13.8718 19.362 13.4221 19.3691 12.9689C19.3737 12.5788 19.3334 12.1895 19.2492 11.8085C19.1143 11.1782 18.8498 10.5829 18.4726 10.0602C18.2414 9.74248 17.9731 9.4535 17.6735 9.19933C17.3785 8.93838 17.0515 8.71612 16.7003 8.53795C16.0601 8.23112 15.3632 8.06074 14.6537 8.03763C14.5948 8.03763 14.5598 8.03214 14.5393 8.0294C14.5393 7.99925 14.5393 7.95332 14.5393 7.91769V7.88684C14.5384 7.73026 14.5254 7.57398 14.5002 7.41942C14.4426 7.04247 14.322 6.61754 14.1534 6.32283L14.0965 6.22208C13.8841 5.84786 13.6648 5.46131 13.3591 5.15427C12.9949 4.78669 12.5695 4.48521 12.1021 4.26328C11.8372 4.13943 11.5602 4.04319 11.2755 3.97611C10.8117 3.86702 10.3321 3.84241 9.85957 3.90346C8.74378 4.04602 7.86719 4.49083 7.17907 5.26324C6.34909 6.19535 5.98996 7.28509 6.1099 8.50368C6.13115 8.71546 6.1709 8.92724 6.20996 9.13285C6.2175 9.17534 6.22572 9.21852 6.23394 9.26239L6.1517 9.2802C5.96041 9.31687 5.77227 9.36843 5.58901 9.43441C4.53217 9.84564 3.74948 10.4508 3.19433 11.2952C2.86402 11.7922 2.62497 12.3441 2.48839 12.925C2.33569 13.5572 2.32165 14.2149 2.44726 14.853C2.56172 15.4013 2.75363 16.1086 3.22585 16.7151L3.21627 16.7213C3.15938 16.7576 3.10181 16.7932 3.04424 16.8289C2.72759 17.0263 2.40066 17.2298 2.12171 17.4882C1.03838 18.4939 0.377025 19.8732 0.271209 21.3475C0.18211 22.7341 0.537829 23.9938 1.32738 25.0917C1.64745 25.5365 2.05112 26.0403 2.61861 26.4015L2.8023 26.5194C3.08272 26.7129 3.37946 26.8817 3.68917 27.0238C4.63614 27.4352 5.67576 27.5864 6.70068 27.4617C7.29591 27.3962 7.87649 27.2342 8.4196 26.982C8.48814 26.9477 8.56079 26.9134 8.63002 26.8737C8.90416 26.7229 9.00695 26.4207 8.87125 26.1547C8.74857 25.9149 8.46004 25.8278 8.16602 25.9443L8.00289 26.0129C7.74171 26.1233 7.47498 26.2201 7.20375 26.3028C6.22984 26.5769 5.22988 26.518 4.23197 26.1218C3.62473 25.8806 3.08123 25.4961 2.56995 24.9464C2.27729 24.6318 1.95311 24.2487 1.76532 23.7943C1.60638 23.3935 1.47831 22.981 1.38221 22.5607C1.24514 22.0124 1.25747 21.414 1.40893 20.73C1.6399 19.6841 2.19095 18.7973 3.04492 18.0927C3.24697 17.9356 3.45996 17.7932 3.6823 17.6664L3.72138 17.6431C3.80431 17.5938 3.89135 17.5499 3.98388 17.506C4.10771 17.4475 4.22767 17.3811 4.34301 17.3073C4.37581 17.285 4.40495 17.2577 4.42937 17.2264C4.50796 17.1275 4.54703 17.0029 4.53902 16.8769C4.5188 16.7526 4.46897 16.6351 4.39373 16.5342C4.37385 16.5061 4.35466 16.4821 4.33821 16.4656C3.93495 16.0008 3.65101 15.4447 3.51096 14.8454C3.34875 14.1571 3.38584 13.4368 3.61788 12.7687C3.64256 12.694 3.66928 12.6207 3.69875 12.5487C3.90435 12.0382 4.22168 11.5801 4.62743 11.2082C5.0057 10.8529 5.45552 10.5825 5.94678 10.4152C6.26018 10.3085 6.58457 10.2372 6.91384 10.2027C7.15715 10.1753 7.31614 10.0937 7.39976 9.95324C7.48338 9.81274 7.47995 9.63454 7.38811 9.40494C7.13179 8.77577 7.05503 8.19183 7.15166 7.62298C7.22911 7.1672 7.35726 6.82246 7.55191 6.53666C7.62365 6.43111 7.69516 6.32534 7.76644 6.21933L7.86925 6.0665C7.94327 5.99796 8.01591 5.92942 8.08582 5.86089C8.15573 5.79235 8.2133 5.73546 8.27635 5.67721L8.27978 5.67378L8.33667 5.62238C8.3395 5.62046 8.34203 5.61816 8.3442 5.61552C8.42776 5.54052 8.51817 5.47352 8.61424 5.41539C8.68757 5.37222 8.76023 5.33178 8.83288 5.29408C9.2943 5.0413 9.81117 4.90684 10.3373 4.90274C10.626 4.90573 10.9127 4.95193 11.1878 5.03981C11.4868 5.13631 11.7725 5.26985 12.0384 5.43733C12.4119 5.67145 12.7311 5.98271 12.9746 6.35024C13.0123 6.40576 13.0493 6.46333 13.0849 6.52295C13.433 7.08683 13.5765 7.7533 13.4914 8.41047C13.4612 8.65309 13.5016 8.82923 13.6133 8.94986C13.7251 9.07048 13.9033 9.12531 14.1534 9.11297C14.2816 9.10681 14.4145 9.10132 14.5489 9.09995H14.5598C14.6969 9.09995 14.834 9.09995 14.9711 9.11092C15.5831 9.16155 16.1694 9.37944 16.666 9.74077C16.7953 9.83103 16.92 9.92779 17.0395 10.0307C17.447 10.3787 17.7713 10.8136 17.9888 11.3034C18.4589 12.3534 18.4493 13.3979 17.9607 14.4966C17.7749 14.914 17.4809 15.3012 17.0251 15.7172C16.9498 15.7831 16.8935 15.8679 16.8621 15.9629C16.8306 16.0578 16.8252 16.1595 16.8462 16.2573C16.8667 16.3466 16.9106 16.4287 16.9735 16.4953C17.0364 16.5618 17.116 16.6103 17.204 16.6356C18.3372 16.9811 19.3163 17.7074 19.9756 18.6917C20.1817 19.0101 20.3544 19.3489 20.491 19.7027C20.6089 20.0045 20.6959 20.3175 20.7508 20.6368C20.7953 20.9011 20.8168 21.1687 20.8152 21.4366C20.8134 21.7092 20.7889 21.9811 20.7419 22.2495C20.6314 22.9304 20.382 23.5813 20.0092 24.1617C19.7914 24.4913 19.5313 24.7908 19.2355 25.0527L19.1176 25.1568C18.8712 25.3799 18.6049 25.5797 18.3218 25.7538C17.7252 26.1159 17.0572 26.3446 16.3637 26.4241C15.3636 26.5443 14.3505 26.3581 13.4585 25.8902C13.1912 25.7531 12.869 25.8367 12.7388 26.0787C12.7043 26.1392 12.6824 26.2062 12.6744 26.2754C12.6664 26.3447 12.6725 26.4148 12.6922 26.4817C12.7161 26.5524 12.7538 26.6177 12.8031 26.6739C12.8524 26.73 12.9123 26.7758 12.9794 26.8086C13.5301 27.097 14.1218 27.2993 14.7339 27.4083C15.0897 27.4724 15.4505 27.5049 15.812 27.5056C16.1568 27.506 16.5009 27.475 16.8401 27.4131C17.6117 27.2826 18.3486 26.9963 19.0058 26.5714C19.0785 26.5235 19.1518 26.4769 19.2252 26.4296C19.4243 26.3083 19.6155 26.1744 19.7975 26.0286C19.9423 25.8998 20.074 25.757 20.1909 25.6023C20.232 25.5516 20.2731 25.5002 20.3149 25.4509C20.3567 25.4015 20.4088 25.3433 20.4568 25.2898C20.5954 25.1438 20.7202 24.9852 20.8296 24.8162C21.2731 24.0829 21.5472 23.4297 21.6939 22.7601C21.8716 21.9705 21.8908 21.1535 21.7501 20.3565C21.6308 19.6665 21.3845 19.0046 21.0236 18.4046Z" fill="url(#paint0_linear_14826_27858)"/>
<path d="M30.0088 12.1231C30.0088 12.0834 30.0054 12.0429 30.004 12.0025C29.9958 11.814 29.9876 11.6187 29.9615 11.4247C29.9355 11.2308 29.9135 11.045 29.893 10.8545C29.8345 10.2731 29.743 9.69559 29.6188 9.12463C29.4398 8.36698 29.1816 7.63027 28.8485 6.92664C28.3708 5.91357 27.7754 4.96028 27.0747 4.08646C26.8411 3.80648 26.5936 3.5384 26.3332 3.2832C26.2502 3.1989 26.1673 3.11529 26.0857 3.0303C25.5425 2.46984 24.9433 1.96644 24.2976 1.52797C23.8624 1.2312 23.4011 0.962534 22.955 0.70552C22.759 0.591063 22.5561 0.473179 22.3587 0.35461C22.2622 0.291635 22.1497 0.257703 22.0345 0.256852C21.9193 0.256002 21.8063 0.288269 21.709 0.349812L21.5417 0.44782C21.3229 0.582141 21.0963 0.703434 20.8632 0.811067C20.6587 0.907059 20.4648 1.02421 20.2847 1.16061C20.2196 1.20653 20.1552 1.25245 20.0894 1.29768C19.8468 1.45874 19.6097 1.63694 19.3862 1.80897L19.1614 1.97894C18.9812 2.11601 18.7947 2.25309 18.6227 2.4121C18.3239 2.68624 18.0059 2.98164 17.7084 3.30308L17.5803 3.44015C17.3671 3.66838 17.1499 3.90209 16.9429 4.1454C16.8188 4.29138 16.6989 4.4408 16.5865 4.59569C16.2176 5.12011 15.8767 5.66368 15.5653 6.22413C15.5392 6.27005 15.5077 6.31597 15.4748 6.36463C15.3652 6.52433 15.2418 6.70732 15.2439 6.95679C15.2439 7.33855 15.4769 7.45643 15.6133 7.49207C15.7329 7.52194 15.8592 7.50954 15.9707 7.45695C16.0823 7.40437 16.1722 7.31484 16.2253 7.20353C16.2637 7.13088 16.3007 7.05823 16.3384 6.98558C16.4323 6.80327 16.5296 6.61479 16.6331 6.43728C17.0584 5.7118 17.5523 5.02878 18.108 4.39762C18.7489 3.67069 19.4733 3.02195 20.2662 2.46487C20.5938 2.23047 20.9516 2.01869 21.2943 1.81377C21.5198 1.68012 21.7528 1.53962 21.9797 1.39706C22.0297 1.36485 22.0338 1.36485 22.0935 1.39706C22.8683 1.79327 23.5971 2.27365 24.2668 2.82949C24.8422 3.31113 25.3893 3.82555 25.9055 4.3702C26.3112 4.81693 26.6828 5.29346 27.0171 5.79577C27.2965 6.21772 27.5484 6.65727 27.7711 7.11169C28.1482 7.84528 28.4294 8.62431 28.6079 9.42962C28.7503 10.0925 28.8544 10.7629 28.9197 11.4378C28.9314 11.5556 28.9417 11.6735 28.9492 11.7928C28.9988 12.6738 28.941 13.5575 28.7772 14.4246C28.6353 15.2114 28.4859 15.8639 28.2207 16.4876C28.1343 16.6932 28.0555 16.8988 27.9787 17.0989L27.8992 17.3045C27.8184 17.5101 27.7341 17.7233 27.6402 17.9214C27.3397 18.5745 26.9722 19.1947 26.5436 19.7719C26.4853 19.8493 26.427 19.9247 26.3667 19.9994C26.2434 20.1529 26.1207 20.3106 26.0021 20.4634C25.7664 20.767 25.5224 21.0802 25.264 21.3702C25.0275 21.6347 24.7602 21.8856 24.5012 22.1275C24.3888 22.233 24.2764 22.3379 24.166 22.4448C24.1028 22.5039 24.052 22.575 24.0167 22.654C23.9813 22.7329 23.9622 22.8182 23.9604 22.9047C23.9591 22.9697 23.971 23.0342 23.9954 23.0944C24.0198 23.1546 24.0562 23.2092 24.1023 23.2549C24.2002 23.3425 24.3281 23.3889 24.4594 23.3845C24.625 23.3857 24.7848 23.3236 24.9062 23.2111C25.0872 23.0342 25.2701 22.854 25.449 22.6737C26.0522 22.0679 26.7464 21.3332 27.329 20.4806C27.7548 19.8712 28.1392 19.234 28.4797 18.5732C28.5314 18.4704 28.5814 18.3662 28.6298 18.2606C29.2898 16.8296 29.6874 15.5054 29.8464 14.2121C29.8998 13.7714 29.9403 13.3212 29.9793 12.8901C29.9978 12.692 30.0157 12.4939 30.0348 12.2958L30.0499 12.1389L30.0088 12.1231Z" fill="url(#paint1_linear_14826_27858)"/>
<path d="M10.0638 21.7087C9.93977 21.6443 9.81502 21.5717 9.69371 21.5072L9.54362 21.4236C9.38735 21.3379 9.23246 21.2502 9.07756 21.1618C8.72254 20.961 8.35518 20.7506 7.98097 20.5696C7.63074 20.3997 7.27573 20.1865 7.0475 19.7849C6.83572 19.4114 6.59859 19.0474 6.36899 18.6952C6.29154 18.5766 6.2134 18.4573 6.13732 18.3381C6.00368 18.1325 5.84468 18.0708 5.73502 18.0578C5.72131 18.0578 5.70623 18.0578 5.69115 18.0578C5.61442 18.058 5.5385 18.0736 5.46788 18.1036C5.39726 18.1336 5.33336 18.1775 5.27992 18.2325L5.26005 18.2387C5.2388 18.2449 5.2155 18.2524 5.19151 18.262L5.0373 18.3216L5.09282 18.4731C5.25045 18.9248 5.515 19.3209 5.77133 19.7068C5.90018 19.8994 6.03246 20.0974 6.15171 20.303L6.0633 20.3277C5.83781 20.3908 5.62536 20.4504 5.40741 20.5073C5.25663 20.5463 5.10515 20.5827 4.95369 20.6197C4.75904 20.6663 4.55755 20.7149 4.36016 20.7691C4.21144 20.8095 4.06544 20.8582 3.92426 20.9062C3.82625 20.9391 3.72824 20.9747 3.62886 21.0014C3.50094 21.0422 3.39144 21.1267 3.31952 21.2401C3.2476 21.3535 3.21785 21.4886 3.23546 21.6217C3.24962 21.682 3.27565 21.7388 3.31201 21.789C3.34837 21.8391 3.39434 21.8815 3.44724 21.9137C3.53743 21.9748 3.64328 22.0089 3.75223 22.0117C3.76888 22.013 3.78561 22.013 3.80226 22.0117C3.81885 22.0102 3.83532 22.0076 3.8516 22.0041C4.16071 21.9356 4.51231 21.8568 4.85431 21.7615C5.22989 21.656 5.60821 21.5449 5.97763 21.438C6.26069 21.3551 6.54307 21.2728 6.82681 21.192C6.84381 21.1876 6.86143 21.1862 6.8789 21.1878C7.32234 21.4154 7.78838 21.6587 8.3449 21.9548C8.44977 22.0103 8.55052 22.0692 8.65744 22.1275C8.83015 22.2248 9.00835 22.3256 9.19272 22.4133C9.31334 22.4709 9.34212 22.5188 9.34144 22.658C9.33732 23.549 9.34144 24.4578 9.34144 25.335C9.34144 25.7965 9.34144 26.2578 9.34144 26.7188C9.34144 27.0629 9.34144 27.4067 9.34144 27.7503C9.34144 28.2157 9.33732 28.6975 9.34144 29.1711C9.34144 29.3116 9.31608 29.3595 9.20436 29.4164C8.66223 29.6961 8.11736 29.9901 7.59031 30.2752C7.41166 30.3721 7.23256 30.4685 7.05299 30.5644C6.98686 30.5981 6.92808 30.6446 6.88007 30.7012C6.83207 30.7578 6.79579 30.8233 6.77335 30.8941C6.75486 30.9581 6.7494 31.0252 6.75729 31.0913C6.76518 31.1575 6.78625 31.2214 6.81927 31.2793C6.86164 31.3617 6.92587 31.4309 7.00493 31.4792C7.08399 31.5276 7.17483 31.5532 7.2675 31.5534C7.36305 31.5528 7.45705 31.5293 7.54165 31.4849C7.69792 31.404 7.85281 31.3218 8.00771 31.2395C8.19001 31.1422 8.37848 31.0421 8.56491 30.9469C8.68896 30.8831 8.81781 30.8207 8.94186 30.7604C9.10978 30.6789 9.28456 30.5953 9.45179 30.5048C9.56076 30.4465 9.66355 30.3807 9.76293 30.317C9.86231 30.2533 9.95485 30.1936 10.0522 30.1415C10.14 30.1005 10.2157 30.0375 10.272 29.9586C10.3283 29.8797 10.3633 29.7876 10.3736 29.6913C10.3736 29.6625 10.3784 29.633 10.3784 29.6022C10.3784 27.2034 10.3784 24.723 10.3784 22.2262C10.3839 22.1183 10.3568 22.0113 10.3007 21.9191C10.2446 21.8268 10.1621 21.7535 10.0638 21.7087Z" fill="url(#paint2_linear_14826_27858)"/>
<path d="M13.8944 31.2087L13.1555 30.8132C12.9047 30.6789 12.6534 30.545 12.4016 30.4116C12.2892 30.3513 12.2563 30.2985 12.2584 30.1765C12.2673 29.3541 12.2659 28.5193 12.2645 27.7092C12.2645 27.4446 12.2645 27.1801 12.2645 26.9155V26.0931C12.2645 25.2521 12.2645 24.3796 12.2645 23.5277C12.2631 23.4796 12.2691 23.4315 12.2824 23.3852C12.3173 23.3619 12.3509 23.3392 12.3893 23.3166C12.4983 23.2481 12.612 23.1919 12.732 23.1295C12.8005 23.0946 12.8649 23.061 12.9307 23.024L13.2227 22.865C13.5044 22.7114 13.7854 22.5586 14.065 22.4023C14.1041 22.3811 14.1432 22.3585 14.1815 22.3338C14.5605 22.1165 14.8093 21.9911 15.1376 22.1638C15.1836 22.1866 15.2321 22.2037 15.2822 22.2145L15.6935 22.3317C16.0608 22.4366 16.4412 22.5442 16.8175 22.6456C17.0635 22.7142 17.2609 22.6593 17.4035 22.4894C17.477 22.411 17.5208 22.3094 17.5273 22.2021C17.5338 22.0949 17.5026 21.9887 17.4391 21.902C17.3505 21.7846 17.2273 21.6981 17.0868 21.6546C16.631 21.5175 16.1801 21.3914 15.7037 21.2578L15.4474 21.1858L16.6955 19.2304C16.714 19.2016 16.7345 19.1742 16.7544 19.1461C16.8049 19.0826 16.8481 19.0137 16.8833 18.9405C16.895 18.9137 16.9046 18.8859 16.912 18.8576C16.949 18.7277 16.9339 18.5886 16.8699 18.4697C16.8059 18.3508 16.6981 18.2616 16.5694 18.2209C16.3363 18.1427 16.0711 18.2524 15.9251 18.4882C15.8744 18.5697 15.8244 18.652 15.7743 18.7335C15.6873 18.8761 15.6002 19.018 15.5112 19.1585C15.4936 19.1826 15.4743 19.2055 15.4536 19.227C15.4196 19.2637 15.3886 19.3031 15.3611 19.3449C15.1989 19.6062 15.0369 19.8674 14.8751 20.1283C14.7134 20.3892 14.5523 20.6489 14.3919 20.9075C14.3226 21.0406 14.212 21.1476 14.0767 21.2125C13.7779 21.3433 13.486 21.4892 13.2021 21.6498C12.9458 21.7923 12.6874 21.9404 12.4373 22.0843C12.1672 22.2399 11.889 22.401 11.61 22.5538C11.4305 22.6525 11.2248 22.8122 11.2262 23.1706C11.231 25.0636 11.2303 26.9882 11.2303 28.8489V30.378C11.2303 30.4047 11.2303 30.4321 11.2262 30.4596C11.215 30.5495 11.2212 30.6407 11.2447 30.7282C11.3037 30.9133 11.3893 31.0387 11.4976 31.1011C11.8992 31.332 12.3153 31.5472 12.7183 31.7556L12.7669 31.7803C13.028 31.9173 13.3084 32.0544 13.6757 32.2264C13.7093 32.2418 13.7458 32.2495 13.7826 32.2491C13.8549 32.2488 13.9249 32.2247 13.9821 32.1805C14.1877 32.0112 14.2871 31.8378 14.2699 31.659C14.2528 31.4801 14.1294 31.3341 13.8944 31.2087Z" fill="url(#paint3_linear_14826_27858)"/>
<path d="M22.4327 13.5158C22.4327 13.6775 22.4327 13.8393 22.4327 14.001C22.4327 14.0922 22.4327 14.1827 22.4327 14.2752C22.4327 14.4808 22.4327 14.6905 22.4327 14.8968C22.4321 14.9393 22.4369 14.9817 22.4471 15.0229C22.4813 15.1527 22.5608 15.266 22.6712 15.3423C22.7315 15.3849 22.8006 15.4132 22.8734 15.4252C22.8961 15.4287 22.919 15.4305 22.9419 15.4307C22.9986 15.4309 23.0547 15.42 23.1071 15.3985C23.4635 15.2532 23.4656 14.9263 23.4663 14.7693C23.4717 13.8626 23.4717 12.9408 23.4717 12.0491V11.716C23.4717 11.4387 23.4717 11.1611 23.4717 10.8833C23.4717 10.2726 23.4717 9.6414 23.4717 9.02113C23.4758 8.98886 23.4894 8.95854 23.5108 8.93409C23.617 8.82992 23.7315 8.72848 23.8418 8.62773C23.9227 8.55919 24.0029 8.4838 24.0817 8.40978C24.5745 7.94716 25.0728 7.47631 25.5621 7.01094L25.5984 6.97667C25.7361 6.85021 25.8667 6.71636 25.9898 6.57573C26.0739 6.47529 26.1181 6.34745 26.1141 6.21653C26.11 6.08561 26.058 5.96074 25.9679 5.86568C25.8705 5.77102 25.7401 5.71806 25.6043 5.71806C25.4685 5.71806 25.338 5.77102 25.2407 5.86568C25.0173 6.07129 24.7945 6.27691 24.5793 6.48252L24.2311 6.80807L23.4656 7.51606C23.4656 7.36208 23.4656 7.20764 23.4656 7.05275C23.4656 6.50445 23.4656 5.94176 23.4656 5.38592C23.4656 5.01582 23.26 4.77594 22.9413 4.77526C22.8779 4.77435 22.815 4.78599 22.7562 4.80952C22.6974 4.83305 22.6438 4.86799 22.5986 4.91233C22.4862 5.02473 22.43 5.18648 22.4313 5.40237C22.4382 6.73473 22.4368 8.08971 22.4362 9.39946C22.4362 9.81434 22.4362 10.2292 22.4362 10.6441C22.2909 10.4789 22.1407 10.3096 21.9797 10.152C21.7802 9.95735 21.5685 9.77025 21.3683 9.58862C21.247 9.48102 21.1264 9.37341 21.0078 9.26376C20.8893 9.1541 20.783 9.05266 20.6706 8.94643C20.5336 8.80935 20.3855 8.67228 20.2388 8.54206C20.1407 8.4512 20.0123 8.40005 19.8786 8.39853C19.7448 8.39701 19.6153 8.44523 19.5151 8.53384C19.352 8.68599 19.2924 9.0554 19.4589 9.25279C19.5721 9.38564 19.6939 9.51088 19.8235 9.62769C20.0332 9.81959 20.2434 10.0106 20.454 10.2007C20.6782 10.4063 20.9023 10.6057 21.125 10.8106C21.3073 10.9779 21.4876 11.1472 21.6679 11.3158C21.8872 11.5214 22.1133 11.7338 22.3395 11.9394C22.3722 11.9638 22.3984 11.9957 22.4159 12.0325C22.4333 12.0693 22.4415 12.1099 22.4396 12.1505C22.4327 12.6022 22.4327 13.0669 22.4327 13.5158Z" fill="url(#paint4_linear_14826_27858)"/>
<path d="M25.4662 29.1498C25.3711 29.0716 25.2701 29.001 25.1639 28.9387C25.0269 28.862 24.8761 28.777 24.7129 28.6872C24.4388 28.5385 24.1407 28.3767 23.8357 28.2218C23.6773 28.1409 23.578 28.0587 23.5218 27.9477C23.5156 27.9353 23.5101 27.9223 23.5046 27.91C23.4941 27.8831 23.4858 27.8553 23.48 27.827C23.4666 27.7619 23.4604 27.6955 23.4615 27.629C23.4615 27.3512 23.4633 27.0731 23.4669 26.7949C23.4731 25.6811 23.4752 24.5619 23.4752 23.4509C23.4752 22.6175 23.4752 21.7882 23.4752 20.9699C23.4752 20.2745 23.4752 19.5784 23.4752 18.8816C23.4752 18.7904 23.4752 18.7 23.4752 18.6074C23.4752 18.3792 23.4711 18.1441 23.4827 17.9152C23.4881 17.8437 23.5162 17.7757 23.5629 17.7212C23.7685 17.5108 23.9919 17.3045 24.2064 17.1044L24.4347 16.8919L24.9144 16.4444C25.2539 16.1246 25.593 15.8047 25.9315 15.4849C26.0482 15.377 26.1176 15.2276 26.1248 15.0689C26.1266 15.0058 26.1157 14.9429 26.0929 14.8841C26.07 14.8253 26.0357 14.7716 25.9918 14.7262C25.765 14.4925 25.4723 14.4911 25.229 14.7221C24.8487 15.0832 24.4621 15.4417 24.0639 15.807C23.9638 15.8995 23.8624 15.9907 23.761 16.0811C23.6335 16.1956 23.5012 16.3142 23.373 16.4348C23.2901 16.5129 23.2106 16.5959 23.1338 16.676C23.0024 16.8217 22.8584 16.9554 22.7034 17.0756C22.6157 17.1336 22.545 17.2139 22.4984 17.3082C22.4518 17.4024 22.431 17.5074 22.4382 17.6123V19.2387C22.4382 22.1858 22.443 25.2329 22.4272 28.23C22.4272 28.6104 22.6561 28.7687 22.8254 28.8846L22.8686 28.9147C23.012 29.0076 23.165 29.0846 23.3251 29.1443C23.4176 29.1827 23.5046 29.219 23.5869 29.2615C23.8364 29.3904 24.0879 29.5275 24.3312 29.659C24.4861 29.7433 24.6403 29.8276 24.7959 29.9106C24.8883 29.9627 24.9921 29.9912 25.0981 29.9935C25.1555 29.9938 25.2125 29.9834 25.266 29.9627C25.3654 29.925 25.5004 29.8311 25.5827 29.6028C25.593 29.5741 25.6046 29.546 25.619 29.5096L25.6978 29.3157L25.5902 29.2369C25.5464 29.2122 25.5066 29.1813 25.4662 29.1498Z" fill="url(#paint5_linear_14826_27858)"/>
<path d="M10.377 19.5293C10.377 16.6406 10.377 13.7518 10.377 10.8627V8.38648C10.377 8.36729 10.377 8.34741 10.377 8.32822C10.3801 8.25106 10.3764 8.17378 10.3661 8.09725C10.3509 7.97293 10.29 7.8587 10.1953 7.77685C10.1005 7.69499 9.9786 7.65137 9.8534 7.6545C9.60393 7.64559 9.41545 7.80391 9.35994 8.06573C9.34071 8.17543 9.33266 8.2868 9.33594 8.39813C9.33594 9.24754 9.33594 10.0969 9.33594 10.9463C9.33594 11.7327 9.33594 12.5188 9.33594 13.3047V13.3328C9.23108 13.2807 9.13033 13.2307 9.03095 13.1779C8.62613 12.9632 8.22199 12.7475 7.81854 12.5309L7.63692 12.4336L7.3189 12.2623C7.12083 12.1547 6.91658 12.0436 6.71302 11.9381C6.64738 11.9017 6.57521 11.8787 6.50063 11.8703C6.42606 11.862 6.35057 11.8685 6.27851 11.8894C6.21482 11.9102 6.15594 11.9436 6.10532 11.9875C6.05471 12.0314 6.01339 12.0849 5.98379 12.1451C5.95159 12.2082 5.93244 12.2771 5.92749 12.3478C5.92254 12.4185 5.93188 12.4895 5.95498 12.5564C5.97808 12.6234 6.01444 12.6851 6.0619 12.7377C6.10937 12.7903 6.16696 12.8328 6.23122 12.8626C6.72469 13.1197 7.1695 13.3527 7.61979 13.596C7.81375 13.7002 8.00633 13.8071 8.19892 13.914C8.53338 14.0991 8.87881 14.291 9.22698 14.4678C9.32567 14.5178 9.34143 14.5445 9.34074 14.6563C9.33595 15.43 9.33663 16.2169 9.33731 16.9776V18.1811C9.33731 18.6252 9.33731 19.0689 9.33731 19.5121C9.33556 19.6221 9.34988 19.7318 9.37981 19.8377C9.40132 19.9125 9.4404 19.9811 9.49381 20.0377C9.54723 20.0944 9.61342 20.1374 9.68686 20.1632C9.74024 20.1815 9.79629 20.1908 9.85271 20.1906C9.96669 20.19 10.0778 20.1549 10.1714 20.0899C10.3894 19.9391 10.3839 19.7355 10.377 19.5868C10.377 19.5697 10.377 19.5491 10.377 19.5293Z" fill="url(#paint6_linear_14826_27858)"/>
<path d="M12.246 12.0059C12.2452 11.9335 12.2287 11.8622 12.1977 11.7968C12.1668 11.7313 12.122 11.6734 12.0665 11.6269C12.0061 11.5784 11.9359 11.5438 11.8607 11.5254C11.7855 11.507 11.7071 11.5054 11.6312 11.5207C11.5777 11.53 11.5277 11.5537 11.4866 11.5892C11.4203 11.6534 11.3646 11.7276 11.3215 11.8092C11.3043 11.8373 11.2872 11.8661 11.2701 11.8908C11.2336 11.9512 11.2207 12.0229 11.2337 12.0923C11.2344 12.1003 11.2344 12.1083 11.2337 12.1163V20.4915C11.2317 20.5317 11.2317 20.572 11.2337 20.6121C11.2437 20.7385 11.2994 20.8569 11.3904 20.9452C11.4813 21.0335 11.6013 21.0856 11.7279 21.0919H11.7485C11.8741 21.0897 11.9943 21.0407 12.0857 20.9545C12.1771 20.8683 12.2331 20.7511 12.2426 20.6258C12.2543 20.4682 12.2604 20.3298 12.2604 20.2016V19.5395C12.2604 18.2956 12.2604 17.0091 12.2508 15.7439C12.2508 15.6021 12.2844 15.563 12.3879 15.5164C12.5195 15.4562 12.6478 15.3892 12.7724 15.3156C12.8313 15.2827 12.8903 15.2471 12.9499 15.2176L13.4722 14.94C13.7518 14.7913 14.0314 14.6432 14.3104 14.4931L14.5119 14.3849C14.8182 14.221 15.1342 14.0518 15.4392 13.8722C15.4979 13.8379 15.5487 13.7915 15.5882 13.7361C15.6277 13.6807 15.6549 13.6175 15.6681 13.5508C15.6756 13.5145 15.679 13.4775 15.6784 13.4404C15.6768 13.3475 15.6513 13.2567 15.6044 13.1765C15.5947 13.1604 15.5842 13.1449 15.5728 13.1299C15.4241 12.9291 15.0417 12.8613 14.8285 12.9977L14.7374 13.0566C14.6126 13.1375 14.4947 13.2142 14.3707 13.2787C14.1603 13.3876 13.9451 13.4952 13.736 13.5994C13.4989 13.718 13.2563 13.8407 13.0137 13.9668C12.8622 14.0463 12.7135 14.1333 12.5702 14.2176C12.4681 14.2772 12.3646 14.3389 12.2591 14.3972V13.0916H12.2426C12.2426 13.0264 12.2426 12.962 12.2426 12.8969C12.2501 12.6049 12.2508 12.3047 12.246 12.0059Z" fill="url(#paint7_linear_14826_27858)"/>
<path d="M21.4136 25.6743C21.3535 25.6262 21.2834 25.5923 21.2084 25.5749C21.1334 25.5576 21.0555 25.5574 20.9804 25.5742L20.9503 25.5825C20.7947 25.6277 20.5678 25.7689 20.5713 26.1993V26.2767C20.5713 26.5927 20.5767 26.9189 20.5644 27.2363C20.5524 27.2695 20.531 27.2986 20.5027 27.3199C20.4285 27.3708 20.3501 27.4153 20.2683 27.4528C20.2292 27.472 20.1895 27.4919 20.1511 27.5125L19.8386 27.6804C19.6076 27.8037 19.3766 27.9278 19.145 28.0498C18.9133 28.1718 18.6707 28.2986 18.4082 28.4329L18.1423 28.57C17.9367 28.6742 17.7907 28.9668 17.84 29.1868C17.867 29.302 17.9315 29.405 18.0235 29.4795C18.1154 29.554 18.2296 29.5957 18.3479 29.598H18.3877C18.4497 29.598 18.5112 29.5869 18.5693 29.5651C18.6501 29.5319 18.726 29.4876 18.7948 29.4336C18.8287 29.4085 18.8641 29.3856 18.901 29.365L21.3067 28.0799C21.4008 28.0369 21.4801 27.967 21.5345 27.8789C21.5889 27.7908 21.616 27.6886 21.6123 27.5851C21.6089 27.4117 21.6123 27.2349 21.6123 27.0635V26.8387C21.6123 26.7613 21.6123 26.6845 21.6123 26.6071C21.6123 26.4309 21.6123 26.2486 21.6123 26.0684C21.6112 25.9919 21.5927 25.9167 21.5583 25.8485C21.5238 25.7802 21.4744 25.7207 21.4136 25.6743Z" fill="url(#paint8_linear_14826_27858)"/>
<defs>
<linearGradient id="paint0_linear_14826_27858" x1="13.9825" y1="-21.9101" x2="13.9825" y2="45.589" gradientUnits="userSpaceOnUse">
<stop stop-color="#CDEC0F"/>
<stop offset="1" stop-color="#23B14D"/>
</linearGradient>
<linearGradient id="paint1_linear_14826_27858" x1="13.9825" y1="-21.9101" x2="13.9825" y2="45.589" gradientUnits="userSpaceOnUse">
<stop stop-color="#CDEC0F"/>
<stop offset="1" stop-color="#23B14D"/>
</linearGradient>
<linearGradient id="paint2_linear_14826_27858" x1="13.9825" y1="-21.9101" x2="13.9825" y2="45.589" gradientUnits="userSpaceOnUse">
<stop stop-color="#CDEC0F"/>
<stop offset="1" stop-color="#23B14D"/>
</linearGradient>
<linearGradient id="paint3_linear_14826_27858" x1="13.9825" y1="-21.9101" x2="13.9825" y2="45.589" gradientUnits="userSpaceOnUse">
<stop stop-color="#CDEC0F"/>
<stop offset="1" stop-color="#23B14D"/>
</linearGradient>
<linearGradient id="paint4_linear_14826_27858" x1="13.9825" y1="-21.9101" x2="13.9825" y2="45.589" gradientUnits="userSpaceOnUse">
<stop stop-color="#CDEC0F"/>
<stop offset="1" stop-color="#23B14D"/>
</linearGradient>
<linearGradient id="paint5_linear_14826_27858" x1="13.9825" y1="-21.9101" x2="13.9825" y2="45.589" gradientUnits="userSpaceOnUse">
<stop stop-color="#CDEC0F"/>
<stop offset="1" stop-color="#23B14D"/>
</linearGradient>
<linearGradient id="paint6_linear_14826_27858" x1="13.9825" y1="-21.9101" x2="13.9825" y2="45.589" gradientUnits="userSpaceOnUse">
<stop stop-color="#CDEC0F"/>
<stop offset="1" stop-color="#23B14D"/>
</linearGradient>
<linearGradient id="paint7_linear_14826_27858" x1="13.9825" y1="-21.9101" x2="13.9825" y2="45.589" gradientUnits="userSpaceOnUse">
<stop stop-color="#CDEC0F"/>
<stop offset="1" stop-color="#23B14D"/>
</linearGradient>
<linearGradient id="paint8_linear_14826_27858" x1="13.9825" y1="-21.9101" x2="13.9825" y2="45.589" gradientUnits="userSpaceOnUse">
<stop stop-color="#CDEC0F"/>
<stop offset="1" stop-color="#23B14D"/>
</linearGradient>
</defs>
</svg>
